<svg width="24" height="24" viewBox="0 0 24 24" fill="none" xmlns="http://www.w3.org/2000/svg">
<rect y="3.42993" width="24" height="17.1429" rx="2" fill="white"/>
<mask id="mask0_91_1587" style="mask-type:luminance" maskUnits="userSpaceOnUse" x="0" y="3" width="24" height="18">
<rect y="3.42993" width="24" height="17.1429" rx="2" fill="white"/>
</mask>
<g mask="url(#mask0_91_1587)">
<rect y="3.42993" width="24" height="17.1429" fill="#FF0000"/>
<path fill-rule="evenodd" clip-rule="evenodd" d="M10.2857 13.7155H7.19051C7.00642 13.7155 6.85718 13.5663 6.85718 13.3822V10.6203C6.85718 10.4362 7.00642 10.287 7.19051 10.287H10.2857V7.19173C10.2857 7.00764 10.435 6.8584 10.6191 6.8584H13.381C13.5651 6.8584 13.7143 7.00764 13.7143 7.19173V10.287H16.8096C16.9937 10.287 17.1429 10.4362 17.1429 10.6203V13.3822C17.1429 13.5663 16.9937 13.7155 16.8096 13.7155H13.7143V16.8108C13.7143 16.9949 13.5651 17.1441 13.381 17.1441H10.6191C10.435 17.1441 10.2857 16.9949 10.2857 16.8108V13.7155Z" fill="white"/>
</g>
</svg>
