<svg width="24" height="24" viewBox="0 0 24 24" fill="none" xmlns="http://www.w3.org/2000/svg">
<g clip-path="url(#clip0_612_11239)">
<path d="M12 24C18.6274 24 24 18.6274 24 12C24 5.37258 18.6274 0 12 0C5.37258 0 0 5.37258 0 12C0 18.6274 5.37258 24 12 24Z" fill="#6DA544"/>
<path d="M6.78296 14.3477C6.78296 15.2121 7.48374 15.9129 8.34816 15.9129H13.0438C13.0438 16.6332 13.6278 17.2172 14.3482 17.2172H15.9134C16.6337 17.2172 17.2177 16.6332 17.2177 15.9129V14.3477H6.78296Z" fill="#F0F0F0"/>
<path d="M17.3474 6.78296V10.4351C17.3474 11.0105 16.8793 11.4786 16.304 11.4786V13.0438C17.7424 13.0438 18.9126 11.8735 18.9126 10.4351V6.78296H17.3474Z" fill="#F0F0F0"/>
<path d="M6.1304 10.4349C6.1304 11.0103 5.6623 11.4784 5.08691 11.4784V13.0436C6.52537 13.0436 7.6956 11.8733 7.6956 10.4349V6.78271H6.1304V10.4349Z" fill="#F0F0F0"/>
<path d="M16.5654 6.78296H15.0002V10.4351H16.5654V6.78296Z" fill="#F0F0F0"/>
<path d="M12.6522 8.86993C12.6522 9.01379 12.5351 9.13079 12.3913 9.13079C12.2475 9.13079 12.1304 9.01374 12.1304 8.86993V6.78296H10.5652V8.86993C10.5652 9.01379 10.4482 9.13079 10.3044 9.13079C10.1606 9.13079 10.0435 9.01374 10.0435 8.86993V6.78296H8.47827V8.86993C8.47827 9.87685 9.29746 10.696 10.3044 10.696C10.6922 10.696 11.0518 10.5742 11.3479 10.3672C11.6439 10.5741 12.0036 10.696 12.3914 10.696C12.4695 10.696 12.5462 10.6906 12.6217 10.6809C12.5108 11.1379 12.0993 11.4786 11.6087 11.4786V13.0438C13.0472 13.0438 14.2174 11.8735 14.2174 10.4351V8.86993V6.78296H12.6522V8.86993H12.6522Z" fill="#F0F0F0"/>
<path d="M10.8261 11.478H8.47827V13.0432H10.8261V11.478Z" fill="#F0F0F0"/>
</g>
<defs>
<clipPath id="clip0_612_11239">
<rect width="24" height="24" fill="white"/>
</clipPath>
</defs>
</svg>
