<svg width="24" height="24" viewBox="0 0 24 24" fill="none" xmlns="http://www.w3.org/2000/svg">
<path d="M13.9195 1.56201L13.9099 6.18241L13.9003 10.8028L13.4593 9.73022V9.72747L12.8872 20.0134C13.4497 21.3775 13.7501 22.1063 13.7533 22.1091C13.7565 22.1118 14.0761 22.1283 14.4628 22.1448C15.6325 22.1943 17.0835 22.3016 18.1861 22.4198C18.4418 22.4473 18.6591 22.4611 18.6751 22.4501C18.6911 22.4391 18.6943 17.7362 18.6911 11.9964L18.6815 1.56201H13.9195Z" fill="url(#paint0_linear_130_6756)"/>
<path d="M5.3053 1.54816V11.9936C5.3053 17.7389 5.31169 22.4445 5.32128 22.4528C5.33087 22.461 5.74315 22.4253 6.24172 22.3785C6.74029 22.3318 7.42742 22.2713 7.76939 22.2465C8.29353 22.208 9.86595 22.1228 10.0449 22.12C10.0993 22.12 10.1024 21.8862 10.1088 17.6949L10.1184 13.2697L10.4987 14.1938C10.5563 14.3368 10.5755 14.3808 10.633 14.5211L11.2051 4.2379C11.0836 3.94362 11.1475 4.09764 11.0101 3.76211C10.5435 2.62626 10.1472 1.66642 10.1312 1.62242L10.0993 1.54541H5.3053V1.54816Z" fill="url(#paint1_linear_130_6756)"/>
<path d="M5.3053 1.54816L10.1153 13.2779V13.2724L10.4956 14.1965C12.6081 19.3421 13.7427 22.1034 13.7491 22.1089C13.7523 22.1116 14.0719 22.1281 14.4586 22.1446C15.6283 22.1941 17.0793 22.3014 18.1819 22.4197C18.4344 22.4472 18.6549 22.4609 18.6677 22.4499L13.8993 10.7999V10.8027L13.4583 9.73009C13.0268 8.68226 12.7392 7.98095 11.0037 3.7621C10.5371 2.62625 10.1408 1.66642 10.1248 1.62242L10.0929 1.54541H7.69909L5.3053 1.54816Z" fill="#E30A17"/>
<defs>
<linearGradient id="paint0_linear_130_6756" x1="20.8389" y1="17.1828" x2="13.2171" y2="20.53" gradientUnits="userSpaceOnUse">
<stop stop-color="#B20610"/>
<stop offset="0.255959" stop-color="#B20610"/>
<stop offset="1" stop-color="#590004"/>
</linearGradient>
<linearGradient id="paint1_linear_130_6756" x1="2.99404" y1="6.12837" x2="11.2367" y2="2.55029" gradientUnits="userSpaceOnUse">
<stop stop-color="#B20610"/>
<stop offset="0.255959" stop-color="#B20610"/>
<stop offset="1" stop-color="#590004"/>
</linearGradient>
</defs>
</svg>
