<svg xmlns="http://www.w3.org/2000/svg" xmlns:xlink="http://www.w3.org/1999/xlink" width="500" zoomAndPan="magnify" viewBox="0 0 375 374.999991" height="500" preserveAspectRatio="xMidYMid meet" version="1.0"><defs><clipPath id="a3e8e4afea"><path d="M 112.5 170 L 250 170 L 250 213 L 112.5 213 Z M 112.5 170 " clip-rule="nonzero"/></clipPath><clipPath id="2bc8296bc9"><path d="M 116 157.78125 L 246 157.78125 L 246 196 L 116 196 Z M 116 157.78125 " clip-rule="nonzero"/></clipPath><clipPath id="c69f4e6088"><path d="M 233 187 L 262.5 187 L 262.5 217 L 233 217 Z M 233 187 " clip-rule="nonzero"/></clipPath></defs><g clip-path="url(#a3e8e4afea)"><path fill="#f4f4f4" d="M 130.777344 170.960938 L 231.382812 170.960938 C 231.980469 170.960938 232.578125 170.992188 233.175781 171.050781 C 233.769531 171.109375 234.359375 171.195312 234.949219 171.3125 C 235.535156 171.429688 236.117188 171.574219 236.6875 171.746094 C 237.261719 171.917969 237.824219 172.121094 238.378906 172.347656 C 238.929688 172.578125 239.46875 172.832031 240 173.113281 C 240.527344 173.394531 241.039062 173.699219 241.539062 174.03125 C 242.035156 174.363281 242.515625 174.71875 242.976562 175.097656 C 243.441406 175.476562 243.882812 175.875 244.308594 176.296875 C 244.730469 176.71875 245.132812 177.160156 245.511719 177.625 C 245.890625 178.085938 246.246094 178.5625 246.578125 179.058594 C 246.914062 179.554688 247.21875 180.066406 247.503906 180.59375 C 247.785156 181.121094 248.039062 181.65625 248.269531 182.210938 C 248.5 182.761719 248.699219 183.320312 248.875 183.894531 C 249.046875 184.464844 249.191406 185.042969 249.308594 185.628906 C 249.425781 186.210938 249.515625 186.800781 249.574219 187.394531 C 249.632812 187.988281 249.660156 188.585938 249.660156 189.183594 L 249.660156 194.449219 C 249.660156 195.046875 249.632812 195.640625 249.574219 196.234375 C 249.515625 196.828125 249.425781 197.417969 249.308594 198.003906 C 249.191406 198.589844 249.046875 199.167969 248.875 199.738281 C 248.699219 200.308594 248.5 200.871094 248.269531 201.421875 C 248.039062 201.972656 247.785156 202.511719 247.503906 203.039062 C 247.21875 203.5625 246.914062 204.074219 246.578125 204.570312 C 246.246094 205.066406 245.890625 205.546875 245.511719 206.007812 C 245.132812 206.46875 244.730469 206.910156 244.308594 207.332031 C 243.882812 207.753906 243.441406 208.15625 242.976562 208.535156 C 242.515625 208.914062 242.035156 209.265625 241.539062 209.597656 C 241.039062 209.929688 240.527344 210.238281 240 210.519531 C 239.46875 210.800781 238.929688 211.054688 238.378906 211.28125 C 237.824219 211.511719 237.261719 211.710938 236.6875 211.886719 C 236.117188 212.058594 235.535156 212.203125 234.949219 212.320312 C 234.359375 212.4375 233.769531 212.523438 233.175781 212.582031 C 232.578125 212.640625 231.980469 212.667969 231.382812 212.667969 L 130.777344 212.667969 C 130.179688 212.667969 129.582031 212.640625 128.988281 212.582031 C 128.390625 212.523438 127.800781 212.4375 127.210938 212.320312 C 126.625 212.203125 126.046875 212.058594 125.472656 211.886719 C 124.898438 211.710938 124.335938 211.511719 123.785156 211.28125 C 123.230469 211.054688 122.691406 210.800781 122.160156 210.519531 C 121.632812 210.238281 121.121094 209.929688 120.625 209.597656 C 120.125 209.265625 119.644531 208.914062 119.183594 208.535156 C 118.71875 208.15625 118.277344 207.753906 117.855469 207.332031 C 117.429688 206.910156 117.027344 206.46875 116.648438 206.007812 C 116.269531 205.546875 115.914062 205.066406 115.582031 204.570312 C 115.246094 204.074219 114.941406 203.5625 114.660156 203.039062 C 114.375 202.511719 114.121094 201.972656 113.890625 201.421875 C 113.664062 200.871094 113.460938 200.308594 113.285156 199.738281 C 113.113281 199.167969 112.96875 198.589844 112.851562 198.003906 C 112.734375 197.417969 112.648438 196.828125 112.589844 196.234375 C 112.53125 195.640625 112.5 195.046875 112.5 194.449219 L 112.5 189.183594 C 112.5 188.585938 112.53125 187.988281 112.589844 187.394531 C 112.648438 186.800781 112.734375 186.210938 112.851562 185.628906 C 112.96875 185.042969 113.113281 184.464844 113.285156 183.894531 C 113.460938 183.320312 113.664062 182.761719 113.890625 182.210938 C 114.121094 181.65625 114.375 181.121094 114.660156 180.59375 C 114.941406 180.066406 115.246094 179.554688 115.582031 179.058594 C 115.914062 178.5625 116.269531 178.085938 116.648438 177.625 C 117.027344 177.160156 117.429688 176.71875 117.855469 176.296875 C 118.277344 175.875 118.71875 175.476562 119.183594 175.097656 C 119.644531 174.71875 120.125 174.363281 120.625 174.03125 C 121.121094 173.699219 121.632812 173.394531 122.160156 173.113281 C 122.691406 172.832031 123.230469 172.578125 123.785156 172.347656 C 124.335938 172.121094 124.898438 171.917969 125.472656 171.746094 C 126.046875 171.574219 126.625 171.429688 127.210938 171.3125 C 127.800781 171.195312 128.390625 171.109375 128.988281 171.050781 C 129.582031 170.992188 130.179688 170.960938 130.777344 170.960938 Z M 130.777344 170.960938 " fill-opacity="1" fill-rule="nonzero"/></g><path fill="#0e489f" d="M 231.828125 207.070312 L 130.332031 207.070312 C 129.441406 207.070312 128.554688 206.984375 127.679688 206.808594 C 126.804688 206.636719 125.957031 206.378906 125.128906 206.039062 C 124.304688 205.699219 123.523438 205.28125 122.78125 204.785156 C 122.039062 204.292969 121.351562 203.730469 120.71875 203.101562 C 120.089844 202.472656 119.527344 201.785156 119.03125 201.046875 C 118.535156 200.308594 118.117188 199.527344 117.773438 198.703125 C 117.433594 197.882812 117.175781 197.035156 117 196.164062 C 116.828125 195.289062 116.738281 194.410156 116.738281 193.519531 L 116.738281 177.8125 C 116.738281 177.363281 116.785156 176.917969 116.871094 176.476562 C 116.960938 176.035156 117.089844 175.605469 117.261719 175.191406 C 117.433594 174.773438 117.648438 174.378906 117.898438 174.007812 C 118.148438 173.632812 118.433594 173.285156 118.753906 172.96875 C 119.070312 172.648438 119.417969 172.367188 119.792969 172.117188 C 120.167969 171.867188 120.566406 171.65625 120.980469 171.484375 C 121.398438 171.3125 121.828125 171.179688 122.269531 171.09375 C 122.714844 171.003906 123.160156 170.960938 123.613281 170.960938 L 238.546875 170.960938 C 239 170.960938 239.445312 171.003906 239.890625 171.09375 C 240.332031 171.179688 240.761719 171.3125 241.179688 171.484375 C 241.59375 171.65625 241.992188 171.867188 242.367188 172.117188 C 242.742188 172.367188 243.089844 172.648438 243.410156 172.96875 C 243.726562 173.285156 244.011719 173.632812 244.261719 174.007812 C 244.511719 174.378906 244.726562 174.773438 244.898438 175.191406 C 245.070312 175.605469 245.199219 176.035156 245.289062 176.476562 C 245.378906 176.917969 245.421875 177.363281 245.421875 177.8125 L 245.421875 193.519531 C 245.421875 194.410156 245.335938 195.289062 245.160156 196.164062 C 244.984375 197.035156 244.726562 197.882812 244.386719 198.703125 C 244.042969 199.527344 243.625 200.308594 243.128906 201.046875 C 242.632812 201.785156 242.070312 202.472656 241.441406 203.101562 C 240.808594 203.730469 240.121094 204.292969 239.378906 204.785156 C 238.636719 205.28125 237.855469 205.699219 237.03125 206.039062 C 236.207031 206.378906 235.355469 206.636719 234.480469 206.808594 C 233.605469 206.984375 232.71875 207.070312 231.828125 207.070312 Z M 231.828125 207.070312 " fill-opacity="1" fill-rule="nonzero"/><g clip-path="url(#2bc8296bc9)"><path fill="#1670f7" d="M 134.449219 157.828125 L 227.710938 157.828125 C 228.292969 157.828125 228.871094 157.855469 229.449219 157.914062 C 230.023438 157.96875 230.597656 158.054688 231.167969 158.167969 C 231.734375 158.28125 232.296875 158.421875 232.851562 158.589844 C 233.40625 158.757812 233.953125 158.949219 234.488281 159.171875 C 235.023438 159.394531 235.546875 159.640625 236.058594 159.914062 C 236.570312 160.1875 237.066406 160.484375 237.550781 160.804688 C 238.03125 161.125 238.5 161.46875 238.945312 161.835938 C 239.394531 162.203125 239.824219 162.589844 240.234375 163 C 240.644531 163.40625 241.035156 163.835938 241.402344 164.28125 C 241.769531 164.730469 242.113281 165.195312 242.4375 165.675781 C 242.757812 166.15625 243.058594 166.648438 243.332031 167.160156 C 243.601562 167.671875 243.851562 168.191406 244.074219 168.726562 C 244.296875 169.261719 244.492188 169.804688 244.660156 170.359375 C 244.828125 170.910156 244.96875 171.472656 245.082031 172.039062 C 245.195312 172.605469 245.277344 173.175781 245.335938 173.75 C 245.394531 174.328125 245.421875 174.902344 245.421875 175.480469 L 245.421875 177.851562 C 245.421875 178.429688 245.394531 179.007812 245.335938 179.582031 C 245.277344 180.160156 245.195312 180.730469 245.082031 181.296875 C 244.96875 181.863281 244.828125 182.425781 244.660156 182.976562 C 244.492188 183.53125 244.296875 184.074219 244.074219 184.609375 C 243.851562 185.144531 243.601562 185.664062 243.332031 186.175781 C 243.058594 186.683594 242.757812 187.179688 242.4375 187.660156 C 242.113281 188.140625 241.769531 188.605469 241.402344 189.050781 C 241.035156 189.5 240.644531 189.925781 240.234375 190.335938 C 239.824219 190.746094 239.394531 191.132812 238.945312 191.5 C 238.5 191.867188 238.03125 192.210938 237.550781 192.53125 C 237.066406 192.851562 236.570312 193.148438 236.058594 193.421875 C 235.546875 193.695312 235.023438 193.941406 234.488281 194.164062 C 233.953125 194.382812 233.40625 194.578125 232.851562 194.746094 C 232.296875 194.914062 231.734375 195.054688 231.167969 195.167969 C 230.597656 195.28125 230.023438 195.363281 229.449219 195.421875 C 228.871094 195.476562 228.292969 195.507812 227.710938 195.507812 L 134.449219 195.507812 C 133.867188 195.507812 133.289062 195.476562 132.714844 195.421875 C 132.136719 195.363281 131.5625 195.28125 130.992188 195.167969 C 130.425781 195.054688 129.863281 194.914062 129.308594 194.746094 C 128.753906 194.578125 128.207031 194.382812 127.671875 194.164062 C 127.136719 193.941406 126.613281 193.695312 126.101562 193.421875 C 125.589844 193.148438 125.09375 192.851562 124.609375 192.53125 C 124.128906 192.210938 123.664062 191.867188 123.214844 191.5 C 122.765625 191.132812 122.335938 190.746094 121.925781 190.335938 C 121.515625 189.925781 121.128906 189.5 120.757812 189.050781 C 120.390625 188.605469 120.046875 188.140625 119.722656 187.660156 C 119.402344 187.179688 119.105469 186.683594 118.832031 186.175781 C 118.558594 185.664062 118.308594 185.144531 118.085938 184.609375 C 117.867188 184.074219 117.671875 183.53125 117.5 182.976562 C 117.332031 182.425781 117.191406 181.863281 117.078125 181.296875 C 116.964844 180.730469 116.882812 180.160156 116.824219 179.582031 C 116.769531 179.007812 116.738281 178.429688 116.738281 177.851562 L 116.738281 175.480469 C 116.738281 174.902344 116.769531 174.328125 116.824219 173.75 C 116.882812 173.175781 116.964844 172.605469 117.078125 172.039062 C 117.191406 171.472656 117.332031 170.910156 117.5 170.359375 C 117.671875 169.804688 117.867188 169.261719 118.085938 168.726562 C 118.308594 168.191406 118.558594 167.671875 118.832031 167.160156 C 119.105469 166.648438 119.402344 166.15625 119.722656 165.675781 C 120.046875 165.195312 120.390625 164.730469 120.757812 164.28125 C 121.128906 163.835938 121.515625 163.40625 121.925781 163 C 122.335938 162.589844 122.765625 162.203125 123.214844 161.835938 C 123.664062 161.46875 124.128906 161.125 124.609375 160.804688 C 125.09375 160.484375 125.589844 160.1875 126.101562 159.914062 C 126.613281 159.640625 127.136719 159.394531 127.671875 159.171875 C 128.207031 158.949219 128.753906 158.757812 129.308594 158.589844 C 129.863281 158.421875 130.425781 158.28125 130.992188 158.167969 C 131.5625 158.054688 132.136719 157.96875 132.714844 157.914062 C 133.289062 157.855469 133.867188 157.828125 134.449219 157.828125 Z M 134.449219 157.828125 " fill-opacity="1" fill-rule="nonzero"/></g><path fill="#0e489f" d="M 151.15625 182.636719 L 151.15625 166.054688 L 158.222656 166.054688 C 160 166.054688 161.292969 166.203125 162.097656 166.5 C 162.925781 166.808594 163.574219 167.339844 164.03125 168.089844 C 164.535156 168.890625 164.773438 169.761719 164.757812 170.703125 C 164.757812 171.949219 164.390625 172.976562 163.660156 173.785156 C 162.925781 174.597656 161.828125 175.105469 160.367188 175.316406 C 161.035156 175.695312 161.636719 176.15625 162.167969 176.710938 C 162.640625 177.214844 163.277344 178.113281 164.078125 179.402344 L 166.109375 182.636719 L 162.09375 182.636719 L 159.664062 179.027344 C 158.800781 177.738281 158.210938 176.925781 157.894531 176.589844 C 157.613281 176.277344 157.277344 176.046875 156.886719 175.902344 C 156.53125 175.777344 155.964844 175.714844 155.195312 175.714844 L 154.515625 175.714844 L 154.515625 182.636719 Z M 154.515625 173.066406 L 157 173.066406 C 158.609375 173.066406 159.617188 173 160.015625 172.863281 C 160.410156 172.738281 160.726562 172.503906 160.957031 172.164062 C 161.203125 171.785156 161.316406 171.367188 161.300781 170.917969 C 161.300781 170.359375 161.148438 169.910156 160.851562 169.566406 C 160.550781 169.222656 160.128906 169.007812 159.585938 168.917969 C 159.3125 168.878906 158.496094 168.859375 157.136719 168.859375 L 154.515625 168.859375 Z M 154.515625 173.066406 " fill-opacity="1" fill-rule="nonzero"/><path fill="#0e489f" d="M 167.925781 182.636719 L 167.925781 166.054688 L 180.257812 166.054688 L 180.257812 168.859375 L 171.285156 168.859375 L 171.285156 172.535156 L 179.632812 172.535156 L 179.632812 175.328125 L 171.285156 175.328125 L 171.285156 179.84375 L 180.574219 179.84375 L 180.574219 182.636719 Z M 167.925781 182.636719 " fill-opacity="1" fill-rule="nonzero"/><path fill="#0e489f" d="M 183.457031 182.636719 L 183.457031 166.054688 L 186.726562 166.054688 L 193.53125 177.128906 L 193.53125 166.054688 L 196.652344 166.054688 L 196.652344 182.636719 L 193.28125 182.636719 L 186.578125 171.824219 L 186.578125 182.636719 Z M 183.457031 182.636719 " fill-opacity="1" fill-rule="nonzero"/><path fill="#0e489f" d="M 203.949219 182.636719 L 203.949219 168.859375 L 199.011719 168.859375 L 199.011719 166.054688 L 212.230469 166.054688 L 212.230469 168.859375 L 207.304688 168.859375 L 207.304688 182.636719 Z M 203.949219 182.636719 " fill-opacity="1" fill-rule="nonzero"/><path fill="#ffffff" d="M 151.15625 183.992188 L 151.15625 167.410156 L 158.222656 167.410156 C 160 167.410156 161.292969 167.558594 162.097656 167.855469 C 162.925781 168.164062 163.574219 168.691406 164.03125 169.445312 C 164.535156 170.246094 164.773438 171.117188 164.757812 172.058594 C 164.757812 173.300781 164.390625 174.328125 163.660156 175.140625 C 162.925781 175.949219 161.828125 176.460938 160.367188 176.671875 C 161.035156 177.050781 161.636719 177.511719 162.167969 178.0625 C 162.640625 178.570312 163.277344 179.464844 164.078125 180.757812 L 166.109375 183.992188 L 162.09375 183.992188 L 159.664062 180.382812 C 158.800781 179.09375 158.210938 178.28125 157.894531 177.945312 C 157.613281 177.632812 157.277344 177.402344 156.886719 177.253906 C 156.53125 177.132812 155.964844 177.070312 155.195312 177.070312 L 154.515625 177.070312 L 154.515625 183.992188 Z M 154.515625 174.421875 L 157 174.421875 C 158.609375 174.421875 159.617188 174.355469 160.015625 174.21875 C 160.410156 174.09375 160.726562 173.859375 160.957031 173.519531 C 161.203125 173.140625 161.316406 172.722656 161.300781 172.273438 C 161.300781 171.714844 161.148438 171.265625 160.851562 170.921875 C 160.550781 170.578125 160.128906 170.363281 159.585938 170.273438 C 159.3125 170.234375 158.496094 170.214844 157.136719 170.214844 L 154.515625 170.214844 Z M 154.515625 174.421875 " fill-opacity="1" fill-rule="nonzero"/><path fill="#ffffff" d="M 167.925781 183.992188 L 167.925781 167.410156 L 180.257812 167.410156 L 180.257812 170.214844 L 171.285156 170.214844 L 171.285156 173.890625 L 179.632812 173.890625 L 179.632812 176.683594 L 171.285156 176.683594 L 171.285156 181.195312 L 180.574219 181.195312 L 180.574219 183.992188 Z M 167.925781 183.992188 " fill-opacity="1" fill-rule="nonzero"/><path fill="#ffffff" d="M 183.457031 183.992188 L 183.457031 167.410156 L 186.726562 167.410156 L 193.53125 178.484375 L 193.53125 167.410156 L 196.652344 167.410156 L 196.652344 183.992188 L 193.28125 183.992188 L 186.578125 173.179688 L 186.578125 183.992188 Z M 183.457031 183.992188 " fill-opacity="1" fill-rule="nonzero"/><path fill="#ffffff" d="M 203.949219 183.992188 L 203.949219 170.214844 L 199.011719 170.214844 L 199.011719 167.410156 L 212.230469 167.410156 L 212.230469 170.214844 L 207.304688 170.214844 L 207.304688 183.992188 Z M 203.949219 183.992188 " fill-opacity="1" fill-rule="nonzero"/><g clip-path="url(#c69f4e6088)"><path fill="#1e1e1e" d="M 261.789062 204.242188 L 256.710938 199.183594 L 257.984375 197.917969 C 258.167969 197.730469 258.328125 197.527344 258.457031 197.300781 C 258.589844 197.074219 258.6875 196.832031 258.757812 196.582031 C 258.824219 196.328125 258.859375 196.070312 258.859375 195.808594 C 258.859375 195.550781 258.824219 195.292969 258.753906 195.039062 C 258.6875 194.789062 258.589844 194.546875 258.457031 194.320312 C 258.328125 194.09375 258.167969 193.890625 257.984375 193.703125 C 257.796875 193.519531 257.589844 193.363281 257.363281 193.230469 C 257.136719 193.101562 256.898438 193 256.644531 192.933594 L 238.4375 188.070312 C 238.179688 188.003906 237.921875 187.96875 237.65625 187.96875 C 237.03125 187.96875 236.464844 188.152344 235.953125 188.507812 L 235.945312 188.515625 C 235.804688 188.613281 235.675781 188.722656 235.550781 188.84375 C 233.785156 190.355469 233.730469 190.851562 233.730469 190.851562 C 233.371094 191.535156 233.292969 192.25 233.496094 192.996094 L 238.375 211.144531 C 238.460938 211.460938 238.59375 211.757812 238.777344 212.03125 C 238.960938 212.304688 239.183594 212.539062 239.445312 212.738281 C 239.707031 212.9375 239.992188 213.089844 240.304688 213.195312 C 240.617188 213.300781 240.9375 213.355469 241.269531 213.355469 C 242.089844 213.355469 242.792969 213.0625 243.371094 212.480469 L 244.640625 211.214844 L 249.71875 216.277344 C 249.890625 216.445312 250.085938 216.574219 250.304688 216.664062 C 250.527344 216.757812 250.757812 216.800781 251 216.800781 C 251.238281 216.800781 251.46875 216.757812 251.691406 216.664062 C 251.914062 216.574219 252.109375 216.445312 252.277344 216.277344 L 260.507812 208.074219 L 261.789062 206.792969 C 261.960938 206.625 262.089844 206.429688 262.179688 206.210938 C 262.273438 205.988281 262.320312 205.757812 262.320312 205.519531 C 262.320312 205.28125 262.273438 205.050781 262.179688 204.828125 C 262.089844 204.609375 261.960938 204.414062 261.789062 204.242188 Z M 261.789062 204.242188 " fill-opacity="1" fill-rule="nonzero"/></g><path fill="#ffffff" d="M 258.800781 205.503906 L 253.523438 200.242188 L 255.277344 198.492188 C 255.523438 198.25 255.691406 197.957031 255.78125 197.625 C 255.871094 197.289062 255.871094 196.953125 255.78125 196.617188 C 255.691406 196.28125 255.523438 195.992188 255.277344 195.746094 C 255.03125 195.5 254.738281 195.335938 254.402344 195.246094 L 237.546875 190.742188 C 237.378906 190.699219 237.210938 190.675781 237.039062 190.675781 C 236.871094 190.675781 236.703125 190.699219 236.535156 190.742188 C 236.371094 190.785156 236.214844 190.851562 236.066406 190.9375 C 235.917969 191.019531 235.785156 191.125 235.664062 191.246094 C 235.542969 191.367188 235.4375 191.5 235.355469 191.648438 C 235.269531 191.792969 235.203125 191.949219 235.160156 192.117188 C 235.113281 192.28125 235.09375 192.449219 235.09375 192.617188 C 235.09375 192.789062 235.113281 192.957031 235.160156 193.121094 L 239.675781 209.925781 C 239.765625 210.261719 239.933594 210.550781 240.179688 210.796875 C 240.425781 211.042969 240.71875 211.207031 241.054688 211.296875 C 241.390625 211.386719 241.726562 211.386719 242.0625 211.296875 C 242.398438 211.207031 242.6875 211.042969 242.933594 210.796875 L 244.691406 209.046875 L 249.96875 214.308594 C 250.136719 214.476562 250.339844 214.558594 250.574219 214.558594 C 250.8125 214.558594 251.015625 214.476562 251.183594 214.308594 L 258.800781 206.714844 C 258.96875 206.546875 259.050781 206.347656 259.050781 206.109375 C 259.050781 205.875 258.96875 205.671875 258.800781 205.503906 Z M 258.800781 205.503906 " fill-opacity="1" fill-rule="nonzero"/><path fill="#1e1e1e" d="M 228.324219 180.933594 L 232.519531 186.296875 C 232.617188 186.417969 232.660156 186.5625 232.644531 186.71875 C 232.628906 186.875 232.558594 187.003906 232.4375 187.109375 C 232.320312 187.210938 232.179688 187.261719 232.023438 187.253906 C 231.863281 187.246094 231.730469 187.183594 231.621094 187.070312 L 226.917969 182.144531 C 226.738281 181.957031 226.652344 181.738281 226.660156 181.480469 C 226.667969 181.226562 226.761719 181.007812 226.949219 180.832031 C 227.136719 180.65625 227.355469 180.570312 227.613281 180.574219 C 227.871094 180.582031 228.089844 180.679688 228.265625 180.863281 C 228.285156 180.886719 228.308594 180.910156 228.324219 180.933594 Z M 228.324219 180.933594 " fill-opacity="1" fill-rule="nonzero"/><path fill="#1e1e1e" d="M 236.574219 178.628906 L 235.738281 185.378906 C 235.71875 185.535156 235.648438 185.664062 235.523438 185.761719 C 235.402344 185.863281 235.261719 185.90625 235.101562 185.894531 C 234.945312 185.882812 234.8125 185.820312 234.707031 185.703125 C 234.601562 185.585938 234.550781 185.449219 234.554688 185.289062 L 234.71875 178.492188 C 234.726562 178.234375 234.820312 178.019531 235.007812 177.84375 C 235.195312 177.664062 235.417969 177.582031 235.671875 177.585938 C 235.929688 177.59375 236.148438 177.6875 236.324219 177.875 C 236.503906 178.058594 236.589844 178.28125 236.582031 178.539062 C 236.582031 178.570312 236.578125 178.601562 236.574219 178.628906 Z M 236.574219 178.628906 " fill-opacity="1" fill-rule="nonzero"/><path fill="#1e1e1e" d="M 223.84375 188.46875 L 230.613281 189.304688 C 230.773438 189.320312 230.902344 189.390625 231.003906 189.515625 C 231.109375 189.636719 231.152344 189.777344 231.140625 189.9375 C 231.128906 190.09375 231.0625 190.226562 230.945312 190.335938 C 230.824219 190.441406 230.6875 190.492188 230.527344 190.484375 L 223.707031 190.320312 C 223.449219 190.3125 223.234375 190.21875 223.054688 190.03125 C 222.878906 189.84375 222.792969 189.625 222.796875 189.367188 C 222.804688 189.109375 222.902344 188.894531 223.085938 188.71875 C 223.273438 188.539062 223.496094 188.457031 223.753906 188.460938 C 223.785156 188.460938 223.816406 188.464844 223.84375 188.46875 Z M 223.84375 188.46875 " fill-opacity="1" fill-rule="nonzero"/></svg>