<svg xmlns="http://www.w3.org/2000/svg" xmlns:xlink="http://www.w3.org/1999/xlink" width="500" zoomAndPan="magnify" viewBox="0 0 375 374.999991" height="500" preserveAspectRatio="xMidYMid meet" version="1.0"><defs><clipPath id="e5e09aa986"><path d="M 96.28125 114.796875 L 246.28125 114.796875 L 246.28125 264.796875 L 96.28125 264.796875 Z M 96.28125 114.796875 " clip-rule="nonzero"/></clipPath></defs><path fill="#fdf1e9" d="M 241.871094 189.796875 C 241.871094 190.953125 241.84375 192.105469 241.785156 193.261719 C 241.730469 194.414062 241.644531 195.566406 241.53125 196.714844 C 241.417969 197.863281 241.277344 199.011719 241.105469 200.152344 C 240.9375 201.296875 240.742188 202.433594 240.515625 203.566406 C 240.289062 204.699219 240.035156 205.828125 239.757812 206.949219 C 239.476562 208.070312 239.167969 209.179688 238.832031 210.285156 C 238.496094 211.390625 238.132812 212.488281 237.746094 213.578125 C 237.355469 214.664062 236.941406 215.742188 236.5 216.808594 C 236.054688 217.875 235.589844 218.933594 235.09375 219.976562 C 234.601562 221.019531 234.082031 222.050781 233.535156 223.070312 C 232.992188 224.089844 232.421875 225.09375 231.828125 226.085938 C 231.234375 227.078125 230.617188 228.050781 229.976562 229.011719 C 229.332031 229.972656 228.667969 230.917969 227.980469 231.847656 C 227.292969 232.773438 226.582031 233.683594 225.847656 234.578125 C 225.117188 235.46875 224.363281 236.34375 223.585938 237.199219 C 222.808594 238.054688 222.011719 238.894531 221.195312 239.710938 C 220.378906 240.527344 219.542969 241.324219 218.6875 242.097656 C 217.832031 242.875 216.957031 243.628906 216.0625 244.363281 C 215.171875 245.09375 214.261719 245.804688 213.332031 246.492188 C 212.40625 247.179688 211.460938 247.847656 210.5 248.488281 C 209.539062 249.128906 208.5625 249.746094 207.574219 250.34375 C 206.582031 250.9375 205.578125 251.503906 204.558594 252.050781 C 203.539062 252.59375 202.507812 253.113281 201.464844 253.605469 C 200.417969 254.101562 199.363281 254.570312 198.296875 255.011719 C 197.230469 255.453125 196.152344 255.867188 195.0625 256.257812 C 193.976562 256.648438 192.878906 257.007812 191.773438 257.34375 C 190.667969 257.679688 189.554688 257.988281 188.433594 258.269531 C 187.3125 258.550781 186.1875 258.804688 185.054688 259.027344 C 183.921875 259.253906 182.785156 259.449219 181.640625 259.621094 C 180.496094 259.789062 179.351562 259.929688 178.203125 260.042969 C 177.050781 260.15625 175.902344 260.242188 174.746094 260.300781 C 173.59375 260.355469 172.4375 260.382812 171.28125 260.382812 C 170.128906 260.382812 168.972656 260.355469 167.820312 260.300781 C 166.664062 260.242188 165.515625 260.15625 164.363281 260.042969 C 163.214844 259.929688 162.070312 259.789062 160.925781 259.621094 C 159.78125 259.449219 158.644531 259.253906 157.511719 259.027344 C 156.378906 258.804688 155.253906 258.550781 154.132812 258.269531 C 153.011719 257.988281 151.898438 257.679688 150.792969 257.34375 C 149.6875 257.011719 148.589844 256.648438 147.503906 256.257812 C 146.414062 255.867188 145.335938 255.453125 144.269531 255.011719 C 143.203125 254.570312 142.148438 254.101562 141.101562 253.605469 C 140.058594 253.113281 139.027344 252.59375 138.007812 252.050781 C 136.988281 251.503906 135.984375 250.9375 134.992188 250.34375 C 134.003906 249.746094 133.027344 249.128906 132.066406 248.488281 C 131.105469 247.847656 130.160156 247.179688 129.234375 246.492188 C 128.304688 245.804688 127.394531 245.09375 126.503906 244.363281 C 125.609375 243.628906 124.734375 242.875 123.878906 242.097656 C 123.023438 241.324219 122.1875 240.527344 121.371094 239.710938 C 120.554688 238.894531 119.757812 238.054688 118.980469 237.199219 C 118.203125 236.34375 117.449219 235.46875 116.71875 234.578125 C 115.984375 233.683594 115.273438 232.773438 114.585938 231.847656 C 113.898438 230.917969 113.234375 229.972656 112.589844 229.011719 C 111.949219 228.050781 111.332031 227.078125 110.738281 226.085938 C 110.144531 225.09375 109.574219 224.089844 109.03125 223.070312 C 108.484375 222.050781 107.964844 221.019531 107.472656 219.976562 C 106.976562 218.933594 106.511719 217.875 106.066406 216.808594 C 105.625 215.742188 105.210938 214.664062 104.820312 213.578125 C 104.433594 212.488281 104.070312 211.390625 103.734375 210.285156 C 103.398438 209.179688 103.089844 208.070312 102.808594 206.949219 C 102.53125 205.828125 102.277344 204.699219 102.050781 203.566406 C 101.824219 202.433594 101.628906 201.296875 101.457031 200.152344 C 101.289062 199.011719 101.148438 197.863281 101.035156 196.714844 C 100.921875 195.566406 100.835938 194.414062 100.78125 193.261719 C 100.722656 192.105469 100.695312 190.953125 100.695312 189.796875 C 100.695312 188.640625 100.722656 187.488281 100.78125 186.332031 C 100.835938 185.179688 100.921875 184.027344 101.035156 182.878906 C 101.148438 181.726562 101.289062 180.582031 101.457031 179.4375 C 101.628906 178.296875 101.824219 177.160156 102.050781 176.023438 C 102.277344 174.890625 102.53125 173.765625 102.808594 172.644531 C 103.089844 171.523438 103.398438 170.410156 103.734375 169.304688 C 104.070312 168.199219 104.433594 167.105469 104.820312 166.015625 C 105.210938 164.929688 105.625 163.851562 106.066406 162.785156 C 106.511719 161.714844 106.976562 160.660156 107.472656 159.617188 C 107.964844 158.570312 108.484375 157.539062 109.03125 156.519531 C 109.574219 155.503906 110.144531 154.496094 110.738281 153.507812 C 111.332031 152.515625 111.949219 151.539062 112.589844 150.578125 C 113.234375 149.617188 113.898438 148.675781 114.585938 147.746094 C 115.273438 146.820312 115.984375 145.910156 116.71875 145.015625 C 117.449219 144.121094 118.203125 143.25 118.980469 142.390625 C 119.757812 141.535156 120.554688 140.699219 121.371094 139.882812 C 122.1875 139.066406 123.023438 138.269531 123.878906 137.492188 C 124.734375 136.71875 125.609375 135.964844 126.503906 135.230469 C 127.394531 134.5 128.304688 133.789062 129.234375 133.097656 C 130.160156 132.410156 131.105469 131.746094 132.066406 131.105469 C 133.027344 130.460938 134.003906 129.84375 134.992188 129.25 C 135.984375 128.65625 136.988281 128.085938 138.007812 127.542969 C 139.027344 127 140.058594 126.480469 141.101562 125.984375 C 142.148438 125.492188 143.203125 125.023438 144.269531 124.582031 C 145.335938 124.140625 146.414062 123.722656 147.503906 123.335938 C 148.589844 122.945312 149.6875 122.582031 150.792969 122.246094 C 151.898438 121.914062 153.011719 121.605469 154.132812 121.324219 C 155.253906 121.042969 156.378906 120.789062 157.511719 120.566406 C 158.644531 120.339844 159.78125 120.140625 160.925781 119.972656 C 162.070312 119.800781 163.214844 119.660156 164.363281 119.546875 C 165.515625 119.433594 166.664062 119.351562 167.820312 119.292969 C 168.972656 119.238281 170.128906 119.207031 171.28125 119.207031 C 172.4375 119.207031 173.59375 119.238281 174.746094 119.292969 C 175.902344 119.351562 177.050781 119.433594 178.203125 119.546875 C 179.351562 119.660156 180.496094 119.800781 181.640625 119.972656 C 182.785156 120.140625 183.921875 120.339844 185.054688 120.566406 C 186.1875 120.789062 187.3125 121.042969 188.433594 121.324219 C 189.554688 121.605469 190.667969 121.914062 191.773438 122.246094 C 192.878906 122.582031 193.976562 122.945312 195.0625 123.335938 C 196.152344 123.722656 197.230469 124.140625 198.296875 124.582031 C 199.363281 125.023438 200.417969 125.492188 201.464844 125.984375 C 202.507812 126.480469 203.539062 127 204.558594 127.542969 C 205.578125 128.085938 206.582031 128.65625 207.574219 129.25 C 208.5625 129.84375 209.539062 130.460938 210.5 131.105469 C 211.460938 131.746094 212.40625 132.410156 213.332031 133.097656 C 214.261719 133.789062 215.171875 134.5 216.0625 135.230469 C 216.957031 135.964844 217.832031 136.71875 218.6875 137.492188 C 219.542969 138.269531 220.378906 139.066406 221.195312 139.882812 C 222.011719 140.699219 222.808594 141.535156 223.585938 142.390625 C 224.363281 143.25 225.117188 144.121094 225.847656 145.015625 C 226.582031 145.910156 227.292969 146.820312 227.980469 147.746094 C 228.667969 148.675781 229.332031 149.617188 229.976562 150.578125 C 230.617188 151.539062 231.234375 152.515625 231.828125 153.507812 C 232.421875 154.496094 232.992188 155.503906 233.535156 156.519531 C 234.082031 157.539062 234.601562 158.570312 235.09375 159.617188 C 235.589844 160.660156 236.054688 161.714844 236.5 162.785156 C 236.941406 163.851562 237.355469 164.929688 237.746094 166.015625 C 238.132812 167.105469 238.496094 168.199219 238.832031 169.304688 C 239.167969 170.410156 239.476562 171.523438 239.757812 172.644531 C 240.035156 173.765625 240.289062 174.890625 240.515625 176.023438 C 240.742188 177.160156 240.9375 178.296875 241.105469 179.4375 C 241.277344 180.582031 241.417969 181.726562 241.53125 182.878906 C 241.644531 184.027344 241.730469 185.179688 241.785156 186.332031 C 241.84375 187.488281 241.871094 188.640625 241.871094 189.796875 Z M 241.871094 189.796875 " fill-opacity="1" fill-rule="nonzero"/><g clip-path="url(#e5e09aa986)"><path fill="#000000" d="M 171.28125 264.796875 C 129.832031 264.796875 96.28125 231.253906 96.28125 189.796875 C 96.28125 148.347656 129.828125 114.796875 171.28125 114.796875 C 212.734375 114.796875 246.28125 148.339844 246.28125 189.796875 C 246.28125 231.246094 212.738281 264.796875 171.28125 264.796875 Z M 171.28125 123.621094 C 134.792969 123.621094 105.105469 153.308594 105.105469 189.796875 C 105.105469 226.285156 134.792969 255.972656 171.28125 255.972656 C 207.773438 255.972656 237.460938 226.285156 237.460938 189.796875 C 237.460938 153.308594 207.773438 123.621094 171.28125 123.621094 Z M 171.28125 123.621094 " fill-opacity="1" fill-rule="nonzero"/></g><path fill="#00ffd9" d="M 188.25 215.585938 L 200.890625 228.226562 C 180.976562 243.601562 152.625 241.183594 135.554688 222.601562 L 148.042969 210.109375 C 158.261719 221.792969 175.441406 224.046875 188.25 215.585938 Z M 188.25 215.585938 " fill-opacity="1" fill-rule="nonzero"/><path fill="#ff2e17" d="M 219.8125 180.972656 L 219.8125 189.796875 C 219.8125 205.417969 212.390625 219.34375 200.890625 228.226562 L 188.25 215.585938 C 194.242188 211.632812 198.78125 205.648438 200.878906 198.621094 L 176.957031 198.621094 L 176.957031 180.972656 Z M 219.8125 180.972656 " fill-opacity="1" fill-rule="nonzero"/><path fill="#0056d1" d="M 148.042969 210.109375 L 135.554688 222.601562 C 118.726562 204.292969 118.480469 176.363281 134.847656 157.773438 L 147.363281 170.289062 C 137.839844 181.9375 138.101562 198.761719 148.042969 210.109375 Z M 148.042969 210.109375 " fill-opacity="1" fill-rule="nonzero"/><path fill="#ffc933" d="M 199.019531 149.96875 L 188.925781 164.445312 C 175.683594 155.210938 157.570312 157.785156 147.363281 170.289062 L 134.847656 157.773438 C 151.257812 139.128906 178.875 135.921875 199.019531 149.96875 Z M 199.019531 149.96875 " fill-opacity="1" fill-rule="nonzero"/><path fill="#000000" d="M 219.8125 176.5625 L 176.957031 176.5625 C 174.519531 176.5625 172.460938 178.535156 172.460938 180.972656 L 172.460938 198.621094 C 172.460938 201.054688 174.519531 203.03125 176.957031 203.03125 L 194.199219 203.03125 C 189.578125 210.996094 180.988281 216.265625 171.28125 216.265625 C 156.746094 216.265625 144.8125 204.429688 144.8125 189.796875 C 144.8125 175.34375 156.550781 163.324219 171.28125 163.324219 C 176.730469 163.324219 181.957031 164.964844 186.402344 168.0625 C 188.398438 169.457031 191.148438 168.964844 192.542969 166.96875 L 202.640625 152.492188 C 204.03125 150.496094 203.542969 147.746094 201.542969 146.351562 C 192.636719 140.140625 182.171875 136.855469 171.28125 136.855469 C 142.246094 136.855469 118.34375 160.457031 118.34375 189.796875 C 118.34375 219.347656 142.472656 242.738281 171.308594 242.738281 C 200.609375 242.738281 224.222656 218.96875 224.222656 189.796875 L 224.222656 180.972656 C 224.222656 178.535156 222.25 176.5625 219.8125 176.5625 Z M 192.753906 151.246094 L 187.671875 158.527344 C 174.878906 151.800781 158.550781 153.433594 147.265625 163.953125 L 141.035156 157.71875 C 155.132812 144.425781 176.105469 141.945312 192.753906 151.246094 Z M 135.234375 164.398438 L 141.589844 170.753906 C 133.925781 182.699219 134.136719 198.023438 142.179688 209.738281 L 135.859375 216.058594 C 124.503906 200.785156 124.25 179.953125 135.234375 164.398438 Z M 141.808594 222.585938 L 148.050781 216.34375 C 158.964844 225.902344 174.648438 227.832031 187.539062 221.117188 L 194.019531 227.59375 C 177.460938 237.628906 156.234375 235.539062 141.808594 222.585938 Z M 215.402344 189.796875 C 215.402344 202.265625 210.25 213.890625 201.148438 222.246094 L 194.898438 215.996094 C 199.691406 211.671875 203.25 206.101562 205.105469 199.882812 C 205.953125 197.054688 203.832031 194.207031 200.878906 194.207031 L 181.28125 194.207031 L 181.28125 185.382812 L 215.402344 185.382812 Z M 215.402344 189.796875 " fill-opacity="1" fill-rule="nonzero"/></svg>