<svg width="24" height="24" viewBox="0 0 24 24" fill="none" xmlns="http://www.w3.org/2000/svg">
<rect y="3.42993" width="24" height="17.1429" rx="2" fill="white"/>
<mask id="mask0_91_1805" style="mask-type:luminance" maskUnits="userSpaceOnUse" x="0" y="3" width="24" height="18">
<rect y="3.42993" width="24" height="17.1429" rx="2" fill="white"/>
</mask>
<g mask="url(#mask0_91_1805)">
<rect y="3.42993" width="24" height="17.1429" fill="#F1361D"/>
<path fill-rule="evenodd" clip-rule="evenodd" d="M8.63379 6.08768L9.46388 6.2292L10.0865 6.7962L10.228 5.9661L10.795 5.34352L9.96488 5.20201L9.3423 4.63501L9.20078 5.4651L8.63379 6.08768ZM10.8572 8.99112L11.5766 8.55333L12.4184 8.5728L11.9806 7.85348L12.0001 7.01163L11.2808 7.44942L10.4389 7.42994L10.8767 8.14927L10.8572 8.99112ZM9.88149 13.6907L9.17788 14.1533L9.16796 13.3113L8.70534 12.6077L9.54735 12.5978L10.251 12.1351L10.2609 12.9772L10.7235 13.6808L9.88149 13.6907ZM10.4925 11.514L11.3295 11.4212L12.0842 11.7946L11.9914 10.9577L12.3649 10.2029L11.5279 10.2957L10.7732 9.92229L10.8659 10.7592L10.4925 11.514Z" fill="#FFDC42"/>
<path fill-rule="evenodd" clip-rule="evenodd" d="M5.71422 10.4813L3.69895 11.9179L4.44252 9.55735L2.45345 8.08466L4.92826 8.06238L5.71422 5.71558L6.50017 8.06238L8.97498 8.08466L6.98591 9.55735L7.72948 11.9179L5.71422 10.4813Z" fill="#FFDC42"/>
</g>
</svg>
