<svg width="25" height="24" viewBox="0 0 25 24" fill="none" xmlns="http://www.w3.org/2000/svg">
<path d="M22.2432 14.269C22.2422 12.279 19.7102 10.746 16.2432 10.552V5.98999C16.2422 3.40699 12.8532 2.25 9.49316 2.25C6.13316 2.25 2.74416 3.40599 2.74316 5.98999V17.01C2.74316 19.593 6.13316 20.75 9.49316 20.75C9.84016 20.75 10.1962 20.718 10.5502 20.683C11.8442 21.406 13.6712 21.75 15.4932 21.75C18.8522 21.75 22.2432 20.593 22.2432 18.01V14.269C22.2432 14.27 22.2432 14.27 22.2432 14.269ZM20.7432 14.271C20.7432 15.329 18.4982 16.512 15.4932 16.512C12.4882 16.512 10.2432 15.329 10.2432 14.271C10.2432 13.883 10.5502 13.479 11.0812 13.122C11.0992 13.112 11.1132 13.098 11.1302 13.087C12.0542 12.487 13.6262 12.03 15.4932 12.03C18.4982 12.03 20.7432 13.213 20.7432 14.271ZM14.7432 9.53003C14.7432 9.98103 14.3472 10.358 13.9702 10.621C12.5792 10.786 11.3782 11.175 10.4772 11.723C10.1572 11.75 9.83514 11.77 9.49414 11.77C6.66614 11.77 4.24414 10.538 4.24414 9.53003V8.47803C5.54514 9.33003 7.52214 9.73199 9.49414 9.73199C11.4661 9.73199 13.4431 9.33003 14.7441 8.47803V9.53003H14.7432ZM4.24316 11.849C5.44616 12.663 7.21718 13.172 8.98218 13.256C8.83018 13.577 8.74316 13.915 8.74316 14.27C8.74316 14.27 8.74316 14.27 8.74316 14.271V15.479C6.25116 15.288 4.24316 14.189 4.24316 13.271V11.849ZM9.49316 3.75C12.0742 3.75 14.7432 4.58803 14.7432 5.99103C14.7432 7.44703 12.0382 8.23199 9.49316 8.23199C6.94816 8.23199 4.24316 7.44703 4.24316 5.99103C4.24316 4.58803 6.91216 3.75 9.49316 3.75ZM4.24316 17.01V15.589C5.39216 16.366 7.05716 16.865 8.74316 16.981V18.01C8.74316 18.465 8.85317 18.873 9.04517 19.241C6.61217 19.15 4.24316 18.331 4.24316 17.01ZM15.4932 20.25C13.8742 20.25 12.2212 19.92 11.2142 19.328C10.6152 18.976 10.2441 18.532 10.2441 18.01V16.676C11.4621 17.502 13.3281 18.012 15.4941 18.012C17.6601 18.012 19.5261 17.502 20.7441 16.676V18.01C20.7431 19.412 18.0742 20.25 15.4932 20.25Z" fill="#121212"/>
</svg>
