<svg width="24" height="24" viewBox="0 0 24 24" fill="none" xmlns="http://www.w3.org/2000/svg">
<path d="M22.53 4.53002C22.384 4.67602 22.192 4.74999 22 4.74999C21.808 4.74999 21.616 4.67702 21.47 4.53002L20.75 3.81005V6.99999C20.75 7.41399 20.414 7.74999 20 7.74999C19.586 7.74999 19.25 7.41399 19.25 6.99999V3.81103L18.53 4.531C18.237 4.824 17.762 4.824 17.469 4.531C17.176 4.238 17.176 3.76296 17.469 3.46996L19.469 1.46996C19.538 1.40096 19.621 1.34598 19.713 1.30798C19.896 1.23198 20.103 1.23198 20.286 1.30798C20.378 1.34598 20.461 1.40096 20.53 1.46996L22.53 3.46996C22.823 3.76296 22.823 4.23702 22.53 4.53002ZM22 12C22 17.615 17.365 22.154 11.715 21.996C6.498 21.851 2.15 17.502 2.004 12.285C1.846 6.63503 6.38501 1.99999 12 1.99999C13.327 1.99999 14.594 2.25503 15.747 2.73303C15.907 2.79903 15.969 2.98799 15.898 3.14599C15.527 3.96799 15.388 4.93399 15.598 5.94799C15.986 7.82499 17.614 9.28395 19.521 9.47595C20.14 9.53795 20.741 9.479 21.301 9.31201C21.466 9.26301 21.642 9.34803 21.685 9.51403C21.89 10.305 22 11.141 22 12ZM14.972 14.017C14.972 12.815 14.157 11.769 12.986 11.473L11.378 11.074C11.13 11.012 10.919 10.873 10.76 10.67C10.61 10.48 10.527 10.236 10.527 9.98498C10.527 9.36598 11.03 8.86303 11.649 8.86303H12.349C12.921 8.86303 13.4 9.29303 13.465 9.86303C13.511 10.275 13.882 10.575 14.294 10.525C14.706 10.479 15.002 10.108 14.956 9.69604C14.821 8.49404 13.891 7.56694 12.727 7.39794V6.99999C12.727 6.58599 12.391 6.24999 11.977 6.24999C11.563 6.24999 11.227 6.58599 11.227 6.99999V7.40405C9.98201 7.60805 9.027 8.68203 9.027 9.98303C9.027 10.57 9.224 11.144 9.579 11.592C9.935 12.051 10.443 12.383 11.013 12.527L12.621 12.926C13.122 13.053 13.472 13.501 13.472 14.015C13.472 14.313 13.355 14.594 13.142 14.807C12.929 15.02 12.648 15.137 12.35 15.137H11.65C11.078 15.137 10.599 14.707 10.534 14.137C10.488 13.725 10.116 13.423 9.70501 13.475C9.29301 13.521 8.997 13.8919 9.043 14.3039C9.176 15.4909 10.084 16.412 11.227 16.597V17C11.227 17.414 11.563 17.75 11.977 17.75C12.391 17.75 12.727 17.414 12.727 17V16.602C13.282 16.521 13.797 16.275 14.202 15.87C14.699 15.373 14.972 14.715 14.972 14.017Z" fill="#121212"/>
</svg>
