<svg xmlns="http://www.w3.org/2000/svg" xmlns:xlink="http://www.w3.org/1999/xlink" width="500" zoomAndPan="magnify" viewBox="0 0 375 374.999991" height="500" preserveAspectRatio="xMidYMid meet" version="1.0"><defs><clipPath id="6b63660934"><path d="M 87.351562 87.351562 L 287.601562 87.351562 L 287.601562 287.601562 L 87.351562 287.601562 Z M 87.351562 87.351562 " clip-rule="nonzero"/></clipPath><clipPath id="6ff6b981b9"><path d="M 240.136719 153 L 287.601562 153 L 287.601562 269 L 240.136719 269 Z M 240.136719 153 " clip-rule="nonzero"/></clipPath><clipPath id="abe91b61fb"><path d="M 187.480469 87.351562 C 242.777344 87.351562 287.609375 132.179688 287.609375 187.480469 C 287.609375 242.777344 242.777344 287.609375 187.480469 287.609375 C 132.179688 287.609375 87.351562 242.777344 87.351562 187.480469 C 87.351562 132.179688 132.179688 87.351562 187.480469 87.351562 Z M 187.480469 87.351562 " clip-rule="nonzero"/></clipPath><clipPath id="274de0f655"><path d="M 223.839844 157.429688 L 287.601562 157.429688 L 287.601562 269 L 223.839844 269 Z M 223.839844 157.429688 " clip-rule="nonzero"/></clipPath><clipPath id="1b4ed0c194"><path d="M 187.480469 87.351562 C 242.777344 87.351562 287.609375 132.179688 287.609375 187.480469 C 287.609375 242.777344 242.777344 287.609375 187.480469 287.609375 C 132.179688 287.609375 87.351562 242.777344 87.351562 187.480469 C 87.351562 132.179688 132.179688 87.351562 187.480469 87.351562 Z M 187.480469 87.351562 " clip-rule="nonzero"/></clipPath><clipPath id="fa1c06abb1"><path d="M 223.839844 157.429688 L 287.601562 157.429688 L 287.601562 275.988281 L 223.839844 275.988281 Z M 223.839844 157.429688 " clip-rule="nonzero"/></clipPath><clipPath id="f9af1bef96"><path d="M 187.480469 87.351562 C 242.777344 87.351562 287.609375 132.179688 287.609375 187.480469 C 287.609375 242.777344 242.777344 287.609375 187.480469 287.609375 C 132.179688 287.609375 87.351562 242.777344 87.351562 187.480469 C 87.351562 132.179688 132.179688 87.351562 187.480469 87.351562 Z M 187.480469 87.351562 " clip-rule="nonzero"/></clipPath><clipPath id="b4197e13cf"><path d="M 238.914062 168.429688 L 287.601562 168.429688 L 287.601562 279.65625 L 238.914062 279.65625 Z M 238.914062 168.429688 " clip-rule="nonzero"/></clipPath><clipPath id="98550140cf"><path d="M 187.480469 87.351562 C 242.777344 87.351562 287.609375 132.179688 287.609375 187.480469 C 287.609375 242.777344 242.777344 287.609375 187.480469 287.609375 C 132.179688 287.609375 87.351562 242.777344 87.351562 187.480469 C 87.351562 132.179688 132.179688 87.351562 187.480469 87.351562 Z M 187.480469 87.351562 " clip-rule="nonzero"/></clipPath><clipPath id="d6d3a75033"><path d="M 239 168.429688 L 287.601562 168.429688 L 287.601562 283.730469 L 239 283.730469 Z M 239 168.429688 " clip-rule="nonzero"/></clipPath><clipPath id="4e35bd9331"><path d="M 187.480469 87.351562 C 242.777344 87.351562 287.609375 132.179688 287.609375 187.480469 C 287.609375 242.777344 242.777344 287.609375 187.480469 287.609375 C 132.179688 287.609375 87.351562 242.777344 87.351562 187.480469 C 87.351562 132.179688 132.179688 87.351562 187.480469 87.351562 Z M 187.480469 87.351562 " clip-rule="nonzero"/></clipPath><clipPath id="bac8af040f"><path d="M 241.359375 172.503906 L 287.601562 172.503906 L 287.601562 287.601562 L 241.359375 287.601562 Z M 241.359375 172.503906 " clip-rule="nonzero"/></clipPath><clipPath id="5a57a6454c"><path d="M 187.480469 87.351562 C 242.777344 87.351562 287.609375 132.179688 287.609375 187.480469 C 287.609375 242.777344 242.777344 287.609375 187.480469 287.609375 C 132.179688 287.609375 87.351562 242.777344 87.351562 187.480469 C 87.351562 132.179688 132.179688 87.351562 187.480469 87.351562 Z M 187.480469 87.351562 " clip-rule="nonzero"/></clipPath><clipPath id="fd5ce4011a"><path d="M 242.171875 177 L 287.601562 177 L 287.601562 287.601562 L 242.171875 287.601562 Z M 242.171875 177 " clip-rule="nonzero"/></clipPath><clipPath id="850fbb8a29"><path d="M 187.480469 87.351562 C 242.777344 87.351562 287.609375 132.179688 287.609375 187.480469 C 287.609375 242.777344 242.777344 287.609375 187.480469 287.609375 C 132.179688 287.609375 87.351562 242.777344 87.351562 187.480469 C 87.351562 132.179688 132.179688 87.351562 187.480469 87.351562 Z M 187.480469 87.351562 " clip-rule="nonzero"/></clipPath><clipPath id="d90c6751c2"><path d="M 241.359375 209 L 287.601562 209 L 287.601562 287.601562 L 241.359375 287.601562 Z M 241.359375 209 " clip-rule="nonzero"/></clipPath><clipPath id="774159da6b"><path d="M 187.480469 87.351562 C 242.777344 87.351562 287.609375 132.179688 287.609375 187.480469 C 287.609375 242.777344 242.777344 287.609375 187.480469 287.609375 C 132.179688 287.609375 87.351562 242.777344 87.351562 187.480469 C 87.351562 132.179688 132.179688 87.351562 187.480469 87.351562 Z M 187.480469 87.351562 " clip-rule="nonzero"/></clipPath><clipPath id="4bb3c1f529"><path d="M 238.914062 213.652344 L 287.601562 213.652344 L 287.601562 287.601562 L 238.914062 287.601562 Z M 238.914062 213.652344 " clip-rule="nonzero"/></clipPath><clipPath id="65999915c9"><path d="M 187.480469 87.351562 C 242.777344 87.351562 287.609375 132.179688 287.609375 187.480469 C 287.609375 242.777344 242.777344 287.609375 187.480469 287.609375 C 132.179688 287.609375 87.351562 242.777344 87.351562 187.480469 C 87.351562 132.179688 132.179688 87.351562 187.480469 87.351562 Z M 187.480469 87.351562 " clip-rule="nonzero"/></clipPath><clipPath id="acd616cd93"><path d="M 238.914062 217.726562 L 287.601562 217.726562 L 287.601562 287.601562 L 238.914062 287.601562 Z M 238.914062 217.726562 " clip-rule="nonzero"/></clipPath><clipPath id="153cf1291d"><path d="M 187.480469 87.351562 C 242.777344 87.351562 287.609375 132.179688 287.609375 187.480469 C 287.609375 242.777344 242.777344 287.609375 187.480469 287.609375 C 132.179688 287.609375 87.351562 242.777344 87.351562 187.480469 C 87.351562 132.179688 132.179688 87.351562 187.480469 87.351562 Z M 187.480469 87.351562 " clip-rule="nonzero"/></clipPath><clipPath id="efcf50642e"><path d="M 235 217.726562 L 287.601562 217.726562 L 287.601562 287.601562 L 235 287.601562 Z M 235 217.726562 " clip-rule="nonzero"/></clipPath><clipPath id="186987d968"><path d="M 187.480469 87.351562 C 242.777344 87.351562 287.609375 132.179688 287.609375 187.480469 C 287.609375 242.777344 242.777344 287.609375 187.480469 287.609375 C 132.179688 287.609375 87.351562 242.777344 87.351562 187.480469 C 87.351562 132.179688 132.179688 87.351562 187.480469 87.351562 Z M 187.480469 87.351562 " clip-rule="nonzero"/></clipPath><clipPath id="9b5c32b226"><path d="M 230.355469 220.578125 L 287.601562 220.578125 L 287.601562 287.601562 L 230.355469 287.601562 Z M 230.355469 220.578125 " clip-rule="nonzero"/></clipPath><clipPath id="26b0d39e46"><path d="M 187.480469 87.351562 C 242.777344 87.351562 287.609375 132.179688 287.609375 187.480469 C 287.609375 242.777344 242.777344 287.609375 187.480469 287.609375 C 132.179688 287.609375 87.351562 242.777344 87.351562 187.480469 C 87.351562 132.179688 132.179688 87.351562 187.480469 87.351562 Z M 187.480469 87.351562 " clip-rule="nonzero"/></clipPath><clipPath id="ddba457a4f"><path d="M 134.613281 157.429688 L 264.582031 157.429688 L 264.582031 269 L 134.613281 269 Z M 134.613281 157.429688 " clip-rule="nonzero"/></clipPath><clipPath id="ba7d86491e"><path d="M 187.480469 87.351562 C 242.777344 87.351562 287.609375 132.179688 287.609375 187.480469 C 287.609375 242.777344 242.777344 287.609375 187.480469 287.609375 C 132.179688 287.609375 87.351562 242.777344 87.351562 187.480469 C 87.351562 132.179688 132.179688 87.351562 187.480469 87.351562 Z M 187.480469 87.351562 " clip-rule="nonzero"/></clipPath><clipPath id="7a0de0a811"><path d="M 187.167969 221.394531 L 287.601562 221.394531 L 287.601562 287.601562 L 187.167969 287.601562 Z M 187.167969 221.394531 " clip-rule="nonzero"/></clipPath><clipPath id="8ebaf37b92"><path d="M 187.480469 87.351562 C 242.777344 87.351562 287.609375 132.179688 287.609375 187.480469 C 287.609375 242.777344 242.777344 287.609375 187.480469 287.609375 C 132.179688 287.609375 87.351562 242.777344 87.351562 187.480469 C 87.351562 132.179688 132.179688 87.351562 187.480469 87.351562 Z M 187.480469 87.351562 " clip-rule="nonzero"/></clipPath><clipPath id="280c609d24"><path d="M 144 221.394531 L 287.601562 221.394531 L 287.601562 287.601562 L 144 287.601562 Z M 144 221.394531 " clip-rule="nonzero"/></clipPath><clipPath id="4d7d9a8db3"><path d="M 187.480469 87.351562 C 242.777344 87.351562 287.609375 132.179688 287.609375 187.480469 C 287.609375 242.777344 242.777344 287.609375 187.480469 287.609375 C 132.179688 287.609375 87.351562 242.777344 87.351562 187.480469 C 87.351562 132.179688 132.179688 87.351562 187.480469 87.351562 Z M 187.480469 87.351562 " clip-rule="nonzero"/></clipPath><clipPath id="01b0619c09"><path d="M 139.5 220.578125 L 255.617188 220.578125 L 255.617188 287.601562 L 139.5 287.601562 Z M 139.5 220.578125 " clip-rule="nonzero"/></clipPath><clipPath id="3c9f58c718"><path d="M 187.480469 87.351562 C 242.777344 87.351562 287.609375 132.179688 287.609375 187.480469 C 287.609375 242.777344 242.777344 287.609375 187.480469 287.609375 C 132.179688 287.609375 87.351562 242.777344 87.351562 187.480469 C 87.351562 132.179688 132.179688 87.351562 187.480469 87.351562 Z M 187.480469 87.351562 " clip-rule="nonzero"/></clipPath><clipPath id="4f84c91537"><path d="M 137.054688 219 L 251 219 L 251 287.601562 L 137.054688 287.601562 Z M 137.054688 219 " clip-rule="nonzero"/></clipPath><clipPath id="8a6e047057"><path d="M 187.480469 87.351562 C 242.777344 87.351562 287.609375 132.179688 287.609375 187.480469 C 287.609375 242.777344 242.777344 287.609375 187.480469 287.609375 C 132.179688 287.609375 87.351562 242.777344 87.351562 187.480469 C 87.351562 132.179688 132.179688 87.351562 187.480469 87.351562 Z M 187.480469 87.351562 " clip-rule="nonzero"/></clipPath><clipPath id="9bb5f61e70"><path d="M 187.167969 221.394531 L 287.601562 221.394531 L 287.601562 287.601562 L 187.167969 287.601562 Z M 187.167969 221.394531 " clip-rule="nonzero"/></clipPath><clipPath id="d45f01155a"><path d="M 187.480469 87.351562 C 242.777344 87.351562 287.609375 132.179688 287.609375 187.480469 C 287.609375 242.777344 242.777344 287.609375 187.480469 287.609375 C 132.179688 287.609375 87.351562 242.777344 87.351562 187.480469 C 87.351562 132.179688 132.179688 87.351562 187.480469 87.351562 Z M 187.480469 87.351562 " clip-rule="nonzero"/></clipPath><clipPath id="bb52104e17"><path d="M 132.574219 153 L 242.578125 153 L 242.578125 221.800781 L 132.574219 221.800781 Z M 132.574219 153 " clip-rule="nonzero"/></clipPath><clipPath id="6960d53aa4"><path d="M 187.480469 87.351562 C 242.777344 87.351562 287.609375 132.179688 287.609375 187.480469 C 287.609375 242.777344 242.777344 287.609375 187.480469 287.609375 C 132.179688 287.609375 87.351562 242.777344 87.351562 187.480469 C 87.351562 132.179688 132.179688 87.351562 187.480469 87.351562 Z M 187.480469 87.351562 " clip-rule="nonzero"/></clipPath></defs><g clip-path="url(#6b63660934)"><path fill="#9575cd" d="M 187.480469 87.351562 C 242.777344 87.351562 287.609375 132.179688 287.609375 187.480469 C 287.609375 242.777344 242.777344 287.609375 187.480469 287.609375 C 132.179688 287.609375 87.351562 242.777344 87.351562 187.480469 C 87.351562 132.179688 132.179688 87.351562 187.480469 87.351562 " fill-opacity="1" fill-rule="evenodd"/></g><g clip-path="url(#6ff6b981b9)"><g clip-path="url(#abe91b61fb)"><path fill="#5e35b1" d="M 240.160156 153.242188 L 351.230469 264.3125 L 351.230469 268.878906 L 240.160156 157.808594 L 240.160156 153.242188 " fill-opacity="1" fill-rule="evenodd"/></g></g><g clip-path="url(#274de0f655)"><g clip-path="url(#1b4ed0c194)"><path fill="#5e35b1" d="M 240.160156 157.808594 L 351.230469 268.878906 L 335.066406 268.878906 L 223.996094 157.808594 L 240.160156 157.808594 " fill-opacity="1" fill-rule="evenodd"/></g></g><g clip-path="url(#fa1c06abb1)"><g clip-path="url(#f9af1bef96)"><path fill="#5e35b1" d="M 223.996094 157.808594 L 335.066406 268.878906 L 335.066406 275.8125 L 223.996094 164.742188 L 223.996094 157.808594 " fill-opacity="1" fill-rule="evenodd"/></g></g><g clip-path="url(#b4197e13cf)"><g clip-path="url(#98550140cf)"><path fill="#5e35b1" d="M 238.945312 168.554688 L 350.015625 279.625 L 238.945312 168.558594 L 238.945312 168.554688 " fill-opacity="1" fill-rule="evenodd"/></g></g><g clip-path="url(#d6d3a75033)"><g clip-path="url(#4e35bd9331)"><path fill="#5e35b1" d="M 239.046875 168.667969 L 350.113281 279.738281 L 350.210938 279.851562 L 350.398438 280.074219 L 350.492188 280.191406 L 350.578125 280.308594 L 350.671875 280.425781 L 350.757812 280.542969 L 351.015625 280.90625 L 351.179688 281.15625 L 351.257812 281.28125 L 351.339844 281.410156 L 351.414062 281.535156 L 351.492188 281.664062 L 351.566406 281.796875 L 351.640625 281.925781 L 351.710938 282.058594 L 351.78125 282.195312 L 351.851562 282.328125 L 351.917969 282.464844 L 351.988281 282.601562 L 352.113281 282.875 L 352.238281 283.15625 L 352.296875 283.296875 L 352.351562 283.4375 L 352.410156 283.582031 L 352.460938 283.726562 L 241.394531 172.65625 L 241.339844 172.511719 L 241.285156 172.371094 L 241.226562 172.226562 L 241.109375 171.945312 L 241.046875 171.804688 L 240.980469 171.667969 L 240.917969 171.53125 L 240.851562 171.394531 L 240.78125 171.257812 L 240.714844 171.125 L 240.644531 170.992188 L 240.570312 170.859375 L 240.5 170.726562 L 240.421875 170.597656 L 240.347656 170.46875 L 240.191406 170.210938 L 240.027344 169.960938 L 239.945312 169.839844 L 239.863281 169.714844 L 239.777344 169.59375 L 239.601562 169.355469 L 239.421875 169.121094 L 239.046875 168.667969 " fill-opacity="1" fill-rule="evenodd"/></g></g><g clip-path="url(#bac8af040f)"><g clip-path="url(#5a57a6454c)"><path fill="#5e35b1" d="M 241.394531 172.65625 L 352.460938 283.726562 L 352.511719 283.863281 L 352.5625 284.003906 L 352.609375 284.140625 L 352.65625 284.28125 L 352.742188 284.5625 L 352.785156 284.707031 L 352.824219 284.851562 L 352.863281 284.992188 L 352.933594 285.28125 L 352.96875 285.429688 L 353 285.574219 L 353.03125 285.722656 L 353.0625 285.867188 L 353.085938 286.015625 L 353.113281 286.167969 L 353.140625 286.316406 L 353.160156 286.464844 L 353.183594 286.617188 L 353.203125 286.765625 L 353.25 287.222656 L 353.277344 287.527344 L 353.285156 287.679688 L 353.300781 287.992188 L 353.300781 288.144531 L 353.304688 288.300781 L 353.304688 288.457031 L 242.238281 177.386719 L 242.234375 177.078125 L 242.230469 176.921875 L 242.222656 176.769531 L 242.214844 176.613281 L 242.207031 176.460938 L 242.195312 176.304688 L 242.183594 176.152344 L 242.152344 175.847656 L 242.132812 175.695312 L 242.113281 175.546875 L 242.09375 175.394531 L 242.046875 175.097656 L 242.019531 174.949219 L 241.960938 174.652344 L 241.933594 174.503906 L 241.898438 174.359375 L 241.867188 174.214844 L 241.832031 174.070312 L 241.792969 173.921875 L 241.753906 173.78125 L 241.714844 173.636719 L 241.671875 173.496094 L 241.632812 173.355469 L 241.585938 173.210938 L 241.539062 173.074219 L 241.445312 172.792969 L 241.394531 172.65625 " fill-opacity="1" fill-rule="evenodd"/></g></g><g clip-path="url(#fd5ce4011a)"><g clip-path="url(#850fbb8a29)"><path fill="#5e35b1" d="M 242.238281 177.386719 L 353.304688 288.457031 L 353.304688 320.140625 L 242.238281 209.070312 L 242.238281 177.386719 " fill-opacity="1" fill-rule="evenodd"/></g></g><g clip-path="url(#d90c6751c2)"><g clip-path="url(#774159da6b)"><path fill="#5e35b1" d="M 242.238281 209.070312 L 353.304688 320.140625 L 353.304688 320.292969 L 353.300781 320.605469 L 353.292969 320.761719 L 353.277344 321.066406 L 353.261719 321.222656 L 353.25 321.375 L 353.203125 321.832031 L 353.183594 321.980469 L 353.140625 322.28125 L 353.113281 322.429688 L 353.085938 322.582031 L 353.0625 322.726562 L 353 323.023438 L 352.96875 323.167969 L 352.933594 323.3125 L 352.863281 323.605469 L 352.824219 323.746094 L 352.785156 323.890625 L 352.699219 324.171875 L 352.65625 324.316406 L 352.609375 324.453125 L 352.5625 324.59375 L 352.511719 324.734375 L 352.460938 324.871094 L 241.394531 213.800781 L 241.445312 213.664062 L 241.492188 213.523438 L 241.539062 213.386719 L 241.632812 213.105469 L 241.671875 212.964844 L 241.714844 212.820312 L 241.753906 212.679688 L 241.832031 212.390625 L 241.867188 212.246094 L 241.933594 211.953125 L 241.960938 211.804688 L 242.019531 211.511719 L 242.046875 211.363281 L 242.09375 211.0625 L 242.113281 210.910156 L 242.152344 210.609375 L 242.183594 210.304688 L 242.207031 210 L 242.214844 209.84375 L 242.222656 209.691406 L 242.230469 209.535156 L 242.234375 209.382812 L 242.238281 209.070312 " fill-opacity="1" fill-rule="evenodd"/></g></g><g clip-path="url(#4bb3c1f529)"><g clip-path="url(#65999915c9)"><path fill="#5e35b1" d="M 241.394531 213.800781 L 352.460938 324.871094 L 352.410156 325.015625 L 352.351562 325.160156 L 352.296875 325.300781 L 352.238281 325.441406 L 352.113281 325.722656 L 351.988281 325.996094 L 351.917969 326.132812 L 351.851562 326.269531 L 351.710938 326.535156 L 351.566406 326.800781 L 351.492188 326.929688 L 351.414062 327.058594 L 351.339844 327.1875 L 351.257812 327.316406 L 351.179688 327.441406 L 351.097656 327.566406 L 351.015625 327.6875 L 350.929688 327.8125 L 350.757812 328.054688 L 350.671875 328.171875 L 350.578125 328.289062 L 350.492188 328.40625 L 350.210938 328.746094 L 350.113281 328.859375 L 350.019531 328.96875 L 238.949219 217.898438 L 239.046875 217.789062 L 239.140625 217.679688 L 239.234375 217.566406 L 239.421875 217.335938 L 239.511719 217.222656 L 239.601562 217.101562 L 239.777344 216.863281 L 239.863281 216.742188 L 239.945312 216.621094 L 240.191406 216.246094 L 240.269531 216.121094 L 240.347656 215.992188 L 240.421875 215.863281 L 240.5 215.730469 L 240.570312 215.601562 L 240.644531 215.46875 L 240.714844 215.335938 L 240.917969 214.929688 L 240.980469 214.789062 L 241.046875 214.652344 L 241.109375 214.511719 L 241.285156 214.089844 L 241.394531 213.800781 " fill-opacity="1" fill-rule="evenodd"/></g></g><g clip-path="url(#acd616cd93)"><g clip-path="url(#153cf1291d)"><path fill="#5e35b1" d="M 238.949219 217.898438 L 350.019531 328.96875 L 350.015625 328.972656 L 238.945312 217.902344 L 238.949219 217.898438 " fill-opacity="1" fill-rule="evenodd"/><path fill="#5e35b1" d="M 238.945312 217.902344 L 350.015625 328.972656 L 350.011719 328.976562 L 238.945312 217.90625 L 238.945312 217.902344 " fill-opacity="1" fill-rule="evenodd"/></g></g><g clip-path="url(#efcf50642e)"><g clip-path="url(#186987d968)"><path fill="#5e35b1" d="M 238.945312 217.90625 L 350.011719 328.976562 L 349.914062 329.085938 L 349.8125 329.191406 L 349.609375 329.40625 L 349.398438 329.613281 L 349.1875 329.816406 L 348.96875 330.011719 L 348.746094 330.203125 L 348.632812 330.296875 L 348.515625 330.386719 L 348.402344 330.480469 L 348.167969 330.652344 L 348.046875 330.738281 L 347.929688 330.824219 L 347.804688 330.90625 L 347.683594 330.988281 L 347.5625 331.066406 L 347.3125 331.222656 L 347.1875 331.296875 L 347.058594 331.371094 L 346.929688 331.441406 L 346.804688 331.511719 L 346.671875 331.582031 L 346.542969 331.644531 L 346.410156 331.710938 L 346.277344 331.773438 L 235.207031 220.703125 L 235.472656 220.578125 L 235.605469 220.511719 L 235.992188 220.300781 L 236.367188 220.078125 L 236.492188 220 L 236.613281 219.917969 L 236.738281 219.839844 L 236.859375 219.757812 L 236.980469 219.671875 L 237.214844 219.5 L 237.332031 219.410156 L 237.445312 219.316406 L 237.5625 219.226562 L 237.789062 219.039062 L 238.226562 218.648438 L 238.332031 218.542969 L 238.4375 218.441406 L 238.542969 218.335938 L 238.746094 218.125 L 238.847656 218.015625 L 238.945312 217.90625 " fill-opacity="1" fill-rule="evenodd"/></g></g><g clip-path="url(#9b5c32b226)"><g clip-path="url(#26b0d39e46)"><path fill="#5e35b1" d="M 235.207031 220.703125 L 346.277344 331.773438 L 346.148438 331.832031 L 345.882812 331.949219 L 345.617188 332.058594 L 345.480469 332.109375 L 345.347656 332.15625 L 345.210938 332.207031 L 345.074219 332.25 L 344.9375 332.296875 L 344.800781 332.339844 L 344.527344 332.417969 L 344.386719 332.457031 L 344.246094 332.492188 L 343.96875 332.554688 L 343.683594 332.613281 L 343.542969 332.636719 L 343.398438 332.660156 L 343.253906 332.679688 L 343.113281 332.699219 L 342.96875 332.71875 L 342.824219 332.734375 L 342.679688 332.746094 L 342.53125 332.757812 L 342.386719 332.765625 L 342.242188 332.777344 L 342.09375 332.78125 L 341.949219 332.785156 L 341.800781 332.785156 L 230.734375 221.714844 L 230.878906 221.714844 L 231.027344 221.710938 L 231.171875 221.707031 L 231.320312 221.699219 L 231.464844 221.691406 L 231.753906 221.664062 L 232.042969 221.632812 L 232.1875 221.613281 L 232.332031 221.589844 L 232.613281 221.542969 L 232.753906 221.515625 L 232.898438 221.484375 L 233.039062 221.453125 L 233.175781 221.421875 L 233.316406 221.386719 L 233.457031 221.347656 L 233.597656 221.3125 L 234.007812 221.183594 L 234.144531 221.136719 L 234.277344 221.089844 L 234.414062 221.039062 L 234.546875 220.988281 L 234.945312 220.824219 L 235.078125 220.765625 L 235.207031 220.703125 " fill-opacity="1" fill-rule="evenodd"/></g></g><g clip-path="url(#ddba457a4f)"><g clip-path="url(#ba7d86491e)"><path fill="#5e35b1" d="M 153.242188 157.808594 L 264.3125 268.878906 L 246.054688 268.878906 L 134.984375 157.808594 L 153.242188 157.808594 " fill-opacity="1" fill-rule="evenodd"/></g></g><g clip-path="url(#7a0de0a811)"><g clip-path="url(#8ebaf37b92)"><path fill="#5e35b1" d="M 187.496094 221.714844 L 298.5625 332.785156 L 298.546875 332.785156 L 187.480469 221.714844 L 187.496094 221.714844 " fill-opacity="1" fill-rule="evenodd"/></g></g><g clip-path="url(#280c609d24)"><g clip-path="url(#4d7d9a8db3)"><path fill="#5e35b1" d="M 187.480469 221.714844 L 298.546875 332.785156 L 255.292969 332.785156 L 144.226562 221.714844 L 187.480469 221.714844 " fill-opacity="1" fill-rule="evenodd"/></g></g><g clip-path="url(#01b0619c09)"><g clip-path="url(#3c9f58c718)"><path fill="#5e35b1" d="M 144.226562 221.714844 L 255.292969 332.785156 L 255.148438 332.785156 L 255 332.78125 L 254.855469 332.777344 L 254.707031 332.765625 L 254.5625 332.757812 L 254.273438 332.734375 L 254.128906 332.71875 L 253.839844 332.679688 L 253.699219 332.660156 L 253.554688 332.636719 L 253.414062 332.613281 L 253.128906 332.554688 L 252.851562 332.492188 L 252.710938 332.457031 L 252.570312 332.417969 L 252.292969 332.339844 L 252.15625 332.296875 L 252.019531 332.25 L 251.886719 332.207031 L 251.75 332.15625 L 251.613281 332.109375 L 251.480469 332.058594 L 251.214844 331.949219 L 250.949219 331.832031 L 250.820312 331.773438 L 139.75 220.703125 L 139.882812 220.765625 L 140.011719 220.824219 L 140.277344 220.933594 L 140.546875 221.039062 L 140.679688 221.089844 L 140.953125 221.183594 L 141.085938 221.226562 L 141.226562 221.269531 L 141.363281 221.3125 L 141.5 221.347656 L 141.640625 221.386719 L 141.78125 221.421875 L 142.203125 221.515625 L 142.34375 221.542969 L 142.488281 221.566406 L 142.628906 221.589844 L 142.773438 221.613281 L 142.917969 221.632812 L 143.058594 221.648438 L 143.203125 221.664062 L 143.492188 221.691406 L 143.640625 221.699219 L 143.785156 221.707031 L 143.933594 221.710938 L 144.078125 221.714844 L 144.226562 221.714844 " fill-opacity="1" fill-rule="evenodd"/></g></g><g clip-path="url(#4f84c91537)"><g clip-path="url(#8a6e047057)"><path fill="#5e35b1" d="M 139.75 220.703125 L 250.820312 331.773438 L 250.6875 331.710938 L 250.554688 331.644531 L 250.425781 331.582031 L 250.292969 331.511719 L 250.164062 331.441406 L 250.039062 331.371094 L 249.910156 331.296875 L 249.785156 331.222656 L 249.535156 331.066406 L 249.414062 330.988281 L 249.289062 330.90625 L 249.167969 330.824219 L 249.050781 330.738281 L 248.929688 330.652344 L 248.695312 330.480469 L 248.578125 330.386719 L 248.464844 330.296875 L 248.351562 330.203125 L 248.242188 330.109375 L 137.171875 219.039062 L 137.398438 219.226562 L 137.625 219.410156 L 137.742188 219.5 L 137.863281 219.585938 L 137.980469 219.671875 L 138.101562 219.757812 L 138.222656 219.839844 L 138.34375 219.917969 L 138.464844 220 L 138.589844 220.078125 L 138.714844 220.152344 L 138.84375 220.226562 L 138.96875 220.300781 L 139.355469 220.511719 L 139.488281 220.578125 L 139.617188 220.640625 L 139.75 220.703125 " fill-opacity="1" fill-rule="evenodd"/></g></g><g clip-path="url(#9bb5f61e70)"><g clip-path="url(#d45f01155a)"><path fill="#5e35b1" d="M 230.734375 221.714844 L 341.800781 332.785156 L 298.5625 332.785156 L 187.496094 221.714844 L 230.734375 221.714844 " fill-opacity="1" fill-rule="evenodd"/></g></g><g clip-path="url(#bb52104e17)"><g clip-path="url(#6960d53aa4)"><path fill="#5e35b1" d="M 136.015625 168.550781 Z M 134.984375 153.242188 L 240.160156 153.242188 L 240.160156 157.808594 L 223.996094 157.808594 L 223.996094 164.742188 L 230.734375 164.742188 C 232.304688 164.742188 233.816406 165.105469 235.207031 165.753906 C 236.628906 166.417969 237.894531 167.375 238.945312 168.554688 L 238.945312 168.558594 L 238.949219 168.558594 C 239.988281 169.726562 240.824219 171.117188 241.394531 172.65625 C 241.9375 174.125 242.238281 175.722656 242.238281 177.386719 L 242.238281 209.070312 C 242.238281 210.734375 241.9375 212.335938 241.394531 213.800781 C 240.824219 215.34375 239.988281 216.734375 238.949219 217.898438 L 238.945312 217.902344 L 238.945312 217.90625 C 237.894531 219.082031 236.628906 220.039062 235.207031 220.703125 C 233.816406 221.355469 232.304688 221.714844 230.734375 221.714844 L 144.226562 221.714844 C 142.65625 221.714844 141.140625 221.355469 139.75 220.703125 C 138.332031 220.039062 137.0625 219.082031 136.015625 217.90625 L 136.007812 217.898438 C 134.972656 216.734375 134.132812 215.34375 133.566406 213.800781 C 133.023438 212.335938 132.722656 210.734375 132.722656 209.070312 L 132.722656 177.386719 C 132.722656 175.722656 133.023438 174.121094 133.566406 172.65625 C 134.132812 171.113281 134.972656 169.722656 136.007812 168.558594 L 136.015625 168.550781 C 137.0625 167.375 138.328125 166.417969 139.75 165.753906 C 141.140625 165.105469 142.652344 164.742188 144.226562 164.742188 L 153.242188 164.742188 L 153.242188 157.808594 L 134.984375 157.808594 L 134.984375 153.242188 " fill-opacity="1" fill-rule="evenodd"/></g></g><path fill="#f57c00" d="M 240.160156 157.808594 L 223.996094 157.808594 L 223.996094 166.9375 L 219.433594 166.9375 L 219.433594 157.808594 L 157.808594 157.808594 L 157.808594 166.9375 L 153.242188 166.9375 L 153.242188 157.808594 L 134.984375 157.808594 L 134.984375 153.242188 L 240.160156 153.242188 L 240.160156 157.808594 " fill-opacity="1" fill-rule="nonzero"/><path fill="#ffb74d" d="M 187.480469 164.742188 L 230.734375 164.742188 C 232.304688 164.742188 233.816406 165.105469 235.207031 165.753906 C 236.628906 166.417969 237.894531 167.375 238.945312 168.554688 L 238.945312 168.558594 L 238.949219 168.558594 C 239.988281 169.726562 240.824219 171.117188 241.394531 172.65625 C 241.9375 174.125 242.238281 175.722656 242.238281 177.386719 L 242.238281 209.070312 C 242.238281 210.734375 241.9375 212.335938 241.394531 213.800781 C 240.824219 215.34375 239.988281 216.734375 238.949219 217.898438 L 238.945312 217.902344 L 238.945312 217.90625 C 237.894531 219.082031 236.628906 220.039062 235.207031 220.703125 C 233.816406 221.355469 232.304688 221.714844 230.734375 221.714844 L 187.480469 221.714844 L 187.480469 164.742188 " fill-opacity="1" fill-rule="nonzero"/><path fill="#ffa726" d="M 144.226562 164.742188 L 187.480469 164.742188 L 187.480469 221.714844 L 144.226562 221.714844 C 142.65625 221.714844 141.140625 221.355469 139.75 220.703125 C 138.332031 220.039062 137.0625 219.082031 136.015625 217.90625 L 136.007812 217.898438 C 134.972656 216.734375 134.132812 215.34375 133.566406 213.800781 C 133.023438 212.335938 132.722656 210.734375 132.722656 209.070312 L 132.722656 177.386719 C 132.722656 175.722656 133.023438 174.121094 133.566406 172.65625 C 134.132812 171.113281 134.972656 169.722656 136.007812 168.558594 L 136.015625 168.550781 C 137.0625 167.375 138.328125 166.417969 139.75 165.753906 C 141.140625 165.105469 142.652344 164.742188 144.226562 164.742188 " fill-opacity="1" fill-rule="nonzero"/><path fill="#fff3e0" d="M 218.386719 186.082031 L 221.671875 186.082031 L 221.671875 203.234375 L 224.816406 203.234375 L 224.816406 186.082031 L 228.105469 186.082031 L 228.105469 183.222656 L 218.386719 183.222656 Z M 213.808594 203.234375 L 217.039062 203.234375 L 217.039062 183.222656 L 214.238281 183.222656 L 214.238281 195.203125 L 211.007812 183.222656 L 207.0625 183.222656 L 207.0625 203.234375 L 209.894531 203.234375 L 209.894531 188.742188 Z M 199.714844 186.082031 L 205.148438 186.082031 L 205.148438 183.222656 L 196.570312 183.222656 L 196.570312 203.234375 L 205.148438 203.234375 L 205.148438 200.375 L 199.714844 200.375 L 199.714844 194.515625 L 204.035156 194.515625 L 204.035156 191.65625 L 199.714844 191.65625 Z M 189.738281 186.082031 C 190.289062 186.078125 190.699219 186.242188 190.957031 186.574219 C 191.214844 186.90625 191.34375 187.429688 191.339844 188.140625 L 191.339844 190.113281 C 191.339844 190.640625 191.261719 191.0625 191.109375 191.371094 C 190.957031 191.679688 190.742188 191.90625 190.460938 192.039062 C 190.179688 192.167969 189.84375 192.234375 189.453125 192.226562 L 188.222656 192.226562 L 188.222656 186.082031 Z M 194.855469 203.234375 C 194.703125 202.867188 194.609375 202.492188 194.566406 202.105469 C 194.527344 201.722656 194.507812 201.285156 194.511719 200.804688 L 194.511719 197.71875 C 194.519531 197.023438 194.449219 196.394531 194.320312 195.832031 C 194.1875 195.273438 193.96875 194.792969 193.664062 194.390625 C 193.359375 193.992188 192.945312 193.675781 192.425781 193.457031 C 193.125 193.128906 193.640625 192.628906 193.980469 191.953125 C 194.316406 191.28125 194.484375 190.425781 194.484375 189.398438 L 194.484375 187.824219 C 194.488281 186.796875 194.328125 185.941406 193.996094 185.257812 C 193.675781 184.574219 193.167969 184.066406 192.480469 183.726562 C 191.792969 183.390625 190.90625 183.222656 189.824219 183.222656 L 185.078125 183.222656 L 185.078125 203.234375 L 188.222656 203.234375 L 188.222656 195.085938 L 189.308594 195.085938 C 189.785156 195.082031 190.175781 195.167969 190.476562 195.335938 C 190.78125 195.5 191.003906 195.773438 191.152344 196.144531 C 191.296875 196.523438 191.367188 197.019531 191.367188 197.632812 L 191.367188 200.777344 C 191.367188 201.179688 191.378906 201.515625 191.386719 201.777344 C 191.402344 202.039062 191.421875 202.253906 191.449219 202.425781 C 191.472656 202.59375 191.5 202.738281 191.539062 202.863281 C 191.570312 202.988281 191.609375 203.113281 191.652344 203.234375 Z M 173.8125 186.082031 C 174.367188 186.078125 174.773438 186.242188 175.03125 186.574219 C 175.289062 186.90625 175.417969 187.429688 175.414062 188.140625 L 175.414062 190.113281 C 175.414062 190.640625 175.339844 191.0625 175.1875 191.371094 C 175.03125 191.679688 174.816406 191.90625 174.539062 192.039062 C 174.257812 192.167969 173.917969 192.234375 173.527344 192.226562 L 172.296875 192.226562 L 172.296875 186.082031 Z M 178.929688 203.234375 C 178.777344 202.867188 178.683594 202.492188 178.640625 202.105469 C 178.601562 201.722656 178.582031 201.285156 178.589844 200.804688 L 178.589844 197.71875 C 178.59375 197.023438 178.527344 196.394531 178.398438 195.832031 C 178.265625 195.273438 178.042969 194.792969 177.738281 194.390625 C 177.433594 193.992188 177.019531 193.675781 176.5 193.457031 C 177.199219 193.128906 177.714844 192.628906 178.054688 191.953125 C 178.394531 191.28125 178.558594 190.425781 178.558594 189.398438 L 178.558594 187.824219 C 178.566406 186.796875 178.402344 185.941406 178.074219 185.257812 C 177.75 184.574219 177.242188 184.066406 176.558594 183.726562 C 175.867188 183.390625 174.980469 183.222656 173.898438 183.222656 L 169.152344 183.222656 L 169.152344 203.234375 L 172.296875 203.234375 L 172.296875 195.085938 L 173.382812 195.085938 C 173.863281 195.082031 174.25 195.167969 174.550781 195.335938 C 174.855469 195.5 175.082031 195.773438 175.230469 196.144531 C 175.371094 196.523438 175.445312 197.019531 175.445312 197.632812 L 175.445312 200.777344 C 175.445312 201.179688 175.453125 201.515625 175.460938 201.777344 C 175.476562 202.039062 175.496094 202.253906 175.523438 202.425781 C 175.546875 202.59375 175.578125 202.738281 175.613281 202.863281 C 175.648438 202.988281 175.683594 203.113281 175.726562 203.234375 Z M 157.574219 198.433594 C 157.574219 199.503906 157.761719 200.410156 158.125 201.160156 C 158.492188 201.90625 159.027344 202.480469 159.738281 202.875 C 160.445312 203.265625 161.320312 203.457031 162.347656 203.464844 C 163.378906 203.457031 164.25 203.265625 164.960938 202.875 C 165.671875 202.480469 166.203125 201.90625 166.570312 201.160156 C 166.9375 200.410156 167.125 199.503906 167.125 198.433594 L 167.125 188.027344 C 167.125 186.953125 166.9375 186.042969 166.570312 185.296875 C 166.203125 184.546875 165.671875 183.980469 164.960938 183.585938 C 164.25 183.195312 163.378906 183 162.347656 182.992188 C 161.320312 183 160.445312 183.195312 159.738281 183.585938 C 159.027344 183.980469 158.492188 184.546875 158.125 185.296875 C 157.761719 186.042969 157.574219 186.953125 157.574219 188.027344 Z M 160.71875 187.824219 C 160.722656 187.117188 160.871094 186.609375 161.160156 186.300781 C 161.449219 185.996094 161.84375 185.84375 162.347656 185.855469 C 162.851562 185.84375 163.25 185.996094 163.539062 186.300781 C 163.824219 186.609375 163.972656 187.117188 163.976562 187.824219 L 163.976562 198.632812 C 163.972656 199.34375 163.824219 199.847656 163.539062 200.15625 C 163.25 200.460938 162.851562 200.613281 162.347656 200.605469 C 161.84375 200.613281 161.449219 200.460938 161.160156 200.15625 C 160.871094 199.847656 160.722656 199.34375 160.71875 198.632812 Z M 151.140625 186.082031 L 156.316406 186.082031 L 156.316406 183.222656 L 147.996094 183.222656 L 147.996094 203.234375 L 151.140625 203.234375 L 151.140625 194.972656 L 155.203125 194.972656 L 155.203125 192.113281 L 151.140625 192.113281 L 151.140625 186.082031 " fill-opacity="1" fill-rule="nonzero"/></svg>