<svg xmlns="http://www.w3.org/2000/svg" xmlns:xlink="http://www.w3.org/1999/xlink" width="500" zoomAndPan="magnify" viewBox="0 0 375 374.999991" height="500" preserveAspectRatio="xMidYMid meet" version="1.0"><defs><clipPath id="574c1fd32f"><path d="M 112.5 131.25 L 262.5 131.25 L 262.5 243.75 L 112.5 243.75 Z M 112.5 131.25 " clip-rule="nonzero"/></clipPath></defs><g clip-path="url(#574c1fd32f)"><path fill="#ffffff" d="M 246.875 175 L 235.667969 175 L 199.082031 138.414062 C 198.929688 138.261719 198.742188 138.1875 198.570312 138.074219 C 196.5 134.042969 192.335938 131.25 187.5 131.25 C 182.664062 131.25 178.5 134.042969 176.425781 138.074219 C 176.257812 138.1875 176.070312 138.261719 175.914062 138.414062 L 139.332031 175 L 128.125 175 C 119.507812 175 112.5 182.011719 112.5 190.625 L 112.5 228.125 C 112.5 236.738281 119.507812 243.75 128.125 243.75 L 246.875 243.75 C 255.492188 243.75 262.5 236.738281 262.5 228.125 L 262.5 190.625 C 262.5 182.011719 255.492188 175 246.875 175 Z M 175.644531 147.523438 C 177.257812 152.570312 181.929688 156.25 187.5 156.25 C 193.070312 156.25 197.742188 152.570312 199.355469 147.523438 L 226.832031 175 L 148.167969 175 Z M 149.273438 226.125 C 150.382812 227.449219 150.199219 229.425781 148.882812 230.53125 C 148.292969 231.019531 147.585938 231.257812 146.882812 231.257812 C 145.988281 231.257812 145.101562 230.875 144.480469 230.132812 L 131.25 214.257812 L 131.25 228.125 C 131.25 229.851562 129.851562 231.25 128.125 231.25 C 126.398438 231.25 125 229.851562 125 228.125 L 125 190.625 C 125 188.898438 126.398438 187.5 128.125 187.5 L 137.5 187.5 C 144.394531 187.5 150 193.105469 150 200 C 150 206.757812 144.617188 212.273438 137.914062 212.492188 Z M 171.875 206.25 C 173.601562 206.25 175 207.648438 175 209.375 C 175 211.101562 173.601562 212.5 171.875 212.5 L 162.5 212.5 L 162.5 225 L 178.125 225 C 179.851562 225 181.25 226.398438 181.25 228.125 C 181.25 229.851562 179.851562 231.25 178.125 231.25 L 159.375 231.25 C 157.648438 231.25 156.25 229.851562 156.25 228.125 L 156.25 190.625 C 156.25 188.898438 157.648438 187.5 159.375 187.5 L 178.125 187.5 C 179.851562 187.5 181.25 188.898438 181.25 190.625 C 181.25 192.351562 179.851562 193.75 178.125 193.75 L 162.5 193.75 L 162.5 206.25 Z M 212.507812 228.125 C 212.5 229.574219 211.507812 230.835938 210.09375 231.167969 C 209.851562 231.226562 209.613281 231.25 209.375 231.25 C 208.207031 231.25 207.117188 230.601562 206.582031 229.523438 L 193.75 203.863281 L 193.75 228.125 C 193.75 229.851562 192.351562 231.25 190.625 231.25 C 188.898438 231.25 187.5 229.851562 187.5 228.125 L 187.5 190.625 C 187.5 189.175781 188.492188 187.914062 189.90625 187.582031 C 191.34375 187.25 192.773438 187.925781 193.425781 189.226562 L 206.257812 214.882812 L 206.257812 190.617188 C 206.257812 188.894531 207.65625 187.492188 209.382812 187.492188 C 211.105469 187.492188 212.507812 188.894531 212.507812 190.617188 Z M 246.875 193.75 L 237.5 193.75 L 237.5 228.125 C 237.5 229.851562 236.101562 231.25 234.375 231.25 C 232.648438 231.25 231.25 229.851562 231.25 228.125 L 231.25 193.75 L 221.875 193.75 C 220.148438 193.75 218.75 192.351562 218.75 190.625 C 218.75 188.898438 220.148438 187.5 221.875 187.5 L 246.875 187.5 C 248.601562 187.5 250 188.898438 250 190.625 C 250 192.351562 248.601562 193.75 246.875 193.75 Z M 137.5 193.75 L 131.25 193.75 L 131.25 206.25 L 137.5 206.25 C 140.949219 206.25 143.75 203.445312 143.75 200 C 143.75 196.554688 140.949219 193.75 137.5 193.75 Z M 137.5 193.75 " fill-opacity="1" fill-rule="nonzero"/></g></svg>