<svg width="24" height="24" viewBox="0 0 24 24" fill="none" xmlns="http://www.w3.org/2000/svg">
<rect y="3.42993" width="24" height="17.1429" rx="2" fill="white"/>
<mask id="mask0_91_939" style="mask-type:luminance" maskUnits="userSpaceOnUse" x="0" y="3" width="24" height="18">
<rect y="3.42993" width="24" height="17.1429" rx="2" fill="white"/>
</mask>
<g mask="url(#mask0_91_939)">
<rect y="3.42993" width="24" height="17.1429" fill="#DC1F37"/>
<rect y="3.42993" width="10.2857" height="8" fill="#042C90"/>
<path fill-rule="evenodd" clip-rule="evenodd" d="M14.8572 12.0014C14.8572 10.2871 14.8572 9.14429 14.8572 9.14429H17.1429H19.4286C19.4286 9.14429 19.4286 10.2871 19.4286 12.0014C19.4286 13.7157 17.1429 14.8586 17.1429 14.8586C17.1429 14.8586 14.8572 13.7157 14.8572 12.0014Z" fill="white"/>
<mask id="mask1_91_939" style="mask-type:luminance" maskUnits="userSpaceOnUse" x="14" y="9" width="6" height="6">
<path fill-rule="evenodd" clip-rule="evenodd" d="M14.8572 12.0014C14.8572 10.2871 14.8572 9.14429 14.8572 9.14429H17.1429H19.4286C19.4286 9.14429 19.4286 10.2871 19.4286 12.0014C19.4286 13.7157 17.1429 14.8586 17.1429 14.8586C17.1429 14.8586 14.8572 13.7157 14.8572 12.0014Z" fill="white"/>
</mask>
<g mask="url(#mask1_91_939)">
<path fill-rule="evenodd" clip-rule="evenodd" d="M17.1429 13.7156C17.774 13.7156 18.2857 13.204 18.2857 12.5728C18.2857 11.9416 17.774 11.4299 17.1429 11.4299C16.5117 11.4299 16 11.9416 16 12.5728C16 13.204 16.5117 13.7156 17.1429 13.7156Z" fill="#65B5D2"/>
<path fill-rule="evenodd" clip-rule="evenodd" d="M17.143 11.43C17.4586 11.43 17.7144 11.1741 17.7144 10.8585C17.7144 10.5429 17.4586 10.2871 17.143 10.2871C16.8274 10.2871 16.5715 10.5429 16.5715 10.8585C16.5715 11.1741 16.8274 11.43 17.143 11.43ZM16.0001 12.5728C16.3157 12.5728 16.5716 12.317 16.5716 12.0014C16.5716 11.6858 16.3157 11.4299 16.0001 11.4299C15.6845 11.4299 15.4287 11.6858 15.4287 12.0014C15.4287 12.317 15.6845 12.5728 16.0001 12.5728ZM18.8573 12.0014C18.8573 12.317 18.6015 12.5728 18.2859 12.5728C17.9703 12.5728 17.7144 12.317 17.7144 12.0014C17.7144 11.6858 17.9703 11.4299 18.2859 11.4299C18.6015 11.4299 18.8573 11.6858 18.8573 12.0014Z" fill="url(#paint0_linear_91_939)"/>
<rect x="14.8572" y="13.7156" width="4.57143" height="1.14286" fill="#2F8F22"/>
</g>
<path d="M0 3.0966H-0.901086L-0.21693 3.68302L3.66667 7.01181V7.82982L-0.193746 10.5873L-0.333333 10.687V10.8585V11.4299V12.0313L0.176666 11.7126L4.66703 8.90612H5.60746L9.47126 11.666L9.665 11.3947L9.47126 11.666C9.55985 11.7293 9.66599 11.7633 9.77485 11.7633C10.2598 11.7633 10.4829 11.16 10.1148 10.8444L6.61905 7.84805V7.03004L10.3399 4.37231C10.5151 4.24717 10.619 4.04512 10.619 3.82982V3.42993V2.82852L10.109 3.14727L5.61869 5.95374H4.67825L0.765175 3.15869L0.67825 3.0966H0.571429H0Z" fill="#DB1E36" stroke="white" stroke-width="0.666667"/>
<path fill-rule="evenodd" clip-rule="evenodd" d="M0 6.28707V8.57279H4V11.3347C4 11.7029 4.29848 12.0014 4.66667 12.0014H5.61905C5.98724 12.0014 6.28571 11.7029 6.28571 11.3347V8.57279H10.1905C10.5587 8.57279 10.8571 8.27431 10.8571 7.90612V6.95374C10.8571 6.58555 10.5587 6.28707 10.1905 6.28707H6.28571V3.42993H4V6.28707H0Z" fill="white"/>
<path fill-rule="evenodd" clip-rule="evenodd" d="M0 6.8585H4.57143V6.28707V3.42993H5.71429V6.28707V6.8585H10.2857V8.00136H5.71429V8.57279V11.4299H4.57143V8.57279V8.00136H0V6.8585Z" fill="url(#paint1_linear_91_939)"/>
</g>
<defs>
<linearGradient id="paint0_linear_91_939" x1="15.4287" y1="10.2871" x2="15.4287" y2="12.5728" gradientUnits="userSpaceOnUse">
<stop stop-color="#E20B0C"/>
<stop offset="1" stop-color="#D40001"/>
</linearGradient>
<linearGradient id="paint1_linear_91_939" x1="0" y1="3.42993" x2="0" y2="11.4299" gradientUnits="userSpaceOnUse">
<stop stop-color="#DB1E36"/>
<stop offset="1" stop-color="#D51931"/>
</linearGradient>
</defs>
</svg>
