<svg width="25" height="24" viewBox="0 0 25 24" fill="none" xmlns="http://www.w3.org/2000/svg">
<path d="M14.6572 19.751C14.7462 19.906 14.7452 20.098 14.6552 20.252C14.1992 21.033 13.3912 21.5 12.4932 21.5C11.5952 21.5 10.7872 21.033 10.3312 20.252C10.2412 20.098 10.2402 19.906 10.3292 19.751C10.4182 19.596 10.5832 19.5 10.7632 19.5H14.2232C14.4022 19.5 14.5672 19.596 14.6572 19.751ZM20.8842 17.688C20.8652 17.665 18.9882 15.282 18.9882 12.5V8.995C18.9882 5.414 16.0742 2.5 12.4932 2.5C8.91221 2.5 5.99821 5.414 5.99821 8.995V12.5C5.99821 15.281 4.12222 17.664 4.10222 17.688C3.98222 17.838 3.95922 18.044 4.04222 18.217C4.12522 18.39 4.30021 18.5 4.49221 18.5H20.4922C20.6842 18.5 20.8592 18.39 20.9422 18.217C21.0272 18.043 21.0032 17.838 20.8842 17.688Z" fill="#121212"/>
</svg>
