<svg xmlns="http://www.w3.org/2000/svg" xmlns:xlink="http://www.w3.org/1999/xlink" width="500" zoomAndPan="magnify" viewBox="0 0 375 374.999991" height="500" preserveAspectRatio="xMidYMid meet" version="1.0"><defs><clipPath id="8342b046f9"><path d="M 123 112.5 L 214 112.5 L 214 210 L 123 210 Z M 123 112.5 " clip-rule="nonzero"/></clipPath><clipPath id="20cfd08087"><path d="M 181 143 L 255 143 L 255 262.5 L 181 262.5 Z M 181 143 " clip-rule="nonzero"/></clipPath><clipPath id="2698989e17"><path d="M 113.4375 202 L 174 202 L 174 262.5 L 113.4375 262.5 Z M 113.4375 202 " clip-rule="nonzero"/></clipPath><clipPath id="c2f74e9693"><path d="M 224 114 L 261.9375 114 L 261.9375 152 L 224 152 Z M 224 114 " clip-rule="nonzero"/></clipPath></defs><path fill="#f4ad3b" d="M 171.34375 232.398438 C 171.34375 233.304688 171.296875 234.203125 171.207031 235.105469 C 171.121094 236.003906 170.988281 236.894531 170.808594 237.78125 C 170.632812 238.667969 170.414062 239.542969 170.152344 240.410156 C 169.886719 241.273438 169.582031 242.125 169.234375 242.957031 C 168.890625 243.792969 168.503906 244.609375 168.074219 245.40625 C 167.648438 246.203125 167.183594 246.976562 166.679688 247.730469 C 166.175781 248.480469 165.636719 249.207031 165.0625 249.902344 C 164.488281 250.601562 163.878906 251.269531 163.238281 251.910156 C 162.597656 252.550781 161.929688 253.15625 161.230469 253.730469 C 160.527344 254.300781 159.800781 254.839844 159.046875 255.339844 C 158.292969 255.84375 157.519531 256.308594 156.71875 256.734375 C 155.921875 257.160156 155.101562 257.546875 154.265625 257.890625 C 153.429688 258.238281 152.578125 258.542969 151.710938 258.804688 C 150.84375 259.066406 149.964844 259.285156 149.078125 259.460938 C 148.1875 259.636719 147.292969 259.769531 146.390625 259.859375 C 145.488281 259.949219 144.585938 259.992188 143.679688 259.992188 C 142.773438 259.992188 141.871094 259.949219 140.96875 259.859375 C 140.066406 259.769531 139.171875 259.636719 138.285156 259.460938 C 137.394531 259.285156 136.515625 259.066406 135.648438 258.804688 C 134.785156 258.542969 133.929688 258.238281 133.09375 257.890625 C 132.257812 257.546875 131.4375 257.160156 130.640625 256.734375 C 129.839844 256.308594 129.066406 255.84375 128.3125 255.339844 C 127.558594 254.839844 126.832031 254.300781 126.132812 253.730469 C 125.429688 253.15625 124.761719 252.550781 124.121094 251.910156 C 123.480469 251.269531 122.871094 250.601562 122.296875 249.902344 C 121.722656 249.207031 121.183594 248.480469 120.679688 247.730469 C 120.175781 246.976562 119.710938 246.203125 119.285156 245.40625 C 118.859375 244.609375 118.46875 243.792969 118.125 242.957031 C 117.777344 242.125 117.472656 241.273438 117.210938 240.410156 C 116.945312 239.542969 116.726562 238.667969 116.550781 237.78125 C 116.371094 236.894531 116.238281 236.003906 116.152344 235.105469 C 116.0625 234.203125 116.019531 233.304688 116.019531 232.398438 C 116.019531 231.496094 116.0625 230.59375 116.152344 229.695312 C 116.238281 228.796875 116.371094 227.902344 116.550781 227.015625 C 116.726562 226.128906 116.945312 225.253906 117.210938 224.390625 C 117.472656 223.523438 117.777344 222.675781 118.125 221.839844 C 118.46875 221.003906 118.859375 220.191406 119.285156 219.394531 C 119.710938 218.597656 120.175781 217.820312 120.679688 217.070312 C 121.183594 216.320312 121.722656 215.59375 122.296875 214.894531 C 122.871094 214.195312 123.480469 213.527344 124.121094 212.890625 C 124.761719 212.25 125.429688 211.644531 126.132812 211.070312 C 126.832031 210.496094 127.558594 209.960938 128.3125 209.457031 C 129.066406 208.957031 129.839844 208.492188 130.640625 208.066406 C 131.4375 207.640625 132.257812 207.253906 133.09375 206.90625 C 133.929688 206.5625 134.785156 206.257812 135.648438 205.996094 C 136.515625 205.734375 137.394531 205.515625 138.285156 205.335938 C 139.171875 205.160156 140.066406 205.027344 140.96875 204.941406 C 141.871094 204.851562 142.773438 204.808594 143.679688 204.808594 C 144.585938 204.808594 145.488281 204.851562 146.390625 204.941406 C 147.292969 205.027344 148.1875 205.160156 149.078125 205.335938 C 149.964844 205.515625 150.84375 205.734375 151.710938 205.996094 C 152.578125 206.257812 153.429688 206.5625 154.265625 206.90625 C 155.101562 207.253906 155.921875 207.640625 156.71875 208.066406 C 157.519531 208.492188 158.292969 208.957031 159.046875 209.457031 C 159.800781 209.960938 160.527344 210.496094 161.230469 211.070312 C 161.929688 211.644531 162.597656 212.25 163.238281 212.890625 C 163.878906 213.527344 164.488281 214.195312 165.0625 214.894531 C 165.636719 215.59375 166.175781 216.320312 166.679688 217.070312 C 167.183594 217.820312 167.648438 218.597656 168.074219 219.394531 C 168.503906 220.191406 168.890625 221.003906 169.234375 221.839844 C 169.582031 222.675781 169.886719 223.523438 170.152344 224.390625 C 170.414062 225.253906 170.632812 226.128906 170.808594 227.015625 C 170.988281 227.902344 171.121094 228.796875 171.207031 229.695312 C 171.296875 230.59375 171.34375 231.496094 171.34375 232.398438 Z M 171.34375 232.398438 " fill-opacity="1" fill-rule="nonzero"/><g clip-path="url(#8342b046f9)"><path fill="#4fd38e" d="M 203.496094 128.847656 L 195.339844 132.234375 C 194.058594 132.765625 193.453125 134.234375 193.988281 135.515625 C 194.386719 136.476562 195.320312 137.058594 196.308594 137.058594 C 196.632812 137.058594 196.960938 136.996094 197.277344 136.863281 L 212.140625 130.691406 C 212.84375 130.398438 213.378906 129.800781 213.589844 129.070312 C 213.800781 128.335938 213.667969 127.550781 213.222656 126.929688 L 203.925781 113.8125 C 203.121094 112.683594 201.554688 112.414062 200.417969 113.214844 C 199.285156 114.015625 199.015625 115.582031 199.820312 116.710938 L 205.035156 124.066406 C 188.851562 119.953125 171.988281 122.089844 157.316406 130.175781 C 142.035156 138.597656 130.957031 152.457031 126.128906 169.199219 C 122.277344 182.511719 122.726562 196.40625 127.4375 209.378906 L 132.167969 207.667969 C 127.824219 195.703125 127.40625 182.878906 130.964844 170.589844 C 135.421875 155.136719 145.648438 142.34375 159.75 134.570312 C 173.207031 127.15625 188.652344 125.164062 203.5 128.851562 Z M 203.496094 128.847656 " fill-opacity="1" fill-rule="nonzero"/></g><g clip-path="url(#20cfd08087)"><path fill="#4fd38e" d="M 191.007812 252.417969 L 198.046875 258.035156 C 199.15625 258.886719 199.332031 260.46875 198.449219 261.546875 C 197.949219 262.175781 197.21875 262.5 196.488281 262.5 C 195.9375 262.5 195.382812 262.324219 194.929688 261.949219 L 182.355469 251.914062 C 181.753906 251.4375 181.402344 250.710938 181.402344 249.957031 C 181.402344 249.207031 181.753906 248.476562 182.355469 248 L 194.929688 237.96875 C 196.011719 237.089844 197.59375 237.265625 198.449219 238.371094 C 199.332031 239.449219 199.15625 241.027344 198.046875 241.882812 L 191.15625 247.398438 C 223.421875 246.222656 249.296875 219.707031 249.296875 187.25 C 249.296875 174.78125 245.5 162.816406 238.308594 152.660156 C 236.421875 149.800781 233.359375 146.96875 233.359375 146.96875 L 237.347656 143.621094 C 237.347656 143.621094 239.441406 145.988281 242.433594 149.75 C 250.203125 160.761719 254.328125 173.730469 254.328125 187.25 C 254.328125 222.515625 226.113281 251.3125 191.007812 252.417969 Z M 191.007812 252.417969 " fill-opacity="1" fill-rule="nonzero"/></g><path fill="#e2902d" d="M 156.253906 238.671875 C 156.253906 233.207031 151.09375 231.46875 146.195312 230.371094 L 146.195312 222.644531 C 150.019531 223.453125 151.433594 225.902344 151.488281 226 C 152.113281 227.238281 153.625 227.730469 154.863281 227.121094 C 156.105469 226.5 156.609375 224.992188 155.988281 223.753906 C 155.867188 223.515625 153.265625 218.535156 146.191406 217.539062 L 146.191406 217.351562 C 146.191406 215.964844 145.066406 214.84375 143.675781 214.84375 C 142.285156 214.84375 141.164062 215.964844 141.164062 217.351562 L 141.164062 217.523438 C 135.355469 218.316406 131.105469 221.8125 131.105469 226.132812 C 131.105469 231.59375 136.265625 233.332031 141.164062 234.429688 L 141.164062 242.15625 C 137.378906 241.355469 135.949219 238.949219 135.855469 238.777344 C 135.226562 237.5625 133.730469 237.074219 132.496094 237.683594 C 131.253906 238.300781 130.75 239.808594 131.371094 241.046875 C 131.488281 241.285156 134.089844 246.265625 141.164062 247.265625 L 141.164062 247.449219 C 141.164062 248.835938 142.289062 249.957031 143.679688 249.957031 C 145.070312 249.957031 146.195312 248.835938 146.195312 247.449219 L 146.195312 247.277344 C 152 246.484375 156.253906 242.988281 156.253906 238.671875 Z M 136.136719 226.128906 C 136.136719 224.722656 138.179688 223.199219 141.164062 222.621094 L 141.164062 229.265625 C 138.113281 228.507812 136.136719 227.652344 136.136719 226.128906 Z M 146.195312 242.179688 L 146.195312 235.53125 C 149.246094 236.292969 151.222656 237.144531 151.222656 238.671875 C 151.222656 240.078125 149.183594 241.601562 146.195312 242.179688 Z M 146.195312 242.179688 " fill-opacity="1" fill-rule="nonzero"/><g clip-path="url(#2698989e17)"><path fill="#ea9a32" d="M 143.679688 262.5 C 127.039062 262.5 113.503906 248.996094 113.503906 232.398438 C 113.503906 215.800781 127.039062 202.300781 143.679688 202.300781 C 160.320312 202.300781 173.855469 215.800781 173.855469 232.398438 C 173.855469 248.996094 160.320312 262.5 143.679688 262.5 Z M 143.679688 207.316406 C 129.8125 207.316406 118.53125 218.570312 118.53125 232.398438 C 118.53125 246.230469 129.8125 257.484375 143.679688 257.484375 C 157.546875 257.484375 168.828125 246.230469 168.828125 232.398438 C 168.828125 218.570312 157.546875 207.316406 143.679688 207.316406 Z M 143.679688 207.316406 " fill-opacity="1" fill-rule="nonzero"/></g><path fill="#f4ad3b" d="M 228.78125 136.707031 L 196.710938 168.699219 C 196.578125 168.832031 196.472656 169.046875 196.492188 169.242188 L 196.492188 178.960938 C 196.46875 179.375 196.839844 179.742188 197.253906 179.722656 L 206.996094 179.722656 C 207.191406 179.742188 207.410156 179.632812 207.542969 179.503906 L 210.507812 176.546875 C 210.679688 176.371094 210.765625 176.113281 210.726562 175.871094 L 209.832031 170.742188 L 214.976562 171.632812 C 215.214844 171.675781 215.476562 171.589844 215.628906 171.4375 L 218.503906 168.566406 C 218.679688 168.394531 218.765625 168.132812 218.722656 167.890625 L 217.832031 162.761719 L 222.972656 163.652344 C 223.210938 163.695312 223.472656 163.609375 223.648438 163.433594 L 226.527344 160.566406 C 226.679688 160.414062 226.765625 160.152344 226.722656 159.914062 L 225.832031 154.785156 L 230.972656 155.675781 C 231.210938 155.714844 231.472656 155.632812 231.648438 155.457031 L 239.621094 147.484375 L 228.789062 136.703125 Z M 228.78125 136.707031 " fill-opacity="1" fill-rule="nonzero"/><g clip-path="url(#c2f74e9693)"><path fill="#ea9a32" d="M 243.339844 114.507812 C 233.101562 114.507812 224.828125 122.785156 224.828125 132.992188 C 224.828125 143.203125 233.101562 151.453125 243.339844 151.453125 C 253.574219 151.453125 261.871094 143.203125 261.871094 132.992188 C 261.871094 122.785156 253.574219 114.507812 243.339844 114.507812 Z M 249.875 135.800781 C 247.285156 138.386719 243.085938 138.386719 240.523438 135.800781 C 237.929688 133.242188 237.929688 129.054688 240.523438 126.472656 C 243.085938 123.886719 247.285156 123.886719 249.875 126.472656 C 252.464844 129.054688 252.464844 133.242188 249.875 135.800781 Z M 249.875 135.800781 " fill-opacity="1" fill-rule="nonzero"/></g></svg>