<svg xmlns="http://www.w3.org/2000/svg" xmlns:xlink="http://www.w3.org/1999/xlink" width="500" zoomAndPan="magnify" viewBox="0 0 375 374.999991" height="500" preserveAspectRatio="xMidYMid meet" version="1.0"><defs><clipPath id="098582449c"><path d="M 131.25 103.742188 L 240 103.742188 L 240 253.742188 L 131.25 253.742188 Z M 131.25 103.742188 " clip-rule="nonzero"/></clipPath></defs><path fill="#00c89e" d="M 237.714844 157.832031 C 237.714844 150.242188 236.066406 143.007812 233.128906 136.5 L 185.492188 170.050781 L 163.675781 216 L 172.820312 228.570312 C 173.730469 229.828125 174.464844 231.175781 174.996094 232.644531 L 180.613281 247.996094 C 182.347656 252.773438 189.167969 252.746094 190.875 247.9375 L 196.3125 232.703125 C 196.84375 231.207031 197.605469 229.800781 198.519531 228.511719 L 226.277344 190.300781 C 233.421875 181.390625 237.714844 170.109375 237.714844 157.832031 Z M 237.714844 157.832031 " fill-opacity="1" fill-rule="nonzero"/><path fill="#00abf2" d="M 185.550781 105.9375 C 169.851562 105.96875 155.765625 113 146.207031 124.019531 L 169.203125 143.621094 L 188.640625 146.492188 L 200.3125 108.019531 C 195.609375 106.671875 190.667969 105.9375 185.550781 105.9375 Z M 185.550781 105.9375 " fill-opacity="1" fill-rule="nonzero"/><path fill="#00c3ff" d="M 200.28125 108.019531 L 155.148438 159.707031 L 182.492188 194.433594 L 233.097656 136.5 C 226.921875 122.816406 214.957031 112.296875 200.28125 108.019531 Z M 200.28125 108.019531 " fill-opacity="1" fill-rule="nonzero"/><path fill="#00ab7e" d="M 197.664062 228.570312 L 188.519531 216 L 173.496094 195.3125 L 163.675781 216 L 172.820312 228.570312 C 173.730469 229.828125 174.464844 231.175781 174.996094 232.644531 L 180.613281 247.996094 C 182.347656 252.773438 189.167969 252.746094 190.875 247.9375 L 196.3125 232.703125 C 196.753906 231.441406 197.371094 230.238281 198.078125 229.125 C 197.929688 228.949219 197.8125 228.746094 197.664062 228.570312 Z M 197.664062 228.570312 " fill-opacity="1" fill-rule="nonzero"/><path fill="#ff4f80" d="M 146.207031 124.019531 C 138.300781 133.160156 133.535156 145.058594 133.566406 158.007812 C 133.59375 165.539062 135.242188 172.71875 138.152344 179.164062 L 158.792969 171.019531 L 169.171875 143.652344 L 169.203125 143.621094 Z M 146.207031 124.019531 " fill-opacity="1" fill-rule="nonzero"/><path fill="#ff1146" d="M 158.441406 158.007812 C 158.410156 150.886719 159.851562 144.089844 162.46875 137.878906 L 146.238281 124.019531 C 138.328125 133.160156 133.566406 145.058594 133.59375 158.007812 C 133.625 165.539062 135.269531 172.71875 138.183594 179.164062 L 158.824219 171.019531 L 159.648438 168.878906 C 158.851562 165.363281 158.441406 161.730469 158.441406 158.007812 Z M 158.441406 158.007812 " fill-opacity="1" fill-rule="nonzero"/><path fill="#ffdc5a" d="M 202.105469 172.015625 L 169.171875 143.652344 L 159.292969 154.933594 L 138.121094 179.164062 C 139.945312 183.179688 142.238281 186.902344 144.972656 190.300781 L 163.644531 216 L 202.105469 172.015625 C 201.398438 172.835938 202.105469 172.015625 202.105469 172.015625 Z M 202.105469 172.015625 " fill-opacity="1" fill-rule="nonzero"/><path fill="#ffc027" d="M 169.878906 190.300781 C 167.144531 186.902344 164.851562 183.179688 163.027344 179.164062 C 160.085938 172.71875 158.46875 165.539062 158.441406 158.007812 C 158.441406 157.304688 158.441406 156.601562 158.46875 155.929688 L 138.152344 179.164062 C 139.976562 183.179688 142.269531 186.902344 145.003906 190.300781 L 163.675781 216 L 177.257812 200.46875 Z M 169.878906 190.300781 " fill-opacity="1" fill-rule="nonzero"/><path fill="#ffffff" d="M 169.171875 143.652344 C 173.171875 139.050781 179.054688 136.148438 185.640625 136.148438 C 197.664062 136.148438 207.398438 145.847656 207.398438 157.832031 C 207.398438 163.253906 205.398438 168.207031 202.105469 172.015625 C 198.105469 176.617188 192.226562 179.515625 185.640625 179.515625 C 173.613281 179.515625 163.878906 169.816406 163.878906 157.832031 C 163.878906 152.410156 165.878906 147.460938 169.171875 143.652344 Z M 169.171875 143.652344 " fill-opacity="1" fill-rule="nonzero"/><path fill="#008cc9" d="M 171.085938 124.019531 C 178.054688 115.960938 187.433594 110.039062 198.105469 107.433594 C 194.078125 106.4375 189.875 105.9375 185.550781 105.9375 C 169.851562 105.96875 155.765625 113 146.207031 124.019531 L 162.441406 137.878906 C 164.585938 132.808594 167.527344 128.148438 171.085938 124.019531 Z M 171.085938 124.019531 " fill-opacity="1" fill-rule="nonzero"/><g clip-path="url(#098582449c)"><path fill="#000000" d="M 235.125 135.59375 C 228.597656 121.175781 216.132812 110.363281 200.929688 105.910156 C 195.988281 104.472656 190.84375 103.742188 185.640625 103.742188 C 185.609375 103.742188 185.582031 103.742188 185.550781 103.742188 C 169.820312 103.769531 154.882812 110.625 144.53125 122.582031 C 135.976562 132.457031 131.300781 145.027344 131.359375 158.007812 C 131.390625 165.6875 133.007812 173.128906 136.152344 180.042969 C 138.003906 184.148438 140.386719 188.042969 143.238281 191.558594 L 171.027344 229.828125 C 171.820312 230.914062 172.4375 232.085938 172.90625 233.347656 L 178.523438 248.699219 C 179.640625 251.746094 182.464844 253.742188 185.726562 253.742188 L 185.757812 253.742188 C 189.019531 253.742188 191.875 251.71875 192.960938 248.640625 L 198.402344 233.40625 C 198.871094 232.113281 199.519531 230.882812 200.3125 229.769531 L 222.1875 199.675781 C 222.894531 198.679688 222.6875 197.304688 221.6875 196.601562 C 220.6875 195.898438 219.308594 196.101562 218.601562 197.097656 L 196.726562 227.191406 C 195.667969 228.65625 194.8125 230.238281 194.226562 231.9375 L 188.785156 247.175781 C 188.226562 248.757812 186.84375 249.316406 185.726562 249.316406 C 185.199219 249.316406 183.40625 249.167969 182.667969 247.175781 L 177.054688 231.820312 C 176.464844 230.179688 175.613281 228.628906 174.613281 227.222656 L 166.496094 216.058594 L 177.878906 203.019531 C 178.671875 202.109375 178.582031 200.703125 177.671875 199.910156 C 176.757812 199.121094 175.347656 199.207031 174.554688 200.117188 L 163.851562 212.453125 L 146.886719 189.070312 C 146.855469 189.011719 146.796875 188.953125 146.769531 188.894531 C 144.445312 185.992188 142.414062 182.828125 140.796875 179.488281 L 161.824219 155.429688 C 161.734375 156.222656 161.703125 157.011719 161.703125 157.804688 C 161.703125 170.988281 172.464844 181.683594 185.667969 181.683594 C 187.582031 181.683594 189.460938 181.449219 191.316406 181.011719 L 180.847656 192.96875 C 180.054688 193.875 180.140625 195.28125 181.050781 196.074219 C 181.464844 196.425781 181.992188 196.601562 182.492188 196.601562 C 183.109375 196.601562 183.726562 196.335938 184.167969 195.839844 L 232.449219 140.574219 C 234.480469 146.054688 235.507812 151.824219 235.507812 157.773438 C 235.507812 169.203125 231.714844 179.957031 224.542969 188.863281 C 224.480469 188.921875 224.453125 188.980469 224.421875 189.039062 L 224.1875 189.363281 C 223.484375 190.359375 223.6875 191.734375 224.6875 192.4375 C 225.6875 193.144531 227.070312 192.9375 227.777344 191.941406 L 228.070312 191.53125 C 235.714844 181.976562 239.949219 169.992188 239.949219 157.773438 C 239.917969 150.097656 238.300781 142.597656 235.125 135.59375 Z M 185.550781 108.136719 C 189.167969 108.136719 192.753906 108.515625 196.285156 109.277344 L 188.109375 118.625 C 187.316406 119.535156 187.402344 120.941406 188.316406 121.730469 C 188.726562 122.082031 189.257812 122.257812 189.757812 122.257812 C 190.375 122.257812 190.992188 121.996094 191.433594 121.496094 L 201.019531 110.539062 C 213.925781 114.699219 224.570312 123.929688 230.511719 136.121094 L 209.488281 160.175781 C 209.574219 159.386719 209.605469 158.59375 209.605469 157.804688 C 209.605469 144.617188 198.84375 133.921875 185.640625 133.921875 C 183.726562 133.921875 181.847656 134.15625 179.992188 134.597656 L 185.226562 128.589844 C 186.023438 127.679688 185.933594 126.273438 185.023438 125.484375 C 184.109375 124.691406 182.699219 124.78125 181.90625 125.6875 L 168.96875 140.484375 L 149.382812 123.785156 C 158.792969 113.851562 171.847656 108.164062 185.550781 108.136719 Z M 135.769531 158.007812 C 135.742188 146.816406 139.535156 135.945312 146.472656 127.183594 L 166.054688 143.886719 L 138.859375 175.003906 C 136.828125 169.582031 135.800781 163.871094 135.769531 158.007812 Z M 166.085938 157.832031 C 166.085938 153.144531 167.792969 148.632812 170.847656 145.085938 C 174.554688 140.808594 179.964844 138.347656 185.640625 138.347656 C 196.429688 138.347656 205.191406 147.078125 205.191406 157.832031 C 205.191406 162.519531 203.488281 167.035156 200.429688 170.578125 C 196.726562 174.859375 191.316406 177.320312 185.640625 177.320312 C 174.847656 177.320312 166.085938 168.585938 166.085938 157.832031 Z M 166.085938 157.832031 " fill-opacity="1" fill-rule="nonzero"/></g></svg>