<svg width="24" height="24" viewBox="0 0 24 24" fill="none" xmlns="http://www.w3.org/2000/svg">
<path d="M6 3.25C3.932 3.25 2.25 4.932 2.25 7C2.25 9.068 3.932 10.75 6 10.75C8.068 10.75 9.75 9.068 9.75 7C9.75 4.932 8.068 3.25 6 3.25ZM6 9.25C4.759 9.25 3.75 8.241 3.75 7C3.75 5.759 4.759 4.75 6 4.75C7.241 4.75 8.25 5.759 8.25 7C8.25 8.241 7.241 9.25 6 9.25ZM18 13.25C15.932 13.25 14.25 14.932 14.25 17C14.25 19.068 15.932 20.75 18 20.75C20.068 20.75 21.75 19.068 21.75 17C21.75 14.932 20.068 13.25 18 13.25ZM18 19.25C16.759 19.25 15.75 18.241 15.75 17C15.75 15.759 16.759 14.75 18 14.75C19.241 14.75 20.25 15.759 20.25 17C20.25 18.241 19.241 19.25 18 19.25ZM15 7.75H21C21.414 7.75 21.75 7.414 21.75 7C21.75 6.586 21.414 6.25 21 6.25H15C14.586 6.25 14.25 6.586 14.25 7C14.25 7.414 14.586 7.75 15 7.75ZM9 16.25H3C2.586 16.25 2.25 16.586 2.25 17C2.25 17.414 2.586 17.75 3 17.75H9C9.414 17.75 9.75 17.414 9.75 17C9.75 16.586 9.414 16.25 9 16.25Z" fill="#121212"/>
</svg>
