<svg xmlns="http://www.w3.org/2000/svg" xmlns:xlink="http://www.w3.org/1999/xlink" width="500" zoomAndPan="magnify" viewBox="0 0 375 374.999991" height="500" preserveAspectRatio="xMidYMid meet" version="1.0"><defs><clipPath id="416a1758e4"><path d="M 128 148.3125 L 238 148.3125 L 238 190 L 128 190 Z M 128 148.3125 " clip-rule="nonzero"/></clipPath></defs><path fill="#e40f1b" d="M 117.707031 193.03125 L 248.4375 157.835938 C 251.675781 156.960938 255.035156 158.910156 255.902344 162.164062 L 261.589844 183.5 C 262.457031 186.753906 260.519531 190.128906 257.28125 191 L 126.550781 226.195312 C 123.316406 227.066406 119.957031 225.121094 119.089844 221.867188 L 113.398438 200.527344 C 112.53125 197.277344 114.472656 193.902344 117.707031 193.03125 Z M 118.011719 194.164062 L 248.742188 158.96875 C 251.359375 158.261719 254.074219 159.835938 254.773438 162.464844 L 260.464844 183.804688 C 261.164062 186.433594 259.597656 189.160156 256.980469 189.867188 L 126.25 225.0625 C 123.632812 225.765625 120.917969 224.191406 120.21875 221.5625 L 114.527344 200.226562 C 113.828125 197.597656 115.394531 194.867188 118.011719 194.164062 Z M 118.3125 195.296875 L 249.042969 160.101562 C 251.039062 159.5625 253.113281 160.765625 253.644531 162.769531 L 259.335938 184.109375 C 259.871094 186.113281 258.675781 188.195312 256.679688 188.734375 L 125.949219 223.929688 C 123.953125 224.46875 121.878906 223.265625 121.34375 221.257812 L 115.65625 199.921875 C 115.121094 197.914062 116.316406 195.835938 118.3125 195.296875 Z M 131.285156 216.050781 L 129.726562 210.214844 L 135.652344 208.617188 L 134.617188 204.742188 L 128.695312 206.339844 L 127.886719 203.316406 L 135.328125 201.3125 L 134.292969 197.4375 L 121.433594 200.898438 L 125.863281 217.511719 Z M 145.523438 198.296875 C 146 198.15625 146.441406 198.117188 146.847656 198.191406 C 147.257812 198.257812 147.628906 198.40625 147.96875 198.636719 C 148.308594 198.867188 148.613281 199.160156 148.882812 199.507812 C 149.152344 199.859375 149.382812 200.25 149.578125 200.671875 C 149.773438 201.097656 149.933594 201.539062 150.054688 201.996094 C 150.242188 202.683594 150.347656 203.335938 150.382812 203.949219 C 150.414062 204.5625 150.363281 205.117188 150.214844 205.617188 C 150.070312 206.113281 149.820312 206.539062 149.46875 206.886719 C 149.117188 207.234375 148.652344 207.488281 148.066406 207.652344 C 147.550781 207.785156 147.082031 207.808594 146.65625 207.714844 C 146.234375 207.625 145.855469 207.449219 145.519531 207.191406 C 145.1875 206.929688 144.894531 206.613281 144.644531 206.238281 C 144.386719 205.867188 144.175781 205.464844 143.996094 205.035156 C 143.8125 204.605469 143.671875 204.171875 143.554688 203.746094 C 143.441406 203.324219 143.359375 202.882812 143.308594 202.4375 C 143.257812 201.988281 143.257812 201.542969 143.300781 201.109375 C 143.339844 200.675781 143.445312 200.273438 143.609375 199.894531 C 143.769531 199.515625 144.011719 199.1875 144.324219 198.914062 C 144.636719 198.636719 145.035156 198.429688 145.523438 198.296875 Z M 144.488281 194.222656 C 143.199219 194.574219 142.078125 195.09375 141.128906 195.78125 C 140.175781 196.472656 139.417969 197.292969 138.855469 198.253906 C 138.289062 199.210938 137.941406 200.277344 137.808594 201.445312 C 137.675781 202.613281 137.78125 203.851562 138.125 205.160156 C 138.503906 206.574219 139.050781 207.773438 139.753906 208.761719 C 140.457031 209.753906 141.292969 210.523438 142.257812 211.078125 C 143.222656 211.632812 144.285156 211.960938 145.453125 212.070312 C 146.613281 212.179688 147.847656 212.058594 149.148438 211.710938 C 150.132812 211.445312 151.027344 211.070312 151.832031 210.585938 C 152.636719 210.101562 153.335938 209.515625 153.925781 208.835938 C 154.515625 208.15625 154.972656 207.386719 155.308594 206.53125 C 155.640625 205.675781 155.824219 204.75 155.863281 203.742188 C 155.898438 202.738281 155.769531 201.667969 155.472656 200.539062 C 155.238281 199.652344 154.898438 198.824219 154.449219 198.042969 C 154.003906 197.265625 153.453125 196.570312 152.800781 195.960938 C 152.152344 195.351562 151.40625 194.867188 150.570312 194.496094 C 149.726562 194.125 148.800781 193.910156 147.78125 193.84375 C 146.765625 193.785156 145.667969 193.910156 144.488281 194.222656 Z M 162.03125 194.121094 L 164.558594 193.441406 C 164.984375 193.328125 165.375 193.289062 165.738281 193.328125 C 166.09375 193.363281 166.402344 193.484375 166.660156 193.6875 C 166.910156 193.898438 167.09375 194.195312 167.199219 194.585938 C 167.300781 194.964844 167.285156 195.300781 167.152344 195.585938 C 167.015625 195.867188 166.773438 196.109375 166.417969 196.316406 C 166.0625 196.519531 165.605469 196.699219 165.046875 196.847656 L 162.910156 197.421875 Z M 165.535156 200.621094 C 166.164062 200.449219 166.683594 200.363281 167.09375 200.359375 C 167.503906 200.355469 167.84375 200.433594 168.101562 200.605469 C 168.359375 200.773438 168.574219 201.039062 168.738281 201.386719 C 168.90625 201.738281 169.058594 202.183594 169.199219 202.726562 C 169.402344 203.472656 169.59375 204.089844 169.785156 204.574219 C 169.972656 205.0625 170.125 205.386719 170.25 205.558594 L 175.738281 204.082031 L 175.601562 203.574219 C 175.394531 203.636719 175.222656 203.585938 175.097656 203.417969 C 174.96875 203.253906 174.839844 202.964844 174.71875 202.539062 C 174.59375 202.117188 174.441406 201.542969 174.253906 200.824219 C 174.078125 200.15625 173.886719 199.605469 173.683594 199.175781 C 173.476562 198.742188 173.257812 198.394531 173.023438 198.140625 C 172.785156 197.886719 172.527344 197.699219 172.25 197.566406 C 171.96875 197.441406 171.667969 197.347656 171.339844 197.296875 C 171.015625 197.242188 170.660156 197.199219 170.277344 197.171875 C 170.871094 196.816406 171.320312 196.386719 171.625 195.882812 C 171.929688 195.378906 172.109375 194.828125 172.15625 194.222656 C 172.207031 193.625 172.144531 193.003906 171.972656 192.359375 C 171.761719 191.550781 171.453125 190.886719 171.042969 190.355469 C 170.632812 189.832031 170.09375 189.449219 169.421875 189.214844 C 168.753906 188.980469 167.921875 188.894531 166.933594 188.953125 C 165.941406 189.015625 164.761719 189.234375 163.386719 189.605469 L 155.578125 191.707031 L 160.007812 208.316406 L 165.429688 206.859375 L 163.882812 201.066406 Z M 187.542969 187.253906 L 190.070312 186.574219 C 190.492188 186.460938 190.886719 186.421875 191.246094 186.457031 C 191.605469 186.496094 191.914062 186.617188 192.167969 186.820312 C 192.421875 187.027344 192.601562 187.328125 192.710938 187.71875 C 192.8125 188.097656 192.796875 188.433594 192.660156 188.714844 C 192.527344 189 192.285156 189.242188 191.929688 189.449219 C 191.574219 189.652344 191.117188 189.832031 190.558594 189.980469 L 188.421875 190.554688 Z M 191.046875 193.753906 C 191.675781 193.582031 192.191406 193.496094 192.605469 193.492188 C 193.015625 193.488281 193.351562 193.566406 193.609375 193.734375 C 193.867188 193.90625 194.082031 194.167969 194.25 194.519531 C 194.417969 194.871094 194.570312 195.316406 194.710938 195.859375 C 194.914062 196.605469 195.105469 197.21875 195.296875 197.703125 C 195.484375 198.195312 195.636719 198.519531 195.761719 198.691406 L 201.25 197.214844 L 201.113281 196.707031 C 200.902344 196.765625 200.734375 196.71875 200.609375 196.550781 C 200.480469 196.386719 200.351562 196.097656 200.230469 195.671875 C 200.105469 195.246094 199.953125 194.675781 199.765625 193.953125 C 199.585938 193.289062 199.394531 192.738281 199.195312 192.308594 C 198.988281 191.871094 198.769531 191.527344 198.53125 191.273438 C 198.296875 191.019531 198.035156 190.828125 197.761719 190.699219 C 197.480469 190.570312 197.175781 190.480469 196.851562 190.425781 C 196.527344 190.375 196.167969 190.332031 195.789062 190.300781 C 196.382812 189.949219 196.828125 189.519531 197.136719 189.015625 C 197.4375 188.507812 197.621094 187.957031 197.667969 187.355469 C 197.71875 186.757812 197.65625 186.136719 197.484375 185.492188 C 197.273438 184.683594 196.960938 184.015625 196.554688 183.488281 C 196.144531 182.964844 195.601562 182.582031 194.933594 182.347656 C 194.261719 182.109375 193.433594 182.023438 192.445312 182.085938 C 191.453125 182.144531 190.269531 182.363281 188.898438 182.734375 L 181.089844 184.835938 L 185.519531 201.449219 L 190.9375 199.988281 L 189.394531 194.199219 Z M 217.53125 192.832031 L 216.496094 188.953125 L 208.113281 191.210938 L 207.417969 188.605469 L 214.238281 186.769531 L 213.203125 182.890625 L 206.386719 184.726562 L 205.75 182.351562 L 213.8125 180.183594 L 212.777344 176.304688 L 199.296875 179.933594 L 203.726562 196.546875 Z M 220.792969 174.148438 L 215.71875 175.515625 L 220.148438 192.125 L 225.335938 190.730469 L 223.933594 185.46875 L 222.71875 181.742188 L 231.03125 189.195312 L 236.105469 187.828125 L 231.675781 171.21875 L 226.488281 172.613281 L 227.894531 177.898438 L 229.109375 181.625 Z M 235.132812 174.960938 L 240.003906 173.648438 L 243.269531 185.902344 L 248.6875 184.441406 L 245.421875 172.191406 L 250.289062 170.878906 L 249.125 166.519531 L 233.972656 170.597656 Z M 235.132812 174.960938 " fill-opacity="1" fill-rule="evenodd"/><g clip-path="url(#416a1758e4)"><path fill="#e40f1b" d="M 179.6875 150.207031 L 237.519531 159.804688 L 234.351562 160.660156 L 179.773438 151.597656 C 179.84375 151.164062 179.824219 150.707031 179.703125 150.257812 C 179.699219 150.238281 179.695312 150.222656 179.6875 150.207031 Z M 175.9375 148.671875 C 177.269531 148.3125 178.640625 149.109375 178.996094 150.445312 C 179.351562 151.785156 178.5625 153.160156 177.230469 153.519531 C 175.898438 153.878906 174.527344 153.082031 174.171875 151.746094 C 173.816406 150.40625 174.605469 149.03125 175.9375 148.671875 Z M 174.070312 153.132812 L 131.3125 188.398438 L 128.148438 189.253906 L 173.453125 151.886719 C 173.457031 151.902344 173.460938 151.917969 173.464844 151.9375 C 173.585938 152.386719 173.796875 152.792969 174.070312 153.132812 Z M 174.070312 153.132812 " fill-opacity="1" fill-rule="nonzero"/></g></svg>