<svg width="24" height="24" viewBox="0 0 24 24" fill="none" xmlns="http://www.w3.org/2000/svg">
<rect y="3.42993" width="24" height="17.1429" rx="2" fill="white"/>
<mask id="mask0_91_1963" style="mask-type:luminance" maskUnits="userSpaceOnUse" x="0" y="3" width="24" height="18">
<rect y="3.42993" width="24" height="17.1429" rx="2" fill="white"/>
</mask>
<g mask="url(#mask0_91_1963)">
<rect y="3.42993" width="24" height="17.1429" fill="#E92434"/>
<path fill-rule="evenodd" clip-rule="evenodd" d="M16.3037 12.6601L15.2538 13.9329L15.3253 12.2845L13.7904 11.6794L15.3802 11.238L15.4814 9.59118L16.3924 10.9668L17.9899 10.5541L16.9632 11.8457L17.8493 13.2375L16.3037 12.6601Z" fill="white"/>
<path fill-rule="evenodd" clip-rule="evenodd" d="M14.9167 15.1591C13.9757 16.3671 12.5072 17.1441 10.8572 17.1441C8.01689 17.1441 5.71436 14.8416 5.71436 12.0013C5.71436 9.16093 8.01689 6.8584 10.8572 6.8584C12.5071 6.8584 13.9756 7.63535 14.9166 8.84335C14.1905 8.31559 13.2775 8.00123 12.2858 8.00123C9.91887 8.00123 8.00009 9.79209 8.00009 12.0012C8.00009 14.2104 9.91887 16.0012 12.2858 16.0012C13.2775 16.0012 14.1905 15.6869 14.9167 15.1591Z" fill="white"/>
</g>
</svg>
