<svg width="24" height="24" viewBox="0 0 24 24" fill="none" xmlns="http://www.w3.org/2000/svg">
<rect y="3.42993" width="24" height="17.1429" rx="2" fill="white"/>
<mask id="mask0_91_2390" style="mask-type:luminance" maskUnits="userSpaceOnUse" x="0" y="3" width="24" height="18">
<rect y="3.42993" width="24" height="17.1429" rx="2" fill="white"/>
</mask>
<g mask="url(#mask0_91_2390)">
<rect x="11.4285" y="3.42993" width="12.5714" height="17.1429" fill="url(#paint0_linear_91_2390)"/>
<path fill-rule="evenodd" clip-rule="evenodd" d="M0 20.5728H8V3.42993H0V20.5728Z" fill="#059170"/>
<path fill-rule="evenodd" clip-rule="evenodd" d="M8 20.5728H16V3.42993H8V20.5728Z" fill="#E21A30"/>
<path fill-rule="evenodd" clip-rule="evenodd" d="M16 20.5728H24V3.42993H16V20.5728Z" fill="#FFDC44"/>
<path fill-rule="evenodd" clip-rule="evenodd" d="M12 13.1157L10.3206 14.3129L10.9402 12.3458L9.28266 11.1185L11.345 11.1L12 9.14429L12.6549 11.1L14.7173 11.1185L13.0597 12.3458L13.6794 14.3129L12 13.1157Z" fill="#FFDC42"/>
</g>
<defs>
<linearGradient id="paint0_linear_91_2390" x1="11.4285" y1="3.42993" x2="11.4285" y2="20.5728" gradientUnits="userSpaceOnUse">
<stop stop-color="#FFDC44"/>
<stop offset="1" stop-color="#FDD216"/>
</linearGradient>
</defs>
</svg>
