<svg width="24" height="24" viewBox="0 0 24 24" fill="none" xmlns="http://www.w3.org/2000/svg">
<path d="M18 21.75H13.75V16.5C13.75 15.535 12.965 14.75 12 14.75C11.035 14.75 10.25 15.535 10.25 16.5V21.75H6C3.582 21.75 2.25 20.418 2.25 18V11.65C2.25 9.52704 2.83599 8.93401 3.79199 8.14101L9.91199 3.01003C11.121 1.99503 12.879 1.99503 14.088 3.01003L20.208 8.14101C21.164 8.93401 21.75 9.52804 21.75 11.65V18C21.75 20.418 20.418 21.75 18 21.75ZM15.25 20.25H18C19.577 20.25 20.25 19.577 20.25 18V11.65C20.25 10.124 19.998 9.91506 19.251 9.29506L13.125 4.15908C12.473 3.61308 11.527 3.61308 10.875 4.15908L4.74902 9.29506C4.00202 9.91506 3.75 10.124 3.75 11.65V18C3.75 19.577 4.423 20.25 6 20.25H8.75V16.5C8.75 14.708 10.208 13.25 12 13.25C13.792 13.25 15.25 14.708 15.25 16.5V20.25Z" fill="#121212"/>
</svg>
