<svg width="25" height="24" viewBox="0 0 25 24" fill="none" xmlns="http://www.w3.org/2000/svg">
<path d="M13.4966 14C13.4966 15.79 14.9566 17.25 16.7466 17.25H21.2466V18C21.2466 20 20.2466 21 18.2466 21H6.24658C4.24658 21 3.24658 20 3.24658 18V5C3.24658 6.1 4.14658 7 5.24658 7H18.2466C20.2466 7 21.2466 8 21.2466 10V10.75H16.7466C14.9566 10.75 13.4966 12.21 13.4966 14ZM16.7466 12.25C15.7866 12.25 14.9966 13.04 14.9966 14C14.9966 14.96 15.7866 15.75 16.7466 15.75H21.2466V12.25H16.7466ZM17.2666 15C16.7166 15 16.2566 14.55 16.2566 14C16.2566 13.45 16.7066 13 17.2566 13H17.2666C17.8166 13 18.2666 13.45 18.2666 14C18.2666 14.55 17.8166 15 17.2666 15ZM15.2466 3H5.99658C5.30658 3 4.74658 3.56 4.74658 4.25C4.74658 4.94 5.30658 5.5 5.99658 5.5H18.2166C18.0666 3.83 17.0766 3 15.2466 3Z" fill="#121212"/>
</svg>
