<svg width="25" height="24" viewBox="0 0 25 24" fill="none" xmlns="http://www.w3.org/2000/svg">
<path d="M22.2261 9.76887C21.6841 5.89387 18.5991 2.80878 14.7241 2.26778C14.2301 2.19778 13.7271 2.34879 13.3461 2.67879C12.9621 3.01279 12.7421 3.49381 12.7421 4.00081V10.0089C12.7421 10.9689 13.5231 11.7508 14.4841 11.7508H20.4931C20.9991 11.7508 21.4811 11.5308 21.8141 11.1478C22.1451 10.7668 22.2951 10.2649 22.2261 9.76887ZM20.6821 10.1618C20.6541 10.1948 20.5911 10.2498 20.4931 10.2498H14.4851C14.3511 10.2498 14.2431 10.1419 14.2431 10.0079V3.99983C14.2431 3.90083 14.2981 3.83789 14.3311 3.80989C14.3581 3.78589 14.4111 3.74983 14.4851 3.74983C14.4951 3.74983 14.5061 3.75078 14.5161 3.75178C14.5171 3.75178 14.5171 3.75178 14.5171 3.75178C17.7311 4.20078 20.2901 6.76078 20.7401 9.97578C20.7531 10.0658 20.7101 10.1308 20.6821 10.1618ZM18.5371 12.6568H12.5861C12.1731 12.6568 11.8361 12.3208 11.8361 11.9068V5.95589C11.8361 5.44089 11.6071 4.95781 11.2081 4.63081C10.8171 4.31181 10.3121 4.18281 9.82012 4.28181C7.53812 4.73981 5.48911 6.12479 4.19811 8.07979C2.89311 10.0568 2.44607 12.4488 2.93907 14.8138C3.63407 18.1488 6.34209 20.8568 9.67809 21.5528C10.3061 21.6838 10.9361 21.7489 11.5591 21.7489C13.2841 21.7489 14.9591 21.2528 16.4121 20.2938C18.3671 19.0028 19.7521 16.9548 20.2101 14.6728C20.3091 14.1828 20.1831 13.6759 19.8621 13.2849C19.5351 12.8859 19.0521 12.6568 18.5371 12.6568ZM15.5861 19.0428C13.9451 20.1268 11.9541 20.4978 9.98509 20.0848C7.22409 19.5088 4.98307 17.2679 4.40807 14.5079C3.99707 12.5369 4.36706 10.5478 5.45006 8.90584C6.52206 7.28184 8.2221 6.13288 10.1151 5.75288C10.1271 5.75088 10.1371 5.74983 10.1471 5.74983C10.1951 5.74983 10.2321 5.77082 10.2561 5.79182C10.2801 5.81082 10.3351 5.86589 10.3351 5.95589V11.9068C10.3351 13.1478 11.3451 14.1568 12.5851 14.1568H18.5361C18.6261 14.1568 18.6811 14.2118 18.7001 14.2358C18.7241 14.2658 18.7511 14.3149 18.7381 14.3789C18.3591 16.2709 17.2101 17.9708 15.5861 19.0428Z" fill="#121212"/>
</svg>
