<svg xmlns="http://www.w3.org/2000/svg" xmlns:xlink="http://www.w3.org/1999/xlink" width="500" zoomAndPan="magnify" viewBox="0 0 375 374.999991" height="500" preserveAspectRatio="xMidYMid meet" version="1.0"><defs><clipPath id="4a9a7d016f"><path d="M 80.003906 244.148438 L 102.144531 244.148438 L 102.144531 291.703125 L 80.003906 291.703125 Z M 80.003906 244.148438 " clip-rule="nonzero"/></clipPath><clipPath id="d0efa361f9"><path d="M 80.003906 250 L 96.917969 250 L 96.917969 291.703125 L 80.003906 291.703125 Z M 80.003906 250 " clip-rule="nonzero"/></clipPath><clipPath id="647035e01a"><path d="M 256 83.230469 L 295.253906 83.230469 L 295.253906 156 L 256 156 Z M 256 83.230469 " clip-rule="nonzero"/></clipPath><clipPath id="40ef0131d6"><path d="M 257 119 L 295.253906 119 L 295.253906 155 L 257 155 Z M 257 119 " clip-rule="nonzero"/></clipPath></defs><path fill="#eba971" d="M 95.945312 158.835938 L 85.648438 175.84375 C 85.144531 176.675781 85 177.675781 85.25 178.617188 C 85.601562 179.945312 86.636719 180.988281 87.964844 181.34375 C 91.511719 182.304688 95.03125 179.730469 95.191406 176.066406 L 95.945312 158.835938 " fill-opacity="1" fill-rule="nonzero"/><path fill="#cf8b50" d="M 95.191406 176.066406 L 95.945312 158.835938 L 93.519531 162.839844 L 92.1875 172.328125 C 91.785156 175.203125 91.683594 178.113281 91.875 181.007812 C 93.730469 180.144531 95.09375 178.3125 95.191406 176.066406 " fill-opacity="1" fill-rule="nonzero"/><path fill="#eba971" d="M 95.519531 154.792969 L 92.988281 172.804688 C 92.476562 176.464844 92.441406 180.171875 92.890625 183.839844 L 93.695312 190.417969 C 93.902344 192.09375 94.957031 193.550781 96.488281 194.269531 C 98.378906 195.15625 100.5625 195.195312 102.484375 194.367188 C 105.132812 193.230469 106.492188 190.28125 105.644531 187.53125 L 95.519531 154.792969 " fill-opacity="1" fill-rule="nonzero"/><path fill="#fad5b4" d="M 89.199219 169.972656 C 90.054688 171.003906 89.40625 173.726562 86.835938 177.222656 C 86.125 177.515625 85.28125 177.097656 84.882812 176.554688 C 86.046875 174.476562 89.199219 169.972656 89.199219 169.972656 " fill-opacity="1" fill-rule="nonzero"/><path fill="#fad5b4" d="M 92.832031 181.273438 C 94.574219 181.699219 96.050781 185.15625 96.074219 190.964844 C 95.542969 191.851562 94.300781 192.066406 93.433594 191.800781 C 93.03125 188.636719 92.832031 181.273438 92.832031 181.273438 " fill-opacity="1" fill-rule="nonzero"/><path fill="#cf8b50" d="M 95.519531 154.792969 L 94.101562 164.882812 L 96.726562 177.433594 C 97.902344 183.035156 100.105469 188.371094 103.222656 193.175781 L 103.585938 193.734375 C 105.488281 192.34375 106.367188 189.867188 105.644531 187.53125 L 95.519531 154.792969 " fill-opacity="1" fill-rule="nonzero"/><path fill="#fabb85" d="M 258.332031 92.519531 L 191.285156 92.519531 C 188.085938 92.519531 184.894531 92.738281 181.722656 93.167969 L 131.867188 99.945312 C 124.242188 100.984375 117.628906 105.722656 114.207031 112.597656 L 97.839844 145.464844 C 94.863281 151.4375 93.988281 158.238281 95.355469 164.765625 L 98.007812 177.433594 C 99.179688 183.035156 101.382812 188.371094 104.503906 193.175781 L 109.09375 200.238281 C 111.550781 204.027344 116.488281 205.328125 120.5 203.25 C 124.769531 201.035156 126.457031 195.796875 124.285156 191.511719 L 120.097656 183.257812 C 118.128906 179.378906 116.875 175.179688 116.394531 170.859375 L 115.953125 166.875 C 115.609375 163.804688 116.542969 160.726562 118.53125 158.359375 L 130.492188 144.125 C 133.257812 140.835938 138.449219 141.28125 140.613281 144.988281 L 144.652344 151.914062 L 258.332031 120.195312 L 258.332031 92.519531 " fill-opacity="1" fill-rule="nonzero"/><path fill="#fad5b4" d="M 191.285156 92.519531 C 188.085938 92.519531 184.894531 92.738281 181.722656 93.167969 L 131.867188 99.945312 C 124.242188 100.984375 117.628906 105.722656 114.207031 112.597656 L 97.839844 145.464844 C 94.863281 151.4375 93.988281 158.238281 95.355469 164.765625 L 98.007812 177.433594 C 98.265625 178.664062 98.582031 179.875 98.9375 181.078125 L 96.574219 169.464844 C 95.207031 162.738281 96.082031 155.738281 99.058594 149.585938 L 115.425781 115.75 C 118.847656 108.667969 125.460938 103.789062 133.085938 102.722656 L 182.945312 95.742188 C 186.113281 95.296875 189.304688 95.074219 192.503906 95.074219 L 258.332031 95.074219 L 258.332031 92.519531 L 191.285156 92.519531 " fill-opacity="1" fill-rule="nonzero"/><path fill="#303030" d="M 111.355469 225.597656 C 110.949219 226.824219 109.628906 227.488281 108.402344 227.085938 L 98.722656 223.90625 C 97.496094 223.503906 96.828125 222.183594 97.230469 220.960938 L 98.042969 218.496094 C 98.449219 217.273438 99.765625 216.605469 100.992188 217.007812 L 110.675781 220.191406 C 111.902344 220.59375 112.566406 221.914062 112.164062 223.136719 Z M 118 225.203125 L 118.375 222.285156 C 118.6875 219.867188 117.234375 217.566406 114.914062 216.804688 L 99.597656 211.773438 C 97.277344 211.011719 94.742188 212 93.550781 214.132812 L 92.117188 216.699219 C 89.9375 220.605469 88.136719 224.710938 86.738281 228.953125 L 85.707031 232.085938 C 84.011719 237.238281 86.816406 242.789062 91.976562 244.484375 L 101.597656 247.644531 C 106.753906 249.339844 112.316406 246.539062 114.011719 241.382812 L 115.042969 238.253906 C 116.441406 234.007812 117.433594 229.636719 118 225.203125 " fill-opacity="1" fill-rule="nonzero"/><g clip-path="url(#4a9a7d016f)"><path fill="#c9c7c2" d="M 82.847656 291.644531 L 80.902344 291.007812 C 80.421875 290.847656 80.09375 290.402344 80.089844 289.894531 L 80.003906 280.386719 C 80 279.527344 80.132812 278.671875 80.402344 277.855469 L 91.453125 244.3125 L 102.121094 247.816406 L 91.070312 281.359375 C 90.800781 282.175781 90.398438 282.945312 89.882812 283.632812 L 84.164062 291.234375 C 83.859375 291.636719 83.328125 291.800781 82.847656 291.644531 " fill-opacity="1" fill-rule="nonzero"/></g><g clip-path="url(#d0efa361f9)"><path fill="#91908d" d="M 84.164062 291.234375 L 87.375 286.964844 L 86.175781 283.660156 L 87.847656 278.59375 L 86.222656 277.21875 L 87.503906 273.335938 L 89.625 273.195312 L 90.796875 269.636719 L 92.703125 269.507812 L 95.5625 260.828125 L 94.105469 259.597656 L 96.828125 251.332031 L 93.621094 250.28125 L 90.71875 259.089844 L 88.515625 259.234375 L 87.285156 262.980469 L 88.96875 264.40625 L 87.945312 267.503906 L 85.746094 267.648438 L 82.886719 276.332031 L 84.570312 277.753906 L 82.96875 282.609375 L 80.042969 284.554688 L 80.089844 289.894531 C 80.09375 290.402344 80.421875 290.847656 80.902344 291.007812 L 82.847656 291.644531 C 83.328125 291.800781 83.859375 291.636719 84.164062 291.234375 " fill-opacity="1" fill-rule="nonzero"/></g><path fill="#1a1a1a" d="M 105.933594 238.117188 C 104.863281 241.363281 101.359375 243.128906 98.105469 242.0625 C 94.851562 240.992188 93.082031 237.492188 94.152344 234.246094 C 95.222656 231 98.726562 229.230469 101.980469 230.300781 C 105.234375 231.367188 107.003906 234.867188 105.933594 238.117188 " fill-opacity="1" fill-rule="nonzero"/><path fill="#303030" d="M 104.390625 237.609375 C 103.601562 240.007812 101.011719 241.3125 98.613281 240.523438 C 96.210938 239.734375 94.90625 237.148438 95.695312 234.753906 C 96.484375 232.355469 99.070312 231.050781 101.472656 231.839844 C 103.875 232.628906 105.179688 235.210938 104.390625 237.609375 " fill-opacity="1" fill-rule="nonzero"/><path fill="#303030" d="M 151.730469 216.015625 C 152.050781 217.007812 151.507812 218.070312 150.515625 218.390625 L 134.402344 223.605469 C 133.410156 223.925781 132.34375 223.382812 132.023438 222.394531 L 131.15625 219.726562 C 130.835938 218.734375 131.378906 217.671875 132.371094 217.351562 L 148.488281 212.136719 C 149.480469 211.816406 150.542969 212.359375 150.863281 213.347656 Z M 157.890625 210.433594 C 155.773438 207.675781 152.148438 206.550781 148.835938 207.621094 L 129.433594 213.898438 C 126.125 214.96875 123.851562 218.003906 123.753906 221.480469 C 123.566406 228.367188 124.554688 235.234375 126.679688 241.789062 L 132.546875 259.871094 C 134.675781 266.425781 137.90625 272.566406 142.105469 278.035156 C 144.222656 280.792969 147.847656 281.917969 151.160156 280.847656 L 170.5625 274.570312 C 173.871094 273.5 176.144531 270.460938 176.242188 266.988281 C 176.429688 260.101562 175.441406 253.234375 173.316406 246.679688 L 167.445312 228.597656 C 165.320312 222.042969 162.085938 215.902344 157.890625 210.433594 " fill-opacity="1" fill-rule="nonzero"/><path fill="#1a1a1a" d="M 149.804688 276.675781 C 148.265625 277.175781 146.574219 276.648438 145.589844 275.367188 C 141.6875 270.28125 138.703125 264.613281 136.726562 258.519531 L 134.636719 252.082031 C 132.660156 245.988281 131.746094 239.648438 131.921875 233.246094 C 131.964844 231.632812 133.027344 230.214844 134.566406 229.714844 L 153.96875 223.4375 C 155.507812 222.941406 157.203125 223.464844 158.183594 224.746094 C 162.089844 229.832031 165.070312 235.5 167.046875 241.59375 L 169.136719 248.03125 C 171.117188 254.125 172.027344 260.464844 171.851562 266.871094 C 171.808594 268.480469 170.746094 269.898438 169.207031 270.398438 L 149.804688 276.675781 " fill-opacity="1" fill-rule="nonzero"/><path fill="#303030" d="M 136.726562 251.40625 L 138.8125 257.84375 C 138.917969 258.160156 139.023438 258.476562 139.132812 258.789062 C 139.535156 259.941406 140.773438 260.570312 141.9375 260.195312 L 165.902344 252.441406 C 167.0625 252.066406 167.695312 250.828125 167.34375 249.660156 C 167.25 249.34375 167.152344 249.023438 167.050781 248.707031 L 164.960938 242.269531 C 164.847656 241.925781 164.734375 241.585938 164.613281 241.246094 C 164.214844 240.113281 162.96875 239.515625 161.824219 239.886719 L 137.863281 247.640625 C 136.71875 248.011719 136.0625 249.222656 136.40625 250.375 C 136.507812 250.71875 136.613281 251.0625 136.726562 251.40625 " fill-opacity="1" fill-rule="nonzero"/><path fill="#303030" d="M 161.679688 234.378906 C 160.191406 231.460938 158.441406 228.683594 156.429688 226.066406 C 156.015625 225.527344 155.296875 225.3125 154.648438 225.523438 L 135.242188 231.800781 C 134.59375 232.011719 134.136719 232.605469 134.117188 233.289062 C 134.023438 236.585938 134.242188 239.859375 134.75 243.089844 C 134.960938 244.445312 136.34375 245.285156 137.648438 244.863281 L 160.367188 237.511719 C 161.675781 237.089844 162.300781 235.597656 161.679688 234.378906 " fill-opacity="1" fill-rule="nonzero"/><path fill="#303030" d="M 142.082031 265.703125 C 143.570312 268.632812 145.324219 271.421875 147.339844 274.046875 C 147.757812 274.585938 148.476562 274.800781 149.128906 274.589844 L 168.53125 268.3125 C 169.179688 268.101562 169.636719 267.507812 169.65625 266.824219 C 169.75 263.519531 169.53125 260.230469 169.019531 256.988281 C 168.804688 255.636719 167.425781 254.796875 166.121094 255.21875 L 143.390625 262.570312 C 142.085938 262.992188 141.457031 264.484375 142.082031 265.703125 " fill-opacity="1" fill-rule="nonzero"/><path fill="#b0b0b0" d="M 144.609375 235.882812 C 144.355469 235.964844 144.214844 236.238281 144.296875 236.492188 L 144.925781 238.421875 C 145.265625 239.472656 146.394531 240.046875 147.441406 239.707031 L 150.328125 238.773438 C 151.378906 238.433594 151.957031 237.304688 151.617188 236.257812 L 150.988281 234.328125 C 150.90625 234.074219 150.632812 233.933594 150.378906 234.015625 Z M 150.570312 239.507812 L 147.683594 240.445312 C 146.226562 240.914062 144.660156 240.113281 144.1875 238.660156 L 143.5625 236.730469 C 143.347656 236.070312 143.710938 235.363281 144.371094 235.148438 L 150.140625 233.28125 C 150.800781 233.066406 151.511719 233.429688 151.726562 234.089844 L 152.351562 236.019531 C 152.824219 237.472656 152.023438 239.039062 150.570312 239.507812 " fill-opacity="1" fill-rule="nonzero"/><path fill="#b0b0b0" d="M 150.78125 233.480469 L 150.042969 233.71875 C 149.332031 231.519531 147.554688 230.121094 146.082031 230.597656 C 144.609375 231.074219 143.992188 233.25 144.703125 235.445312 L 143.96875 235.683594 C 143.121094 233.082031 143.964844 230.46875 145.84375 229.859375 C 147.722656 229.253906 149.9375 230.875 150.78125 233.480469 " fill-opacity="1" fill-rule="nonzero"/><path fill="#b0b0b0" d="M 149.382812 250.597656 C 149.128906 250.679688 148.988281 250.953125 149.070312 251.207031 L 149.699219 253.136719 C 150.039062 254.183594 151.167969 254.761719 152.21875 254.421875 L 155.105469 253.488281 C 156.152344 253.148438 156.730469 252.019531 156.390625 250.972656 L 155.761719 249.039062 C 155.679688 248.789062 155.40625 248.648438 155.152344 248.730469 Z M 155.34375 254.222656 L 152.457031 255.15625 C 151 255.628906 149.433594 254.828125 148.960938 253.375 L 148.335938 251.445312 C 148.121094 250.785156 148.484375 250.074219 149.144531 249.859375 L 154.914062 247.996094 C 155.578125 247.78125 156.285156 248.144531 156.5 248.800781 L 157.125 250.734375 C 157.597656 252.1875 156.796875 253.75 155.34375 254.222656 " fill-opacity="1" fill-rule="nonzero"/><path fill="#b0b0b0" d="M 154.003906 251.015625 C 153.792969 250.371094 153.097656 250.015625 152.449219 250.222656 C 151.800781 250.433594 151.445312 251.128906 151.65625 251.777344 C 151.796875 252.203125 152.144531 252.5 152.554688 252.59375 L 152.765625 253.242188 C 152.824219 253.433594 153.03125 253.539062 153.222656 253.476562 L 153.734375 253.308594 C 153.925781 253.25 154.03125 253.042969 153.96875 252.855469 L 153.757812 252.203125 C 154.03125 251.886719 154.144531 251.445312 154.003906 251.015625 " fill-opacity="1" fill-rule="nonzero"/><path fill="#b0b0b0" d="M 149.785156 250.464844 C 149.582031 250.53125 149.363281 250.421875 149.296875 250.21875 C 148.585938 248.019531 146.804688 246.621094 145.332031 247.097656 C 143.859375 247.574219 143.242188 249.75 143.957031 251.945312 C 144.023438 252.148438 143.910156 252.367188 143.707031 252.433594 C 143.503906 252.5 143.285156 252.386719 143.21875 252.183594 C 142.375 249.582031 143.214844 246.96875 145.09375 246.359375 C 146.972656 245.753906 149.191406 247.375 150.035156 249.980469 C 150.101562 250.183594 149.988281 250.402344 149.785156 250.464844 " fill-opacity="1" fill-rule="nonzero"/><path fill="#b0b0b0" d="M 157.4375 267.972656 L 161.15625 266.769531 C 161.441406 266.679688 161.652344 266.464844 161.742188 266.183594 C 161.832031 265.898438 161.78125 265.601562 161.605469 265.363281 L 160.617188 264.050781 C 160.382812 263.742188 159.980469 263.613281 159.609375 263.734375 L 154.308594 265.449219 C 153.832031 265.605469 153.570312 266.117188 153.722656 266.59375 L 153.761719 266.710938 C 155.121094 266.417969 156.53125 266.902344 157.4375 267.972656 Z M 161.394531 267.507812 L 157.152344 268.878906 L 156.988281 268.652344 C 156.214844 267.589844 154.863281 267.144531 153.625 267.546875 L 153.257812 267.664062 L 152.988281 266.828125 C 152.699219 265.949219 153.1875 265 154.070312 264.714844 L 159.371094 262.996094 C 160.054688 262.777344 160.804688 263.011719 161.234375 263.585938 L 162.222656 264.898438 C 162.554688 265.339844 162.648438 265.890625 162.480469 266.414062 C 162.316406 266.941406 161.917969 267.335938 161.394531 267.507812 " fill-opacity="1" fill-rule="nonzero"/><path fill="#b0b0b0" d="M 156.214844 269.199219 C 156.484375 270.027344 156.03125 270.917969 155.199219 271.1875 C 154.367188 271.457031 153.472656 271.003906 153.207031 270.171875 C 152.9375 269.34375 153.390625 268.453125 154.222656 268.179688 C 155.054688 267.914062 155.945312 268.367188 156.214844 269.199219 " fill-opacity="1" fill-rule="nonzero"/><path fill="#b0b0b0" d="M 154.429688 265.410156 C 154.308594 265.449219 154.171875 265.429688 154.066406 265.34375 C 153.902344 265.210938 153.875 264.96875 154.007812 264.800781 L 157.804688 260.066406 C 157.914062 259.929688 158.097656 259.882812 158.257812 259.953125 L 159.769531 260.601562 C 159.964844 260.683594 160.054688 260.910156 159.972656 261.105469 C 159.886719 261.304688 159.660156 261.394531 159.464844 261.308594 L 158.222656 260.777344 L 154.613281 265.285156 C 154.5625 265.34375 154.5 265.386719 154.429688 265.410156 " fill-opacity="1" fill-rule="nonzero"/><path fill="#b0b0b0" d="M 149.253906 236.371094 C 149.042969 235.722656 148.347656 235.367188 147.699219 235.578125 C 147.050781 235.789062 146.695312 236.484375 146.902344 237.132812 C 147.042969 237.558594 147.394531 237.851562 147.800781 237.945312 L 148.011719 238.59375 C 148.074219 238.785156 148.277344 238.890625 148.46875 238.828125 L 148.984375 238.664062 C 149.175781 238.601562 149.277344 238.394531 149.214844 238.207031 L 149.003906 237.558594 C 149.28125 237.242188 149.390625 236.796875 149.253906 236.371094 " fill-opacity="1" fill-rule="nonzero"/><path fill="#969696" d="M 118.890625 197.199219 C 110.875 197.199219 104.351562 203.710938 104.351562 211.714844 C 104.351562 219.71875 110.875 226.230469 118.890625 226.230469 C 126.90625 226.230469 133.425781 219.71875 133.425781 211.714844 C 133.425781 203.710938 126.90625 197.199219 118.890625 197.199219 Z M 118.890625 229.34375 C 109.15625 229.34375 101.238281 221.433594 101.238281 211.714844 C 101.238281 201.996094 109.15625 194.089844 118.890625 194.089844 C 128.625 194.089844 136.542969 201.996094 136.542969 211.714844 C 136.542969 221.433594 128.625 229.34375 118.890625 229.34375 " fill-opacity="1" fill-rule="nonzero"/><path fill="#e0e0e0" d="M 118.890625 196.035156 C 110.230469 196.035156 103.1875 203.070312 103.1875 211.714844 C 103.1875 220.363281 110.230469 227.398438 118.890625 227.398438 C 127.550781 227.398438 134.59375 220.363281 134.59375 211.714844 C 134.59375 203.070312 127.550781 196.035156 118.890625 196.035156 Z M 118.890625 228.175781 C 109.800781 228.175781 102.40625 220.792969 102.40625 211.714844 C 102.40625 202.640625 109.800781 195.253906 118.890625 195.253906 C 127.980469 195.253906 135.375 202.640625 135.375 211.714844 C 135.375 220.792969 127.980469 228.175781 118.890625 228.175781 " fill-opacity="1" fill-rule="nonzero"/><path fill="#303030" d="M 99.070312 211.652344 L 99.070312 217.230469 C 99.632812 216.894531 100.324219 216.789062 100.992188 217.007812 L 109.066406 219.660156 L 109.066406 214.882812 L 99.597656 211.773438 C 99.421875 211.714844 99.246094 211.6875 99.070312 211.652344 " fill-opacity="1" fill-rule="nonzero"/><path fill="#303030" d="M 133.914062 223.6875 C 133.082031 223.730469 132.292969 223.222656 132.023438 222.394531 L 131.15625 219.726562 C 131.050781 219.398438 131.046875 219.066406 131.113281 218.753906 L 125.75 216.375 C 124.550781 217.773438 123.804688 219.550781 123.753906 221.480469 C 123.644531 225.492188 123.945312 229.503906 124.628906 233.445312 L 130.933594 228.527344 L 133.914062 223.6875 " fill-opacity="1" fill-rule="nonzero"/><path fill="#cf8b50" d="M 122.128906 187.265625 L 114.039062 192.578125 C 111.113281 195.042969 110.066406 199.015625 111.269531 202.539062 C 113.890625 204.457031 117.460938 204.824219 120.5 203.25 C 124.769531 201.035156 126.457031 195.796875 124.285156 191.511719 L 122.128906 187.265625 " fill-opacity="1" fill-rule="nonzero"/><path fill="#fabb85" d="M 144.652344 151.914062 L 147.5625 156.902344 C 149.683594 160.542969 148.871094 165.179688 145.640625 167.882812 L 137.683594 176.828125 C 135.167969 179.652344 132.292969 182.136719 129.128906 184.214844 L 115.746094 193.003906 C 112.410156 195.8125 111.515625 200.578125 113.605469 204.402344 L 115.34375 207.585938 C 117.144531 210.882812 121.199219 212.226562 124.617188 210.65625 L 144.429688 201.554688 C 146.121094 200.773438 147.78125 199.925781 149.402344 199.003906 L 171.003906 186.730469 C 176.945312 183.355469 182.492188 179.328125 187.539062 174.722656 L 211.191406 153.144531 C 216.507812 148.292969 223.449219 145.601562 230.652344 145.601562 L 259.1875 145.601562 L 258.332031 120.195312 L 144.652344 151.914062 " fill-opacity="1" fill-rule="nonzero"/><path fill="#fad5b4" d="M 131.535156 206.148438 C 131.914062 205.261719 132.082031 204.558594 132.027344 204.234375 C 131.671875 202.125 128.488281 200.730469 123.582031 199.34375 C 119.550781 198.210938 116.363281 199.570312 113.929688 201.925781 C 114.089844 202.578125 114.335938 203.214844 114.667969 203.824219 L 116.40625 207.007812 C 117.449219 208.917969 119.449219 210.101562 121.628906 210.101562 C 122.488281 210.101562 123.324219 209.917969 124.109375 209.558594 L 131.535156 206.148438 " fill-opacity="1" fill-rule="nonzero"/><path fill="#cf8b50" d="M 258.332031 120.195312 L 258.332031 92.519531 L 245.347656 92.519531 C 242.320312 109.957031 241.878906 128.480469 243.578125 145.601562 L 259.1875 145.601562 L 258.332031 120.195312 " fill-opacity="1" fill-rule="nonzero"/><path fill="#e6e6e6" d="M 272.71875 86.320312 L 270.265625 152.582031 L 246.492188 151.703125 C 243.714844 130.667969 244.242188 106.914062 248.941406 85.441406 L 272.71875 86.320312 " fill-opacity="1" fill-rule="nonzero"/><path fill="#d9d9d9" d="M 258.761719 126.886719 C 255.742188 127.359375 250.714844 127.660156 246.148438 127.457031 C 246.21875 135.207031 246.71875 142.894531 247.667969 150.417969 L 268.984375 151.203125 L 269.917969 126.019531 C 265.898438 126.375 263.066406 126.214844 258.761719 126.886719 " fill-opacity="1" fill-rule="nonzero"/><path fill="#e6e6e6" d="M 258.003906 141.710938 C 257.683594 142.03125 257.164062 142.035156 256.839844 141.71875 C 256.515625 141.398438 256.511719 140.878906 256.832031 140.558594 C 257.152344 140.234375 257.671875 140.230469 257.992188 140.546875 C 258.320312 140.867188 258.320312 141.386719 258.003906 141.710938 Z M 254.730469 138.488281 C 255.050781 138.167969 255.570312 138.164062 255.894531 138.480469 C 256.21875 138.796875 256.222656 139.320312 255.902344 139.640625 C 255.582031 139.964844 255.0625 139.96875 254.738281 139.652344 C 254.417969 139.332031 254.414062 138.8125 254.730469 138.488281 Z M 256.097656 143.636719 C 255.777344 143.960938 255.257812 143.964844 254.9375 143.648438 C 254.613281 143.328125 254.609375 142.808594 254.925781 142.484375 C 255.246094 142.164062 255.765625 142.160156 256.089844 142.476562 C 256.414062 142.796875 256.417969 143.316406 256.097656 143.636719 Z M 252.828125 140.417969 C 253.144531 140.09375 253.667969 140.089844 253.988281 140.410156 C 254.3125 140.730469 254.316406 141.25 253.996094 141.570312 C 253.679688 141.894531 253.160156 141.898438 252.835938 141.578125 C 252.511719 141.261719 252.507812 140.742188 252.828125 140.417969 Z M 251.792969 137.5 C 249.820312 139.496094 249.84375 142.710938 251.84375 144.679688 C 253.84375 146.648438 257.0625 146.625 259.035156 144.628906 C 261.007812 142.632812 260.984375 139.417969 258.984375 137.449219 C 256.984375 135.480469 253.765625 135.5 251.792969 137.5 " fill-opacity="1" fill-rule="nonzero"/><path fill="#ffffff" d="M 257.765625 141.699219 C 257.445312 142.023438 256.925781 142.027344 256.601562 141.707031 C 256.277344 141.390625 256.273438 140.871094 256.59375 140.546875 C 256.910156 140.226562 257.433594 140.21875 257.757812 140.539062 C 258.078125 140.855469 258.082031 141.378906 257.765625 141.699219 Z M 254.492188 138.480469 C 254.8125 138.15625 255.332031 138.152344 255.65625 138.472656 C 255.980469 138.789062 255.984375 139.308594 255.664062 139.632812 C 255.34375 139.953125 254.824219 139.957031 254.503906 139.640625 C 254.179688 139.324219 254.175781 138.800781 254.492188 138.480469 Z M 255.859375 143.628906 C 255.542969 143.953125 255.019531 143.957031 254.695312 143.636719 C 254.375 143.320312 254.371094 142.800781 254.6875 142.476562 C 255.007812 142.152344 255.527344 142.148438 255.851562 142.46875 C 256.175781 142.785156 256.179688 143.304688 255.859375 143.628906 Z M 252.589844 140.410156 C 252.90625 140.085938 253.429688 140.082031 253.75 140.402344 C 254.074219 140.71875 254.078125 141.238281 253.761719 141.5625 C 253.441406 141.886719 252.921875 141.886719 252.597656 141.570312 C 252.273438 141.25 252.269531 140.730469 252.589844 140.410156 Z M 251.554688 137.488281 C 249.582031 139.484375 249.605469 142.703125 251.605469 144.671875 C 253.605469 146.640625 256.824219 146.617188 258.796875 144.621094 C 260.769531 142.621094 260.746094 139.40625 258.746094 137.4375 C 256.746094 135.46875 253.527344 135.492188 251.554688 137.488281 " fill-opacity="1" fill-rule="nonzero"/><path fill="#e6e6e6" d="M 252.710938 143.78125 C 251.214844 142.308594 251.195312 139.898438 252.675781 138.402344 C 253.546875 137.519531 254.738281 137.167969 255.878906 137.316406 C 254.675781 137.089844 253.386719 137.449219 252.464844 138.382812 C 250.988281 139.878906 251.003906 142.289062 252.503906 143.761719 C 253.117188 144.367188 253.886719 144.707031 254.683594 144.8125 C 253.964844 144.675781 253.273438 144.335938 252.710938 143.78125 " fill-opacity="1" fill-rule="nonzero"/><g clip-path="url(#647035e01a)"><path fill="#424242" d="M 295.253906 84.027344 L 259.746094 83.246094 C 256.746094 109.671875 256.0625 126.925781 257.089844 155.039062 L 295.253906 155.820312 L 295.253906 84.027344 " fill-opacity="1" fill-rule="nonzero"/></g><g clip-path="url(#40ef0131d6)"><path fill="#262626" d="M 295.253906 119.558594 C 290.183594 121.140625 263.894531 121.933594 258.164062 121.855469 C 257.878906 131.421875 257.933594 141.140625 258.375 153.757812 L 295.253906 154.472656 L 295.253906 119.558594 " fill-opacity="1" fill-rule="nonzero"/></g></svg>