<svg width="24" height="24" viewBox="0 0 24 24" fill="none" xmlns="http://www.w3.org/2000/svg">
<rect x="0.25" y="3.67993" width="23.5" height="16.6429" rx="1.75" fill="white" stroke="#F5F5F5" stroke-width="0.5"/>
<mask id="mask0_91_1019" style="mask-type:luminance" maskUnits="userSpaceOnUse" x="0" y="3" width="24" height="18">
<rect x="0.25" y="3.67993" width="23.5" height="16.6429" rx="1.75" fill="white" stroke="white" stroke-width="0.5"/>
</mask>
<g mask="url(#mask0_91_1019)">
<rect x="9.14282" y="3.42993" width="5.71429" height="17.1429" fill="#D6182D"/>
<rect y="9.14429" width="24" height="5.71429" fill="#1425A2"/>
<path fill-rule="evenodd" clip-rule="evenodd" d="M9.71425 13.4299L9.31019 13.5482L9.42854 13.1442L9.31019 12.7401L9.71425 12.8585L10.1183 12.7401L9.99997 13.1442L10.1183 13.5482L9.71425 13.4299Z" fill="white"/>
<path fill-rule="evenodd" clip-rule="evenodd" d="M14.2858 13.4299L13.8817 13.5482L14.0001 13.1442L13.8817 12.7401L14.2858 12.8585L14.6898 12.7401L14.5715 13.1442L14.6898 13.5482L14.2858 13.4299Z" fill="white"/>
<path fill-rule="evenodd" clip-rule="evenodd" d="M7.42861 12.2871L7.02455 12.4054L7.14289 12.0014L7.02455 11.5973L7.42861 11.7156L7.83267 11.5973L7.71432 12.0014L7.83267 12.4054L7.42861 12.2871Z" fill="white"/>
<path fill-rule="evenodd" clip-rule="evenodd" d="M16.5714 12.2871L16.1674 12.4054L16.2857 12.0014L16.1674 11.5973L16.5714 11.7156L16.9755 11.5973L16.8571 12.0014L16.9755 12.4054L16.5714 12.2871Z" fill="white"/>
<path fill-rule="evenodd" clip-rule="evenodd" d="M11.9999 11.1443L11.5958 11.2626L11.7142 10.8585L11.5958 10.4545L11.9999 10.5728L12.404 10.4545L12.2856 10.8585L12.404 11.2626L11.9999 11.1443Z" fill="white"/>
</g>
</svg>
