<svg xmlns="http://www.w3.org/2000/svg" xmlns:xlink="http://www.w3.org/1999/xlink" width="500" zoomAndPan="magnify" viewBox="0 0 375 374.999991" height="500" preserveAspectRatio="xMidYMid meet" version="1.0"><defs><clipPath id="3e20eb4aef"><path d="M 115 94.179688 L 165 94.179688 L 165 150 L 115 150 Z M 115 94.179688 " clip-rule="nonzero"/></clipPath><clipPath id="8b665d2e5f"><path d="M 203 199 L 296 199 L 296 305.679688 L 203 305.679688 Z M 203 199 " clip-rule="nonzero"/></clipPath><clipPath id="0b673f6991"><path d="M 157 94.179688 L 270 94.179688 L 270 168 L 157 168 Z M 157 94.179688 " clip-rule="nonzero"/></clipPath></defs><path fill="#009748" d="M 117.992188 270.882812 C 118.085938 271.035156 125.105469 285.066406 180.488281 280.835938 C 173.292969 272.007812 166.707031 263.921875 163.800781 252.796875 C 164.730469 250.46875 165.832031 248.304688 167.070312 246.265625 C 156.117188 241.574219 151.371094 236.46875 146.796875 231.664062 C 136.835938 231.054688 129.121094 228.753906 125.730469 224.058594 C 113.984375 233.765625 114.097656 260.292969 117.992188 270.882812 " fill-opacity="1" fill-rule="evenodd"/><path fill="#006b30" d="M 164.195312 252.257812 C 158.390625 249.753906 146.492188 244.558594 139.546875 230.8125 C 141.824219 231.363281 144.160156 231.515625 145.84375 231.4375 C 145.84375 231.4375 155.96875 242.894531 167.484375 246.664062 L 164.195312 252.257812 " fill-opacity="1" fill-rule="evenodd"/><path fill="#006b30" d="M 117.992188 270.882812 C 122.351562 278.421875 137.8125 279.902344 145.773438 280.738281 C 135.691406 265.402344 128.296875 245.691406 132.871094 228.9375 C 131.011719 228.160156 129.828125 227.390625 128.996094 226.882812 C 115.980469 244.113281 114.097656 260.292969 117.992188 270.882812 " fill-opacity="1" fill-rule="evenodd"/><path fill="#009748" d="M 157.417969 95.3125 C 157.238281 95.3125 141.558594 94.371094 117.539062 144.386719 C 128.789062 142.578125 139.101562 140.921875 150.195312 143.972656 C 151.546875 145.675781 152.722656 147.433594 153.757812 149.230469 C 160.160156 144.625 166.898438 140.105469 178.46875 137.730469 C 183.546875 130.597656 188.890625 125.949219 194.15625 125.414062 C 191.609375 110.402344 168.546875 97.238281 157.417969 95.3125 " fill-opacity="1" fill-rule="evenodd"/><path fill="#006b30" d="M 151.179688 144.777344 C 151.179688 144.777344 165.386719 133.097656 182.1875 132.785156 C 182.1875 132.785156 179.832031 135.292969 178.65625 137.644531 C 178.65625 137.644531 162.640625 141.171875 153.613281 149.25 L 151.179688 144.777344 " fill-opacity="1" fill-rule="evenodd"/><path fill="#006b30" d="M 157.417969 95.3125 C 148.699219 95.3125 139.6875 107.941406 134.980469 114.410156 C 153.320312 113.355469 174.109375 116.820312 186.347656 129.148438 C 187.953125 127.933594 189.214844 127.292969 190.070312 126.824219 C 181.640625 106.953125 168.546875 97.238281 157.417969 95.3125 " fill-opacity="1" fill-rule="evenodd"/><path fill="#009748" d="M 294.804688 201.335938 C 294.851562 201.160156 299.820312 186.28125 257.660156 150.164062 C 256.5 161.484375 255.433594 171.859375 249.609375 181.773438 C 248.378906 182.300781 247.148438 182.765625 245.917969 183.164062 C 247.542969 190.113281 247.925781 199.535156 245.230469 207.144531 C 252.71875 215.183594 257.175781 222.863281 256.183594 228.980469 C 271.359375 230.410156 290.0625 211.570312 294.804688 201.335938 " fill-opacity="1" fill-rule="evenodd"/><path fill="#006b30" d="M 250.691406 179.707031 C 252.023438 184.328125 256.207031 196.898438 249.722656 212.375 C 248.507812 210.683594 247.15625 208.699219 245.476562 207.65625 C 246.300781 203.84375 248.117188 194.769531 246.164062 182.949219 L 249.964844 181.945312 L 250.691406 179.707031 " fill-opacity="1" fill-rule="evenodd"/><path fill="#006b30" d="M 294.804688 201.335938 C 297.0625 192.921875 287.179688 180.960938 282.140625 174.75 C 278.414062 192.710938 269.683594 211.867188 254.589844 220.484375 C 255.351562 222.347656 255.648438 223.730469 255.875 224.675781 C 277.277344 221.6875 290.0625 211.570312 294.804688 201.335938 " fill-opacity="1" fill-rule="evenodd"/><path fill="#05a1e6" d="M 189.800781 136.738281 C 191.492188 136.738281 193.167969 136.8125 194.824219 136.957031 C 196.308594 140.792969 197.765625 144.984375 199.179688 149.558594 C 192.632812 152.277344 183.742188 157.035156 176.257812 163.359375 C 197.816406 162.941406 216.789062 162.011719 238.820312 166.765625 C 238.992188 166.230469 239.171875 165.699219 239.351562 165.167969 C 244.300781 173.636719 247.144531 183.488281 247.144531 194.003906 C 247.144531 206.4375 243.171875 217.945312 236.429688 227.335938 C 234.835938 227.433594 233.207031 227.515625 231.527344 227.574219 C 230.59375 220.5625 228.296875 210.75 224.113281 201.890625 C 220.175781 217.804688 216.910156 232.347656 211.03125 247.210938 C 204.464844 249.828125 197.300781 251.269531 189.800781 251.269531 C 165.925781 251.269531 145.460938 236.691406 136.832031 215.964844 C 139.046875 213.292969 141.480469 210.519531 144.160156 207.640625 C 149.785156 211.9375 158.359375 217.257812 167.582031 220.5625 C 156.679688 202.523438 146.59375 186.867188 139.707031 166.125 C 149.515625 148.59375 168.269531 136.738281 189.800781 136.738281 " fill-opacity="1" fill-rule="evenodd"/><path fill="#115fa2" d="M 211.03125 247.210938 C 204.464844 249.828125 197.300781 251.269531 189.800781 251.269531 C 165.925781 251.269531 145.460938 236.6875 136.832031 215.960938 C 137.363281 215.324219 137.902344 214.683594 138.457031 214.035156 C 149.316406 222.136719 162.785156 226.9375 177.382812 226.9375 C 194.84375 226.9375 210.703125 220.0625 222.398438 208.882812 C 219.148438 222.125 216.039062 234.550781 211.03125 247.210938 Z M 241.972656 170.207031 C 245.292969 177.453125 247.144531 185.511719 247.144531 194.003906 C 247.144531 206.4375 243.171875 217.945312 236.429688 227.335938 C 234.835938 227.433594 233.207031 227.515625 231.527344 227.574219 C 230.71875 221.503906 228.886719 213.332031 225.695312 205.5 C 234.386719 195.898438 240.25 183.695312 241.972656 170.207031 " fill-opacity="1" fill-rule="evenodd"/><path fill="#fddf4c" d="M 154.019531 165.863281 C 154.019531 165.863281 154.214844 160.46875 155.15625 160 C 156.101562 159.527344 156.136719 160.433594 156.414062 162.082031 C 156.6875 163.738281 157.355469 169.363281 158.339844 170.621094 C 159.320312 171.882812 159.160156 173.96875 158.375 174.871094 C 157.589844 175.773438 158.179688 176.878906 160.226562 176.957031 C 162.265625 177.035156 163.128906 178.132812 163.757812 179 C 164.386719 179.867188 167.921875 179.945312 167.921875 179.945312 C 167.921875 179.945312 170.003906 177.585938 168.472656 175.382812 C 166.941406 173.179688 166.664062 172.945312 166.46875 171.367188 C 166.269531 169.796875 167.644531 168.417969 168.429688 166.765625 C 169.214844 165.113281 174.148438 156.441406 174.703125 153.855469 C 175.25 151.269531 172.34375 142.957031 168.496094 142.957031 C 164.652344 142.957031 158.964844 147.019531 158.964844 147.019531 C 158.964844 147.019531 157.433594 149.066406 156.257812 150.046875 C 155.078125 151.03125 152.644531 152.484375 151.464844 154.492188 C 150.285156 156.5 151.621094 157.480469 152.210938 159.054688 C 152.800781 160.628906 150.445312 164.722656 152.015625 167.238281 C 153.585938 169.757812 154.054688 169.363281 154.054688 169.363281 L 154.019531 165.863281 " fill-opacity="1" fill-rule="evenodd"/><path fill="#fddf4c" d="M 203.03125 247.136719 C 203.03125 247.136719 200.558594 248.472656 198.125 249.695312 C 195.691406 250.914062 192.585938 250.207031 192.585938 250.207031 C 192.585938 250.207031 194.238281 246.824219 194.980469 246.078125 C 195.730469 245.328125 197.0625 244.777344 197.261719 242.652344 C 197.457031 240.53125 197.140625 240.175781 198.164062 238.441406 C 199.183594 236.710938 201.152344 233.035156 201.152344 231.621094 C 201.152344 230.210938 201.109375 228.019531 198.890625 226.621094 C 196.671875 225.226562 193.566406 224.402344 191.878906 220.9375 C 190.191406 217.472656 190.859375 215.902344 189.089844 213.660156 C 187.324219 211.417969 185.28125 210.15625 186.34375 209.210938 C 187.402344 208.269531 188.503906 207.957031 188.503906 207.957031 C 188.503906 207.957031 187.007812 207.167969 187.324219 206.027344 C 187.640625 204.886719 188.777344 203.550781 189.289062 202.171875 C 189.800781 200.796875 190.503906 199.695312 191.839844 199.851562 C 193.175781 200.007812 193.371094 200.125 193.332031 199.300781 C 193.292969 198.476562 193.371094 193.675781 192.3125 192.414062 C 191.25 191.160156 192.15625 189.820312 192.941406 190.605469 C 193.726562 191.394531 193.882812 192.140625 194.628906 190.921875 C 195.375 189.699219 196.945312 187.8125 197.96875 187.382812 C 198.988281 186.945312 202.878906 185.375 203.464844 186.101562 C 204.054688 186.832031 207.785156 189.40625 209.238281 189.269531 C 210.695312 189.132812 213.382812 188.03125 213.382812 188.03125 C 213.382812 188.03125 214.304688 187.953125 215.011719 189.523438 C 215.722656 191.097656 216.78125 191.019531 217.820312 191.746094 C 218.863281 192.476562 219.585938 194.027344 220.589844 194.460938 C 221.589844 194.894531 226.128906 195.171875 227.03125 196.191406 C 227.933594 197.214844 227.738281 200.28125 227.738281 201.308594 C 227.738281 202.332031 228.523438 202.960938 230.132812 203.078125 C 231.742188 203.195312 233.195312 203.707031 233.472656 205.203125 C 233.746094 206.695312 236.574219 205.28125 237.320312 206.066406 C 238.066406 206.851562 238.617188 207.640625 239.441406 207.914062 C 240.269531 208.191406 240.304688 208.976562 239.519531 211.730469 C 238.734375 214.484375 235.59375 218.144531 234.492188 220.230469 C 233.390625 222.316406 232.492188 223.492188 231.785156 225.183594 C 231.636719 225.535156 231.496094 225.914062 231.34375 226.296875 C 230.3125 219.398438 228.046875 210.222656 224.113281 201.890625 C 220.605469 216.0625 217.632812 229.144531 212.875 242.339844 C 211.277344 242.335938 210.515625 241.890625 210.476562 243.007812 C 210.4375 244.128906 208.964844 244.464844 206.921875 244.933594 C 204.878906 245.40625 204.605469 246.46875 203.03125 247.136719 " fill-opacity="1" fill-rule="evenodd"/><path fill="#e4ac30" d="M 225.695312 205.496094 C 226.578125 204.511719 227.4375 203.507812 228.265625 202.476562 C 228.660156 202.808594 229.28125 203.015625 230.132812 203.078125 C 231.742188 203.195312 233.195312 203.707031 233.472656 205.203125 C 233.746094 206.695312 236.574219 205.28125 237.320312 206.066406 C 238.066406 206.851562 238.617188 207.640625 239.441406 207.914062 C 240.269531 208.191406 240.304688 208.976562 239.519531 211.730469 C 238.734375 214.484375 235.59375 218.144531 234.492188 220.230469 C 233.390625 222.316406 232.492188 223.492188 231.785156 225.183594 C 231.636719 225.535156 231.496094 225.914062 231.34375 226.296875 C 230.460938 220.382812 228.664062 212.789062 225.695312 205.496094 Z M 203.03125 247.136719 C 203.03125 247.136719 200.558594 248.472656 198.125 249.695312 C 195.691406 250.914062 192.585938 250.207031 192.585938 250.207031 C 192.585938 250.207031 194.238281 246.824219 194.980469 246.078125 C 195.730469 245.328125 197.0625 244.777344 197.261719 242.652344 C 197.457031 240.53125 197.140625 240.175781 198.164062 238.441406 C 199.183594 236.710938 201.152344 233.035156 201.152344 231.621094 C 201.152344 230.210938 201.109375 228.019531 198.890625 226.621094 C 197.757812 225.90625 196.390625 225.34375 195.097656 224.5 C 205.488281 221.570312 214.816406 216.132812 222.398438 208.882812 C 219.570312 220.417969 216.839844 231.339844 212.875 242.339844 C 211.277344 242.335938 210.515625 241.890625 210.476562 243.007812 C 210.4375 244.128906 208.964844 244.464844 206.921875 244.933594 C 204.878906 245.40625 204.605469 246.46875 203.03125 247.136719 " fill-opacity="1" fill-rule="evenodd"/><path fill="#8cd02f" d="M 188.582031 163.101562 C 187.710938 163.117188 186.835938 163.136719 185.964844 163.152344 C 186.042969 163.476562 186.101562 163.785156 186.144531 164.015625 C 186.300781 164.878906 187.128906 168.144531 188.503906 167.789062 C 189.640625 167.496094 189.242188 165.449219 188.582031 163.101562 Z M 156.648438 160.984375 C 156.648438 160.984375 158.691406 158.46875 158.886719 160.589844 C 159.085938 162.714844 158.964844 165.152344 160.027344 167.871094 C 161.085938 170.582031 162.660156 172.472656 163.011719 173.96875 C 163.367188 175.460938 164.9375 177.546875 166.46875 177.824219 C 168 178.097656 167.371094 175.382812 166.546875 174.753906 C 165.722656 174.125 163.992188 172.277344 164.777344 170.582031 C 165.566406 168.890625 166.039062 167.871094 165.054688 167.121094 C 164.074219 166.375 166.3125 166.179688 165.367188 164.796875 C 164.425781 163.421875 162.691406 161.300781 166.066406 160.285156 C 169.441406 159.265625 170.226562 156.519531 168.496094 156.519531 C 166.773438 156.519531 168.027344 153.699219 170.066406 152.757812 C 172.109375 151.816406 170.226562 151.894531 170.066406 149.464844 C 169.910156 147.035156 168.273438 148.199219 167.609375 146.824219 C 166.941406 145.441406 166.742188 144.421875 165.484375 145.71875 C 164.230469 147.019531 162.460938 147.292969 161.285156 147.449219 C 160.105469 147.605469 159.046875 148.710938 158.375 149.613281 C 157.710938 150.519531 156.375 151.621094 155.394531 153.195312 C 154.414062 154.769531 154.644531 155.832031 154.019531 156.773438 C 153.390625 157.71875 153.117188 161.335938 153.117188 162.519531 C 153.117188 163.699219 153.507812 165.074219 153.859375 165.585938 L 153.9375 169.402344 C 153.9375 169.402344 152.332031 168.457031 152.015625 167.355469 C 151.699219 166.257812 151.152344 164.25 151.742188 162.046875 C 152.332031 159.84375 152.40625 158.941406 151.742188 158.03125 C 151.074219 157.128906 150.875 154.964844 151.859375 153.667969 C 152.839844 152.371094 154.882812 151.347656 156.453125 149.8125 C 158.023438 148.277344 159.007812 147.492188 159.203125 145.914062 C 159.203125 145.914062 162.972656 143.003906 169.847656 140.289062 C 169.847656 140.289062 177.976562 137.34375 184.925781 137.183594 C 184.925781 137.183594 181.492188 138.675781 181.726562 139.246094 C 181.964844 139.820312 182.886719 140.289062 184.242188 140.289062 C 185.59375 140.289062 188.40625 140.171875 188.460938 140.585938 C 188.523438 141 189.128906 143.574219 190.683594 143.183594 C 192.234375 142.789062 193 142.277344 193 141.296875 C 193 140.308594 192.878906 138.640625 193.664062 138.640625 C 194.242188 138.640625 195.019531 139.082031 195.71875 139.328125 C 196.894531 142.503906 198.050781 145.90625 199.179688 149.558594 C 197.875 150.101562 196.472656 150.726562 195.007812 151.425781 C 194.136719 151.492188 193.378906 151.667969 193.230469 152.304688 C 188.09375 154.894531 182.355469 158.371094 177.195312 162.578125 C 175.601562 162.304688 172.75 162.285156 171.417969 162.832031 C 169.886719 163.460938 169.574219 164.015625 169.214844 164.917969 C 168.863281 165.820312 168.234375 167.433594 167.53125 168.378906 C 166.824219 169.324219 165.878906 170.34375 166.980469 172.980469 C 168.078125 175.617188 169.804688 176.835938 170.828125 176.640625 C 171.851562 176.441406 173.65625 176.210938 174.480469 175.539062 C 175.308594 174.871094 175.621094 174.003906 175.855469 173.296875 C 176.089844 172.585938 177.464844 171.527344 179.113281 171.449219 C 180.761719 171.367188 180.53125 171.804688 180.019531 173.414062 C 179.507812 175.027344 178.761719 176.011719 178.09375 176.914062 C 177.425781 177.824219 175.777344 180.734375 177.9375 180.179688 C 180.097656 179.628906 184.96875 178.332031 185.125 180.101562 C 185.28125 181.871094 185.046875 183.328125 184.851562 185.375 C 184.652344 187.417969 184.320312 189.40625 186.246094 189.445312 C 188.167969 189.484375 189.148438 189.074219 190.25 189.074219 C 191.351562 189.074219 192.566406 190.25 193.3125 191.019531 C 193.3125 191.019531 193.585938 192.984375 192.410156 192.515625 C 191.230469 192.042969 191.328125 190.722656 190.191406 190.941406 C 189.050781 191.160156 189.03125 191.492188 188.328125 192.394531 C 187.621094 193.300781 187.324219 193.65625 186.164062 192.378906 C 185.003906 191.097656 184.21875 189.9375 182.101562 189.289062 C 179.980469 188.636719 179.78125 188.558594 179.820312 186.554688 C 179.859375 184.546875 180.214844 183.527344 178.175781 183.40625 C 176.128906 183.289062 172.203125 183.289062 171.222656 181.792969 C 170.238281 180.300781 170.238281 179.789062 168.078125 179.789062 C 165.917969 179.789062 164.109375 179.628906 163.289062 178.332031 C 162.460938 177.035156 161.167969 176.796875 159.867188 176.796875 C 158.574219 176.796875 157.511719 175.933594 158.375 174.671875 C 159.242188 173.414062 159.203125 172.234375 158.261719 170.070312 C 157.316406 167.90625 156.804688 165.074219 156.648438 160.984375 " fill-opacity="1" fill-rule="evenodd"/><path fill="#8cd02f" d="M 189.089844 172.390625 C 189.089844 172.390625 187.640625 172.15625 185.558594 172.429688 C 183.476562 172.707031 183.945312 172.039062 184.339844 171.253906 C 184.730469 170.464844 187.359375 169.441406 190.621094 170.503906 C 193.882812 171.566406 198.398438 173.886719 197.96875 175.34375 C 197.535156 176.796875 194.980469 175.5 193.488281 175.460938 C 191.996094 175.421875 191.722656 174.871094 191.175781 173.96875 C 190.621094 173.058594 189.835938 172.511719 189.089844 172.390625 " fill-opacity="1" fill-rule="evenodd"/><path fill="#8cd02f" d="M 199.496094 178.253906 C 199.496094 178.253906 200.402344 178.960938 201.460938 178.882812 C 202.523438 178.804688 202.757812 178.058594 203.816406 178.175781 C 204.878906 178.292969 206.605469 179.355469 206.804688 178.765625 C 207 178.175781 206.570312 177.074219 205.703125 176.328125 C 204.839844 175.578125 203.464844 174.597656 202.601562 175.027344 C 201.738281 175.460938 198.632812 177.546875 199.496094 178.253906 " fill-opacity="1" fill-rule="evenodd"/><path fill="#8cd02f" d="M 202.960938 247.378906 C 202.960938 247.378906 197.699219 248.007812 199.820312 244.632812 C 201.9375 241.265625 203.898438 241.105469 204.214844 237.265625 C 204.53125 233.425781 206.882812 232.328125 208.0625 230.523438 C 209.238281 228.722656 208.140625 226.761719 205.078125 225.351562 C 202.015625 223.941406 204.292969 222.292969 200.292969 222.058594 C 196.285156 221.824219 195.347656 220.566406 194.089844 218.140625 C 192.832031 215.707031 193.683594 214.210938 192.546875 212.792969 C 191.621094 211.644531 191.542969 208.253906 189.867188 207.921875 C 189.445312 207.832031 188.8125 208.070312 188.382812 207.878906 C 186.105469 206.851562 187.738281 205.082031 189.128906 202.445312 C 190.523438 199.8125 191.425781 199.851562 192.84375 199.96875 C 194.253906 200.085938 192.863281 196.191406 192.507812 193.636719 C 192.355469 192.535156 192.398438 189.921875 193.144531 190.644531 C 194.1875 191.648438 194.371094 191.386719 196.710938 188.207031 C 197.480469 187.164062 202.5625 185.316406 203.664062 186.160156 C 204.761719 187.007812 206.808594 189.46875 209.945312 189.191406 C 210.761719 189.117188 211.457031 188.699219 212.398438 188.363281 C 213.34375 188.03125 214.226562 187.578125 214.816406 189.152344 C 215.40625 190.722656 217.761719 191.316406 218.546875 192.21875 C 219.332031 193.125 219.6875 194.382812 222.710938 194.855469 C 225.734375 195.328125 227.738281 195.996094 227.738281 198.003906 C 227.738281 200.007812 227.070312 202.410156 229.625 202.960938 C 232.175781 203.507812 232.882812 203.585938 233.3125 204.769531 C 233.746094 205.949219 235.082031 205.792969 236.417969 205.910156 C 237.75 206.027344 237.792969 206.421875 238.222656 207.011719 C 238.65625 207.601562 240.070312 207.519531 240.070312 208.9375 C 240.070312 210.355469 239.167969 213.582031 237.519531 215.703125 C 235.867188 217.832031 234.257812 220.503906 232.648438 223.21875 C 232.03125 224.253906 231.695312 225.335938 231.347656 226.304688 C 230.3125 219.40625 228.050781 210.226562 224.113281 201.890625 C 220.601562 216.074219 217.628906 229.164062 212.863281 242.371094 C 212.769531 242.375 212.675781 242.378906 212.578125 242.375 C 211.203125 242.339844 210.613281 241.945312 210.496094 242.769531 C 210.378906 243.597656 210.535156 244.382812 208.492188 244.539062 C 206.453125 244.699219 204.210938 246.351562 202.960938 247.378906 " fill-opacity="1" fill-rule="evenodd"/><path fill="#53a037" d="M 225.695312 205.496094 C 226.613281 204.476562 227.507812 203.425781 228.363281 202.351562 C 228.65625 202.625 229.0625 202.835938 229.625 202.960938 C 232.175781 203.507812 232.882812 203.585938 233.3125 204.769531 C 233.746094 205.949219 235.082031 205.792969 236.417969 205.910156 C 237.75 206.027344 237.792969 206.421875 238.222656 207.011719 C 238.65625 207.601562 240.070312 207.519531 240.070312 208.9375 C 240.070312 210.355469 239.167969 213.582031 237.519531 215.703125 C 235.867188 217.832031 234.257812 220.503906 232.648438 223.21875 C 232.03125 224.253906 231.695312 225.335938 231.347656 226.304688 C 230.460938 220.390625 228.667969 212.792969 225.695312 205.496094 Z M 202.960938 247.378906 C 202.960938 247.378906 197.699219 248.007812 199.820312 244.632812 C 201.9375 241.265625 203.898438 241.105469 204.214844 237.265625 C 204.53125 233.425781 206.882812 232.328125 208.0625 230.523438 C 209.238281 228.722656 208.140625 226.761719 205.078125 225.351562 C 202.46875 224.148438 203.738281 222.773438 201.6875 222.25 C 209.441406 219.128906 216.457031 214.5625 222.398438 208.882812 C 219.566406 220.433594 216.835938 231.363281 212.863281 242.371094 C 212.769531 242.375 212.675781 242.378906 212.578125 242.375 C 211.203125 242.339844 210.613281 241.945312 210.496094 242.769531 C 210.378906 243.597656 210.535156 244.382812 208.492188 244.539062 C 206.453125 244.699219 204.210938 246.351562 202.960938 247.378906 " fill-opacity="1" fill-rule="evenodd"/><path fill="#ffffff" d="M 239.417969 164.964844 L 239.53125 165.15625 L 239.410156 164.988281 Z M 189.800781 136.421875 C 191.449219 136.421875 193.082031 136.492188 194.695312 136.628906 C 195.164062 137.832031 195.628906 139.074219 196.09375 140.351562 C 194.597656 140.234375 193.078125 140.171875 191.550781 140.171875 C 169.882812 140.171875 150.960938 151.945312 140.847656 169.425781 C 140.433594 168.277344 140.035156 167.109375 139.640625 165.925781 C 149.429688 148.332031 168.222656 136.421875 189.800781 136.421875 " fill-opacity="1" fill-rule="evenodd"/><path fill="#ffffff" d="M 211.179688 246.839844 C 204.570312 249.492188 197.359375 250.957031 189.800781 250.957031 C 168.152344 250.957031 149.304688 238.964844 139.542969 221.273438 C 149.617188 237.730469 167.777344 248.714844 188.5 248.714844 C 197.050781 248.714844 205.164062 246.84375 212.453125 243.492188 C 212.042969 244.605469 211.617188 245.722656 211.179688 246.839844 Z M 239.417969 164.964844 C 244.332031 173.410156 247.144531 183.222656 247.144531 193.6875 C 247.144531 206.269531 243.078125 217.902344 236.191406 227.351562 C 235.15625 227.410156 234.105469 227.464844 233.039062 227.511719 C 241.042969 217.667969 245.84375 205.117188 245.84375 191.449219 C 245.84375 181.925781 243.511719 172.945312 239.390625 165.042969 L 239.417969 164.964844 " fill-opacity="1" fill-rule="evenodd"/><path fill="#ffffff" d="M 224.113281 201.890625 C 218.9375 222.800781 214.925781 241.339844 204.625 261.363281 C 221.6875 272.425781 236.027344 286.3125 250.308594 304.023438 C 249.699219 294.984375 248.492188 289.847656 245.058594 278.917969 C 254.125 276.636719 268.871094 273.320312 278.390625 262.515625 C 277.949219 251.441406 276.753906 241.949219 294.804688 201.332031 C 289.035156 212.203125 275.769531 225.945312 231.527344 227.574219 C 230.59375 220.5625 228.296875 210.75 224.113281 201.890625 " fill-opacity="1" fill-rule="evenodd"/><path fill="#66c430" d="M 210.375 260.5625 C 228.261719 272.566406 240.914062 286.429688 250.488281 304.007812 C 249.878906 294.96875 248.671875 289.828125 245.234375 278.898438 C 252.316406 277.121094 263.0625 274.59375 271.875 268.472656 C 273.449219 256.066406 269.925781 258 271.773438 246.53125 C 273.898438 233.316406 277.832031 233.164062 280.691406 221.359375 C 270.152344 226.90625 254.929688 231.464844 228.839844 232.796875 C 228.179688 227.863281 227.367188 220.226562 225.179688 213.835938 C 221.828125 231.101562 214.332031 252.871094 210.375 260.5625 " fill-opacity="1" fill-rule="evenodd"/><path fill="#ffffff" d="M 176.257812 163.359375 C 197.816406 162.941406 216.789062 162.011719 238.820312 166.765625 C 245.101562 147.441406 254.824219 130.019531 268.253906 111.660156 C 259.675781 114.585938 255.015625 117.078125 245.332031 123.21875 C 240.78125 115.066406 233.753906 101.695312 220.84375 95.3125 C 210.246094 98.605469 201.375 102.210938 157.414062 95.3125 C 169.429688 98.0625 186.148438 107.304688 199.179688 149.558594 C 192.632812 152.277344 183.742188 157.035156 176.257812 163.359375 " fill-opacity="1" fill-rule="evenodd"/><path fill="#ffffff" d="M 167.582031 220.5625 C 156.441406 202.125 146.148438 186.183594 139.257812 164.75 C 119.359375 168.976562 99.390625 169.285156 76.75 166.84375 C 83.578125 172.808594 88.070312 175.585938 98.238281 180.890625 C 93.445312 188.902344 85.363281 201.664062 86.28125 216.023438 C 94.433594 223.546875 101.996094 229.414062 117.992188 270.882812 C 114.375 259.121094 114.03125 240.039062 144.160156 207.640625 C 149.785156 211.9375 158.359375 217.257812 167.582031 220.5625 " fill-opacity="1" fill-rule="evenodd"/><path fill="#66c430" d="M 135.867188 169.296875 C 114.71875 173.441406 95.960938 172.574219 76.746094 166.90625 C 83.574219 172.863281 88.066406 175.644531 98.234375 180.945312 C 94.488281 187.207031 88.679688 196.582031 86.78125 207.136719 C 94.449219 217.015625 95.574219 213.164062 102.390625 222.578125 C 110.242188 233.421875 107.570312 236.308594 113.90625 246.675781 C 117.429688 235.3125 124.96875 221.335938 142.476562 201.96875 C 146.429688 204.992188 152.414062 209.816406 158.484375 212.792969 C 148.632812 198.21875 138.515625 177.53125 135.867188 169.296875 " fill-opacity="1" fill-rule="evenodd"/><path fill="#66c430" d="M 236.621094 161.59375 C 243.601562 141.230469 253.730469 125.4375 268.253906 111.660156 C 259.675781 114.585938 255.015625 117.078125 245.332031 123.21875 C 241.777344 116.851562 236.554688 107.140625 228.347656 100.21875 C 215.945312 101.914062 218.734375 104.8125 207.15625 106 C 193.828125 107.371094 192.65625 103.613281 180.5 103.910156 C 188.59375 112.640625 196.941406 126.148438 204.984375 150.972656 C 200.386719 152.882812 193.207031 155.644531 187.589844 159.40625 C 205.160156 158.171875 228.152344 159.765625 236.621094 161.59375 " fill-opacity="1" fill-rule="evenodd"/><path fill="#0d0d0d" d="M 210.628906 248.21875 C 204.082031 250.742188 196.980469 252.128906 189.566406 252.128906 C 165.53125 252.128906 145.011719 237.585938 136.105469 216.847656 C 136.558594 216.296875 137.015625 215.742188 137.484375 215.179688 C 146.011719 235.546875 166.234375 250.015625 189.566406 250.015625 C 197.414062 250.015625 204.90625 248.378906 211.726562 245.429688 C 211.371094 246.359375 211.007812 247.289062 210.628906 248.21875 Z M 239.828125 163.769531 C 245.164062 172.464844 248.242188 182.691406 248.242188 193.691406 C 248.242188 206.175781 244.273438 217.765625 237.535156 227.269531 C 236.574219 227.332031 235.585938 227.386719 234.59375 227.441406 C 241.722656 218.007812 245.96875 206.300781 245.96875 193.691406 C 245.96875 183.871094 243.394531 174.609375 238.894531 166.535156 C 239.199219 165.609375 239.507812 164.6875 239.828125 163.769531 Z M 189.566406 135.875 C 191.21875 135.875 192.859375 135.945312 194.476562 136.078125 C 194.679688 136.589844 194.878906 137.109375 195.082031 137.636719 C 193.265625 137.457031 191.425781 137.359375 189.566406 137.359375 C 168.285156 137.359375 149.585938 149.398438 139.992188 166.976562 C 139.742188 166.242188 139.5 165.496094 139.257812 164.75 L 139.035156 164.796875 C 149.054688 147.433594 167.878906 135.875 189.566406 135.875 " fill-opacity="1" fill-rule="nonzero"/><path fill="#0d0d0d" d="M 192.230469 191.410156 C 193.644531 193.082031 193.371094 196.847656 193.75 199.3125 C 194.042969 201.210938 193.027344 201.117188 192.03125 200.542969 C 191.109375 200.007812 190.535156 201.300781 190.109375 201.878906 C 185.046875 208.753906 190.160156 206.160156 189.757812 208.003906 C 189.539062 209.007812 185.804688 209.132812 187.152344 210.660156 L 186.984375 210.527344 C 195.445312 217.242188 186.703125 218.738281 198.292969 225.632812 C 204.53125 229.34375 201.6875 234.355469 198.382812 239.660156 C 197.933594 241.183594 198.042969 242.832031 197.480469 243.898438 C 196.820312 245.160156 195.824219 245.785156 194.976562 247.023438 C 194.386719 247.867188 193.679688 249.480469 192.957031 250.46875 C 192.847656 250.613281 191.324219 251.117188 191.222656 251.21875 C 191.613281 250.417969 193.78125 246.414062 193.960938 246.203125 C 195.269531 244.6875 195.890625 244.8125 196.316406 244.050781 C 197.472656 241.988281 195.921875 241.003906 197.285156 238.597656 C 198.707031 236.085938 199.21875 235.101562 199.757812 233.507812 C 200.855469 230.257812 200.476562 228.515625 199.441406 227.570312 C 197.214844 225.546875 191.847656 226 190.042969 217.226562 C 188.96875 212.023438 182.386719 210.414062 187.3125 207.957031 C 185.507812 205.84375 188.0625 204.472656 189.046875 201.484375 C 190.429688 197.289062 192.960938 200.574219 192.796875 199.078125 C 192.472656 196.199219 192.363281 194.261719 191.601562 192.691406 C 191.207031 191.875 189.574219 190.527344 189.046875 192.046875 C 187.464844 196.59375 184.964844 190.644531 182.726562 190.105469 C 174.441406 188.109375 184.007812 183.886719 175.6875 183.726562 C 168.4375 183.582031 171.640625 180.519531 168.988281 180.585938 C 161.308594 180.78125 163.863281 178.5625 161.992188 178.160156 C 153.511719 176.332031 159.332031 174.855469 157.898438 171.160156 C 155.554688 165.113281 156.355469 160.871094 155.347656 160.503906 C 154.242188 161.878906 155.332031 166.96875 154.648438 169.722656 C 154.167969 171.660156 153.230469 170.046875 152.464844 169.339844 C 148.457031 165.652344 152.777344 160.289062 151.550781 158.875 C 146.605469 153.167969 158.132812 150.449219 158.933594 145.476562 C 158.972656 145.238281 159.652344 144.664062 159.640625 144.414062 C 161.683594 149.589844 148.238281 153.308594 152.339844 158.222656 C 154.101562 160.324219 149.980469 163.785156 153.511719 168.570312 C 153.394531 164.601562 153.464844 156.03125 156.636719 159.453125 C 158.539062 161.503906 156.492188 164.890625 159.464844 170.945312 C 161.984375 176.078125 154.339844 175.324219 162.355469 176.695312 C 165.078125 177.160156 161.921875 179.070312 169.101562 179.511719 C 173.179688 179.761719 169.371094 182.1875 176.421875 182.515625 C 185.484375 182.933594 176.335938 187.277344 183.160156 189.25 C 187.277344 190.441406 186.476562 195.679688 188.925781 190.65625 C 189.328125 189.832031 191.679688 190.753906 192.230469 191.410156 " fill-opacity="1" fill-rule="evenodd"/><path fill="#0d0d0d" d="M 179.484375 163.292969 L 178.414062 163.316406 C 179.03125 163.484375 179.382812 163.582031 179.484375 163.292969 Z M 195.890625 139.800781 C 194.289062 139.117188 193.058594 137.617188 193.53125 141.316406 C 193.769531 143.175781 188.492188 146.097656 188.011719 140.820312 C 187.933594 140.476562 184.695312 140.660156 182.820312 140.3125 C 181.660156 140.097656 181.140625 139.613281 181.234375 139.203125 C 181.535156 137.8125 185.164062 136.8125 187.808594 137.117188 C 184.664062 137.863281 183.824219 138.265625 182.921875 138.6875 C 182.035156 139.105469 181.355469 139.378906 182.960938 139.785156 C 184.984375 140.292969 188.917969 139.5 189.074219 140.40625 C 189.75 144.238281 192.394531 142.339844 192.539062 141.210938 C 192.730469 139.730469 191.683594 137.484375 194.730469 138.390625 C 194.992188 138.46875 195.230469 138.5625 195.46875 138.65625 C 195.613281 139.035156 195.753906 139.417969 195.890625 139.800781 Z M 192.617188 152.613281 C 192.628906 151.058594 194.453125 151.117188 196.382812 150.785156 C 195.171875 151.339844 193.914062 151.949219 192.617188 152.613281 Z M 186.796875 163.136719 L 185.515625 163.164062 C 186.019531 169.007812 191.359375 171.195312 189.132812 163.089844 L 188.261719 163.105469 C 188.6875 164.359375 189.03125 165.761719 188.542969 167.277344 C 186.902344 166.335938 186.851562 165.230469 186.808594 163.398438 C 186.804688 163.308594 186.804688 163.21875 186.796875 163.136719 Z M 178.371094 161.640625 C 178.988281 161.15625 179.613281 160.683594 180.246094 160.222656 C 179.472656 160.085938 178.796875 160.273438 178.5 160.972656 C 178.402344 161.210938 178.378906 161.441406 178.371094 161.640625 Z M 212.601562 243.085938 C 212.039062 242.941406 211.527344 242.660156 211.046875 242.714844 C 210.910156 246.25 208.671875 243.390625 203.757812 247.722656 C 202.539062 248.792969 196.011719 250.601562 195.167969 250.976562 C 196.550781 250.140625 198.546875 248.816406 199.902344 248.035156 C 200.367188 247.363281 202.0625 247.511719 203.257812 246.382812 C 206.484375 243.332031 209.933594 244.171875 209.894531 242.988281 C 209.304688 241.003906 211.515625 241.746094 212.554688 241.859375 C 212.679688 241.875 212.871094 241.8125 213.101562 241.695312 C 212.9375 242.160156 212.773438 242.621094 212.601562 243.085938 Z M 191.445312 188.683594 C 193.191406 189.515625 193.308594 192.214844 195.398438 189.46875 C 195.730469 189.023438 195.996094 188.3125 196.628906 187.621094 C 197.539062 186.628906 202.941406 185.035156 203.527344 185.34375 C 204.277344 185.742188 204.273438 185.8125 205.457031 187.054688 C 211.792969 191.558594 212.839844 184.175781 215.285156 188.878906 C 216.289062 190.804688 215.582031 189.945312 217.457031 190.828125 C 220.140625 192.089844 217.359375 193.371094 224.742188 194.574219 C 231.730469 195.710938 225.207031 201.660156 230.871094 202.601562 C 232.242188 202.828125 233.148438 203.351562 233.34375 203.71875 C 234.292969 205.546875 234.539062 204.753906 236.75 205.195312 C 237.152344 205.273438 237.539062 205.382812 237.90625 205.523438 C 238.578125 205.78125 238.140625 206.386719 238.617188 206.851562 C 239.113281 207.347656 240.484375 207.109375 240.65625 207.839844 C 240.777344 208.339844 240.917969 209.144531 240.761719 210.121094 C 239.613281 217.28125 234.855469 217.890625 232.503906 225.324219 C 232.214844 226.238281 231.945312 226.972656 231.6875 227.570312 L 231.527344 227.574219 C 231.421875 226.78125 231.296875 225.945312 231.15625 225.085938 L 231.214844 224.964844 C 233.882812 219.027344 239.996094 213.261719 239.121094 208.273438 C 238.109375 208.09375 237.75 207.789062 237.355469 206.933594 C 236.167969 206.578125 235.980469 206.503906 235.335938 206.441406 C 231.289062 206.039062 234.1875 204.203125 231.335938 204.078125 C 222.613281 203.695312 230.738281 196.996094 224.878906 195.949219 C 216.179688 194.398438 221.5625 193.890625 216.574219 191.792969 C 214.40625 190.878906 214.273438 190.078125 214.144531 189.527344 C 213.699219 187.652344 212.933594 188.847656 212.457031 189.105469 C 207.273438 191.90625 204.707031 186.828125 203.160156 186.492188 C 202.113281 186.269531 197.898438 187.863281 197.386719 188.398438 C 196.109375 189.734375 195.136719 191.667969 194.695312 192.125 C 194.042969 192.800781 193.515625 191.4375 192.011719 190.324219 C 190.035156 188.851562 189.488281 189.78125 187.277344 189.890625 C 185.117188 190 183.265625 189.085938 184.625 183.371094 C 186.707031 174.652344 172.878906 185.328125 177.0625 177.855469 C 177.441406 177.179688 178.828125 175.242188 179.414062 173.546875 C 179.832031 172.34375 180.09375 171.785156 178.523438 171.945312 C 176.996094 172.097656 176.109375 173.378906 175.757812 174.941406 C 175.546875 175.886719 174.296875 176.464844 173.035156 176.613281 C 170.960938 176.855469 170.765625 178.066406 169.453125 177.070312 C 167.121094 175.292969 166.859375 174.109375 166.382812 172.5625 C 164.949219 167.941406 167.9375 168.667969 168.652344 164.539062 C 169.167969 161.578125 173.382812 160.828125 176.523438 161.980469 C 176.957031 162.136719 177.285156 162.242188 177.535156 162.300781 C 177.269531 162.519531 177 162.734375 176.738281 162.957031 C 174.148438 162.617188 170.46875 162.535156 170.050781 164.773438 C 169.238281 169.175781 164.441406 170.71875 168.8125 174.699219 C 171.132812 176.8125 170.691406 176.1875 172.34375 175.578125 C 178.054688 173.476562 173.046875 173.433594 176.480469 171.859375 C 184.390625 168.238281 180.40625 174.082031 177.878906 177.949219 C 176.84375 179.53125 177.199219 179.890625 178.949219 179.496094 C 183.082031 178.570312 187.097656 177.28125 185.835938 182.949219 C 185.199219 185.824219 184.589844 187.921875 185.242188 188.652344 C 186.675781 190.257812 189.449219 187.730469 191.445312 188.683594 " fill-opacity="1" fill-rule="evenodd"/><path fill="#0d0d0d" d="M 185.183594 172.117188 C 186.609375 172.101562 189.097656 170.265625 191.3125 173.398438 C 192.144531 174.574219 191.902344 174.953125 193.585938 175.0625 C 194.585938 175.128906 198.632812 175.917969 197.246094 174.363281 C 195.792969 172.742188 188.351562 169.121094 184.964844 171.074219 C 184.429688 171.382812 183.984375 172.132812 185.183594 172.117188 Z M 184.363281 170.683594 C 187.082031 167.414062 195.066406 171.199219 197.871094 174.015625 C 199.796875 175.949219 198.921875 177.070312 191.929688 175.589844 C 189.472656 175.070312 193.058594 171.941406 184.660156 172.808594 C 184.167969 172.859375 183.695312 172.691406 183.644531 172.328125 C 183.566406 171.835938 184.046875 171.0625 184.363281 170.683594 " fill-opacity="1" fill-rule="evenodd"/><path fill="#0d0d0d" d="M 202.355469 178.308594 C 203.496094 177.171875 205.023438 177.902344 205.890625 178.230469 C 206.527344 178.464844 206.824219 178.378906 206.28125 177.671875 C 203.457031 173.96875 201.671875 175.777344 200.089844 177.203125 C 199.25 177.957031 199.601562 178.070312 200.078125 178.21875 C 200.992188 178.507812 201.929688 178.730469 202.355469 178.308594 Z M 202.402344 179.15625 C 201.605469 179.660156 200.035156 179.167969 199.40625 178.738281 C 198.351562 178.015625 199.210938 177.027344 200.707031 175.539062 C 204.890625 171.371094 210.339844 181.527344 204.945312 179.058594 C 203.589844 178.4375 203.472656 178.472656 202.402344 179.15625 " fill-opacity="1" fill-rule="evenodd"/><path fill="#0d0d0d" d="M 192.027344 177.070312 C 192.027344 177.070312 194.21875 176.765625 195.367188 177.765625 C 196.523438 178.765625 193.882812 178.675781 193.242188 178.34375 C 192.605469 178.007812 190.996094 177.1875 192.027344 177.070312 " fill-opacity="1" fill-rule="evenodd"/><path fill="#0d0d0d" d="M 209.597656 177.417969 C 209.597656 177.417969 207.863281 176.6875 207.863281 177.480469 C 207.863281 178.265625 208.808594 178.449219 209.746094 178.238281 C 210.691406 178.023438 210.292969 177.628906 209.597656 177.417969 " fill-opacity="1" fill-rule="evenodd"/><path fill="#0d0d0d" d="M 214.484375 180.269531 C 214.484375 180.269531 214.089844 180.816406 214.636719 180.875 C 215.183594 180.9375 214.96875 179.359375 214.484375 180.269531 " fill-opacity="1" fill-rule="evenodd"/><path fill="#0d0d0d" d="M 214.9375 181.449219 C 214.9375 181.449219 214.820312 182.179688 215.335938 182.148438 C 215.851562 182.117188 214.9375 180.539062 214.9375 181.449219 " fill-opacity="1" fill-rule="evenodd"/><path fill="#0d0d0d" d="M 215.457031 183.027344 C 215.457031 183.027344 215.699219 183.574219 215.914062 183.269531 C 216.125 182.964844 215.429688 181.90625 215.457031 183.027344 " fill-opacity="1" fill-rule="evenodd"/><path fill="#0d0d0d" d="M 215.671875 184.183594 C 215.671875 184.183594 216.066406 184.183594 216.066406 183.847656 C 216.066406 183.515625 215.753906 183.628906 215.660156 183.871094 C 215.570312 184.113281 215.511719 184.234375 215.671875 184.183594 " fill-opacity="1" fill-rule="evenodd"/><path fill="#0d0d0d" d="M 216.34375 188.175781 C 216.34375 188.175781 215.675781 188.207031 215.800781 188.8125 C 215.917969 189.417969 215.980469 189.8125 216.679688 189.480469 C 217.378906 189.144531 217.226562 187.902344 216.34375 188.175781 " fill-opacity="1" fill-rule="evenodd"/><path fill="#0d0d0d" d="M 172.582031 204.152344 C 172.582031 204.152344 173.203125 203.359375 172.902344 202.964844 C 172.597656 202.574219 172.277344 202.859375 172.1875 203.058594 C 172.097656 203.253906 172.171875 204.785156 172.582031 204.152344 " fill-opacity="1" fill-rule="evenodd"/><path fill="#0d0d0d" d="M 129.492188 226.21875 C 134.058594 229.585938 140.175781 230.507812 145.851562 230.863281 C 146.273438 231.363281 146.722656 231.875 147.207031 232.402344 C 139.769531 231.921875 133.140625 230.648438 128.617188 227.890625 C 128.980469 227.019531 129.160156 226.726562 129.492188 226.21875 " fill-opacity="1" fill-rule="nonzero"/><path fill="#0d0d0d" d="M 118.902344 270.128906 C 119.730469 272.28125 128.140625 283.714844 179.132812 280.140625 C 172.316406 272.703125 165.402344 262.097656 162.65625 252.773438 C 163.601562 250.519531 164.796875 248.328125 166.164062 246.214844 C 166.714844 246.464844 167.273438 246.707031 167.839844 246.941406 C 166.722656 248.800781 165.71875 250.761719 164.863281 252.863281 C 167.90625 264.183594 174.875 272.800781 182.136719 281.710938 C 176.839844 282.117188 127.269531 285.707031 117.929688 272.652344 C 117.609375 272.203125 117.285156 271.734375 117.042969 271.234375 C 116.960938 270.992188 116.871094 270.75 116.785156 270.5 C 116.859375 268.441406 117.078125 265.871094 117.277344 263.882812 C 117.675781 266.148438 118.222656 268.261719 118.902344 270.128906 " fill-opacity="1" fill-rule="nonzero"/><path fill="#0d0d0d" d="M 177.519531 137.863281 C 181.417969 132.34375 185.558594 127.90625 189.898438 125.730469 C 190.363281 126.378906 190.429688 127.574219 190.347656 127.609375 C 185.902344 129.566406 182.433594 133.394531 179.558594 137.425781 C 178.910156 137.554688 178.226562 137.699219 177.519531 137.863281 " fill-opacity="1" fill-rule="nonzero"/><g clip-path="url(#3e20eb4aef)"><path fill="#0d0d0d" d="M 157.617188 96.472656 C 155.335938 96.113281 141.214844 97.667969 118.816406 143.554688 C 128.675781 141.382812 141.328125 140.703125 150.789062 142.992188 C 152.09375 144.699219 153.253906 146.550781 154.296875 148.496094 C 153.757812 148.894531 153.265625 149.28125 152.824219 149.636719 C 151.875 148 150.8125 146.40625 149.609375 144.855469 C 138.265625 141.832031 127.3125 143.546875 115.953125 145.375 C 118.253906 140.585938 139.925781 95.921875 155.910156 94.371094 C 156.460938 94.316406 157.035156 94.273438 157.589844 94.316406 C 158.886719 94.539062 160.226562 94.851562 161.59375 95.238281 C 161.59375 96.417969 167.59375 99.261719 161.617188 97.445312 C 160.238281 97.027344 158.898438 96.699219 157.617188 96.472656 " fill-opacity="1" fill-rule="nonzero"/></g><path fill="#0d0d0d" d="M 245.824219 206.703125 C 251.257812 212.691406 255.511719 218.707031 256.851562 224.214844 L 255.035156 224.695312 C 254.09375 218.691406 249.914062 213.410156 245.878906 208.960938 C 245.707031 208.769531 245.804688 206.992188 245.824219 206.703125 " fill-opacity="1" fill-rule="nonzero"/><path fill="#0d0d0d" d="M 293.628906 201.226562 C 294.570312 199.121094 296.71875 185.09375 258.132812 151.613281 C 257.683594 161.683594 255.066406 174.066406 250.40625 182.601562 C 249.050781 183.15625 247.65625 183.628906 246.222656 184.03125 C 246.132812 183.335938 246.035156 182.6875 245.9375 182.097656 C 246.929688 181.761719 247.917969 181.394531 248.90625 180.976562 C 254.769531 170.820312 255.945312 159.808594 257.117188 148.378906 C 261.148438 151.835938 298.742188 184.300781 296.105469 200.125 C 296.011719 200.671875 295.910156 201.230469 295.722656 201.753906 C 295.652344 201.90625 295.582031 202.054688 295.511719 202.203125 L 292.585938 203.402344 C 292.972656 202.710938 293.316406 201.898438 293.628906 201.226562 " fill-opacity="1" fill-rule="nonzero"/><g clip-path="url(#8b665d2e5f)"><path fill="#0d0d0d" d="M 223.726562 199.9375 C 228.320312 207.851562 230.285156 216.703125 232.152344 226.53125 C 256.503906 224.777344 283.6875 221.886719 293.914062 200.859375 L 295.730469 201.738281 C 287.21875 219.683594 277.082031 245.085938 279.425781 262.898438 C 266.433594 274.167969 258.425781 277.300781 245.855469 279.480469 C 248.65625 286.910156 251.078125 296.089844 250.785156 305.722656 C 237.347656 289.0625 222.132812 273.742188 203.644531 261.5625 C 213.125 242.972656 218.898438 221.488281 223.726562 199.9375 Z M 224.222656 203.136719 C 219.015625 229.785156 213.304688 247.53125 205.742188 261.238281 C 217.042969 267.410156 233.589844 282.332031 249.523438 301.804688 C 249.0625 293.550781 246.363281 286.042969 243.53125 278.328125 C 256.375 275.550781 269.710938 271.347656 278.019531 262.382812 C 276.742188 255.25 275.585938 242.503906 291.765625 207.019531 C 280.363281 223.855469 250.875 228.117188 230.648438 228.632812 C 229.570312 220.53125 227.410156 210.675781 224.222656 203.136719 " fill-opacity="1" fill-rule="nonzero"/></g><path fill="#0d0d0d" d="M 169.246094 221.671875 C 160.390625 219.324219 152.734375 214.453125 144.457031 208.820312 C 128.476562 227.257812 111.300781 248.5 118.960938 270.585938 L 117.054688 271.246094 C 110.367188 252.550781 99.546875 227.425781 85.277344 216.488281 C 86.488281 199.34375 89.929688 191.472656 97.273438 181.058594 C 90.035156 177.78125 81.820312 172.996094 75.203125 165.984375 C 96.507812 168.277344 118.113281 168.363281 139.804688 163.917969 C 146.269531 183.757812 157.398438 203.03125 169.246094 221.671875 Z M 166.628906 219.761719 C 151.4375 197.242188 142.914062 180.660156 138.554688 165.625 C 126.199219 169.246094 103.925781 170.375 78.875 167.859375 C 85.046875 173.367188 92.269531 176.773438 99.734375 180.230469 C 92.617188 191.261719 86.167969 203.652344 86.636719 215.863281 C 92.59375 220.003906 102.433594 228.195312 116.117188 264.714844 C 112.261719 244.761719 130.09375 220.921875 144.03125 206.273438 C 150.527344 211.238281 159.035156 216.683594 166.628906 219.761719 " fill-opacity="1" fill-rule="nonzero"/><g clip-path="url(#0b673f6991)"><path fill="#0d0d0d" d="M 174.464844 164.242188 C 180.925781 157.757812 188.980469 153.570312 198.003906 149.230469 C 190.007812 126.1875 180.175781 100.71875 157.191406 96.296875 L 157.570312 94.316406 C 177.128906 97.882812 204.324219 101.085938 220.945312 94.210938 C 235.207031 103.832031 240.308594 110.746094 245.671875 122.300781 C 252.132812 117.679688 260.382812 112.96875 269.777344 110.753906 C 257.140625 128.03125 246.257812 146.675781 239.269531 167.660156 C 218.832031 163.328125 196.554688 163.316406 174.464844 164.242188 Z M 177.429688 162.933594 C 204.554688 161.054688 223.195312 161.972656 238.410156 165.722656 C 241.453125 153.226562 251.605469 133.402344 266.3125 112.988281 C 258.449219 115.570312 251.886719 120.121094 245.15625 124.84375 C 239.148438 113.175781 231.632812 101.402344 220.808594 95.703125 C 214.238281 98.78125 202.214844 103.195312 163.703125 96.773438 C 182.9375 103.414062 194.695312 130.757812 200.429688 150.132812 C 192.871094 153.269531 183.894531 157.910156 177.429688 162.933594 " fill-opacity="1" fill-rule="nonzero"/></g></svg>