<svg width="25" height="24" viewBox="0 0 25 24" fill="none" xmlns="http://www.w3.org/2000/svg">
<path d="M12.5022 10.75C10.1582 10.75 8.2522 8.843 8.2522 6.5C8.2522 4.157 10.1582 2.25 12.5022 2.25C14.8462 2.25 16.7522 4.157 16.7522 6.5C16.7522 8.843 14.8462 10.75 12.5022 10.75ZM12.5022 3.75C10.9852 3.75 9.7522 4.983 9.7522 6.5C9.7522 8.017 10.9852 9.25 12.5022 9.25C14.0192 9.25 15.2522 8.017 15.2522 6.5C15.2522 4.983 14.0182 3.75 12.5022 3.75ZM16.4901 21.75H8.49622C6.07622 21.75 4.74316 20.425 4.74316 18.019C4.74316 15.358 6.24916 12.25 10.4932 12.25H14.4932C18.7372 12.25 20.2432 15.357 20.2432 18.019C20.2432 20.425 18.9101 21.75 16.4901 21.75ZM10.4932 13.75C6.55016 13.75 6.24316 17.017 6.24316 18.019C6.24316 19.583 6.91722 20.25 8.49622 20.25H16.4901C18.0691 20.25 18.7432 19.583 18.7432 18.019C18.7432 17.018 18.4362 13.75 14.4932 13.75H10.4932Z" fill="#2A2A2A"/>
</svg>
