<svg width="24" height="24" viewBox="0 0 24 24" fill="none" xmlns="http://www.w3.org/2000/svg">
<rect x="0.25" y="3.67993" width="23.5" height="16.6429" rx="1.75" fill="white" stroke="#F5F5F5" stroke-width="0.5"/>
<mask id="mask0_91_1106" style="mask-type:luminance" maskUnits="userSpaceOnUse" x="0" y="3" width="24" height="18">
<rect x="0.25" y="3.67993" width="23.5" height="16.6429" rx="1.75" fill="white" stroke="white" stroke-width="0.5"/>
</mask>
<g mask="url(#mask0_91_1106)">
<rect x="17.1428" y="3.42993" width="6.85714" height="17.1429" fill="#FF3131"/>
<path fill-rule="evenodd" clip-rule="evenodd" d="M0 20.5728H6.85714V3.42993H0V20.5728Z" fill="#FF3131"/>
<path fill-rule="evenodd" clip-rule="evenodd" d="M13.9213 11.2227C13.6881 11.456 13.2941 11.2451 13.3588 10.9217L13.7143 9.14408L12.5714 9.71551L12 8.00122L11.4286 9.71551L10.2857 9.14408L10.6412 10.9217C10.7059 11.2451 10.3119 11.456 10.0787 11.2227L9.94999 11.0941C9.81981 10.9639 9.60876 10.9639 9.47858 11.0941L9.14286 11.4298L8 10.8584L8.57143 12.0012L8.2357 12.3369C8.10553 12.4671 8.10553 12.6782 8.2357 12.8084L9.71429 14.2869H11.4286L11.7143 16.0012H12.2857L12.5714 14.2869H14.2857L15.7643 12.8084C15.8945 12.6782 15.8945 12.4671 15.7643 12.3369L15.4286 12.0012L16 10.8584L14.8571 11.4298L14.5214 11.0941C14.3912 10.9639 14.1802 10.9639 14.05 11.0941L13.9213 11.2227Z" fill="#FF3131"/>
</g>
</svg>
