<svg width="25" height="24" viewBox="0 0 25 24" fill="none" xmlns="http://www.w3.org/2000/svg">
<path d="M18.2466 6.25H16.7866L16.3005 4.78906C15.9935 3.86906 15.1355 3.25 14.1655 3.25H10.3276C9.35764 3.25 8.49963 3.86906 8.19263 4.78906L7.70654 6.25H6.24658C3.82858 6.25 2.49658 7.582 2.49658 10V18C2.49658 20.418 3.82858 21.75 6.24658 21.75H18.2466C20.6646 21.75 21.9966 20.418 21.9966 18V10C21.9966 7.582 20.6646 6.25 18.2466 6.25ZM20.4966 18C20.4966 19.577 19.8236 20.25 18.2466 20.25H6.24658C4.66958 20.25 3.99658 19.577 3.99658 18V10C3.99658 8.423 4.66958 7.75 6.24658 7.75H8.24658C8.56958 7.75 8.8555 7.54306 8.9585 7.23706L9.6167 5.26196C9.7187 4.95496 10.0046 4.74902 10.3276 4.74902H14.1655C14.4885 4.74902 14.7745 4.95496 14.8765 5.26196L15.5347 7.23608C15.6377 7.54208 15.9236 7.74902 16.2466 7.74902H18.2466C19.8236 7.74902 20.4966 8.42202 20.4966 9.99902V18ZM12.2466 10.25C10.1796 10.25 8.49658 11.932 8.49658 14C8.49658 16.068 10.1796 17.75 12.2466 17.75C14.3136 17.75 15.9966 16.068 15.9966 14C15.9966 11.932 14.3136 10.25 12.2466 10.25ZM12.2466 16.25C11.0066 16.25 9.99658 15.241 9.99658 14C9.99658 12.759 11.0066 11.75 12.2466 11.75C13.4866 11.75 14.4966 12.759 14.4966 14C14.4966 15.241 13.4866 16.25 12.2466 16.25ZM18.7466 10.5C18.7466 11.052 18.2986 11.5 17.7466 11.5C17.1946 11.5 16.7466 11.052 16.7466 10.5C16.7466 9.948 17.1946 9.5 17.7466 9.5C18.2986 9.5 18.7466 9.948 18.7466 10.5Z" fill="#2A2A2A"/>
</svg>
