<svg xmlns="http://www.w3.org/2000/svg" xmlns:xlink="http://www.w3.org/1999/xlink" width="500" zoomAndPan="magnify" viewBox="0 0 375 374.999991" height="500" preserveAspectRatio="xMidYMid meet" version="1.0"><defs><clipPath id="a2a4db504b"><path d="M 105.683594 125.203125 L 255.683594 125.203125 L 255.683594 275.203125 L 105.683594 275.203125 Z M 105.683594 125.203125 " clip-rule="nonzero"/></clipPath></defs><g clip-path="url(#a2a4db504b)"><path fill="#f8962b" d="M 255.683594 200.203125 C 255.683594 201.429688 255.652344 202.65625 255.589844 203.882812 C 255.53125 205.105469 255.441406 206.332031 255.320312 207.550781 C 255.199219 208.773438 255.050781 209.992188 254.871094 211.207031 C 254.691406 212.421875 254.480469 213.628906 254.242188 214.832031 C 254 216.035156 253.730469 217.234375 253.433594 218.425781 C 253.136719 219.617188 252.808594 220.796875 252.453125 221.972656 C 252.097656 223.148438 251.710938 224.3125 251.296875 225.46875 C 250.882812 226.625 250.441406 227.769531 249.972656 228.902344 C 249.503906 230.035156 249.003906 231.160156 248.480469 232.269531 C 247.957031 233.378906 247.40625 234.472656 246.824219 235.554688 C 246.246094 236.636719 245.640625 237.707031 245.011719 238.757812 C 244.378906 239.8125 243.722656 240.847656 243.042969 241.867188 C 242.359375 242.890625 241.652344 243.894531 240.921875 244.878906 C 240.191406 245.863281 239.4375 246.832031 238.65625 247.78125 C 237.878906 248.730469 237.078125 249.660156 236.253906 250.566406 C 235.429688 251.476562 234.582031 252.367188 233.714844 253.234375 C 232.847656 254.101562 231.957031 254.949219 231.046875 255.773438 C 230.140625 256.597656 229.210938 257.398438 228.261719 258.175781 C 227.3125 258.957031 226.34375 259.710938 225.359375 260.441406 C 224.375 261.171875 223.371094 261.878906 222.347656 262.5625 C 221.328125 263.242188 220.292969 263.898438 219.238281 264.53125 C 218.1875 265.160156 217.117188 265.765625 216.035156 266.34375 C 214.953125 266.925781 213.859375 267.476562 212.75 268 C 211.640625 268.523438 210.515625 269.023438 209.382812 269.492188 C 208.25 269.960938 207.105469 270.402344 205.949219 270.816406 C 204.792969 271.230469 203.628906 271.617188 202.453125 271.972656 C 201.277344 272.328125 200.097656 272.65625 198.90625 272.953125 C 197.714844 273.25 196.515625 273.519531 195.3125 273.761719 C 194.109375 274 192.902344 274.210938 191.6875 274.390625 C 190.472656 274.570312 189.253906 274.71875 188.03125 274.839844 C 186.8125 274.960938 185.585938 275.050781 184.363281 275.109375 C 183.136719 275.171875 181.910156 275.199219 180.683594 275.203125 C 179.453125 275.199219 178.226562 275.171875 177 275.109375 C 175.777344 275.050781 174.550781 274.960938 173.332031 274.839844 C 172.109375 274.71875 170.890625 274.570312 169.675781 274.390625 C 168.460938 274.210938 167.253906 274 166.050781 273.761719 C 164.847656 273.519531 163.648438 273.25 162.457031 272.953125 C 161.269531 272.65625 160.085938 272.328125 158.910156 271.972656 C 157.734375 271.617188 156.570312 271.230469 155.414062 270.816406 C 154.257812 270.402344 153.113281 269.960938 151.980469 269.492188 C 150.847656 269.023438 149.726562 268.523438 148.613281 268 C 147.503906 267.476562 146.410156 266.925781 145.328125 266.34375 C 144.246094 265.765625 143.175781 265.160156 142.125 264.53125 C 141.070312 263.898438 140.035156 263.242188 139.015625 262.5625 C 137.992188 261.878906 136.988281 261.171875 136.003906 260.441406 C 135.019531 259.710938 134.050781 258.957031 133.101562 258.175781 C 132.152344 257.398438 131.222656 256.597656 130.316406 255.773438 C 129.40625 254.949219 128.515625 254.101562 127.648438 253.234375 C 126.78125 252.367188 125.933594 251.476562 125.109375 250.566406 C 124.285156 249.660156 123.484375 248.730469 122.707031 247.78125 C 121.925781 246.832031 121.171875 245.863281 120.441406 244.878906 C 119.710938 243.894531 119.003906 242.890625 118.320312 241.867188 C 117.640625 240.847656 116.984375 239.8125 116.351562 238.757812 C 115.722656 237.707031 115.117188 236.636719 114.539062 235.554688 C 113.960938 234.472656 113.40625 233.378906 112.882812 232.269531 C 112.359375 231.160156 111.859375 230.035156 111.390625 228.902344 C 110.921875 227.769531 110.480469 226.625 110.066406 225.46875 C 109.652344 224.3125 109.269531 223.148438 108.910156 221.972656 C 108.554688 220.796875 108.226562 219.617188 107.929688 218.425781 C 107.632812 217.234375 107.363281 216.035156 107.121094 214.832031 C 106.882812 213.628906 106.671875 212.421875 106.492188 211.207031 C 106.3125 209.992188 106.164062 208.773438 106.042969 207.550781 C 105.921875 206.332031 105.832031 205.105469 105.773438 203.882812 C 105.710938 202.65625 105.683594 201.429688 105.683594 200.203125 C 105.683594 198.972656 105.710938 197.746094 105.773438 196.519531 C 105.832031 195.296875 105.921875 194.070312 106.042969 192.851562 C 106.164062 191.628906 106.3125 190.410156 106.492188 189.195312 C 106.671875 187.980469 106.882812 186.773438 107.121094 185.570312 C 107.363281 184.367188 107.632812 183.167969 107.929688 181.976562 C 108.226562 180.785156 108.554688 179.605469 108.910156 178.429688 C 109.269531 177.253906 109.652344 176.089844 110.066406 174.933594 C 110.480469 173.777344 110.921875 172.632812 111.390625 171.5 C 111.859375 170.367188 112.359375 169.242188 112.882812 168.132812 C 113.40625 167.023438 113.960938 165.929688 114.539062 164.847656 C 115.117188 163.765625 115.722656 162.695312 116.351562 161.644531 C 116.984375 160.589844 117.640625 159.554688 118.320312 158.535156 C 119.003906 157.511719 119.710938 156.507812 120.441406 155.523438 C 121.171875 154.539062 121.925781 153.570312 122.707031 152.621094 C 123.484375 151.671875 124.285156 150.742188 125.109375 149.835938 C 125.933594 148.925781 126.78125 148.035156 127.648438 147.167969 C 128.515625 146.300781 129.40625 145.453125 130.316406 144.628906 C 131.222656 143.804688 132.152344 143.003906 133.101562 142.226562 C 134.050781 141.445312 135.019531 140.691406 136.003906 139.960938 C 136.992188 139.230469 137.992188 138.523438 139.015625 137.839844 C 140.035156 137.160156 141.070312 136.503906 142.125 135.871094 C 143.175781 135.242188 144.246094 134.636719 145.328125 134.058594 C 146.410156 133.476562 147.503906 132.925781 148.613281 132.402344 C 149.726562 131.878906 150.847656 131.378906 151.980469 130.910156 C 153.113281 130.441406 154.257812 130 155.414062 129.585938 C 156.570312 129.171875 157.734375 128.785156 158.910156 128.429688 C 160.085938 128.074219 161.269531 127.746094 162.457031 127.449219 C 163.648438 127.152344 164.847656 126.882812 166.050781 126.640625 C 167.253906 126.402344 168.460938 126.191406 169.675781 126.011719 C 170.890625 125.832031 172.109375 125.683594 173.332031 125.5625 C 174.550781 125.441406 175.777344 125.351562 177 125.292969 C 178.226562 125.230469 179.453125 125.203125 180.683594 125.203125 C 181.910156 125.203125 183.136719 125.230469 184.363281 125.292969 C 185.585938 125.351562 186.8125 125.441406 188.03125 125.5625 C 189.253906 125.683594 190.472656 125.832031 191.6875 126.011719 C 192.902344 126.191406 194.109375 126.402344 195.3125 126.640625 C 196.515625 126.882812 197.714844 127.152344 198.90625 127.449219 C 200.097656 127.746094 201.277344 128.074219 202.453125 128.429688 C 203.628906 128.785156 204.792969 129.171875 205.949219 129.585938 C 207.105469 130 208.25 130.441406 209.382812 130.910156 C 210.515625 131.378906 211.640625 131.878906 212.75 132.402344 C 213.859375 132.925781 214.953125 133.476562 216.035156 134.058594 C 217.117188 134.636719 218.1875 135.242188 219.238281 135.871094 C 220.292969 136.503906 221.328125 137.160156 222.347656 137.839844 C 223.371094 138.523438 224.375 139.230469 225.359375 139.960938 C 226.34375 140.691406 227.3125 141.445312 228.261719 142.226562 C 229.210938 143.003906 230.140625 143.804688 231.046875 144.628906 C 231.957031 145.453125 232.847656 146.300781 233.714844 147.167969 C 234.582031 148.035156 235.429688 148.925781 236.253906 149.835938 C 237.078125 150.742188 237.878906 151.671875 238.65625 152.621094 C 239.4375 153.570312 240.191406 154.539062 240.921875 155.523438 C 241.652344 156.507812 242.359375 157.511719 243.042969 158.535156 C 243.722656 159.554688 244.378906 160.589844 245.011719 161.644531 C 245.640625 162.695312 246.246094 163.765625 246.824219 164.847656 C 247.40625 165.929688 247.957031 167.023438 248.480469 168.132812 C 249.003906 169.242188 249.503906 170.367188 249.972656 171.5 C 250.441406 172.632812 250.882812 173.777344 251.296875 174.933594 C 251.710938 176.089844 252.097656 177.253906 252.453125 178.429688 C 252.808594 179.605469 253.136719 180.785156 253.433594 181.976562 C 253.730469 183.167969 254 184.367188 254.242188 185.570312 C 254.480469 186.773438 254.691406 187.980469 254.871094 189.195312 C 255.050781 190.410156 255.199219 191.628906 255.320312 192.851562 C 255.441406 194.070312 255.53125 195.296875 255.589844 196.519531 C 255.652344 197.746094 255.683594 198.972656 255.683594 200.203125 Z M 255.683594 200.203125 " fill-opacity="1" fill-rule="nonzero"/></g><path stroke-linecap="butt" transform="matrix(1.685393, 0, 0, 1.685393, 104.839106, 124.358488)" fill="none" stroke-linejoin="miter" d="M 59.50065 33.899331 L 43.299867 19.100762 L 26.700439 42.400685 " stroke="#010101" stroke-width="2" stroke-opacity="1" stroke-miterlimit="4"/><path stroke-linecap="butt" transform="matrix(1.631798, -0.421647, 0.421647, 1.631798, 85.166205, 146.985137)" fill-opacity="1" fill="#9f96c9" fill-rule="nonzero" stroke-linejoin="miter" d="M 20.000654 37.699765 L 74.000806 37.69944 L 73.999788 67.701077 L 20.000216 67.699158 Z M 20.000654 37.699765 " stroke="#010101" stroke-width="2" stroke-opacity="1" stroke-miterlimit="4"/><path fill="#010101" d="M 146.46875 212.167969 C 147.984375 211.492188 150.007812 210.820312 152.535156 210.144531 C 155.570312 209.300781 157.929688 209.300781 159.613281 209.976562 C 161.132812 210.652344 162.140625 212 162.648438 213.851562 C 163.320312 216.382812 161.972656 218.742188 160.289062 219.921875 L 160.289062 220.089844 C 161.804688 220.257812 162.984375 221.4375 163.996094 223.121094 C 165.175781 225.3125 166.523438 227.839844 167.199219 228.515625 L 162.480469 229.695312 C 161.972656 229.191406 161.132812 227.671875 159.78125 225.3125 C 158.601562 222.785156 157.421875 222.449219 155.570312 222.953125 L 154.222656 223.292969 L 156.242188 231.382812 L 151.691406 232.5625 Z M 153.378906 219.75 L 155.230469 219.246094 C 157.59375 218.570312 158.601562 217.054688 158.097656 215.371094 C 157.59375 213.515625 156.074219 212.839844 153.882812 213.347656 C 152.703125 213.683594 152.199219 213.851562 151.863281 214.019531 Z M 153.378906 219.75 " fill-opacity="1" fill-rule="nonzero"/><path fill="#010101" d="M 179.839844 215.875 L 172.253906 217.898438 L 173.601562 222.785156 L 182.03125 220.59375 L 183.042969 224.472656 L 169.894531 227.839844 L 164.503906 207.28125 L 177.140625 204.078125 L 178.152344 207.953125 L 170.0625 209.976562 L 171.242188 214.191406 L 178.828125 212.167969 Z M 179.839844 215.875 " fill-opacity="1" fill-rule="nonzero"/><path fill="#010101" d="M 186.242188 223.628906 L 180.851562 203.066406 L 186.242188 201.71875 L 192.480469 208.121094 C 194.332031 209.976562 196.1875 212.167969 197.703125 214.359375 C 196.691406 211.660156 195.851562 208.964844 195.175781 205.761719 L 193.660156 199.695312 L 197.871094 198.515625 L 203.265625 219.078125 L 198.378906 220.425781 L 191.972656 213.683594 C 190.121094 211.832031 188.097656 209.472656 186.582031 207.28125 L 186.414062 207.28125 C 187.253906 209.976562 188.097656 212.839844 188.941406 216.210938 L 190.625 222.449219 Z M 186.242188 223.628906 " fill-opacity="1" fill-rule="nonzero"/><path fill="#010101" d="M 206.972656 200.371094 L 201.414062 201.886719 L 200.402344 198.011719 L 216.242188 193.964844 L 217.253906 197.839844 L 211.691406 199.359375 L 216.074219 216.042969 L 211.355469 217.054688 Z M 206.972656 200.371094 " fill-opacity="1" fill-rule="nonzero"/><path stroke-linecap="butt" transform="matrix(1.685393, 0, 0, 1.685393, 104.839106, 124.358488)" fill-opacity="1" fill="#f1b565" fill-rule="nonzero" stroke-linejoin="miter" d="M 48.299165 19.100762 C 48.299165 19.427559 48.269034 19.754356 48.204139 20.076517 C 48.139243 20.396361 48.044217 20.709252 47.91906 21.012872 C 47.793904 21.316491 47.638618 21.603887 47.457837 21.877377 C 47.274738 22.150866 47.068461 22.403497 46.834373 22.635267 C 46.602602 22.867038 46.349972 23.075632 46.0788 23.256413 C 45.80531 23.439512 45.515597 23.594799 45.214295 23.719955 C 44.910675 23.845111 44.597784 23.940137 44.275623 24.005033 C 43.953461 24.067611 43.628982 24.100059 43.299867 24.100059 C 42.970753 24.100059 42.646274 24.067611 42.324112 24.005033 C 42.001951 23.940137 41.68906 23.845111 41.38544 23.719955 C 41.084138 23.594799 40.794425 23.439512 40.523253 23.256413 C 40.249763 23.075632 39.997133 22.867038 39.765362 22.635267 C 39.531273 22.403497 39.324997 22.150866 39.141898 21.877377 C 38.961117 21.603887 38.805831 21.316491 38.680674 21.012872 C 38.555518 20.709252 38.460492 20.396361 38.395596 20.076517 C 38.333018 19.754356 38.30057 19.427559 38.30057 19.100762 C 38.30057 18.771647 38.333018 18.447168 38.395596 18.125007 C 38.460492 17.802845 38.555518 17.489955 38.680674 17.186335 C 38.805831 16.882715 38.961117 16.595319 39.141898 16.32183 C 39.324997 16.04834 39.531273 15.79571 39.765362 15.563939 C 39.997133 15.332168 40.249763 15.125892 40.523253 14.942793 C 40.794425 14.759694 41.084138 14.606725 41.38544 14.481569 C 41.68906 14.354095 42.001951 14.259069 42.324112 14.196491 C 42.646274 14.131595 42.970753 14.099147 43.299867 14.099147 C 43.628982 14.099147 43.953461 14.131595 44.275623 14.196491 C 44.597784 14.259069 44.910675 14.354095 45.214295 14.481569 C 45.515597 14.606725 45.80531 14.759694 46.0788 14.942793 C 46.349972 15.125892 46.602602 15.332168 46.834373 15.563939 C 47.068461 15.79571 47.274738 16.04834 47.457837 16.32183 C 47.638618 16.595319 47.793904 16.882715 47.91906 17.186335 C 48.044217 17.489955 48.139243 17.802845 48.204139 18.125007 C 48.269034 18.447168 48.299165 18.771647 48.299165 19.100762 Z M 48.299165 19.100762 " stroke="#010101" stroke-width="2" stroke-opacity="1" stroke-miterlimit="4"/></svg>