<svg xmlns="http://www.w3.org/2000/svg" xmlns:xlink="http://www.w3.org/1999/xlink" width="500" zoomAndPan="magnify" viewBox="0 0 375 374.999991" height="500" preserveAspectRatio="xMidYMid meet" version="1.0"><defs><g/><clipPath id="3bc1049b59"><path d="M 30.398438 211.964844 L 295.898438 211.964844 L 295.898438 215.925781 L 30.398438 215.925781 Z M 30.398438 211.964844 " clip-rule="nonzero"/></clipPath><clipPath id="23c14f918f"><path d="M 235 168 L 241.964844 168 L 241.964844 176 L 235 176 Z M 235 168 " clip-rule="nonzero"/></clipPath><clipPath id="1839c806d1"><path d="M 231 175 L 240 175 L 240 181.308594 L 231 181.308594 Z M 231 175 " clip-rule="nonzero"/></clipPath><clipPath id="382816fc50"><path d="M 227.714844 168 L 236 168 L 236 176 L 227.714844 176 Z M 227.714844 168 " clip-rule="nonzero"/></clipPath></defs><g fill="#000000" fill-opacity="1"><g transform="translate(28.350973, 202.499987)"><g><path d="M 2.027344 -35.480469 L 2.027344 0 L 9.730469 0 L 9.730469 -13.9375 L 25.394531 -13.9375 L 25.394531 -10.796875 C 25.394531 -4.664062 29.902344 0 36.796875 0 L 48.253906 0 L 48.253906 -7.703125 L 36.796875 -7.703125 C 35.175781 -7.703125 33.859375 -9.023438 33.859375 -10.796875 L 33.859375 -13.9375 L 36.796875 -13.9375 C 43.691406 -13.9375 48.253906 -18.601562 48.253906 -24.683594 C 48.253906 -30.816406 43.691406 -35.480469 36.796875 -35.480469 Z M 9.730469 -21.640625 L 9.730469 -27.773438 L 36.796875 -27.773438 C 38.417969 -27.773438 39.789062 -26.457031 39.789062 -24.683594 C 39.789062 -22.910156 38.417969 -21.640625 36.796875 -21.640625 Z M 9.730469 -21.640625 "/></g></g></g><g fill="#000000" fill-opacity="1"><g transform="translate(78.629065, 202.499987)"><g><path d="M 13.480469 0 L 48.253906 0 L 48.253906 -7.703125 L 42.070312 -7.703125 L 48.253906 -13.886719 L 48.253906 -21.59375 L 13.480469 -21.59375 C 6.589844 -21.59375 2.027344 -16.929688 2.027344 -10.796875 C 2.027344 -4.664062 6.589844 0 13.480469 0 Z M 10.492188 -10.796875 C 10.492188 -12.570312 11.859375 -13.886719 13.480469 -13.886719 L 36.238281 -13.886719 L 30.054688 -7.703125 L 13.480469 -7.703125 C 11.859375 -7.703125 10.492188 -9.023438 10.492188 -10.796875 Z M 10.492188 -10.796875 "/></g></g></g><g fill="#000000" fill-opacity="1"><g transform="translate(128.907157, 202.499987)"><g><path d="M 2.027344 -10.796875 L 2.027344 0 L 10.492188 0 L 10.492188 -10.796875 C 10.492188 -12.570312 11.859375 -13.886719 13.480469 -13.886719 L 36.796875 -13.886719 C 38.417969 -13.886719 39.789062 -12.570312 39.789062 -10.796875 L 39.789062 0 L 48.253906 0 L 48.253906 -10.796875 C 48.253906 -16.929688 43.691406 -21.59375 36.796875 -21.59375 L 13.480469 -21.59375 C 6.589844 -21.59375 2.027344 -16.929688 2.027344 -10.796875 Z M 2.027344 -10.796875 "/></g></g></g><g fill="#000000" fill-opacity="1"><g transform="translate(179.185248, 202.499987)"><g><path d="M 2.027344 -13.886719 L 20.882812 -13.886719 L 20.882812 0 L 29.398438 0 L 29.398438 -13.886719 L 48.253906 -13.886719 L 48.253906 -21.59375 L 29.398438 -21.59375 L 29.398438 -35.429688 L 20.882812 -35.429688 L 20.882812 -21.59375 L 2.027344 -21.59375 Z M 2.027344 -13.886719 "/></g></g></g><g fill="#000000" fill-opacity="1"><g transform="translate(229.46334, 202.499987)"><g><path d="M 2.027344 0 L 10.542969 0 L 10.542969 -21.59375 L 2.027344 -21.59375 Z M 2.027344 0 "/></g></g></g><g fill="#000000" fill-opacity="1"><g transform="translate(242.032866, 202.499987)"><g><path d="M 6.082031 -24.632812 L 6.082031 -21.59375 L 2.027344 -21.59375 L 2.027344 -13.886719 L 6.082031 -13.886719 L 6.082031 0 L 14.546875 0 L 14.546875 -13.886719 L 34.566406 -13.886719 L 34.566406 -21.59375 L 14.546875 -21.59375 L 14.546875 -24.632812 C 14.546875 -26.40625 15.863281 -27.726562 17.484375 -27.726562 L 52.308594 -27.726562 L 52.308594 -35.429688 L 17.484375 -35.429688 C 10.59375 -35.429688 6.082031 -30.765625 6.082031 -24.632812 Z M 6.082031 -24.632812 "/></g></g></g><g fill="#000000" fill-opacity="1"><g transform="translate(296.365633, 202.499987)"><g><path d="M 13.480469 0 L 39.789062 0 L 39.789062 3.089844 C 39.789062 4.867188 38.417969 6.183594 36.796875 6.183594 L 2.027344 6.183594 L 2.027344 13.886719 L 36.796875 13.886719 C 43.691406 13.886719 48.253906 9.226562 48.253906 3.089844 L 48.253906 -21.59375 L 39.789062 -21.59375 L 39.789062 -7.703125 L 13.480469 -7.703125 C 11.859375 -7.703125 10.492188 -9.023438 10.492188 -10.796875 L 10.492188 -21.59375 L 2.027344 -21.59375 L 2.027344 -10.796875 C 2.027344 -4.664062 6.589844 0 13.480469 0 Z M 13.480469 0 "/></g></g></g><g clip-path="url(#3bc1049b59)"><path fill="#669940" d="M 139.476562 215.917969 L 141.757812 211.964844 L 137.488281 211.964844 L 135.207031 215.917969 Z M 220.1875 215.917969 L 222.46875 211.964844 L 219.777344 211.964844 L 217.492188 215.917969 Z M 235.023438 215.917969 L 237.308594 211.964844 L 234.839844 211.964844 L 232.558594 215.917969 Z M 227.605469 215.917969 L 229.886719 211.964844 L 227.417969 211.964844 L 225.136719 215.917969 Z M 212.992188 215.917969 L 215.273438 211.964844 L 212.355469 211.964844 L 210.074219 215.917969 Z M 183.539062 215.917969 L 185.824219 211.964844 L 182.453125 211.964844 L 180.171875 215.917969 Z M 198.152344 215.917969 L 200.4375 211.964844 L 197.292969 211.964844 L 195.011719 215.917969 Z M 190.960938 215.917969 L 193.242188 211.964844 L 189.875 211.964844 L 187.59375 215.917969 Z M 205.574219 215.917969 L 207.855469 211.964844 L 204.9375 211.964844 L 202.65625 215.917969 Z M 176.121094 215.917969 L 178.402344 211.964844 L 174.808594 211.964844 L 172.527344 215.917969 Z M 242.21875 215.917969 L 244.5 211.964844 L 242.257812 211.964844 L 239.976562 215.917969 Z M 286.285156 215.917969 L 288.566406 211.964844 L 287.222656 211.964844 L 284.941406 215.917969 Z M 293.703125 215.917969 L 295.984375 211.964844 L 294.871094 211.964844 L 292.585938 215.917969 Z M 279.089844 215.917969 L 281.375 211.964844 L 279.804688 211.964844 L 277.523438 215.917969 Z M 271.671875 215.917969 L 273.953125 211.964844 L 272.386719 211.964844 L 270.101562 215.917969 Z M 249.636719 215.917969 L 251.917969 211.964844 L 249.90625 211.964844 L 247.621094 215.917969 Z M 264.253906 215.917969 L 266.535156 211.964844 L 264.742188 211.964844 L 262.460938 215.917969 Z M 257.054688 215.917969 L 259.339844 211.964844 L 257.324219 211.964844 L 255.042969 215.917969 Z M 58.761719 215.917969 L 61.046875 211.964844 L 54.976562 211.964844 L 52.695312 215.917969 Z M 80.796875 215.917969 L 83.078125 211.964844 L 77.460938 211.964844 L 75.175781 215.917969 Z M 168.925781 215.917969 L 171.210938 211.964844 L 167.390625 211.964844 L 165.109375 215.917969 Z M 87.992188 215.917969 L 90.273438 211.964844 L 84.878906 211.964844 L 82.597656 215.917969 Z M 36.730469 215.917969 L 39.011719 211.964844 L -75.859375 211.964844 L -78.140625 215.917969 Z M 43.925781 215.917969 L 46.207031 211.964844 L 39.914062 211.964844 L 37.628906 215.917969 Z M 51.34375 215.917969 L 53.625 211.964844 L 47.558594 211.964844 L 45.273438 215.917969 Z M 65.957031 215.917969 L 68.238281 211.964844 L 62.394531 211.964844 L 60.113281 215.917969 Z M 95.410156 215.917969 L 97.691406 211.964844 L 92.523438 211.964844 L 90.242188 215.917969 Z M 73.378906 215.917969 L 75.660156 211.964844 L 70.039062 211.964844 L 67.757812 215.917969 Z M 146.894531 215.917969 L 149.175781 211.964844 L 144.90625 211.964844 L 142.625 215.917969 Z M 154.089844 215.917969 L 156.371094 211.964844 L 152.328125 211.964844 L 150.046875 215.917969 Z M 161.507812 215.917969 L 163.789062 211.964844 L 159.972656 211.964844 L 157.691406 215.917969 Z M 102.828125 215.917969 L 105.109375 211.964844 L 99.941406 211.964844 L 97.660156 215.917969 Z M 110.023438 215.917969 L 112.304688 211.964844 L 107.363281 211.964844 L 105.078125 215.917969 Z M 117.441406 215.917969 L 119.722656 211.964844 L 115.007812 211.964844 L 112.722656 215.917969 Z M 124.863281 215.917969 L 127.144531 211.964844 L 122.425781 211.964844 L 120.144531 215.917969 Z M 127.5625 215.917969 L 129.84375 211.964844 L 134.339844 211.964844 L 132.054688 215.917969 L 127.5625 215.917969 " fill-opacity="1" fill-rule="nonzero"/></g><g clip-path="url(#23c14f918f)"><path fill="#669940" d="M 241.433594 169 C 240.597656 167.808594 239.089844 168.367188 238.035156 168.867188 C 237.273438 169.222656 236.535156 169.65625 235.847656 170.140625 C 235.328125 170.507812 236.355469 171.804688 236.890625 171.425781 C 237.539062 170.972656 238.234375 170.5625 238.945312 170.214844 C 239.011719 170.183594 239.074219 170.152344 239.140625 170.125 C 239.148438 170.121094 239.171875 170.109375 239.191406 170.101562 C 239.210938 170.089844 239.230469 170.082031 239.25 170.074219 C 239.390625 170.015625 239.53125 169.957031 239.671875 169.90625 C 239.921875 169.816406 240.179688 169.742188 240.441406 169.703125 C 240.488281 169.695312 240.539062 169.691406 240.589844 169.6875 C 240.585938 169.71875 240.585938 169.75 240.582031 169.78125 C 240.566406 169.929688 240.539062 170.074219 240.507812 170.214844 C 240.464844 170.414062 240.441406 170.484375 240.367188 170.710938 C 240.039062 171.722656 239.546875 172.683594 239.035156 173.617188 C 239.007812 173.300781 238.980469 172.980469 238.949219 172.65625 C 238.894531 172.03125 237.882812 172.027344 237.941406 172.660156 C 238.015625 173.492188 238.089844 174.320312 238.164062 175.148438 C 238.1875 175.398438 238.378906 175.664062 238.671875 175.640625 C 239.527344 175.570312 240.378906 175.496094 241.234375 175.421875 C 241.878906 175.367188 241.882812 174.386719 241.230469 174.4375 C 240.9375 174.460938 240.640625 174.492188 240.347656 174.515625 C 240.910156 173.464844 241.433594 172.382812 241.738281 171.234375 C 241.949219 170.441406 241.917969 169.691406 241.433594 169 Z M 241.433594 169 " fill-opacity="1" fill-rule="nonzero"/></g><g clip-path="url(#1839c806d1)"><path fill="#669940" d="M 237.789062 176.449219 C 237.03125 177.417969 236.273438 178.386719 235.515625 179.359375 C 234.792969 178.539062 234.070312 177.71875 233.347656 176.898438 C 233.617188 176.886719 233.886719 176.871094 234.15625 176.859375 C 234.769531 176.828125 234.773438 175.898438 234.15625 175.929688 C 233.402344 175.96875 232.648438 176.007812 231.898438 176.046875 C 231.644531 176.058594 231.40625 176.25 231.421875 176.511719 C 231.460938 177.273438 231.5 178.035156 231.542969 178.800781 C 231.578125 179.394531 232.53125 179.398438 232.496094 178.796875 C 232.484375 178.519531 232.46875 178.246094 232.453125 177.96875 C 233.308594 178.9375 234.167969 179.910156 235.023438 180.878906 C 235.304688 181.199219 235.964844 181.308594 236.253906 180.9375 C 237.199219 179.730469 238.140625 178.523438 239.085938 177.316406 C 239.644531 176.601562 238.304688 175.789062 237.789062 176.449219 Z M 237.789062 176.449219 " fill-opacity="1" fill-rule="nonzero"/></g><g clip-path="url(#382816fc50)"><path fill="#669940" d="M 229.234375 170.347656 C 229.238281 170.320312 229.246094 170.265625 229.253906 170.238281 C 229.265625 170.191406 229.28125 170.148438 229.300781 170.105469 C 229.304688 170.097656 229.304688 170.089844 229.308594 170.085938 C 229.3125 170.082031 229.3125 170.078125 229.316406 170.078125 C 229.339844 170.039062 229.371094 170.007812 229.402344 169.976562 C 229.40625 169.976562 229.410156 169.972656 229.414062 169.972656 C 229.449219 169.953125 229.484375 169.9375 229.523438 169.921875 C 229.539062 169.917969 229.554688 169.914062 229.570312 169.914062 C 229.597656 169.910156 229.625 169.90625 229.65625 169.902344 C 229.683594 169.90625 229.78125 169.90625 229.816406 169.90625 C 229.894531 169.914062 229.96875 169.929688 230.042969 169.945312 C 230.054688 169.945312 230.070312 169.949219 230.089844 169.953125 C 230.113281 169.960938 230.136719 169.96875 230.160156 169.972656 C 230.367188 170.03125 230.566406 170.105469 230.761719 170.183594 C 230.851562 170.21875 230.945312 170.261719 231.035156 170.300781 C 231.046875 170.304688 231.144531 170.351562 231.160156 170.359375 C 231.226562 170.390625 231.292969 170.421875 231.355469 170.453125 C 231.890625 170.726562 232.414062 171.03125 232.925781 171.351562 C 232.789062 171.359375 232.652344 171.375 232.515625 171.382812 C 232.164062 171.414062 231.871094 171.648438 231.871094 172.015625 C 231.871094 172.335938 232.167969 172.671875 232.519531 172.640625 C 233.164062 172.585938 233.8125 172.53125 234.457031 172.476562 C 234.785156 172.449219 235.132812 172.207031 235.101562 171.847656 C 235.046875 171.21875 234.988281 170.59375 234.933594 169.960938 C 234.902344 169.621094 234.660156 169.335938 234.285156 169.335938 C 233.953125 169.335938 233.609375 169.625 233.640625 169.96875 C 233.660156 170.164062 233.675781 170.355469 233.695312 170.550781 C 233.644531 170.511719 233.59375 170.472656 233.539062 170.441406 C 232.488281 169.773438 231.359375 169.085938 230.144531 168.734375 C 229.484375 168.535156 228.679688 168.40625 228.128906 168.90625 C 227.738281 169.257812 227.730469 169.894531 227.792969 170.371094 C 227.886719 171.035156 228.097656 171.675781 228.351562 172.296875 C 228.761719 173.304688 229.25 174.289062 229.816406 175.222656 C 230.011719 175.546875 230.402344 175.859375 230.820312 175.808594 C 231.210938 175.757812 231.253906 175.339844 231.085938 175.058594 C 230.644531 174.328125 230.25 173.566406 229.898438 172.789062 C 229.867188 172.714844 229.835938 172.640625 229.800781 172.566406 C 229.792969 172.554688 229.789062 172.542969 229.785156 172.53125 C 229.777344 172.511719 229.769531 172.488281 229.761719 172.476562 C 229.695312 172.316406 229.632812 172.15625 229.574219 171.992188 C 229.46875 171.691406 229.371094 171.394531 229.304688 171.085938 C 229.289062 171.019531 229.273438 170.949219 229.261719 170.882812 C 229.257812 170.875 229.257812 170.871094 229.257812 170.863281 C 229.257812 170.855469 229.253906 170.839844 229.25 170.816406 C 229.234375 170.6875 229.226562 170.554688 229.230469 170.425781 C 229.230469 170.402344 229.234375 170.378906 229.234375 170.347656 Z M 229.234375 170.347656 " fill-opacity="1" fill-rule="nonzero"/></g></svg>