<svg xmlns="http://www.w3.org/2000/svg" xmlns:xlink="http://www.w3.org/1999/xlink" width="500" zoomAndPan="magnify" viewBox="0 0 375 374.999991" height="500" preserveAspectRatio="xMidYMid meet" version="1.0"><defs><clipPath id="9bf87413ca"><path d="M 283.046875 98.394531 L 284.945312 98.394531 L 284.945312 98.527344 L 283.046875 98.527344 Z M 282.53125 98.527344 L 285.464844 98.527344 L 285.464844 98.703125 L 282.53125 98.703125 Z M 282.363281 98.703125 L 285.632812 98.703125 L 285.632812 98.878906 L 282.363281 98.878906 Z M 282.019531 98.878906 L 285.976562 98.878906 L 285.976562 99.046875 L 282.019531 99.046875 Z M 281.84375 99.046875 L 286.148438 99.046875 L 286.148438 99.222656 L 281.84375 99.222656 Z M 281.5 99.222656 L 286.492188 99.222656 L 286.492188 99.566406 L 281.5 99.566406 Z M 281.328125 99.566406 L 286.667969 99.566406 L 286.667969 99.742188 L 281.328125 99.742188 Z M 281.160156 99.742188 L 286.835938 99.742188 L 286.835938 100.085938 L 281.160156 100.085938 Z M 280.984375 100.085938 L 287.011719 100.085938 L 287.011719 100.253906 L 280.984375 100.253906 Z M 280.808594 100.253906 L 287.183594 100.253906 L 287.183594 100.949219 L 280.808594 100.949219 Z M 280.640625 100.949219 L 287.183594 100.949219 L 287.183594 127.515625 L 280.640625 127.515625 Z M 110.515625 127.515625 L 287.183594 127.515625 L 287.183594 127.691406 L 110.515625 127.691406 Z M 109.996094 127.691406 L 287.183594 127.691406 L 287.183594 127.859375 L 109.996094 127.859375 Z M 109.65625 127.859375 L 287.183594 127.859375 L 287.183594 128.035156 L 109.65625 128.035156 Z M 109.3125 128.035156 L 287.183594 128.035156 L 287.183594 128.210938 L 109.3125 128.210938 Z M 109.136719 128.210938 L 287.183594 128.210938 L 287.183594 128.378906 L 109.136719 128.378906 Z M 108.792969 128.378906 L 287.183594 128.378906 L 287.183594 128.722656 L 108.792969 128.722656 Z M 108.617188 128.722656 L 287.183594 128.722656 L 287.183594 128.898438 L 108.617188 128.898438 Z M 108.449219 128.898438 L 287.183594 128.898438 L 287.183594 129.242188 L 108.449219 129.242188 Z M 108.277344 129.242188 L 287.183594 129.242188 L 287.183594 129.417969 L 108.277344 129.417969 Z M 108.109375 129.417969 L 287.183594 129.417969 L 287.183594 129.9375 L 108.109375 129.9375 Z M 107.933594 129.9375 L 287.183594 129.9375 L 287.183594 132.003906 L 107.933594 132.003906 Z M 108.109375 132.003906 L 287.183594 132.003906 L 287.183594 132.347656 L 108.109375 132.347656 Z M 108.277344 132.347656 L 287.183594 132.347656 L 287.183594 132.691406 L 108.277344 132.691406 Z M 108.449219 132.691406 L 287.183594 132.691406 L 287.183594 132.867188 L 108.449219 132.867188 Z M 108.617188 132.867188 L 287.183594 132.867188 L 287.183594 133.210938 L 108.617188 133.210938 Z M 108.792969 133.210938 L 287.183594 133.210938 L 287.183594 133.386719 L 108.792969 133.386719 Z M 108.96875 133.386719 L 287.183594 133.386719 L 287.183594 133.554688 L 108.96875 133.554688 Z M 109.3125 133.554688 L 287.183594 133.554688 L 287.183594 133.730469 L 109.3125 133.730469 Z M 109.480469 133.730469 L 287.183594 133.730469 L 287.183594 133.898438 L 109.480469 133.898438 Z M 109.828125 133.898438 L 287.183594 133.898438 L 287.183594 134.074219 L 109.828125 134.074219 Z M 110.339844 134.074219 L 287.183594 134.074219 L 287.183594 134.25 L 110.339844 134.25 Z M 218.476562 134.25 L 225.195312 134.25 L 225.195312 160.644531 L 218.476562 160.644531 Z M 146.15625 134.25 L 153.046875 134.25 L 153.046875 160.644531 L 146.15625 160.644531 Z M 218.132812 160.644531 L 225.363281 160.644531 L 225.363281 160.820312 L 218.132812 160.820312 Z M 145.988281 160.644531 L 153.21875 160.644531 L 153.21875 160.820312 L 145.988281 160.820312 Z M 217.960938 160.820312 L 225.707031 160.820312 L 225.707031 160.992188 L 217.960938 160.992188 Z M 145.640625 160.820312 L 153.5625 160.820312 L 153.5625 160.992188 L 145.640625 160.992188 Z M 217.617188 160.992188 L 225.882812 160.992188 L 225.882812 161.164062 L 217.617188 161.164062 Z M 145.472656 160.992188 L 153.738281 160.992188 L 153.738281 161.164062 L 145.472656 161.164062 Z M 145.296875 161.164062 L 153.90625 161.164062 L 153.90625 161.335938 L 145.296875 161.335938 Z M 217.449219 161.164062 L 226.226562 161.164062 L 226.226562 161.335938 L 217.449219 161.335938 Z M 144.953125 161.335938 L 154.25 161.335938 L 154.25 161.507812 L 144.953125 161.507812 Z M 217.273438 161.335938 L 226.402344 161.335938 L 226.402344 161.507812 L 217.273438 161.507812 Z M 216.929688 161.507812 L 226.570312 161.507812 L 226.570312 161.679688 L 216.929688 161.679688 Z M 144.777344 161.507812 L 154.425781 161.507812 L 154.425781 161.679688 L 144.777344 161.679688 Z M 144.609375 161.679688 L 154.597656 161.679688 L 154.597656 161.855469 L 144.609375 161.855469 Z M 216.753906 161.679688 L 226.742188 161.679688 L 226.742188 161.855469 L 216.753906 161.855469 Z M 144.4375 161.855469 L 154.765625 161.855469 L 154.765625 162.023438 L 144.4375 162.023438 Z M 216.585938 161.855469 L 226.917969 161.855469 L 226.917969 162.023438 L 216.585938 162.023438 Z M 144.269531 162.023438 L 154.941406 162.023438 L 154.941406 162.199219 L 144.269531 162.199219 Z M 216.414062 162.023438 L 227.085938 162.023438 L 227.085938 162.199219 L 216.414062 162.199219 Z M 144.09375 162.199219 L 155.109375 162.199219 L 155.109375 162.367188 L 144.09375 162.367188 Z M 216.238281 162.199219 L 227.261719 162.199219 L 227.261719 162.367188 L 216.238281 162.367188 Z M 144.09375 162.367188 L 155.285156 162.367188 L 155.285156 162.542969 L 144.09375 162.542969 Z M 216.238281 162.367188 L 227.429688 162.367188 L 227.429688 162.542969 L 216.238281 162.542969 Z M 143.917969 162.542969 L 155.285156 162.542969 L 155.285156 162.71875 L 143.917969 162.71875 Z M 216.070312 162.542969 L 227.605469 162.542969 L 227.605469 162.71875 L 216.070312 162.71875 Z M 143.75 162.71875 L 155.460938 162.71875 L 155.460938 162.886719 L 143.75 162.886719 Z M 215.894531 162.71875 L 227.605469 162.71875 L 227.605469 162.886719 L 215.894531 162.886719 Z M 143.574219 162.886719 L 155.628906 162.886719 L 155.628906 163.0625 L 143.574219 163.0625 Z M 215.726562 162.886719 L 227.78125 162.886719 L 227.78125 163.0625 L 215.726562 163.0625 Z M 143.574219 163.0625 L 155.804688 163.0625 L 155.804688 163.230469 L 143.574219 163.230469 Z M 215.726562 163.0625 L 227.949219 163.0625 L 227.949219 163.230469 L 215.726562 163.230469 Z M 143.40625 163.230469 L 155.804688 163.230469 L 155.804688 163.40625 L 143.40625 163.40625 Z M 215.550781 163.230469 L 227.949219 163.230469 L 227.949219 163.40625 L 215.550781 163.40625 Z M 215.550781 163.40625 L 228.121094 163.40625 L 228.121094 163.582031 L 215.550781 163.582031 Z M 215.375 163.582031 L 228.121094 163.582031 L 228.121094 163.75 L 215.375 163.75 Z M 143.230469 163.40625 L 155.972656 163.40625 L 155.972656 163.75 L 143.230469 163.75 Z M 215.375 163.75 L 228.289062 163.75 L 228.289062 163.925781 L 215.375 163.925781 Z M 215.207031 163.925781 L 228.289062 163.925781 L 228.289062 164.09375 L 215.207031 164.09375 Z M 143.058594 163.75 L 156.144531 163.75 L 156.144531 164.09375 L 143.058594 164.09375 Z M 215.207031 164.09375 L 228.464844 164.09375 L 228.464844 164.269531 L 215.207031 164.269531 Z M 215.035156 164.269531 L 228.464844 164.269531 L 228.464844 164.445312 L 215.035156 164.445312 Z M 142.890625 164.09375 L 156.320312 164.09375 L 156.320312 164.445312 L 142.890625 164.445312 Z M 126.011719 164.445312 L 245.34375 164.445312 L 245.34375 164.613281 L 126.011719 164.613281 Z M 125.328125 164.613281 L 246.027344 164.613281 L 246.027344 164.789062 L 125.328125 164.789062 Z M 124.976562 164.789062 L 246.371094 164.789062 L 246.371094 164.957031 L 124.976562 164.957031 Z M 124.808594 164.957031 L 246.722656 164.957031 L 246.722656 165.132812 L 124.808594 165.132812 Z M 124.464844 165.132812 L 246.890625 165.132812 L 246.890625 165.308594 L 124.464844 165.308594 Z M 124.289062 165.308594 L 247.230469 165.308594 L 247.230469 165.476562 L 124.289062 165.476562 Z M 124.117188 165.476562 L 247.230469 165.476562 L 247.230469 165.652344 L 124.117188 165.652344 Z M 123.949219 165.652344 L 247.40625 165.652344 L 247.40625 165.820312 L 123.949219 165.820312 Z M 123.773438 165.820312 L 247.582031 165.820312 L 247.582031 166.171875 L 123.773438 166.171875 Z M 123.605469 166.171875 L 247.75 166.171875 L 247.75 166.339844 L 123.605469 166.339844 Z M 123.429688 166.339844 L 247.925781 166.339844 L 247.925781 166.859375 L 123.429688 166.859375 Z M 123.253906 166.859375 L 248.09375 166.859375 L 248.09375 167.375 L 123.253906 167.375 Z M 123.253906 167.375 L 248.269531 167.375 L 248.269531 171.171875 L 123.253906 171.171875 Z M 143.75 171.171875 L 155.460938 171.171875 L 155.460938 171.347656 L 143.75 171.347656 Z M 215.894531 171.171875 L 227.605469 171.171875 L 227.605469 171.347656 L 215.894531 171.347656 Z M 143.917969 171.347656 L 155.285156 171.347656 L 155.285156 171.515625 L 143.917969 171.515625 Z M 216.070312 171.347656 L 227.429688 171.347656 L 227.429688 171.515625 L 216.070312 171.515625 Z M 216.238281 171.515625 L 227.429688 171.515625 L 227.429688 171.691406 L 216.238281 171.691406 Z M 216.414062 171.691406 L 227.261719 171.691406 L 227.261719 171.859375 L 216.414062 171.859375 Z M 144.09375 171.515625 L 155.109375 171.515625 L 155.109375 171.859375 L 144.09375 171.859375 Z M 144.269531 171.859375 L 154.941406 171.859375 L 154.941406 172.035156 L 144.269531 172.035156 Z M 216.414062 171.859375 L 227.085938 171.859375 L 227.085938 172.035156 L 216.414062 172.035156 Z M 144.4375 172.035156 L 154.765625 172.035156 L 154.765625 172.210938 L 144.4375 172.210938 Z M 216.585938 172.035156 L 226.917969 172.035156 L 226.917969 172.210938 L 216.585938 172.210938 Z M 144.609375 172.210938 L 154.597656 172.210938 L 154.597656 172.378906 L 144.609375 172.378906 Z M 216.753906 172.210938 L 226.742188 172.210938 L 226.742188 172.378906 L 216.753906 172.378906 Z M 144.777344 172.378906 L 154.425781 172.378906 L 154.425781 172.554688 L 144.777344 172.554688 Z M 217.097656 172.378906 L 226.570312 172.378906 L 226.570312 172.554688 L 217.097656 172.554688 Z M 145.128906 172.554688 L 154.082031 172.554688 L 154.082031 172.722656 L 145.128906 172.722656 Z M 217.273438 172.554688 L 226.402344 172.554688 L 226.402344 172.722656 L 217.273438 172.722656 Z M 145.296875 172.722656 L 153.90625 172.722656 L 153.90625 172.898438 L 145.296875 172.898438 Z M 217.449219 172.722656 L 226.058594 172.722656 L 226.058594 172.898438 L 217.449219 172.898438 Z M 145.472656 172.898438 L 153.738281 172.898438 L 153.738281 173.070312 L 145.472656 173.070312 Z M 217.617188 172.898438 L 225.882812 172.898438 L 225.882812 173.070312 L 217.617188 173.070312 Z M 145.816406 173.070312 L 153.386719 173.070312 L 153.386719 173.242188 L 145.816406 173.242188 Z M 217.960938 173.070312 L 225.539062 173.070312 L 225.539062 173.242188 L 217.960938 173.242188 Z M 146.15625 173.242188 L 153.046875 173.242188 L 153.046875 173.414062 L 146.15625 173.414062 Z M 218.308594 173.242188 L 225.195312 173.242188 L 225.195312 173.414062 L 218.308594 173.414062 Z M 146.5 173.414062 L 152.703125 173.414062 L 152.703125 173.585938 L 146.5 173.585938 Z M 218.652344 173.414062 L 225.023438 173.414062 L 225.023438 173.585938 L 218.652344 173.585938 Z M 146.851562 173.585938 L 152.359375 173.585938 L 152.359375 173.757812 L 146.851562 173.757812 Z M 218.996094 173.585938 L 224.679688 173.585938 L 224.679688 173.757812 L 218.996094 173.757812 Z M 147.363281 173.757812 L 151.839844 173.757812 L 151.839844 173.933594 L 147.363281 173.933594 Z M 219.511719 173.757812 L 224.160156 173.757812 L 224.160156 173.933594 L 219.511719 173.933594 Z M 147.878906 173.933594 L 151.324219 173.933594 L 151.324219 174.101562 L 147.878906 174.101562 Z M 220.03125 173.933594 L 223.476562 173.933594 L 223.476562 174.101562 L 220.03125 174.101562 Z M 221.058594 174.101562 L 222.4375 174.101562 L 222.4375 174.277344 L 221.058594 174.277344 Z M 148.914062 174.101562 L 150.292969 174.101562 L 150.292969 174.277344 L 148.914062 174.277344 Z M 187.316406 189.113281 L 193.511719 189.113281 L 193.511719 189.289062 L 187.316406 189.289062 Z M 144.09375 189.113281 L 155.628906 189.113281 L 155.628906 189.289062 L 144.09375 189.289062 Z M 144.09375 189.289062 L 157.867188 189.289062 L 157.867188 189.464844 L 144.09375 189.464844 Z M 187.316406 189.289062 L 193.683594 189.289062 L 193.683594 189.632812 L 187.316406 189.632812 Z M 144.09375 189.464844 L 158.730469 189.464844 L 158.730469 189.632812 L 144.09375 189.632812 Z M 144.09375 189.632812 L 159.589844 189.632812 L 159.589844 189.808594 L 144.09375 189.808594 Z M 187.316406 189.632812 L 193.851562 189.632812 L 193.851562 189.808594 L 187.316406 189.808594 Z M 144.09375 189.808594 L 159.933594 189.808594 L 159.933594 189.976562 L 144.09375 189.976562 Z M 187.316406 189.808594 L 194.027344 189.808594 L 194.027344 190.152344 L 187.316406 190.152344 Z M 144.09375 189.976562 L 160.277344 189.976562 L 160.277344 190.152344 L 144.09375 190.152344 Z M 144.09375 190.152344 L 160.625 190.152344 L 160.625 190.324219 L 144.09375 190.324219 Z M 187.316406 190.152344 L 194.203125 190.152344 L 194.203125 190.324219 L 187.316406 190.324219 Z M 144.09375 190.324219 L 160.792969 190.324219 L 160.792969 190.496094 L 144.09375 190.496094 Z M 187.316406 190.324219 L 194.371094 190.324219 L 194.371094 190.667969 L 187.316406 190.667969 Z M 144.09375 190.496094 L 161.136719 190.496094 L 161.136719 190.667969 L 144.09375 190.667969 Z M 144.09375 190.667969 L 161.3125 190.667969 L 161.3125 190.839844 L 144.09375 190.839844 Z M 187.316406 190.667969 L 194.546875 190.667969 L 194.546875 190.839844 L 187.316406 190.839844 Z M 144.09375 190.839844 L 161.488281 190.839844 L 161.488281 191.011719 L 144.09375 191.011719 Z M 187.316406 190.839844 L 194.714844 190.839844 L 194.714844 191.1875 L 187.316406 191.1875 Z M 144.09375 191.011719 L 161.65625 191.011719 L 161.65625 191.1875 L 144.09375 191.1875 Z M 187.316406 191.1875 L 194.890625 191.1875 L 194.890625 191.355469 L 187.316406 191.355469 Z M 144.09375 191.1875 L 161.828125 191.1875 L 161.828125 191.53125 L 144.09375 191.53125 Z M 187.316406 191.355469 L 195.0625 191.355469 L 195.0625 191.699219 L 187.316406 191.699219 Z M 144.09375 191.53125 L 161.996094 191.53125 L 161.996094 191.699219 L 144.09375 191.699219 Z M 187.316406 191.699219 L 195.230469 191.699219 L 195.230469 191.875 L 187.316406 191.875 Z M 144.09375 191.699219 L 162.171875 191.699219 L 162.171875 192.050781 L 144.09375 192.050781 Z M 187.316406 191.875 L 195.40625 191.875 L 195.40625 192.21875 L 187.316406 192.21875 Z M 144.09375 192.050781 L 162.347656 192.050781 L 162.347656 192.394531 L 144.09375 192.394531 Z M 187.316406 192.21875 L 195.574219 192.21875 L 195.574219 192.394531 L 187.316406 192.394531 Z M 187.316406 192.394531 L 195.75 192.394531 L 195.75 192.738281 L 187.316406 192.738281 Z M 144.09375 192.394531 L 162.515625 192.394531 L 162.515625 192.914062 L 144.09375 192.914062 Z M 187.316406 192.738281 L 195.925781 192.738281 L 195.925781 192.914062 L 187.316406 192.914062 Z M 187.316406 192.914062 L 196.09375 192.914062 L 196.09375 193.257812 L 187.316406 193.257812 Z M 144.09375 192.914062 L 162.691406 192.914062 L 162.691406 193.425781 L 144.09375 193.425781 Z M 187.316406 193.257812 L 196.269531 193.257812 L 196.269531 193.425781 L 187.316406 193.425781 Z M 144.09375 193.425781 L 162.859375 193.425781 L 162.859375 193.601562 L 144.09375 193.601562 Z M 187.316406 193.425781 L 196.4375 193.425781 L 196.4375 193.601562 L 187.316406 193.601562 Z M 154.941406 193.601562 L 162.859375 193.601562 L 162.859375 193.777344 L 154.941406 193.777344 Z M 166.476562 189.113281 L 183.695312 189.113281 L 183.695312 193.777344 L 166.476562 193.777344 Z M 187.316406 193.601562 L 196.609375 193.601562 L 196.609375 193.945312 L 187.316406 193.945312 Z M 155.460938 193.777344 L 162.859375 193.777344 L 162.859375 193.945312 L 155.460938 193.945312 Z M 187.316406 193.945312 L 196.785156 193.945312 L 196.785156 194.121094 L 187.316406 194.121094 Z M 155.628906 193.945312 L 162.859375 193.945312 L 162.859375 194.121094 L 155.628906 194.121094 Z M 155.804688 194.121094 L 162.859375 194.121094 L 162.859375 194.289062 L 155.804688 194.289062 Z M 187.316406 194.121094 L 196.953125 194.121094 L 196.953125 194.464844 L 187.316406 194.464844 Z M 155.972656 194.289062 L 162.859375 194.289062 L 162.859375 194.464844 L 155.972656 194.464844 Z M 209.867188 189.113281 L 229.5 189.113281 L 229.5 194.464844 L 209.867188 194.464844 Z M 187.316406 194.464844 L 197.128906 194.464844 L 197.128906 194.640625 L 187.316406 194.640625 Z M 156.144531 194.464844 L 163.035156 194.464844 L 163.035156 194.808594 L 156.144531 194.808594 Z M 187.316406 194.640625 L 197.296875 194.640625 L 197.296875 194.984375 L 187.316406 194.984375 Z M 187.316406 194.984375 L 197.472656 194.984375 L 197.472656 195.152344 L 187.316406 195.152344 Z M 156.320312 194.808594 L 163.035156 194.808594 L 163.035156 195.503906 L 156.320312 195.503906 Z M 187.316406 195.152344 L 197.648438 195.152344 L 197.648438 195.503906 L 187.316406 195.503906 Z M 187.316406 195.503906 L 197.816406 195.503906 L 197.816406 195.671875 L 187.316406 195.671875 Z M 187.316406 195.671875 L 197.988281 195.671875 L 197.988281 196.015625 L 187.316406 196.015625 Z M 156.320312 195.503906 L 162.859375 195.503906 L 162.859375 196.191406 L 156.320312 196.191406 Z M 187.316406 196.015625 L 198.15625 196.015625 L 198.15625 196.191406 L 187.316406 196.191406 Z M 187.316406 196.191406 L 198.332031 196.191406 L 198.332031 196.535156 L 187.316406 196.535156 Z M 156.144531 196.191406 L 162.859375 196.191406 L 162.859375 196.535156 L 156.144531 196.535156 Z M 187.316406 196.535156 L 198.507812 196.535156 L 198.507812 196.707031 L 187.316406 196.707031 Z M 155.972656 196.535156 L 162.859375 196.535156 L 162.859375 196.707031 L 155.972656 196.707031 Z M 155.804688 196.707031 L 162.691406 196.707031 L 162.691406 196.878906 L 155.804688 196.878906 Z M 166.476562 193.777344 L 173.023438 193.777344 L 173.023438 196.878906 L 166.476562 196.878906 Z M 187.316406 196.707031 L 198.675781 196.707031 L 198.675781 197.050781 L 187.316406 197.050781 Z M 155.628906 196.878906 L 162.691406 196.878906 L 162.691406 197.050781 L 155.628906 197.050781 Z M 187.316406 197.050781 L 198.851562 197.050781 L 198.851562 197.226562 L 187.316406 197.226562 Z M 155.285156 197.050781 L 162.691406 197.050781 L 162.691406 197.226562 L 155.285156 197.226562 Z M 187.316406 197.226562 L 199.019531 197.226562 L 199.019531 197.394531 L 187.316406 197.394531 Z M 154.941406 197.226562 L 162.515625 197.226562 L 162.515625 197.394531 L 154.941406 197.394531 Z M 144.09375 193.601562 L 150.804688 193.601562 L 150.804688 197.570312 L 144.09375 197.570312 Z M 154.082031 197.394531 L 162.515625 197.394531 L 162.515625 197.570312 L 154.082031 197.570312 Z M 187.316406 197.394531 L 199.195312 197.394531 L 199.195312 197.738281 L 187.316406 197.738281 Z M 187.316406 197.738281 L 199.367188 197.738281 L 199.367188 197.914062 L 187.316406 197.914062 Z M 144.09375 197.570312 L 162.347656 197.570312 L 162.347656 198.089844 L 144.09375 198.089844 Z M 187.316406 197.914062 L 199.535156 197.914062 L 199.535156 198.257812 L 187.316406 198.257812 Z M 144.09375 198.089844 L 162.171875 198.089844 L 162.171875 198.257812 L 144.09375 198.257812 Z M 187.316406 198.257812 L 199.710938 198.257812 L 199.710938 198.433594 L 187.316406 198.433594 Z M 144.09375 198.257812 L 161.996094 198.257812 L 161.996094 198.601562 L 144.09375 198.601562 Z M 187.316406 198.433594 L 199.878906 198.433594 L 199.878906 198.777344 L 187.316406 198.777344 Z M 144.09375 198.601562 L 161.828125 198.601562 L 161.828125 198.777344 L 144.09375 198.777344 Z M 144.09375 198.777344 L 161.65625 198.777344 L 161.65625 198.953125 L 144.09375 198.953125 Z M 187.316406 198.777344 L 200.054688 198.777344 L 200.054688 198.953125 L 187.316406 198.953125 Z M 144.09375 198.953125 L 161.488281 198.953125 L 161.488281 199.121094 L 144.09375 199.121094 Z M 187.316406 198.953125 L 200.230469 198.953125 L 200.230469 199.121094 L 187.316406 199.121094 Z M 144.09375 199.121094 L 161.3125 199.121094 L 161.3125 199.296875 L 144.09375 199.296875 Z M 193.683594 199.121094 L 200.230469 199.121094 L 200.230469 199.296875 L 193.683594 199.296875 Z M 193.851562 199.296875 L 200.398438 199.296875 L 200.398438 199.464844 L 193.851562 199.464844 Z M 144.09375 199.296875 L 161.136719 199.296875 L 161.136719 199.464844 L 144.09375 199.464844 Z M 144.09375 199.464844 L 160.96875 199.464844 L 160.96875 199.640625 L 144.09375 199.640625 Z M 193.851562 199.464844 L 200.574219 199.464844 L 200.574219 199.640625 L 193.851562 199.640625 Z M 144.09375 199.640625 L 160.792969 199.640625 L 160.792969 199.816406 L 144.09375 199.816406 Z M 194.027344 199.640625 L 200.574219 199.640625 L 200.574219 199.816406 L 194.027344 199.816406 Z M 144.09375 199.816406 L 160.449219 199.816406 L 160.449219 199.984375 L 144.09375 199.984375 Z M 194.203125 199.816406 L 200.742188 199.816406 L 200.742188 199.984375 L 194.203125 199.984375 Z M 144.09375 199.984375 L 160.277344 199.984375 L 160.277344 200.160156 L 144.09375 200.160156 Z M 144.09375 200.160156 L 159.933594 200.160156 L 159.933594 200.328125 L 144.09375 200.328125 Z M 201.089844 189.113281 L 207.285156 189.113281 L 207.285156 200.328125 L 201.089844 200.328125 Z M 194.371094 199.984375 L 200.914062 199.984375 L 200.914062 200.328125 L 194.371094 200.328125 Z M 194.546875 200.328125 L 207.285156 200.328125 L 207.285156 200.503906 L 194.546875 200.503906 Z M 144.09375 200.328125 L 159.589844 200.328125 L 159.589844 200.503906 L 144.09375 200.503906 Z M 144.09375 200.503906 L 159.070312 200.503906 L 159.070312 200.679688 L 144.09375 200.679688 Z M 194.714844 200.503906 L 207.285156 200.503906 L 207.285156 200.847656 L 194.714844 200.847656 Z M 144.09375 200.679688 L 158.554688 200.679688 L 158.554688 201.023438 L 144.09375 201.023438 Z M 194.890625 200.847656 L 207.285156 200.847656 L 207.285156 201.023438 L 194.890625 201.023438 Z M 144.09375 201.023438 L 158.902344 201.023438 L 158.902344 201.191406 L 144.09375 201.191406 Z M 195.0625 201.023438 L 207.285156 201.023438 L 207.285156 201.367188 L 195.0625 201.367188 Z M 144.09375 201.191406 L 159.246094 201.191406 L 159.246094 201.367188 L 144.09375 201.367188 Z M 166.476562 196.878906 L 183.011719 196.878906 L 183.011719 201.367188 L 166.476562 201.367188 Z M 144.09375 201.367188 L 159.589844 201.367188 L 159.589844 201.542969 L 144.09375 201.542969 Z M 195.230469 201.367188 L 207.285156 201.367188 L 207.285156 201.542969 L 195.230469 201.542969 Z M 144.09375 201.542969 L 159.765625 201.542969 L 159.765625 201.710938 L 144.09375 201.710938 Z M 195.40625 201.542969 L 207.285156 201.542969 L 207.285156 201.886719 L 195.40625 201.886719 Z M 152.015625 201.710938 L 159.933594 201.710938 L 159.933594 201.886719 L 152.015625 201.886719 Z M 152.359375 201.886719 L 160.109375 201.886719 L 160.109375 202.054688 L 152.359375 202.054688 Z M 195.574219 201.886719 L 207.285156 201.886719 L 207.285156 202.054688 L 195.574219 202.054688 Z M 152.703125 202.054688 L 160.277344 202.054688 L 160.277344 202.230469 L 152.703125 202.230469 Z M 195.75 202.054688 L 207.285156 202.054688 L 207.285156 202.402344 L 195.75 202.402344 Z M 152.878906 202.230469 L 160.449219 202.230469 L 160.449219 202.402344 L 152.878906 202.402344 Z M 195.925781 202.402344 L 207.285156 202.402344 L 207.285156 202.574219 L 195.925781 202.574219 Z M 153.046875 202.402344 L 160.625 202.402344 L 160.625 202.574219 L 153.046875 202.574219 Z M 153.21875 202.574219 L 160.792969 202.574219 L 160.792969 202.746094 L 153.21875 202.746094 Z M 196.09375 202.574219 L 207.285156 202.574219 L 207.285156 202.917969 L 196.09375 202.917969 Z M 153.386719 202.746094 L 160.792969 202.746094 L 160.792969 202.917969 L 153.386719 202.917969 Z M 196.269531 202.917969 L 207.285156 202.917969 L 207.285156 203.089844 L 196.269531 203.089844 Z M 153.386719 202.917969 L 160.96875 202.917969 L 160.96875 203.089844 L 153.386719 203.089844 Z M 153.5625 203.089844 L 161.136719 203.089844 L 161.136719 203.265625 L 153.5625 203.265625 Z M 196.4375 203.089844 L 207.285156 203.089844 L 207.285156 203.433594 L 196.4375 203.433594 Z M 153.5625 203.265625 L 161.3125 203.265625 L 161.3125 203.433594 L 153.5625 203.433594 Z M 196.609375 203.433594 L 207.285156 203.433594 L 207.285156 203.609375 L 196.609375 203.609375 Z M 153.738281 203.433594 L 161.3125 203.433594 L 161.3125 203.609375 L 153.738281 203.609375 Z M 196.785156 203.609375 L 207.285156 203.609375 L 207.285156 203.777344 L 196.785156 203.777344 Z M 153.90625 203.609375 L 161.488281 203.609375 L 161.488281 203.953125 L 153.90625 203.953125 Z M 196.953125 203.777344 L 207.285156 203.777344 L 207.285156 204.128906 L 196.953125 204.128906 Z M 154.082031 203.953125 L 161.65625 203.953125 L 161.65625 204.296875 L 154.082031 204.296875 Z M 197.128906 204.128906 L 207.285156 204.128906 L 207.285156 204.296875 L 197.128906 204.296875 Z M 197.296875 204.296875 L 207.285156 204.296875 L 207.285156 204.640625 L 197.296875 204.640625 Z M 154.25 204.296875 L 161.828125 204.296875 L 161.828125 204.640625 L 154.25 204.640625 Z M 197.472656 204.640625 L 207.285156 204.640625 L 207.285156 204.816406 L 197.472656 204.816406 Z M 154.425781 204.640625 L 161.996094 204.640625 L 161.996094 204.992188 L 154.425781 204.992188 Z M 166.476562 201.367188 L 173.023438 201.367188 L 173.023438 205.160156 L 166.476562 205.160156 Z M 197.648438 204.816406 L 207.285156 204.816406 L 207.285156 205.160156 L 197.648438 205.160156 Z M 197.816406 205.160156 L 207.285156 205.160156 L 207.285156 205.335938 L 197.816406 205.335938 Z M 154.597656 204.992188 L 162.171875 204.992188 L 162.171875 205.335938 L 154.597656 205.335938 Z M 154.765625 205.335938 L 162.347656 205.335938 L 162.347656 205.503906 L 154.765625 205.503906 Z M 197.988281 205.335938 L 207.285156 205.335938 L 207.285156 205.679688 L 197.988281 205.679688 Z M 154.941406 205.503906 L 162.515625 205.503906 L 162.515625 205.855469 L 154.941406 205.855469 Z M 198.15625 205.679688 L 207.285156 205.679688 L 207.285156 205.855469 L 198.15625 205.855469 Z M 198.332031 205.855469 L 207.285156 205.855469 L 207.285156 206.199219 L 198.332031 206.199219 Z M 155.109375 205.855469 L 162.691406 205.855469 L 162.691406 206.199219 L 155.109375 206.199219 Z M 198.507812 206.199219 L 207.285156 206.199219 L 207.285156 206.367188 L 198.507812 206.367188 Z M 155.285156 206.199219 L 162.859375 206.199219 L 162.859375 206.542969 L 155.285156 206.542969 Z M 198.675781 206.367188 L 207.285156 206.367188 L 207.285156 206.71875 L 198.675781 206.71875 Z M 155.460938 206.542969 L 163.035156 206.542969 L 163.035156 206.886719 L 155.460938 206.886719 Z M 198.851562 206.71875 L 207.285156 206.71875 L 207.285156 206.886719 L 198.851562 206.886719 Z M 155.628906 206.886719 L 163.207031 206.886719 L 163.207031 207.230469 L 155.628906 207.230469 Z M 199.019531 206.886719 L 207.285156 206.886719 L 207.285156 207.230469 L 199.019531 207.230469 Z M 199.195312 207.230469 L 207.285156 207.230469 L 207.285156 207.40625 L 199.195312 207.40625 Z M 155.804688 207.230469 L 163.375 207.230469 L 163.375 207.582031 L 155.804688 207.582031 Z M 199.367188 207.40625 L 207.285156 207.40625 L 207.285156 207.582031 L 199.367188 207.582031 Z M 155.972656 207.582031 L 163.550781 207.582031 L 163.550781 207.75 L 155.972656 207.75 Z M 199.535156 207.582031 L 207.285156 207.582031 L 207.285156 207.925781 L 199.535156 207.925781 Z M 156.144531 207.75 L 163.550781 207.75 L 163.550781 207.925781 L 156.144531 207.925781 Z M 156.144531 207.925781 L 163.71875 207.925781 L 163.71875 208.09375 L 156.144531 208.09375 Z M 199.710938 207.925781 L 207.285156 207.925781 L 207.285156 208.09375 L 199.710938 208.09375 Z M 156.320312 208.09375 L 163.71875 208.09375 L 163.71875 208.269531 L 156.320312 208.269531 Z M 199.878906 208.09375 L 207.285156 208.09375 L 207.285156 208.441406 L 199.878906 208.441406 Z M 156.320312 208.269531 L 163.894531 208.269531 L 163.894531 208.441406 L 156.320312 208.441406 Z M 156.488281 208.441406 L 163.894531 208.441406 L 163.894531 208.613281 L 156.488281 208.613281 Z M 200.054688 208.441406 L 207.285156 208.441406 L 207.285156 208.613281 L 200.054688 208.613281 Z M 156.488281 208.613281 L 164.070312 208.613281 L 164.070312 208.785156 L 156.488281 208.785156 Z M 200.230469 208.613281 L 207.285156 208.613281 L 207.285156 208.953125 L 200.230469 208.953125 Z M 156.664062 208.785156 L 164.070312 208.785156 L 164.070312 208.953125 L 156.664062 208.953125 Z M 200.398438 208.953125 L 207.285156 208.953125 L 207.285156 209.128906 L 200.398438 209.128906 Z M 156.664062 208.953125 L 164.238281 208.953125 L 164.238281 209.128906 L 156.664062 209.128906 Z M 156.832031 209.128906 L 164.238281 209.128906 L 164.238281 209.304688 L 156.832031 209.304688 Z M 200.574219 209.128906 L 207.285156 209.128906 L 207.285156 209.472656 L 200.574219 209.472656 Z M 156.832031 209.304688 L 164.414062 209.304688 L 164.414062 209.472656 L 156.832031 209.472656 Z M 200.742188 209.472656 L 207.285156 209.472656 L 207.285156 209.648438 L 200.742188 209.648438 Z M 157.007812 209.472656 L 164.414062 209.472656 L 164.414062 209.648438 L 157.007812 209.648438 Z M 157.007812 209.648438 L 164.582031 209.648438 L 164.582031 209.816406 L 157.007812 209.816406 Z M 157.183594 209.816406 L 164.582031 209.816406 L 164.582031 209.992188 L 157.183594 209.992188 Z M 144.09375 201.710938 L 150.804688 201.710938 L 150.804688 209.992188 L 144.09375 209.992188 Z M 166.476562 205.160156 L 184.039062 205.160156 L 184.039062 209.992188 L 166.476562 209.992188 Z M 216.414062 194.464844 L 222.957031 194.464844 L 222.957031 209.992188 L 216.414062 209.992188 Z M 200.914062 209.648438 L 207.285156 209.648438 L 207.285156 209.992188 L 200.914062 209.992188 Z M 187.316406 199.121094 L 193.511719 199.121094 L 193.511719 209.992188 L 187.316406 209.992188 Z M 241.378906 171.171875 L 248.269531 171.171875 L 248.269531 227.933594 L 241.378906 227.933594 Z M 123.253906 171.171875 L 129.972656 171.171875 L 129.972656 227.933594 L 123.253906 227.933594 Z M 123.253906 227.933594 L 248.269531 227.933594 L 248.269531 231.90625 L 123.253906 231.90625 Z M 123.253906 231.90625 L 248.09375 231.90625 L 248.09375 232.25 L 123.253906 232.25 Z M 123.429688 232.25 L 248.09375 232.25 L 248.09375 232.421875 L 123.429688 232.421875 Z M 123.429688 232.421875 L 247.925781 232.421875 L 247.925781 232.765625 L 123.429688 232.765625 Z M 123.605469 232.765625 L 247.925781 232.765625 L 247.925781 232.941406 L 123.605469 232.941406 Z M 123.605469 232.941406 L 247.75 232.941406 L 247.75 233.109375 L 123.605469 233.109375 Z M 123.773438 233.109375 L 247.582031 233.109375 L 247.582031 233.285156 L 123.773438 233.285156 Z M 123.949219 233.285156 L 247.582031 233.285156 L 247.582031 233.460938 L 123.949219 233.460938 Z M 123.949219 233.460938 L 247.40625 233.460938 L 247.40625 233.628906 L 123.949219 233.628906 Z M 124.117188 233.628906 L 247.230469 233.628906 L 247.230469 233.804688 L 124.117188 233.804688 Z M 124.289062 233.804688 L 247.0625 233.804688 L 247.0625 233.972656 L 124.289062 233.972656 Z M 124.632812 233.972656 L 246.890625 233.972656 L 246.890625 234.148438 L 124.632812 234.148438 Z M 124.808594 234.148438 L 246.546875 234.148438 L 246.546875 234.324219 L 124.808594 234.324219 Z M 124.976562 234.324219 L 246.371094 234.324219 L 246.371094 234.492188 L 124.976562 234.492188 Z M 125.496094 234.492188 L 245.859375 234.492188 L 245.859375 234.667969 L 125.496094 234.667969 Z M 126.1875 234.667969 L 245.34375 234.667969 L 245.34375 234.835938 L 126.1875 234.835938 Z M 280.640625 134.25 L 287.183594 134.25 L 287.183594 308 L 280.640625 308 Z M 280.808594 308 L 287.183594 308 L 287.183594 308.515625 L 280.808594 308.515625 Z M 280.984375 308.515625 L 287.011719 308.515625 L 287.011719 308.6875 L 280.984375 308.6875 Z M 280.984375 308.6875 L 286.835938 308.6875 L 286.835938 308.859375 L 280.984375 308.859375 Z M 281.160156 308.859375 L 286.835938 308.859375 L 286.835938 309.03125 L 281.160156 309.03125 Z M 281.328125 309.03125 L 286.667969 309.03125 L 286.667969 309.203125 L 281.328125 309.203125 Z M 281.5 309.203125 L 286.492188 309.203125 L 286.492188 309.546875 L 281.5 309.546875 Z M 281.671875 309.546875 L 286.324219 309.546875 L 286.324219 309.722656 L 281.671875 309.722656 Z M 282.019531 309.722656 L 285.976562 309.722656 L 285.976562 309.890625 L 282.019531 309.890625 Z M 282.1875 309.890625 L 285.804688 309.890625 L 285.804688 310.066406 L 282.1875 310.066406 Z M 282.53125 310.066406 L 285.464844 310.066406 L 285.464844 310.242188 L 282.53125 310.242188 Z M 282.878906 310.242188 L 285.113281 310.242188 L 285.113281 310.410156 L 282.878906 310.410156 Z M 282.878906 310.242188 " clip-rule="nonzero"/></clipPath><clipPath id="1352bed55d"><path d="M 221.785156 127.632812 L 111.214844 127.632812 C 109.398438 127.632812 107.933594 129.105469 107.933594 130.921875 C 107.933594 132.734375 109.398438 134.210938 111.214844 134.210938 L 146.324219 134.210938 L 146.324219 160.675781 C 145.695312 161.007812 145.113281 161.433594 144.609375 161.929688 L 144.570312 161.964844 L 144.570312 161.976562 C 143.84375 162.707031 143.277344 163.582031 142.914062 164.566406 L 126.570312 164.566406 C 124.753906 164.566406 123.289062 166.042969 123.289062 167.855469 L 123.289062 231.390625 C 123.289062 233.207031 124.753906 234.675781 126.570312 234.675781 L 244.824219 234.675781 C 246.632812 234.675781 248.105469 233.207031 248.105469 231.390625 L 248.105469 167.855469 C 248.105469 166.042969 246.632812 164.566406 244.824219 164.566406 L 228.480469 164.566406 C 228.15625 163.691406 227.664062 162.886719 227.046875 162.214844 C 226.980469 162.125 226.90625 162.046875 226.824219 161.964844 C 226.308594 161.453125 225.722656 161.015625 225.070312 160.675781 L 225.070312 134.210938 L 280.707031 134.210938 L 280.707031 307.128906 C 280.707031 308.941406 282.175781 310.410156 283.992188 310.410156 C 285.800781 310.410156 287.265625 308.941406 287.265625 307.128906 L 287.265625 101.683594 C 287.265625 99.863281 285.800781 98.394531 283.992188 98.394531 C 282.175781 98.394531 280.707031 99.863281 280.707031 101.683594 L 280.707031 127.632812 Z M 216.460938 194.390625 L 209.957031 194.390625 L 209.957031 189.289062 L 229.332031 189.289062 L 229.332031 194.390625 L 222.828125 194.390625 L 222.828125 209.960938 L 216.460938 209.960938 Z M 187.441406 189.289062 L 193.394531 189.289062 L 201.164062 200.71875 L 201.164062 189.289062 L 207.171875 189.289062 L 207.171875 209.960938 L 201.164062 209.960938 L 193.4375 198.609375 L 193.4375 209.960938 L 187.441406 209.960938 Z M 166.578125 189.289062 L 183.65625 189.289062 L 183.65625 193.703125 L 172.960938 193.703125 L 172.960938 196.984375 L 182.882812 196.984375 L 182.882812 201.203125 L 172.960938 201.203125 L 172.960938 205.273438 L 183.964844 205.273438 L 183.964844 209.960938 L 166.578125 209.960938 Z M 161.917969 191.679688 C 162.554688 192.589844 162.871094 193.710938 162.871094 195.023438 C 162.871094 196.175781 162.628906 197.160156 162.140625 197.988281 C 161.65625 198.824219 160.980469 199.5 160.128906 200.019531 C 159.582031 200.347656 158.835938 200.617188 157.894531 200.832031 C 158.648438 201.089844 159.207031 201.347656 159.554688 201.59375 C 159.785156 201.761719 160.128906 202.128906 160.570312 202.679688 C 161.015625 203.238281 161.320312 203.664062 161.464844 203.96875 L 164.546875 209.960938 L 157.34375 209.960938 L 153.941406 203.636719 C 153.507812 202.820312 153.121094 202.289062 152.78125 202.046875 C 152.324219 201.730469 151.800781 201.566406 151.222656 201.566406 L 150.65625 201.566406 L 150.65625 209.960938 L 144.253906 209.960938 L 144.253906 189.289062 L 154.882812 189.289062 C 156.84375 189.289062 158.359375 189.457031 159.394531 189.792969 C 160.4375 190.128906 161.277344 190.757812 161.917969 191.679688 Z M 156.46875 195.535156 C 156.46875 195.988281 156.335938 196.386719 156.070312 196.730469 C 155.804688 197.078125 155.453125 197.296875 155.035156 197.382812 C 154.195312 197.570312 153.636719 197.660156 153.347656 197.660156 L 150.65625 197.660156 L 150.65625 193.460938 L 153.457031 193.460938 C 154.621094 193.460938 155.414062 193.636719 155.835938 194 C 156.261719 194.355469 156.46875 194.863281 156.46875 195.535156 Z M 144.347656 171.804688 C 144.414062 171.890625 144.488281 171.972656 144.570312 172.054688 C 145.863281 173.339844 147.636719 174.144531 149.609375 174.144531 C 151.445312 174.144531 153.125 173.4375 154.390625 172.277344 C 154.476562 172.210938 154.558594 172.136719 154.640625 172.054688 L 154.640625 172.039062 C 154.914062 171.765625 155.171875 171.460938 155.398438 171.144531 L 215.996094 171.144531 C 216.15625 171.375 216.339844 171.597656 216.527344 171.804688 C 216.601562 171.890625 216.675781 171.972656 216.753906 172.054688 L 216.769531 172.054688 C 218.054688 173.339844 219.828125 174.144531 221.785156 174.144531 C 223.738281 174.144531 225.5 173.355469 226.785156 172.085938 L 226.824219 172.054688 L 226.824219 172.039062 C 227.101562 171.765625 227.355469 171.460938 227.585938 171.144531 L 241.542969 171.144531 L 241.542969 228.101562 L 129.847656 228.101562 L 129.847656 171.144531 L 143.808594 171.144531 C 143.976562 171.375 144.152344 171.597656 144.347656 171.804688 Z M 152.882812 134.210938 L 218.511719 134.210938 L 218.511719 160.683594 C 217.960938 160.96875 217.457031 161.324219 217.003906 161.734375 C 216.917969 161.808594 216.835938 161.882812 216.753906 161.964844 L 216.753906 161.976562 C 216.027344 162.707031 215.457031 163.582031 215.101562 164.566406 L 156.292969 164.566406 C 155.972656 163.691406 155.488281 162.894531 154.867188 162.214844 C 154.792969 162.125 154.71875 162.046875 154.640625 161.964844 L 154.625 161.964844 C 154.121094 161.453125 153.53125 161.019531 152.882812 160.683594 L 152.882812 134.210938 " clip-rule="nonzero"/></clipPath><clipPath id="4bcddec556"><path d="M 284.523438 76.671875 L 82.339844 101.542969 L 110.597656 332.140625 L 312.777344 307.261719 Z M 284.523438 76.671875 " clip-rule="nonzero"/></clipPath><linearGradient x1="0.00613143" gradientTransform="matrix(31.206025, 254.671704, -187.477226, 23.066249, 287.652828, 74.696628)" y1="0" x2="0.911591" gradientUnits="userSpaceOnUse" y2="0" id="1204ec8d03"><stop stop-opacity="1" stop-color="rgb(22.698975%, 51.399231%, 79.199219%)" offset="0"/><stop stop-opacity="1" stop-color="rgb(22.698975%, 51.200867%, 79.199219%)" offset="0.00390625"/><stop stop-opacity="1" stop-color="rgb(22.698975%, 51.004028%, 79.199219%)" offset="0.0078125"/><stop stop-opacity="1" stop-color="rgb(22.698975%, 50.813293%, 79.011536%)" offset="0.015625"/><stop stop-opacity="1" stop-color="rgb(22.698975%, 50.38147%, 78.611755%)" offset="0.0195312"/><stop stop-opacity="1" stop-color="rgb(22.698975%, 50.141907%, 78.399658%)" offset="0.0234375"/><stop stop-opacity="1" stop-color="rgb(22.698975%, 49.769592%, 78.399658%)" offset="0.0273438"/><stop stop-opacity="1" stop-color="rgb(22.698975%, 49.398804%, 78.399658%)" offset="0.03125"/><stop stop-opacity="1" stop-color="rgb(22.698975%, 49.198914%, 78.199768%)" offset="0.0351563"/><stop stop-opacity="1" stop-color="rgb(22.698975%, 48.999023%, 77.999878%)" offset="0.0390625"/><stop stop-opacity="1" stop-color="rgb(22.698975%, 48.799133%, 77.999878%)" offset="0.0429688"/><stop stop-opacity="1" stop-color="rgb(22.698975%, 48.600769%, 77.999878%)" offset="0.046875"/><stop stop-opacity="1" stop-color="rgb(22.698975%, 48.399353%, 77.798462%)" offset="0.0507813"/><stop stop-opacity="1" stop-color="rgb(22.698975%, 48.199463%, 77.598572%)" offset="0.0546875"/><stop stop-opacity="1" stop-color="rgb(22.698975%, 47.86377%, 77.449036%)" offset="0.0585938"/><stop stop-opacity="1" stop-color="rgb(22.698975%, 47.528076%, 77.2995%)" offset="0.0625"/><stop stop-opacity="1" stop-color="rgb(22.718811%, 47.312927%, 77.099609%)" offset="0.0664062"/><stop stop-opacity="1" stop-color="rgb(22.740173%, 47.099304%, 76.899719%)" offset="0.0703125"/><stop stop-opacity="1" stop-color="rgb(22.918701%, 46.899414%, 76.887512%)" offset="0.0742188"/><stop stop-opacity="1" stop-color="rgb(23.098755%, 46.699524%, 76.876831%)" offset="0.078125"/><stop stop-opacity="1" stop-color="rgb(23.098755%, 46.498108%, 76.686096%)" offset="0.0820313"/><stop stop-opacity="1" stop-color="rgb(23.098755%, 46.296692%, 76.495361%)" offset="0.0859375"/><stop stop-opacity="1" stop-color="rgb(23.098755%, 46.098328%, 76.296997%)" offset="0.0898438"/><stop stop-opacity="1" stop-color="rgb(23.098755%, 45.899963%, 76.098633%)" offset="0.09375"/><stop stop-opacity="1" stop-color="rgb(23.298645%, 45.698547%, 76.098633%)" offset="0.0976563"/><stop stop-opacity="1" stop-color="rgb(23.498535%, 45.498657%, 76.098633%)" offset="0.101563"/><stop stop-opacity="1" stop-color="rgb(23.698425%, 45.275879%, 75.898743%)" offset="0.105469"/><stop stop-opacity="1" stop-color="rgb(23.899841%, 45.053101%, 75.698853%)" offset="0.109375"/><stop stop-opacity="1" stop-color="rgb(24.099731%, 44.662476%, 75.68512%)" offset="0.113281"/><stop stop-opacity="1" stop-color="rgb(24.299622%, 44.273376%, 75.672913%)" offset="0.117188"/><stop stop-opacity="1" stop-color="rgb(24.499512%, 44.082642%, 75.482178%)" offset="0.121094"/><stop stop-opacity="1" stop-color="rgb(24.699402%, 43.891907%, 75.291443%)" offset="0.125"/><stop stop-opacity="1" stop-color="rgb(24.893188%, 43.695068%, 75.094604%)" offset="0.128906"/><stop stop-opacity="1" stop-color="rgb(25.086975%, 43.499756%, 74.899292%)" offset="0.132813"/><stop stop-opacity="1" stop-color="rgb(25.27771%, 43.299866%, 74.899292%)" offset="0.136719"/><stop stop-opacity="1" stop-color="rgb(25.468445%, 43.099976%, 74.899292%)" offset="0.140625"/><stop stop-opacity="1" stop-color="rgb(25.508118%, 42.724609%, 74.499512%)" offset="0.144531"/><stop stop-opacity="1" stop-color="rgb(25.549316%, 42.349243%, 74.099731%)" offset="0.148438"/><stop stop-opacity="1" stop-color="rgb(25.723267%, 42.158508%, 74.084473%)" offset="0.15625"/><stop stop-opacity="1" stop-color="rgb(26.104736%, 41.583252%, 73.878479%)" offset="0.160156"/><stop stop-opacity="1" stop-color="rgb(26.31073%, 41.19873%, 73.687744%)" offset="0.164063"/><stop stop-opacity="1" stop-color="rgb(26.504517%, 41.003418%, 73.492432%)" offset="0.171875"/><stop stop-opacity="1" stop-color="rgb(27.085876%, 40.603638%, 73.098755%)" offset="0.175781"/><stop stop-opacity="1" stop-color="rgb(27.471924%, 40.39917%, 72.898865%)" offset="0.179688"/><stop stop-opacity="1" stop-color="rgb(27.618408%, 40.19928%, 72.721863%)" offset="0.183594"/><stop stop-opacity="1" stop-color="rgb(27.764893%, 39.99939%, 72.546387%)" offset="0.1875"/><stop stop-opacity="1" stop-color="rgb(28.181458%, 39.581299%, 72.372437%)" offset="0.191406"/><stop stop-opacity="1" stop-color="rgb(28.599548%, 39.164734%, 72.198486%)" offset="0.195313"/><stop stop-opacity="1" stop-color="rgb(28.807068%, 38.973999%, 71.998596%)" offset="0.199219"/><stop stop-opacity="1" stop-color="rgb(29.014587%, 38.78479%, 71.798706%)" offset="0.203125"/><stop stop-opacity="1" stop-color="rgb(29.206848%, 38.591003%, 71.798706%)" offset="0.210938"/><stop stop-opacity="1" stop-color="rgb(29.786682%, 38.009644%, 71.598816%)" offset="0.214844"/><stop stop-opacity="1" stop-color="rgb(30.175781%, 37.62207%, 71.398926%)" offset="0.21875"/><stop stop-opacity="1" stop-color="rgb(30.36499%, 37.475586%, 71.220398%)" offset="0.226563"/><stop stop-opacity="1" stop-color="rgb(30.796814%, 37.095642%, 71.000671%)" offset="0.230469"/><stop stop-opacity="1" stop-color="rgb(31.037903%, 36.860657%, 70.960999%)" offset="0.234375"/><stop stop-opacity="1" stop-color="rgb(31.427002%, 36.669922%, 70.770264%)" offset="0.238281"/><stop stop-opacity="1" stop-color="rgb(31.817627%, 36.480713%, 70.581055%)" offset="0.242188"/><stop stop-opacity="1" stop-color="rgb(32.008362%, 36.289978%, 70.39032%)" offset="0.25"/><stop stop-opacity="1" stop-color="rgb(32.539368%, 35.899353%, 70.00885%)" offset="0.253906"/><stop stop-opacity="1" stop-color="rgb(32.879639%, 35.699463%, 69.818115%)" offset="0.257812"/><stop stop-opacity="1" stop-color="rgb(33.088684%, 35.499573%, 69.80896%)" offset="0.261719"/><stop stop-opacity="1" stop-color="rgb(33.299255%, 35.299683%, 69.799805%)" offset="0.265625"/><stop stop-opacity="1" stop-color="rgb(33.720398%, 34.898376%, 69.598389%)" offset="0.269531"/><stop stop-opacity="1" stop-color="rgb(34.141541%, 34.498596%, 69.398499%)" offset="0.273438"/><stop stop-opacity="1" stop-color="rgb(34.53064%, 34.286499%, 69.198608%)" offset="0.277344"/><stop stop-opacity="1" stop-color="rgb(34.921265%, 34.075928%, 68.998718%)" offset="0.28125"/><stop stop-opacity="1" stop-color="rgb(35.112%, 33.885193%, 68.798828%)" offset="0.285156"/><stop stop-opacity="1" stop-color="rgb(35.302734%, 33.695984%, 68.598938%)" offset="0.289063"/><stop stop-opacity="1" stop-color="rgb(35.693359%, 33.305359%, 68.598938%)" offset="0.292969"/><stop stop-opacity="1" stop-color="rgb(36.083984%, 32.914734%, 68.598938%)" offset="0.296875"/><stop stop-opacity="1" stop-color="rgb(36.473083%, 32.723999%, 68.399048%)" offset="0.300781"/><stop stop-opacity="1" stop-color="rgb(36.863708%, 32.53479%, 68.199158%)" offset="0.304688"/><stop stop-opacity="1" stop-color="rgb(37.210083%, 32.38678%, 68.025208%)" offset="0.308594"/><stop stop-opacity="1" stop-color="rgb(37.557983%, 32.240295%, 67.852783%)" offset="0.3125"/><stop stop-opacity="1" stop-color="rgb(37.9776%, 32.00531%, 67.816162%)" offset="0.316406"/><stop stop-opacity="1" stop-color="rgb(38.398743%, 31.771851%, 67.779541%)" offset="0.320312"/><stop stop-opacity="1" stop-color="rgb(38.601685%, 31.581116%, 67.63916%)" offset="0.324219"/><stop stop-opacity="1" stop-color="rgb(38.806152%, 31.391907%, 67.498779%)" offset="0.328125"/><stop stop-opacity="1" stop-color="rgb(39.390564%, 31.001282%, 67.304993%)" offset="0.332031"/><stop stop-opacity="1" stop-color="rgb(39.974976%, 30.610657%, 67.111206%)" offset="0.335938"/><stop stop-opacity="1" stop-color="rgb(40.187073%, 30.419922%, 67.105103%)" offset="0.339844"/><stop stop-opacity="1" stop-color="rgb(40.39917%, 30.230713%, 67.098999%)" offset="0.34375"/><stop stop-opacity="1" stop-color="rgb(40.77301%, 30.213928%, 66.923523%)" offset="0.347656"/><stop stop-opacity="1" stop-color="rgb(41.148376%, 30.198669%, 66.749573%)" offset="0.351563"/><stop stop-opacity="1" stop-color="rgb(41.589355%, 29.78363%, 66.708374%)" offset="0.355469"/><stop stop-opacity="1" stop-color="rgb(42.030334%, 29.368591%, 66.668701%)" offset="0.359375"/><stop stop-opacity="1" stop-color="rgb(42.370605%, 29.177856%, 66.477966%)" offset="0.363281"/><stop stop-opacity="1" stop-color="rgb(42.710876%, 28.987122%, 66.287231%)" offset="0.367188"/><stop stop-opacity="1" stop-color="rgb(43.101501%, 28.596497%, 66.093445%)" offset="0.371094"/><stop stop-opacity="1" stop-color="rgb(43.492126%, 28.207397%, 65.899658%)" offset="0.375"/><stop stop-opacity="1" stop-color="rgb(43.695068%, 28.20282%, 65.899658%)" offset="0.378906"/><stop stop-opacity="1" stop-color="rgb(43.899536%, 28.199768%, 65.899658%)" offset="0.382813"/><stop stop-opacity="1" stop-color="rgb(44.276428%, 28.022766%, 65.899658%)" offset="0.386719"/><stop stop-opacity="1" stop-color="rgb(44.65332%, 27.845764%, 65.899658%)" offset="0.390625"/><stop stop-opacity="1" stop-color="rgb(45.275879%, 27.655029%, 65.681458%)" offset="0.394531"/><stop stop-opacity="1" stop-color="rgb(45.899963%, 27.464294%, 65.464783%)" offset="0.398438"/><stop stop-opacity="1" stop-color="rgb(46.107483%, 27.081299%, 65.281677%)" offset="0.402344"/><stop stop-opacity="1" stop-color="rgb(46.315002%, 26.699829%, 65.098572%)" offset="0.40625"/><stop stop-opacity="1" stop-color="rgb(46.704102%, 26.699829%, 65.098572%)" offset="0.410156"/><stop stop-opacity="1" stop-color="rgb(47.094727%, 26.699829%, 65.098572%)" offset="0.414063"/><stop stop-opacity="1" stop-color="rgb(47.438049%, 26.31073%, 64.898682%)" offset="0.417969"/><stop stop-opacity="1" stop-color="rgb(47.781372%, 25.921631%, 64.698792%)" offset="0.421875"/><stop stop-opacity="1" stop-color="rgb(48.168945%, 25.730896%, 64.520264%)" offset="0.425781"/><stop stop-opacity="1" stop-color="rgb(48.556519%, 25.541687%, 64.341736%)" offset="0.429688"/><stop stop-opacity="1" stop-color="rgb(48.947144%, 25.320435%, 64.320374%)" offset="0.433594"/><stop stop-opacity="1" stop-color="rgb(49.337769%, 25.099182%, 64.299011%)" offset="0.4375"/><stop stop-opacity="1" stop-color="rgb(49.777222%, 24.888611%, 64.099121%)" offset="0.441406"/><stop stop-opacity="1" stop-color="rgb(50.218201%, 24.679565%, 63.899231%)" offset="0.445312"/><stop stop-opacity="1" stop-color="rgb(50.608826%, 24.488831%, 63.899231%)" offset="0.449219"/><stop stop-opacity="1" stop-color="rgb(50.999451%, 24.299622%, 63.899231%)" offset="0.453125"/><stop stop-opacity="1" stop-color="rgb(51.199341%, 24.108887%, 63.899231%)" offset="0.457031"/><stop stop-opacity="1" stop-color="rgb(51.399231%, 23.918152%, 63.899231%)" offset="0.460938"/><stop stop-opacity="1" stop-color="rgb(51.779175%, 23.727417%, 63.717651%)" offset="0.464844"/><stop stop-opacity="1" stop-color="rgb(52.160645%, 23.538208%, 63.537598%)" offset="0.46875"/><stop stop-opacity="1" stop-color="rgb(52.330017%, 23.347473%, 63.517761%)" offset="0.476563"/><stop stop-opacity="1" stop-color="rgb(53.109741%, 22.927856%, 63.299561%)" offset="0.480469"/><stop stop-opacity="1" stop-color="rgb(53.721619%, 22.698975%, 63.09967%)" offset="0.484375"/><stop stop-opacity="1" stop-color="rgb(53.912354%, 22.549438%, 63.09967%)" offset="0.492188"/><stop stop-opacity="1" stop-color="rgb(54.493713%, 22.206116%, 63.09967%)" offset="0.496094"/><stop stop-opacity="1" stop-color="rgb(54.884338%, 22.013855%, 63.09967%)" offset="0.5"/><stop stop-opacity="1" stop-color="rgb(55.091858%, 22.006226%, 62.89978%)" offset="0.503906"/><stop stop-opacity="1" stop-color="rgb(55.299377%, 21.998596%, 62.69989%)" offset="0.507812"/><stop stop-opacity="1" stop-color="rgb(55.671692%, 21.798706%, 62.69989%)" offset="0.511719"/><stop stop-opacity="1" stop-color="rgb(56.045532%, 21.598816%, 62.69989%)" offset="0.515625"/><stop stop-opacity="1" stop-color="rgb(56.471252%, 21.398926%, 62.69989%)" offset="0.519531"/><stop stop-opacity="1" stop-color="rgb(56.898499%, 21.199036%, 62.69989%)" offset="0.523438"/><stop stop-opacity="1" stop-color="rgb(57.10144%, 21.194458%, 62.696838%)" offset="0.527344"/><stop stop-opacity="1" stop-color="rgb(57.304382%, 21.191406%, 62.693787%)" offset="0.53125"/><stop stop-opacity="1" stop-color="rgb(57.646179%, 20.800781%, 62.545776%)" offset="0.535156"/><stop stop-opacity="1" stop-color="rgb(57.987976%, 20.410156%, 62.399292%)" offset="0.539062"/><stop stop-opacity="1" stop-color="rgb(58.378601%, 20.404053%, 62.399292%)" offset="0.542969"/><stop stop-opacity="1" stop-color="rgb(58.769226%, 20.399475%, 62.399292%)" offset="0.546875"/><stop stop-opacity="1" stop-color="rgb(58.958435%, 20.199585%, 62.199402%)" offset="0.550781"/><stop stop-opacity="1" stop-color="rgb(59.14917%, 19.999695%, 61.999512%)" offset="0.554687"/><stop stop-opacity="1" stop-color="rgb(59.539795%, 19.799805%, 61.999512%)" offset="0.558594"/><stop stop-opacity="1" stop-color="rgb(59.93042%, 19.599915%, 61.999512%)" offset="0.5625"/><stop stop-opacity="1" stop-color="rgb(60.369873%, 19.393921%, 61.799622%)" offset="0.566406"/><stop stop-opacity="1" stop-color="rgb(60.810852%, 19.187927%, 61.599731%)" offset="0.570312"/><stop stop-opacity="1" stop-color="rgb(61.004639%, 18.992615%, 61.599731%)" offset="0.578125"/><stop stop-opacity="1" stop-color="rgb(61.585999%, 18.798828%, 61.599731%)" offset="0.582031"/><stop stop-opacity="1" stop-color="rgb(61.972046%, 18.798828%, 61.599731%)" offset="0.585938"/><stop stop-opacity="1" stop-color="rgb(62.185669%, 18.598938%, 61.599731%)" offset="0.589844"/><stop stop-opacity="1" stop-color="rgb(62.399292%, 18.399048%, 61.599731%)" offset="0.59375"/><stop stop-opacity="1" stop-color="rgb(62.716675%, 18.199158%, 61.399841%)" offset="0.597656"/><stop stop-opacity="1" stop-color="rgb(63.034058%, 17.999268%, 61.199951%)" offset="0.601562"/><stop stop-opacity="1" stop-color="rgb(63.07373%, 17.991638%, 61.199951%)" offset="0.609375"/><stop stop-opacity="1" stop-color="rgb(63.505554%, 17.642212%, 61.199951%)" offset="0.613281"/><stop stop-opacity="1" stop-color="rgb(63.896179%, 17.301941%, 61.199951%)" offset="0.617188"/><stop stop-opacity="1" stop-color="rgb(64.285278%, 17.300415%, 61.199951%)" offset="0.621094"/><stop stop-opacity="1" stop-color="rgb(64.675903%, 17.298889%, 61.199951%)" offset="0.625"/><stop stop-opacity="1" stop-color="rgb(64.866638%, 17.120361%, 60.998535%)" offset="0.628906"/><stop stop-opacity="1" stop-color="rgb(65.057373%, 16.941833%, 60.798645%)" offset="0.632812"/><stop stop-opacity="1" stop-color="rgb(65.278625%, 16.920471%, 60.798645%)" offset="0.636719"/><stop stop-opacity="1" stop-color="rgb(65.499878%, 16.899109%, 60.798645%)" offset="0.640625"/><stop stop-opacity="1" stop-color="rgb(65.708923%, 16.699219%, 60.798645%)" offset="0.644531"/><stop stop-opacity="1" stop-color="rgb(65.919495%, 16.499329%, 60.798645%)" offset="0.648438"/><stop stop-opacity="1" stop-color="rgb(66.308594%, 16.499329%, 60.798645%)" offset="0.652344"/><stop stop-opacity="1" stop-color="rgb(66.699219%, 16.499329%, 60.798645%)" offset="0.65625"/><stop stop-opacity="1" stop-color="rgb(66.889954%, 16.299438%, 60.798645%)" offset="0.660156"/><stop stop-opacity="1" stop-color="rgb(67.080688%, 16.099548%, 60.798645%)" offset="0.664062"/><stop stop-opacity="1" stop-color="rgb(67.425537%, 15.917969%, 60.598755%)" offset="0.667969"/><stop stop-opacity="1" stop-color="rgb(67.770386%, 15.737915%, 60.398865%)" offset="0.671875"/><stop stop-opacity="1" stop-color="rgb(67.784119%, 15.718079%, 60.398865%)" offset="0.679688"/><stop stop-opacity="1" stop-color="rgb(68.161011%, 15.538025%, 60.398865%)" offset="0.683594"/><stop stop-opacity="1" stop-color="rgb(68.522644%, 15.376282%, 60.398865%)" offset="0.6875"/><stop stop-opacity="1" stop-color="rgb(68.762207%, 15.335083%, 60.398865%)" offset="0.691406"/><stop stop-opacity="1" stop-color="rgb(69.003296%, 15.29541%, 60.398865%)" offset="0.695313"/><stop stop-opacity="1" stop-color="rgb(69.200134%, 15.097046%, 60.206604%)" offset="0.699219"/><stop stop-opacity="1" stop-color="rgb(69.398499%, 14.898682%, 60.014343%)" offset="0.703125"/><stop stop-opacity="1" stop-color="rgb(69.781494%, 14.715576%, 60.006714%)" offset="0.707031"/><stop stop-opacity="1" stop-color="rgb(70.16449%, 14.533997%, 59.999084%)" offset="0.710938"/><stop stop-opacity="1" stop-color="rgb(70.355225%, 14.343262%, 59.825134%)" offset="0.71875"/><stop stop-opacity="1" stop-color="rgb(70.736694%, 13.961792%, 59.625244%)" offset="0.726562"/><stop stop-opacity="1" stop-color="rgb(71.166992%, 13.734436%, 59.599304%)" offset="0.730469"/><stop stop-opacity="1" stop-color="rgb(71.408081%, 13.699341%, 59.599304%)" offset="0.734375"/><stop stop-opacity="1" stop-color="rgb(71.603394%, 13.699341%, 59.599304%)" offset="0.742188"/><stop stop-opacity="1" stop-color="rgb(71.998596%, 13.699341%, 59.599304%)" offset="0.746094"/><stop stop-opacity="1" stop-color="rgb(72.198486%, 13.699341%, 59.599304%)" offset="0.75"/><stop stop-opacity="1" stop-color="rgb(72.329712%, 13.499451%, 59.599304%)" offset="0.753906"/><stop stop-opacity="1" stop-color="rgb(72.462463%, 13.299561%, 59.599304%)" offset="0.757812"/><stop stop-opacity="1" stop-color="rgb(72.480774%, 13.299561%, 59.599304%)" offset="0.765625"/><stop stop-opacity="1" stop-color="rgb(72.898865%, 13.09967%, 59.599304%)" offset="0.769531"/><stop stop-opacity="1" stop-color="rgb(73.298645%, 12.89978%, 59.599304%)" offset="0.773438"/><stop stop-opacity="1" stop-color="rgb(73.495483%, 12.89978%, 59.599304%)" offset="0.777344"/><stop stop-opacity="1" stop-color="rgb(73.692322%, 12.89978%, 59.599304%)" offset="0.78125"/><stop stop-opacity="1" stop-color="rgb(73.695374%, 12.89978%, 59.599304%)" offset="0.789062"/><stop stop-opacity="1" stop-color="rgb(73.899841%, 12.89978%, 59.599304%)" offset="0.792969"/><stop stop-opacity="1" stop-color="rgb(74.099731%, 12.89978%, 59.599304%)" offset="0.796875"/><stop stop-opacity="1" stop-color="rgb(74.299622%, 12.731934%, 59.431458%)" offset="0.800781"/><stop stop-opacity="1" stop-color="rgb(74.499512%, 12.564087%, 59.263611%)" offset="0.804687"/><stop stop-opacity="1" stop-color="rgb(74.656677%, 12.532043%, 59.231567%)" offset="0.8125"/><stop stop-opacity="1" stop-color="rgb(75.056458%, 12.5%, 59.199524%)" offset="0.816406"/><stop stop-opacity="1" stop-color="rgb(75.299072%, 12.5%, 59.199524%)" offset="0.820312"/><stop stop-opacity="1" stop-color="rgb(75.498962%, 12.348938%, 59.199524%)" offset="0.824219"/><stop stop-opacity="1" stop-color="rgb(75.698853%, 12.199402%, 59.199524%)" offset="0.828125"/><stop stop-opacity="1" stop-color="rgb(75.698853%, 12.199402%, 59.199524%)" offset="0.835938"/><stop stop-opacity="1" stop-color="rgb(76.068115%, 11.999512%, 59.199524%)" offset="0.839844"/><stop stop-opacity="1" stop-color="rgb(76.438904%, 11.799622%, 59.199524%)" offset="0.84375"/><stop stop-opacity="1" stop-color="rgb(76.628113%, 11.799622%, 59.199524%)" offset="0.851562"/><stop stop-opacity="1" stop-color="rgb(76.858521%, 11.598206%, 58.999634%)" offset="0.855469"/><stop stop-opacity="1" stop-color="rgb(76.899719%, 11.398315%, 58.799744%)" offset="0.859375"/><stop stop-opacity="1" stop-color="rgb(77.241516%, 11.198425%, 58.799744%)" offset="0.863281"/><stop stop-opacity="1" stop-color="rgb(77.584839%, 10.998535%, 58.799744%)" offset="0.867188"/><stop stop-opacity="1" stop-color="rgb(77.590942%, 10.998535%, 58.799744%)" offset="0.875"/><stop stop-opacity="1" stop-color="rgb(77.784729%, 10.998535%, 58.799744%)" offset="0.882812"/><stop stop-opacity="1" stop-color="rgb(78.184509%, 10.836792%, 58.799744%)" offset="0.886719"/><stop stop-opacity="1" stop-color="rgb(78.399658%, 10.675049%, 58.799744%)" offset="0.890625"/><stop stop-opacity="1" stop-color="rgb(78.399658%, 10.636902%, 58.799744%)" offset="0.898438"/><stop stop-opacity="1" stop-color="rgb(78.596497%, 10.598755%, 58.799744%)" offset="0.90625"/><stop stop-opacity="1" stop-color="rgb(78.994751%, 10.598755%, 58.799744%)" offset="0.910156"/><stop stop-opacity="1" stop-color="rgb(79.199219%, 10.598755%, 58.799744%)" offset="0.914062"/><stop stop-opacity="1" stop-color="rgb(79.199219%, 10.412598%, 58.799744%)" offset="0.921875"/><stop stop-opacity="1" stop-color="rgb(79.399109%, 10.212708%, 58.599854%)" offset="0.925781"/><stop stop-opacity="1" stop-color="rgb(79.598999%, 10.198975%, 58.399963%)" offset="0.929688"/><stop stop-opacity="1" stop-color="rgb(79.598999%, 10.198975%, 58.399963%)" offset="0.9375"/><stop stop-opacity="1" stop-color="rgb(79.792786%, 10.198975%, 58.399963%)" offset="0.945313"/><stop stop-opacity="1" stop-color="rgb(79.992676%, 10.198975%, 58.399963%)" offset="0.953125"/><stop stop-opacity="1" stop-color="rgb(79.998779%, 10.198975%, 58.399963%)" offset="0.96875"/><stop stop-opacity="1" stop-color="rgb(80.177307%, 10.198975%, 58.399963%)" offset="0.976562"/><stop stop-opacity="1" stop-color="rgb(80.574036%, 10.002136%, 58.399963%)" offset="0.980469"/><stop stop-opacity="1" stop-color="rgb(80.792236%, 9.805298%, 58.399963%)" offset="0.984375"/><stop stop-opacity="1" stop-color="rgb(80.795288%, 9.802246%, 58.399963%)" offset="1"/></linearGradient></defs><g clip-path="url(#9bf87413ca)"><g clip-path="url(#1352bed55d)"><g clip-path="url(#4bcddec556)"><path fill="url(#1204ec8d03)" d="M 284.519531 76.667969 L 82.339844 101.542969 L 110.59375 332.136719 L 312.777344 307.261719 Z M 284.519531 76.667969 " fill-rule="nonzero"/></g></g></g></svg>