<svg xmlns="http://www.w3.org/2000/svg" xmlns:xlink="http://www.w3.org/1999/xlink" width="500" zoomAndPan="magnify" viewBox="0 0 375 374.999991" height="500" preserveAspectRatio="xMidYMid meet" version="1.0"><defs><clipPath id="5120d99e5e"><path d="M 264.148438 188.671875 L 312.75 188.671875 L 312.75 262.03125 L 264.148438 262.03125 Z M 264.148438 188.671875 " clip-rule="nonzero"/></clipPath><clipPath id="2ba8369983"><path d="M 272 190 L 312.757812 190 L 312.757812 229 L 272 229 Z M 272 190 " clip-rule="nonzero"/></clipPath><clipPath id="f01c39ed0b"><path d="M 140.402344 167.777344 L 164.703125 167.777344 L 164.703125 221.507812 L 140.402344 221.507812 Z M 140.402344 167.777344 " clip-rule="nonzero"/></clipPath><clipPath id="347d0fe5b5"><path d="M 174.601562 220.078125 C 171.488281 218.546875 168.28125 217.203125 165.003906 216.0625 L 153.1875 211.945312 L 138.925781 206.976562 C 132.761719 204.828125 127.539062 200.3125 130.585938 192.894531 C 133.410156 186.011719 140.164062 185.820312 146.417969 187.972656 C 152.492188 190.0625 161.003906 194.148438 167.507812 194.996094 C 168.570312 194.578125 173.164062 194.230469 177.328125 193.386719 L 173.140625 141.285156 L 75.246094 131.953125 L 51.046875 202.761719 L 176.441406 240.910156 L 178.269531 221.886719 L 174.601562 220.078125 " clip-rule="nonzero"/></clipPath><clipPath id="6cd6112d0c"><path d="M 62.265625 142.03125 L 163.582031 142.03125 L 163.582031 220.761719 L 62.265625 220.761719 Z M 62.265625 142.03125 " clip-rule="nonzero"/></clipPath><clipPath id="6a063686bc"><path d="M 174.601562 220.078125 C 171.488281 218.546875 168.28125 217.203125 165.003906 216.0625 L 153.1875 211.945312 L 138.925781 206.976562 C 132.761719 204.828125 127.539062 200.3125 130.585938 192.894531 C 133.410156 186.011719 140.164062 185.820312 146.417969 187.972656 C 152.492188 190.0625 161.003906 194.148438 167.507812 194.996094 C 168.570312 194.578125 173.164062 194.230469 177.328125 193.386719 L 173.140625 141.285156 L 75.246094 131.953125 L 51.046875 202.761719 L 176.441406 240.910156 L 178.269531 221.886719 L 174.601562 220.078125 " clip-rule="nonzero"/></clipPath><clipPath id="8658f66355"><path d="M 73 146.507812 L 163.207031 146.507812 L 163.207031 187.550781 L 73 187.550781 Z M 73 146.507812 " clip-rule="nonzero"/></clipPath><clipPath id="a3a109b55b"><path d="M 174.601562 220.078125 C 171.488281 218.546875 168.28125 217.203125 165.003906 216.0625 L 153.1875 211.945312 L 138.925781 206.976562 C 132.761719 204.828125 127.539062 200.3125 130.585938 192.894531 C 133.410156 186.011719 140.164062 185.820312 146.417969 187.972656 C 152.492188 190.0625 161.003906 194.148438 167.507812 194.996094 C 168.570312 194.578125 173.164062 194.230469 177.328125 193.386719 L 173.140625 141.285156 L 75.246094 131.953125 L 51.046875 202.761719 L 176.441406 240.910156 L 178.269531 221.886719 L 174.601562 220.078125 " clip-rule="nonzero"/></clipPath><clipPath id="0241595d6c"><path d="M 69.367188 158.074219 L 159 158.074219 L 159 197.253906 L 69.367188 197.253906 Z M 69.367188 158.074219 " clip-rule="nonzero"/></clipPath><clipPath id="792db414fb"><path d="M 174.601562 220.078125 C 171.488281 218.546875 168.28125 217.203125 165.003906 216.0625 L 153.1875 211.945312 L 138.925781 206.976562 C 132.761719 204.828125 127.539062 200.3125 130.585938 192.894531 C 133.410156 186.011719 140.164062 185.820312 146.417969 187.972656 C 152.492188 190.0625 161.003906 194.148438 167.507812 194.996094 C 168.570312 194.578125 173.164062 194.230469 177.328125 193.386719 L 173.140625 141.285156 L 75.246094 131.953125 L 51.046875 202.761719 L 176.441406 240.910156 L 178.269531 221.886719 L 174.601562 220.078125 " clip-rule="nonzero"/></clipPath><clipPath id="c65ab6be0e"><path d="M 67.5 172.628906 L 90.304688 172.628906 L 90.304688 195.015625 L 67.5 195.015625 Z M 67.5 172.628906 " clip-rule="nonzero"/></clipPath><clipPath id="474ab16874"><path d="M 174.601562 220.078125 C 171.488281 218.546875 168.28125 217.203125 165.003906 216.0625 L 153.1875 211.945312 L 138.925781 206.976562 C 132.761719 204.828125 127.539062 200.3125 130.585938 192.894531 C 133.410156 186.011719 140.164062 185.820312 146.417969 187.972656 C 152.492188 190.0625 161.003906 194.148438 167.507812 194.996094 C 168.570312 194.578125 173.164062 194.230469 177.328125 193.386719 L 173.140625 141.285156 L 75.246094 131.953125 L 51.046875 202.761719 L 176.441406 240.910156 L 178.269531 221.886719 L 174.601562 220.078125 " clip-rule="nonzero"/></clipPath><clipPath id="89a696b422"><path d="M 68.246094 176 L 85.445312 176 L 85.445312 195 L 68.246094 195 Z M 68.246094 176 " clip-rule="nonzero"/></clipPath><clipPath id="832d1608e7"><path d="M 174.601562 220.078125 C 171.488281 218.546875 168.28125 217.203125 165.003906 216.0625 L 153.1875 211.945312 L 138.925781 206.976562 C 132.761719 204.828125 127.539062 200.3125 130.585938 192.894531 C 133.410156 186.011719 140.164062 185.820312 146.417969 187.972656 C 152.492188 190.0625 161.003906 194.148438 167.507812 194.996094 C 168.570312 194.578125 173.164062 194.230469 177.328125 193.386719 L 173.140625 141.285156 L 75.246094 131.953125 L 51.046875 202.761719 L 176.441406 240.910156 L 178.269531 221.886719 L 174.601562 220.078125 " clip-rule="nonzero"/></clipPath><clipPath id="208f6eb8d7"><path d="M 62.265625 142.03125 L 163.582031 142.03125 L 163.582031 220.761719 L 62.265625 220.761719 Z M 62.265625 142.03125 " clip-rule="nonzero"/></clipPath><clipPath id="f28a5bde08"><path d="M 174.601562 220.078125 C 171.488281 218.546875 168.28125 217.203125 165.003906 216.0625 L 153.1875 211.945312 L 138.925781 206.976562 C 132.761719 204.828125 127.539062 200.3125 130.585938 192.894531 C 133.410156 186.011719 140.164062 185.820312 146.417969 187.972656 C 152.492188 190.0625 161.003906 194.148438 167.507812 194.996094 C 168.570312 194.578125 173.164062 194.230469 177.328125 193.386719 L 173.140625 141.285156 L 75.246094 131.953125 L 51.046875 202.761719 L 176.441406 240.910156 L 178.269531 221.886719 L 174.601562 220.078125 " clip-rule="nonzero"/></clipPath><clipPath id="a2eb27d028"><path d="M 125.074219 180.089844 L 131.429688 180.089844 L 131.429688 186.433594 L 125.074219 186.433594 Z M 125.074219 180.089844 " clip-rule="nonzero"/></clipPath><clipPath id="326bfa91d1"><path d="M 174.601562 220.078125 C 171.488281 218.546875 168.28125 217.203125 165.003906 216.0625 L 153.1875 211.945312 L 138.925781 206.976562 C 132.761719 204.828125 127.539062 200.3125 130.585938 192.894531 C 133.410156 186.011719 140.164062 185.820312 146.417969 187.972656 C 152.492188 190.0625 161.003906 194.148438 167.507812 194.996094 C 168.570312 194.578125 173.164062 194.230469 177.328125 193.386719 L 173.140625 141.285156 L 75.246094 131.953125 L 51.046875 202.761719 L 176.441406 240.910156 L 178.269531 221.886719 L 174.601562 220.078125 " clip-rule="nonzero"/></clipPath><clipPath id="283147c386"><path d="M 112.734375 175.613281 L 125.445312 175.613281 L 125.445312 184 L 112.734375 184 Z M 112.734375 175.613281 " clip-rule="nonzero"/></clipPath><clipPath id="8cb4f8d3f2"><path d="M 174.601562 220.078125 C 171.488281 218.546875 168.28125 217.203125 165.003906 216.0625 L 153.1875 211.945312 L 138.925781 206.976562 C 132.761719 204.828125 127.539062 200.3125 130.585938 192.894531 C 133.410156 186.011719 140.164062 185.820312 146.417969 187.972656 C 152.492188 190.0625 161.003906 194.148438 167.507812 194.996094 C 168.570312 194.578125 173.164062 194.230469 177.328125 193.386719 L 173.140625 141.285156 L 75.246094 131.953125 L 51.046875 202.761719 L 176.441406 240.910156 L 178.269531 221.886719 L 174.601562 220.078125 " clip-rule="nonzero"/></clipPath><clipPath id="7af94464db"><path d="M 131.054688 182 L 140.402344 182 L 140.402344 189.417969 L 131.054688 189.417969 Z M 131.054688 182 " clip-rule="nonzero"/></clipPath><clipPath id="821e1388de"><path d="M 174.601562 220.078125 C 171.488281 218.546875 168.28125 217.203125 165.003906 216.0625 L 153.1875 211.945312 L 138.925781 206.976562 C 132.761719 204.828125 127.539062 200.3125 130.585938 192.894531 C 133.410156 186.011719 140.164062 185.820312 146.417969 187.972656 C 152.492188 190.0625 161.003906 194.148438 167.507812 194.996094 C 168.570312 194.578125 173.164062 194.230469 177.328125 193.386719 L 173.140625 141.285156 L 75.246094 131.953125 L 51.046875 202.761719 L 176.441406 240.910156 L 178.269531 221.886719 L 174.601562 220.078125 " clip-rule="nonzero"/></clipPath><clipPath id="f930434c21"><path d="M 140.027344 185.3125 L 144.886719 185.3125 L 144.886719 190.910156 L 140.027344 190.910156 Z M 140.027344 185.3125 " clip-rule="nonzero"/></clipPath><clipPath id="2d33d15563"><path d="M 174.601562 220.078125 C 171.488281 218.546875 168.28125 217.203125 165.003906 216.0625 L 153.1875 211.945312 L 138.925781 206.976562 C 132.761719 204.828125 127.539062 200.3125 130.585938 192.894531 C 133.410156 186.011719 140.164062 185.820312 146.417969 187.972656 C 152.492188 190.0625 161.003906 194.148438 167.507812 194.996094 C 168.570312 194.578125 173.164062 194.230469 177.328125 193.386719 L 173.140625 141.285156 L 75.246094 131.953125 L 51.046875 202.761719 L 176.441406 240.910156 L 178.269531 221.886719 L 174.601562 220.078125 " clip-rule="nonzero"/></clipPath><clipPath id="f40ea2a045"><path d="M 98.15625 183.074219 L 149.746094 183.074219 L 149.746094 215 L 98.15625 215 Z M 98.15625 183.074219 " clip-rule="nonzero"/></clipPath><clipPath id="b3976d2173"><path d="M 174.601562 220.078125 C 171.488281 218.546875 168.28125 217.203125 165.003906 216.0625 L 153.1875 211.945312 L 138.925781 206.976562 C 132.761719 204.828125 127.539062 200.3125 130.585938 192.894531 C 133.410156 186.011719 140.164062 185.820312 146.417969 187.972656 C 152.492188 190.0625 161.003906 194.148438 167.507812 194.996094 C 168.570312 194.578125 173.164062 194.230469 177.328125 193.386719 L 173.140625 141.285156 L 75.246094 131.953125 L 51.046875 202.761719 L 176.441406 240.910156 L 178.269531 221.886719 L 174.601562 220.078125 " clip-rule="nonzero"/></clipPath><clipPath id="da53c3ffff"><path d="M 150.496094 211.058594 L 151.242188 211.058594 L 151.242188 212.550781 L 150.496094 212.550781 Z M 150.496094 211.058594 " clip-rule="nonzero"/></clipPath><clipPath id="308207dda1"><path d="M 174.601562 220.078125 C 171.488281 218.546875 168.28125 217.203125 165.003906 216.0625 L 153.1875 211.945312 L 138.925781 206.976562 C 132.761719 204.828125 127.539062 200.3125 130.585938 192.894531 C 133.410156 186.011719 140.164062 185.820312 146.417969 187.972656 C 152.492188 190.0625 161.003906 194.148438 167.507812 194.996094 C 168.570312 194.578125 173.164062 194.230469 177.328125 193.386719 L 173.140625 141.285156 L 75.246094 131.953125 L 51.046875 202.761719 L 176.441406 240.910156 L 178.269531 221.886719 L 174.601562 220.078125 " clip-rule="nonzero"/></clipPath><clipPath id="4afbfa9c96"><path d="M 129.183594 196.507812 L 151.242188 196.507812 L 151.242188 212.550781 L 129.183594 212.550781 Z M 129.183594 196.507812 " clip-rule="nonzero"/></clipPath><clipPath id="e9fd6bb2d3"><path d="M 174.601562 220.078125 C 171.488281 218.546875 168.28125 217.203125 165.003906 216.0625 L 153.1875 211.945312 L 138.925781 206.976562 C 132.761719 204.828125 127.539062 200.3125 130.585938 192.894531 C 133.410156 186.011719 140.164062 185.820312 146.417969 187.972656 C 152.492188 190.0625 161.003906 194.148438 167.507812 194.996094 C 168.570312 194.578125 173.164062 194.230469 177.328125 193.386719 L 173.140625 141.285156 L 75.246094 131.953125 L 51.046875 202.761719 L 176.441406 240.910156 L 178.269531 221.886719 L 174.601562 220.078125 " clip-rule="nonzero"/></clipPath><clipPath id="487c1d72c5"><path d="M 149 210.3125 L 151.242188 210.3125 L 151.242188 212.550781 L 149 212.550781 Z M 149 210.3125 " clip-rule="nonzero"/></clipPath><clipPath id="1712d3ab6a"><path d="M 174.601562 220.078125 C 171.488281 218.546875 168.28125 217.203125 165.003906 216.0625 L 153.1875 211.945312 L 138.925781 206.976562 C 132.761719 204.828125 127.539062 200.3125 130.585938 192.894531 C 133.410156 186.011719 140.164062 185.820312 146.417969 187.972656 C 152.492188 190.0625 161.003906 194.148438 167.507812 194.996094 C 168.570312 194.578125 173.164062 194.230469 177.328125 193.386719 L 173.140625 141.285156 L 75.246094 131.953125 L 51.046875 202.761719 L 176.441406 240.910156 L 178.269531 221.886719 L 174.601562 220.078125 " clip-rule="nonzero"/></clipPath><clipPath id="3ed8c1bb3a"><path d="M 129.183594 194.269531 L 133.671875 194.269531 L 133.671875 204.71875 L 129.183594 204.71875 Z M 129.183594 194.269531 " clip-rule="nonzero"/></clipPath><clipPath id="f5c1200bac"><path d="M 174.601562 220.078125 C 171.488281 218.546875 168.28125 217.203125 165.003906 216.0625 L 153.1875 211.945312 L 138.925781 206.976562 C 132.761719 204.828125 127.539062 200.3125 130.585938 192.894531 C 133.410156 186.011719 140.164062 185.820312 146.417969 187.972656 C 152.492188 190.0625 161.003906 194.148438 167.507812 194.996094 C 168.570312 194.578125 173.164062 194.230469 177.328125 193.386719 L 173.140625 141.285156 L 75.246094 131.953125 L 51.046875 202.761719 L 176.441406 240.910156 L 178.269531 221.886719 L 174.601562 220.078125 " clip-rule="nonzero"/></clipPath></defs><path fill="#eba971" d="M 154.214844 199.78125 L 155.085938 214.25 C 155.324219 218.207031 152.304688 221.605469 148.339844 221.839844 C 144.378906 222.078125 140.972656 219.066406 140.734375 215.109375 L 139.863281 200.644531 L 154.214844 199.78125 " fill-opacity="1" fill-rule="nonzero"/><path fill="#eba971" d="M 168.941406 205.140625 L 169.8125 219.609375 C 170.050781 223.566406 167.03125 226.964844 163.066406 227.199219 C 159.101562 227.4375 155.699219 224.425781 155.460938 220.46875 L 154.589844 206.003906 L 168.941406 205.140625 " fill-opacity="1" fill-rule="nonzero"/><path fill="#eba971" d="M 180.90625 207.382812 L 181.855469 223.128906 C 182.050781 226.378906 179.570312 229.167969 176.3125 229.363281 C 173.058594 229.558594 170.261719 227.085938 170.066406 223.835938 L 169.117188 208.089844 L 180.90625 207.382812 " fill-opacity="1" fill-rule="nonzero"/><path fill="#cf8b50" d="M 179.640625 222.5625 L 174.601562 220.078125 C 171.488281 218.546875 168.28125 217.203125 165.003906 216.0625 L 153.1875 211.945312 L 140.273438 207.445312 L 140.335938 208.527344 L 153.296875 213.042969 L 155.050781 213.652344 L 165.117188 217.160156 C 166.683594 217.707031 168.238281 218.304688 169.769531 218.941406 C 171.441406 219.636719 173.085938 220.378906 174.710938 221.179688 L 179.75 223.664062 C 180.410156 223.988281 181.082031 224.289062 181.753906 224.59375 C 181.816406 224.269531 181.84375 223.933594 181.851562 223.59375 C 181.113281 223.253906 180.371094 222.921875 179.640625 222.5625 " fill-opacity="1" fill-rule="nonzero"/><path fill="#fabb85" d="M 171.585938 158.875 L 145.996094 172.558594 C 141.921875 174.738281 139.09375 178.679688 138.339844 183.230469 L 138.039062 185.050781 C 136.660156 198.246094 147.882812 210.097656 153.1875 211.945312 L 165.003906 216.0625 C 168.28125 217.203125 171.488281 218.546875 174.601562 220.078125 L 179.640625 222.5625 C 188.503906 226.929688 198.066406 229.710938 207.894531 230.78125 L 218.855469 231.96875 C 225.605469 232.703125 256.554688 237.410156 256.554688 237.410156 L 271.136719 193.222656 C 271.136719 193.222656 218.785156 168.128906 195.449219 157.996094 C 187.804688 154.675781 178.976562 154.921875 171.585938 158.875 " fill-opacity="1" fill-rule="nonzero"/><path fill="#facba3" d="M 138.8125 187.25 L 139.113281 185.429688 C 139.863281 180.878906 142.695312 176.933594 146.769531 174.753906 L 172.355469 161.070312 C 179.746094 157.117188 188.574219 156.875 196.21875 160.191406 C 217.367188 169.375 262.328125 190.839844 270.589844 194.789062 L 271.136719 193.222656 C 271.136719 193.222656 218.785156 168.128906 195.449219 157.996094 C 187.804688 154.675781 178.976562 154.921875 171.585938 158.875 L 145.996094 172.558594 C 141.921875 174.738281 139.09375 178.679688 138.339844 183.230469 L 138.039062 185.050781 C 137.617188 189.085938 138.378906 192.992188 139.78125 196.527344 C 138.890625 193.597656 138.476562 190.464844 138.8125 187.25 " fill-opacity="1" fill-rule="nonzero"/><path fill="#fabb85" d="M 213.804688 195.175781 C 196.832031 189.003906 186.652344 189.820312 182.351562 191.875 C 178.050781 193.933594 169.050781 194.386719 167.507812 194.996094 C 161.003906 194.148438 152.492188 190.0625 146.417969 187.972656 C 140.164062 185.820312 133.410156 186.011719 130.585938 192.894531 C 127.539062 200.3125 132.761719 204.828125 138.925781 206.976562 L 153.1875 211.945312 L 165.003906 216.0625 C 168.28125 217.203125 171.488281 218.546875 174.601562 220.078125 L 179.640625 222.5625 C 188.503906 226.929688 198.066406 229.710938 207.894531 230.78125 L 218.855469 231.96875 C 225.609375 232.703125 258.316406 238.730469 258.316406 238.730469 L 263.976562 213.691406 C 252.296875 209.351562 227.617188 200.195312 213.804688 195.175781 " fill-opacity="1" fill-rule="nonzero"/><path fill="#f2b075" d="M 257.582031 236.679688 C 257.582031 236.679688 224.875 230.652344 218.121094 229.917969 L 207.160156 228.730469 C 197.332031 227.660156 187.769531 224.878906 178.90625 220.515625 L 173.867188 218.027344 C 170.753906 216.496094 167.550781 215.152344 164.273438 214.011719 L 152.457031 209.894531 L 138.191406 204.925781 C 134.632812 203.683594 131.398438 201.648438 129.878906 198.726562 C 130.730469 202.769531 134.585938 205.464844 138.925781 206.976562 L 153.1875 211.945312 L 165.003906 216.0625 C 168.28125 217.203125 171.488281 218.546875 174.601562 220.078125 L 179.640625 222.5625 C 188.503906 226.929688 198.066406 229.710938 207.894531 230.78125 L 218.855469 231.96875 C 225.609375 232.703125 258.316406 238.730469 258.316406 238.730469 L 257.582031 236.679688 " fill-opacity="1" fill-rule="nonzero"/><path fill="#fadabe" d="M 141.503906 202.550781 L 145.574219 193.398438 C 145.921875 192.621094 145.464844 191.769531 144.753906 191.363281 L 141.832031 189.601562 C 138.375 188.089844 134.238281 189.4375 132.558594 192.8125 C 130.765625 196.417969 132.371094 200.742188 136.019531 202.339844 L 139.425781 203.335938 C 140.035156 203.476562 141.15625 203.332031 141.503906 202.550781 " fill-opacity="1" fill-rule="nonzero"/><path fill="#eba66c" d="M 157.683594 194.539062 C 157.683594 194.539062 157.515625 194.757812 157.265625 195.144531 C 157.011719 195.527344 156.675781 196.082031 156.308594 196.753906 C 155.945312 197.433594 155.5625 198.230469 155.179688 199.09375 C 154.804688 199.960938 154.445312 200.902344 154.109375 201.851562 C 153.777344 202.816406 153.480469 203.75 153.230469 204.671875 C 152.992188 205.585938 152.796875 206.449219 152.65625 207.203125 C 152.382812 208.703125 152.34375 209.792969 152.34375 209.792969 C 152.34375 209.792969 152.3125 209.726562 152.253906 209.605469 C 152.191406 209.480469 152.097656 209.300781 152.011719 209.0625 C 151.828125 208.59375 151.621094 207.902344 151.519531 207.074219 C 151.40625 206.242188 151.398438 205.277344 151.511719 204.269531 C 151.617188 203.265625 151.867188 202.1875 152.214844 201.191406 C 152.570312 200.175781 153.042969 199.203125 153.585938 198.34375 C 154.128906 197.484375 154.738281 196.730469 155.34375 196.152344 C 155.941406 195.566406 156.53125 195.15625 156.96875 194.898438 C 157.183594 194.761719 157.367188 194.683594 157.492188 194.625 C 157.617188 194.566406 157.683594 194.539062 157.683594 194.539062 " fill-opacity="1" fill-rule="nonzero"/><path fill="#cf8b50" d="M 166.480469 189.226562 C 163.554688 189.097656 160.640625 189.652344 157.964844 190.84375 L 156.933594 191.320312 L 167.507812 194.996094 L 181.300781 194.101562 C 182.089844 194.070312 182.25 192.972656 181.507812 192.710938 L 175.96875 190.78125 C 173.484375 189.917969 170.886719 189.417969 168.257812 189.304688 L 166.480469 189.226562 " fill-opacity="1" fill-rule="nonzero"/><path fill="#cf8b50" d="M 167.695312 194.113281 C 161.21875 193.210938 152.820312 189.1875 146.804688 187.117188 C 143.808594 186.082031 140.699219 185.601562 137.960938 186.128906 C 137.945312 186.390625 137.953125 186.652344 137.949219 186.917969 C 140.59375 186.503906 143.558594 186.988281 146.417969 187.972656 C 152.496094 190.066406 161.003906 194.152344 167.507812 194.996094 L 167.695312 194.113281 " fill-opacity="1" fill-rule="nonzero"/><path fill="#facba3" d="M 181.269531 194.101562 C 176.65625 195.648438 169.363281 196.070312 167.980469 196.605469 C 161.480469 195.761719 152.96875 191.675781 146.890625 189.582031 C 140.640625 187.429688 133.886719 187.621094 131.058594 194.503906 C 130.195312 196.613281 130 198.496094 130.308594 200.148438 C 129.464844 198.132812 129.421875 195.726562 130.582031 192.894531 C 132.125 189.160156 134.808594 187.394531 137.953125 186.910156 L 137.953125 186.921875 C 139.046875 186.742188 140.199219 186.734375 141.378906 186.839844 C 141.492188 186.851562 141.605469 186.867188 141.722656 186.875 C 142.1875 186.929688 142.671875 187 143.148438 187.09375 C 144.242188 187.296875 145.332031 187.605469 146.417969 187.972656 C 152.492188 190.066406 161.007812 194.152344 167.507812 194.996094 L 181.269531 194.101562 " fill-opacity="1" fill-rule="nonzero"/><path fill="#cf8b50" d="M 267.820312 191.636719 C 261.6875 206.019531 257.035156 222.199219 254.933594 238.109375 C 257.03125 238.492188 258.316406 238.730469 258.316406 238.730469 L 263.097656 217.589844 L 271.136719 193.222656 C 271.136719 193.222656 269.933594 192.644531 267.820312 191.636719 " fill-opacity="1" fill-rule="nonzero"/><path fill="#f2f2f2" d="M 275.582031 248.171875 L 290.171875 194.210938 L 270.800781 188.996094 C 263.304688 205.242188 257.789062 224.496094 256.210938 242.953125 L 275.582031 248.171875 " fill-opacity="1" fill-rule="nonzero"/><path fill="#e6e6e6" d="M 274.480469 212.03125 C 272.167969 210.898438 268.191406 209.402344 264.464844 208.429688 C 266.457031 202.207031 268.78125 196.140625 271.425781 190.324219 L 288.796875 195 L 283.25 215.507812 C 280.105469 214.222656 277.78125 213.644531 274.480469 212.03125 " fill-opacity="1" fill-rule="nonzero"/><path fill="#e6e6e6" d="M 265.96875 237.296875 C 265.789062 236.957031 265.375 236.824219 265.03125 237 C 264.691406 237.175781 264.558594 237.59375 264.738281 237.933594 C 264.910156 238.269531 265.332031 238.402344 265.671875 238.230469 C 266.011719 238.050781 266.144531 237.636719 265.96875 237.296875 Z M 262.527344 239.074219 C 262.703125 239.414062 263.121094 239.546875 263.460938 239.371094 C 263.800781 239.195312 263.933594 238.777344 263.757812 238.4375 C 263.582031 238.097656 263.164062 237.964844 262.824219 238.140625 C 262.484375 238.316406 262.351562 238.734375 262.527344 239.074219 Z M 264.914062 235.269531 C 264.738281 234.929688 264.320312 234.796875 263.980469 234.972656 C 263.640625 235.148438 263.507812 235.566406 263.683594 235.902344 C 263.859375 236.242188 264.277344 236.375 264.617188 236.199219 C 264.957031 236.023438 265.089844 235.605469 264.914062 235.269531 Z M 261.476562 237.046875 C 261.652344 237.386719 262.070312 237.519531 262.410156 237.339844 C 262.75 237.167969 262.882812 236.75 262.707031 236.410156 C 262.53125 236.070312 262.113281 235.9375 261.773438 236.113281 C 261.433594 236.289062 261.300781 236.707031 261.476562 237.046875 Z M 259.914062 239.136719 C 258.824219 237.039062 259.644531 234.457031 261.75 233.371094 C 263.851562 232.28125 266.441406 233.101562 267.53125 235.203125 C 268.621094 237.300781 267.796875 239.886719 265.695312 240.972656 C 263.589844 242.058594 261.003906 241.238281 259.914062 239.136719 " fill-opacity="1" fill-rule="nonzero"/><path fill="#ffffff" d="M 265.773438 237.242188 C 265.597656 236.902344 265.179688 236.769531 264.839844 236.949219 C 264.5 237.121094 264.367188 237.542969 264.542969 237.878906 C 264.71875 238.21875 265.136719 238.351562 265.476562 238.175781 C 265.816406 238 265.949219 237.582031 265.773438 237.242188 Z M 262.332031 239.023438 C 262.507812 239.363281 262.925781 239.496094 263.265625 239.316406 C 263.609375 239.144531 263.742188 238.722656 263.566406 238.386719 C 263.386719 238.046875 262.972656 237.914062 262.628906 238.089844 C 262.289062 238.265625 262.15625 238.683594 262.332031 239.023438 Z M 264.71875 235.214844 C 264.546875 234.875 264.125 234.742188 263.785156 234.921875 C 263.445312 235.09375 263.3125 235.511719 263.488281 235.851562 C 263.664062 236.191406 264.082031 236.324219 264.425781 236.148438 C 264.765625 235.972656 264.898438 235.554688 264.71875 235.214844 Z M 261.28125 236.996094 C 261.457031 237.332031 261.875 237.464844 262.214844 237.289062 C 262.554688 237.113281 262.6875 236.695312 262.511719 236.359375 C 262.335938 236.019531 261.917969 235.886719 261.578125 236.0625 C 261.238281 236.238281 261.105469 236.65625 261.28125 236.996094 Z M 259.71875 239.085938 C 258.628906 236.988281 259.453125 234.40625 261.554688 233.320312 C 263.660156 232.230469 266.246094 233.050781 267.335938 235.152344 C 268.425781 237.25 267.601562 239.832031 265.5 240.917969 C 263.394531 242.007812 260.808594 241.1875 259.71875 239.085938 " fill-opacity="1" fill-rule="nonzero"/><path fill="#e6e6e6" d="M 262.222656 234.308594 C 260.648438 235.121094 260.03125 237.058594 260.847656 238.628906 C 261.328125 239.558594 262.203125 240.140625 263.160156 240.304688 C 262.132812 240.183594 261.183594 239.578125 260.671875 238.59375 C 259.859375 237.019531 260.476562 235.085938 262.050781 234.273438 C 262.695312 233.9375 263.402344 233.855469 264.070312 233.96875 C 263.453125 233.898438 262.816406 234.003906 262.222656 234.308594 " fill-opacity="1" fill-rule="nonzero"/><g clip-path="url(#5120d99e5e)"><path fill="#262626" d="M 312.75 198.792969 L 280.171875 188.949219 C 272.320312 211.328125 268.550781 225.390625 264.367188 247.414062 L 312.75 262.03125 L 312.75 198.792969 " fill-opacity="1" fill-rule="nonzero"/></g><g clip-path="url(#2ba8369983)"><path fill="#424242" d="M 312.75 199.949219 L 280.886719 190.300781 C 277.375 200.351562 274.902344 208.160156 272.742188 215.933594 C 274.769531 216.53125 292.800781 222.226562 312.75 228.65625 L 312.75 199.949219 " fill-opacity="1" fill-rule="nonzero"/></g><g clip-path="url(#f01c39ed0b)"><g clip-path="url(#347d0fe5b5)"><path fill="#cf8b50" d="M 140.734375 215.109375 C 140.910156 218.027344 142.808594 220.425781 145.382812 221.394531 C 147.527344 220.878906 149.378906 219.332031 150.175781 217.097656 L 163.945312 178.421875 C 165.191406 174.914062 163.355469 171.0625 159.84375 169.816406 L 154.597656 167.957031 L 140.734375 215.109375 " fill-opacity="1" fill-rule="nonzero"/></g></g><g clip-path="url(#6cd6112d0c)"><g clip-path="url(#6a063686bc)"><path fill="#fbcb43" d="M 159.03125 168.691406 L 85.210938 142.511719 C 81.699219 141.265625 77.835938 143.097656 76.589844 146.605469 L 62.820312 185.285156 C 61.570312 188.789062 63.40625 192.640625 66.921875 193.890625 L 140.742188 220.066406 C 144.253906 221.3125 148.113281 219.480469 149.363281 215.976562 L 163.132812 177.296875 C 164.382812 173.789062 162.546875 169.9375 159.03125 168.691406 " fill-opacity="1" fill-rule="nonzero"/></g></g><g clip-path="url(#8658f66355)"><g clip-path="url(#a3a109b55b)"><path fill="#333333" d="M 73.003906 156.6875 L 159.546875 187.378906 L 163.089844 177.421875 L 76.546875 146.730469 L 73.003906 156.6875 " fill-opacity="1" fill-rule="nonzero"/></g></g><g clip-path="url(#0241595d6c)"><g clip-path="url(#792db414fb)"><path fill="#fcf6a8" d="M 69.558594 166.347656 L 156.101562 197.039062 L 158.984375 188.949219 L 72.4375 158.253906 L 69.558594 166.347656 " fill-opacity="1" fill-rule="nonzero"/></g></g><g clip-path="url(#c65ab6be0e)"><g clip-path="url(#474ab16874)"><path fill="#fcf6a8" d="M 87.15625 176.507812 L 77.21875 172.980469 C 74.914062 172.164062 72.382812 173.367188 71.566406 175.667969 L 68.035156 185.582031 C 67.214844 187.882812 68.417969 190.410156 70.722656 191.226562 L 80.660156 194.75 C 82.964844 195.566406 85.496094 194.367188 86.3125 192.066406 L 89.84375 182.148438 C 90.664062 179.847656 89.460938 177.324219 87.15625 176.507812 " fill-opacity="1" fill-rule="nonzero"/></g></g><g clip-path="url(#89a696b422)"><g clip-path="url(#832d1608e7)"><path fill="#333333" d="M 84.792969 189.6875 C 83.214844 188.398438 81.523438 187.5625 80.605469 186.5625 L 80.445312 189.46875 L 77.175781 193.515625 L 80.660156 194.75 C 81.691406 195.117188 82.761719 195.058594 83.710938 194.699219 C 84.324219 193.234375 84.855469 191.929688 85.171875 191.101562 C 85.363281 190.597656 85.210938 190.027344 84.792969 189.6875 Z M 80.527344 185.3125 C 81.875 184.664062 83.308594 183.410156 83.851562 181.875 C 84.753906 179.347656 83.601562 177.292969 81.542969 176.5625 C 79.480469 175.828125 77.289062 176.703125 76.386719 179.230469 C 75.839844 180.761719 76.160156 182.636719 76.796875 183.988281 C 76.589844 184.328125 76.351562 184.644531 76.050781 184.890625 L 75.949219 184.90625 L 77.785156 187.121094 L 80.605469 186.5625 L 80.535156 186.480469 C 80.457031 186.101562 80.472656 185.703125 80.527344 185.3125 Z M 76.429688 190.589844 C 75.855469 191.222656 75.210938 191.996094 74.6875 192.632812 L 76.703125 193.347656 C 76.699219 192.523438 76.6875 191.515625 76.644531 190.667969 C 76.988281 190.546875 77.808594 190.113281 78.234375 189.933594 C 78.167969 189.699219 77.890625 187.582031 77.785156 187.121094 C 77.410156 187.410156 75.859375 188.878906 75.65625 189.019531 C 75.875 189.429688 76.234375 190.28125 76.429688 190.589844 Z M 69.5625 185.464844 C 69.285156 186.292969 68.859375 187.683594 68.390625 189.265625 C 68.898438 190.144531 69.691406 190.863281 70.722656 191.226562 L 74.214844 192.464844 L 74.238281 187.269531 L 75.949219 184.90625 C 74.679688 185.082031 72.675781 184.675781 70.617188 184.699219 C 70.136719 184.703125 69.714844 185.011719 69.5625 185.464844 " fill-opacity="1" fill-rule="nonzero"/></g></g><g clip-path="url(#208f6eb8d7)"><g clip-path="url(#f28a5bde08)"><path fill="#f5b400" d="M 147.875 215.449219 C 146.921875 218.128906 143.957031 219.535156 141.273438 218.582031 L 67.449219 192.402344 C 64.761719 191.449219 63.351562 188.492188 64.308594 185.8125 L 78.078125 147.132812 C 79.03125 144.453125 81.996094 143.046875 84.683594 144 L 158.503906 170.179688 C 161.191406 171.132812 162.601562 174.085938 161.644531 176.769531 L 147.875 215.449219 M 159.03125 168.691406 L 85.210938 142.511719 C 81.699219 141.265625 77.835938 143.097656 76.589844 146.605469 L 62.820312 185.285156 C 61.570312 188.789062 63.40625 192.640625 66.921875 193.890625 L 140.742188 220.066406 C 144.253906 221.3125 148.113281 219.480469 149.363281 215.976562 L 163.132812 177.296875 C 164.382812 173.789062 162.546875 169.9375 159.03125 168.691406 " fill-opacity="1" fill-rule="nonzero"/></g></g><g clip-path="url(#a2eb27d028)"><g clip-path="url(#326bfa91d1)"><path fill="#333333" d="M 129.777344 186.101562 L 125.390625 184.542969 L 126.941406 180.199219 L 131.328125 181.753906 L 129.777344 186.101562 " fill-opacity="1" fill-rule="nonzero"/></g></g><g clip-path="url(#283147c386)"><g clip-path="url(#8cb4f8d3f2)"><path fill="#333333" d="M 123.789062 183.972656 L 112.871094 180.097656 L 114.421875 175.75 L 125.339844 179.628906 L 123.789062 183.972656 " fill-opacity="1" fill-rule="nonzero"/></g></g><g clip-path="url(#7af94464db)"><g clip-path="url(#821e1388de)"><path fill="#333333" d="M 138.777344 189.296875 L 131.222656 186.613281 L 132.773438 182.269531 L 140.328125 184.949219 L 138.777344 189.296875 " fill-opacity="1" fill-rule="nonzero"/></g></g><g clip-path="url(#f930434c21)"><g clip-path="url(#2d33d15563)"><path fill="#333333" d="M 143.277344 190.894531 L 140.085938 189.761719 L 141.632812 185.414062 L 144.828125 186.546875 L 143.277344 190.894531 " fill-opacity="1" fill-rule="nonzero"/></g></g><g clip-path="url(#f40ea2a045)"><g clip-path="url(#b3976d2173)"><path fill="#fcf6a8" d="M 136.140625 205.363281 L 146.097656 208.898438 L 147.371094 205.328125 L 137.417969 201.792969 L 136.140625 205.363281 M 133.5 204.425781 L 134.769531 200.851562 L 128.238281 198.535156 L 126.96875 202.101562 L 133.5 204.425781 M 109.3125 202.480469 L 127.042969 208.777344 L 128.316406 205.207031 L 110.585938 198.910156 L 109.3125 202.480469 M 130.308594 209.933594 L 143.992188 214.796875 L 145.265625 211.226562 L 131.582031 206.367188 L 130.308594 209.933594 M 98.425781 198.613281 L 106.820312 201.597656 L 108.09375 198.027344 L 99.695312 195.042969 L 98.425781 198.613281 M 125.59375 197.59375 L 101.800781 189.144531 L 100.527344 192.714844 L 124.320312 201.164062 L 125.59375 197.59375 M 117.378906 188.207031 L 103.847656 183.402344 L 102.574219 186.972656 L 116.105469 191.777344 L 117.378906 188.207031 M 143.664062 197.539062 L 142.390625 201.109375 L 148.144531 203.15625 L 149.417969 199.582031 L 143.664062 197.539062 M 141.484375 196.765625 L 119.554688 188.980469 L 118.285156 192.550781 L 140.210938 200.335938 L 141.484375 196.765625 " fill-opacity="1" fill-rule="nonzero"/></g></g><g clip-path="url(#da53c3ffff)"><g clip-path="url(#308207dda1)"><path fill="#906138" d="M 150.597656 212.511719 L 151.0625 211.203125 L 150.597656 212.511719 " fill-opacity="1" fill-rule="nonzero"/></g></g><g clip-path="url(#4afbfa9c96)"><g clip-path="url(#e9fd6bb2d3)"><path fill="#af8e2f" d="M 150.597656 212.511719 L 151.0625 211.203125 L 150.597656 212.511719 M 149.105469 211.992188 L 138.488281 208.292969 C 135.5625 207.273438 132.851562 205.722656 131.132812 203.585938 L 133.5 204.425781 L 133.578125 204.199219 C 135.070312 205.34375 136.878906 206.25 138.78125 206.921875 C 138.820312 206.9375 138.859375 206.953125 138.894531 206.964844 C 138.898438 206.964844 138.902344 206.964844 138.902344 206.96875 C 138.90625 206.96875 138.910156 206.96875 138.910156 206.96875 C 138.914062 206.972656 138.921875 206.972656 138.925781 206.976562 L 140.273438 207.445312 L 149.570312 210.683594 L 149.105469 211.992188 M 129.960938 199.144531 L 129.269531 198.898438 C 129.21875 198.144531 129.273438 197.351562 129.4375 196.511719 L 129.703125 196.605469 C 129.691406 196.796875 129.6875 196.988281 129.691406 197.175781 C 129.703125 197.867188 129.796875 198.523438 129.960938 199.144531 " fill-opacity="1" fill-rule="nonzero"/></g></g><g clip-path="url(#487c1d72c5)"><g clip-path="url(#1712d3ab6a)"><path fill="#ab7e00" d="M 150.597656 212.511719 L 149.105469 211.992188 L 149.570312 210.683594 L 151.0625 211.203125 L 150.597656 212.511719 " fill-opacity="1" fill-rule="nonzero"/></g></g><g clip-path="url(#3ed8c1bb3a)"><g clip-path="url(#f5c1200bac)"><path fill="#b0ac75" d="M 133.5 204.425781 L 131.132812 203.585938 C 130.066406 202.253906 129.382812 200.695312 129.269531 198.898438 L 129.960938 199.144531 C 130.503906 201.179688 131.828125 202.855469 133.578125 204.199219 L 133.5 204.425781 M 129.703125 196.605469 L 129.4375 196.511719 C 129.570312 195.84375 129.777344 195.144531 130.0625 194.417969 C 129.855469 195.179688 129.738281 195.910156 129.703125 196.605469 " fill-opacity="1" fill-rule="nonzero"/></g></g></svg>