<svg width="24" height="24" viewBox="0 0 24 24" fill="none" xmlns="http://www.w3.org/2000/svg">
<rect y="3.42993" width="24" height="17.1429" rx="2" fill="white"/>
<mask id="mask0_91_1686" style="mask-type:luminance" maskUnits="userSpaceOnUse" x="0" y="3" width="24" height="18">
<rect y="3.42993" width="24" height="17.1429" rx="2" fill="white"/>
</mask>
<g mask="url(#mask0_91_1686)">
<rect y="3.42993" width="24" height="17.1429" fill="url(#paint0_linear_91_1686)"/>
<rect x="11.4285" y="3.42993" width="12.5714" height="17.1429" fill="#08379D"/>
<path fill-rule="evenodd" clip-rule="evenodd" d="M0 20.5728H8V3.42993H0V20.5728Z" fill="#08379D"/>
<path fill-rule="evenodd" clip-rule="evenodd" d="M8 20.5728H16V3.42993H8V20.5728Z" fill="#FFCC50"/>
<path fill-rule="evenodd" clip-rule="evenodd" d="M11.7418 8.98632C11.8755 8.78962 12.1664 8.79232 12.2965 8.99147L12.8495 9.83806C12.9756 10.0311 12.8371 10.2871 12.6065 10.2871C12.4347 10.2871 12.3005 10.4354 12.3176 10.6063L12.5414 12.8441C12.5584 13.0145 12.7018 13.1442 12.8731 13.1442H13.0058C13.0936 13.1442 13.1779 13.1096 13.2403 13.0479L13.6154 12.6768C13.6787 12.6142 13.7143 12.5289 13.7143 12.4398V11.568C13.7143 11.4796 13.6792 11.3948 13.6166 11.3323L13.5242 11.2399C13.349 11.0647 13.4194 10.7663 13.6545 10.688L14.3218 10.4655C14.5625 10.3853 14.801 10.5926 14.7551 10.8421L14.3511 13.0387C14.3385 13.1073 14.3046 13.1703 14.2543 13.2187L13.2396 14.1941C13.1775 14.2538 13.0947 14.2871 13.0086 14.2871H12.9048C12.7207 14.2871 12.5714 14.4363 12.5714 14.6204V15.0966C12.5714 15.2807 12.4222 15.43 12.2381 15.43H11.7619C11.5778 15.43 11.4286 15.2807 11.4286 15.0966V14.6204C11.4286 14.4363 11.2793 14.2871 11.0952 14.2871H10.9952C10.9068 14.2871 10.822 14.252 10.7595 14.1895L9.78564 13.2156C9.73911 13.1691 9.70739 13.1098 9.69449 13.0453L9.2555 10.8503C9.2053 10.5994 9.44496 10.3878 9.68777 10.4687L10.3455 10.688C10.5805 10.7663 10.651 11.0647 10.4758 11.2399L10.3833 11.3323C10.3208 11.3948 10.2857 11.4796 10.2857 11.568V12.4398C10.2857 12.5289 10.3213 12.6142 10.3846 12.6768L10.7597 13.0479C10.8221 13.1096 10.9064 13.1442 10.9942 13.1442H11.1269C11.2982 13.1442 11.4415 13.0145 11.4586 12.8441L11.6828 10.6018C11.6997 10.4333 11.5673 10.2871 11.398 10.2871C11.1682 10.2871 11.032 10.0299 11.1613 9.83989L11.7418 8.98632Z" fill="#262626"/>
</g>
<defs>
<linearGradient id="paint0_linear_91_1686" x1="0" y1="3.42993" x2="0" y2="20.5728" gradientUnits="userSpaceOnUse">
<stop stop-color="#1132C7"/>
<stop offset="1" stop-color="#0522A5"/>
</linearGradient>
</defs>
</svg>
