<svg width="24" height="24" viewBox="0 0 24 24" fill="none" xmlns="http://www.w3.org/2000/svg">
<path d="M20.944 10.8191C20.706 11.0931 20.361 11.2502 20 11.2502H13.992C13.307 11.2502 12.75 10.6932 12.75 10.0082V4.00017C12.75 3.63817 12.907 3.29423 13.182 3.05523C13.453 2.82023 13.817 2.71314 14.162 2.76214C17.817 3.27314 20.726 6.18219 21.238 9.83819C21.287 10.1902 21.18 10.5481 20.944 10.8191ZM18.981 13.6032C18.75 13.3202 18.408 13.1572 18.043 13.1572H12.092C11.403 13.1572 10.842 12.5962 10.842 11.9072V5.95623C10.842 5.59223 10.68 5.25012 10.397 5.01812C10.123 4.79412 9.76698 4.70512 9.42498 4.77312C7.27298 5.20612 5.339 6.51113 4.122 8.35613C2.891 10.2211 2.46902 12.4792 2.93402 14.7122C3.58902 17.8562 6.14198 20.4081 9.28698 21.0641C9.87998 21.1881 10.475 21.2492 11.064 21.2492C12.692 21.2492 14.273 20.7822 15.642 19.8782C17.487 18.6602 18.792 16.7271 19.225 14.5751C19.296 14.2321 19.207 13.8772 18.981 13.6032Z" fill="#121212"/>
</svg>
