<svg width="24" height="18" viewBox="0 0 24 18" fill="none" xmlns="http://www.w3.org/2000/svg">
<rect y="0.429932" width="24" height="17.1429" rx="2" fill="white"/>
<mask id="mask0_91_1625" style="mask-type:luminance" maskUnits="userSpaceOnUse" x="0" y="0" width="24" height="18">
<rect y="0.429932" width="24" height="17.1429" rx="2" fill="white"/>
</mask>
<g mask="url(#mask0_91_1625)">
<path fill-rule="evenodd" clip-rule="evenodd" d="M24 0.429932H0V1.57279H24V0.429932ZM24 2.71565H0V3.8585H24V2.71565ZM0 5.00136H24V6.14422H0V5.00136ZM24 7.28707H0V8.42993H24V7.28707ZM0 9.57279H24V10.7156H0V9.57279ZM24 11.8585H0V13.0014H24V11.8585ZM0 14.1442H24V15.2871H0V14.1442ZM24 16.4299H0V17.5728H24V16.4299Z" fill="#D02F44"/>
<rect y="0.429932" width="10.2857" height="8" fill="#46467F"/>
<g filter="url(#filter0_d_91_1625)">
<path fill-rule="evenodd" clip-rule="evenodd" d="M2.28568 2.14418C2.28568 2.45977 2.02984 2.71561 1.71425 2.71561C1.39866 2.71561 1.14282 2.45977 1.14282 2.14418C1.14282 1.82859 1.39866 1.57275 1.71425 1.57275C2.02984 1.57275 2.28568 1.82859 2.28568 2.14418ZM4.57139 2.14418C4.57139 2.45977 4.31556 2.71561 3.99997 2.71561C3.68437 2.71561 3.42854 2.45977 3.42854 2.14418C3.42854 1.82859 3.68437 1.57275 3.99997 1.57275C4.31556 1.57275 4.57139 1.82859 4.57139 2.14418ZM6.28568 2.71561C6.60127 2.71561 6.85711 2.45977 6.85711 2.14418C6.85711 1.82859 6.60127 1.57275 6.28568 1.57275C5.97009 1.57275 5.71425 1.82859 5.71425 2.14418C5.71425 2.45977 5.97009 2.71561 6.28568 2.71561ZM9.14282 2.14418C9.14282 2.45977 8.88699 2.71561 8.57139 2.71561C8.2558 2.71561 7.99997 2.45977 7.99997 2.14418C7.99997 1.82859 8.2558 1.57275 8.57139 1.57275C8.88699 1.57275 9.14282 1.82859 9.14282 2.14418ZM2.85711 3.85847C3.1727 3.85847 3.42854 3.60263 3.42854 3.28704C3.42854 2.97145 3.1727 2.71561 2.85711 2.71561C2.54152 2.71561 2.28568 2.97145 2.28568 3.28704C2.28568 3.60263 2.54152 3.85847 2.85711 3.85847ZM5.71425 3.28704C5.71425 3.60263 5.45841 3.85847 5.14282 3.85847C4.82723 3.85847 4.57139 3.60263 4.57139 3.28704C4.57139 2.97145 4.82723 2.71561 5.14282 2.71561C5.45841 2.71561 5.71425 2.97145 5.71425 3.28704ZM7.42854 3.85847C7.74413 3.85847 7.99996 3.60263 7.99996 3.28704C7.99996 2.97145 7.74413 2.71561 7.42854 2.71561C7.11295 2.71561 6.85711 2.97145 6.85711 3.28704C6.85711 3.60263 7.11295 3.85847 7.42854 3.85847ZM9.14282 4.4299C9.14282 4.74549 8.88699 5.00133 8.57139 5.00133C8.2558 5.00133 7.99997 4.74549 7.99997 4.4299C7.99997 4.11431 8.2558 3.85847 8.57139 3.85847C8.88699 3.85847 9.14282 4.11431 9.14282 4.4299ZM6.28568 5.00133C6.60127 5.00133 6.85711 4.74549 6.85711 4.4299C6.85711 4.11431 6.60127 3.85847 6.28568 3.85847C5.97009 3.85847 5.71425 4.11431 5.71425 4.4299C5.71425 4.74549 5.97009 5.00133 6.28568 5.00133ZM4.57139 4.4299C4.57139 4.74549 4.31556 5.00133 3.99997 5.00133C3.68437 5.00133 3.42854 4.74549 3.42854 4.4299C3.42854 4.11431 3.68437 3.85847 3.99997 3.85847C4.31556 3.85847 4.57139 4.11431 4.57139 4.4299ZM1.71425 5.00133C2.02984 5.00133 2.28568 4.74549 2.28568 4.4299C2.28568 4.11431 2.02984 3.85847 1.71425 3.85847C1.39866 3.85847 1.14282 4.11431 1.14282 4.4299C1.14282 4.74549 1.39866 5.00133 1.71425 5.00133ZM3.42854 5.57275C3.42854 5.88835 3.1727 6.14418 2.85711 6.14418C2.54152 6.14418 2.28568 5.88835 2.28568 5.57275C2.28568 5.25716 2.54152 5.00133 2.85711 5.00133C3.1727 5.00133 3.42854 5.25716 3.42854 5.57275ZM5.14282 6.14418C5.45841 6.14418 5.71425 5.88835 5.71425 5.57275C5.71425 5.25716 5.45841 5.00133 5.14282 5.00133C4.82723 5.00133 4.57139 5.25716 4.57139 5.57275C4.57139 5.88835 4.82723 6.14418 5.14282 6.14418ZM7.99996 5.57275C7.99996 5.88835 7.74413 6.14418 7.42854 6.14418C7.11295 6.14418 6.85711 5.88835 6.85711 5.57275C6.85711 5.25716 7.11295 5.00133 7.42854 5.00133C7.74413 5.00133 7.99996 5.25716 7.99996 5.57275ZM8.57139 7.28704C8.88699 7.28704 9.14282 7.0312 9.14282 6.71561C9.14282 6.40002 8.88699 6.14418 8.57139 6.14418C8.2558 6.14418 7.99997 6.40002 7.99997 6.71561C7.99997 7.0312 8.2558 7.28704 8.57139 7.28704ZM6.85711 6.71561C6.85711 7.0312 6.60127 7.28704 6.28568 7.28704C5.97009 7.28704 5.71425 7.0312 5.71425 6.71561C5.71425 6.40002 5.97009 6.14418 6.28568 6.14418C6.60127 6.14418 6.85711 6.40002 6.85711 6.71561ZM3.99997 7.28704C4.31556 7.28704 4.57139 7.0312 4.57139 6.71561C4.57139 6.40002 4.31556 6.14418 3.99997 6.14418C3.68437 6.14418 3.42854 6.40002 3.42854 6.71561C3.42854 7.0312 3.68437 7.28704 3.99997 7.28704ZM2.28568 6.71561C2.28568 7.0312 2.02984 7.28704 1.71425 7.28704C1.39866 7.28704 1.14282 7.0312 1.14282 6.71561C1.14282 6.40002 1.39866 6.14418 1.71425 6.14418C2.02984 6.14418 2.28568 6.40002 2.28568 6.71561Z" fill="url(#paint0_linear_91_1625)"/>
</g>
</g>
<defs>
<filter id="filter0_d_91_1625" x="1.14282" y="1.57275" width="8" height="6.71436" filterUnits="userSpaceOnUse" color-interpolation-filters="sRGB">
<feFlood flood-opacity="0" result="BackgroundImageFix"/>
<feColorMatrix in="SourceAlpha" type="matrix" values="0 0 0 0 0 0 0 0 0 0 0 0 0 0 0 0 0 0 127 0" result="hardAlpha"/>
<feOffset dy="1"/>
<feColorMatrix type="matrix" values="0 0 0 0 0 0 0 0 0 0 0 0 0 0 0 0 0 0 0.06 0"/>
<feBlend mode="normal" in2="BackgroundImageFix" result="effect1_dropShadow_91_1625"/>
<feBlend mode="normal" in="SourceGraphic" in2="effect1_dropShadow_91_1625" result="shape"/>
</filter>
<linearGradient id="paint0_linear_91_1625" x1="1.14282" y1="1.57275" x2="1.14282" y2="7.28704" gradientUnits="userSpaceOnUse">
<stop stop-color="white"/>
<stop offset="1" stop-color="#F0F0F0"/>
</linearGradient>
<svg width="24" height="24" viewBox="0 0 24 24" fill="none" xmlns="http://www.w3.org/2000/svg">
<g clip-path="url(#clip0_612_11614)">
<path d="M12 24C18.6274 24 24 18.6274 24 12C24 5.37258 18.6274 0 12 0C5.37258 0 0 5.37258 0 12C0 18.6274 5.37258 24 12 24Z" fill="#F0F0F0"/>
<path d="M11.4778 12.0001H23.9995C23.9995 10.917 23.8551 9.86774 23.5861 8.86963H11.4778V12.0001Z" fill="#D80027"/>
<path d="M11.4778 5.73836H22.2382C21.5036 4.53968 20.5644 3.48016 19.4693 2.60791H11.4778V5.73836Z" fill="#D80027"/>
<path d="M11.9996 23.9998C14.8238 23.9998 17.4196 23.0237 19.4694 21.3911H4.52979C6.57963 23.0237 9.17543 23.9998 11.9996 23.9998Z" fill="#D80027"/>
<path d="M1.76098 18.2598H22.2384C22.8281 17.2975 23.2855 16.2457 23.5863 15.1294H0.413086C0.713883 16.2457 1.17124 17.2975 1.76098 18.2598Z" fill="#D80027"/>
<path d="M5.55863 1.87397H6.65217L5.63498 2.61295L6.02353 3.80869L5.00639 3.0697L3.98925 3.80869L4.32487 2.7757C3.42928 3.52172 2.64431 4.39575 1.99744 5.36963H2.34783L1.70034 5.84002C1.59947 6.0083 1.50272 6.17925 1.41 6.35273L1.71919 7.30434L1.14234 6.88523C0.998953 7.18903 0.867797 7.49967 0.749906 7.81678L1.09055 8.86528H2.34783L1.33064 9.60427L1.71919 10.8L0.702047 10.061L0.0927656 10.5037C0.0317812 10.9939 0 11.4932 0 12H12C12 5.37262 12 4.59131 12 0C9.62944 0 7.41961 0.687656 5.55863 1.87397ZM6.02353 10.8L5.00639 10.061L3.98925 10.8L4.3778 9.60427L3.36061 8.86528H4.61789L5.00639 7.66955L5.39489 8.86528H6.65217L5.63498 9.60427L6.02353 10.8ZM5.63498 6.10861L6.02353 7.30434L5.00639 6.56536L3.98925 7.30434L4.3778 6.10861L3.36061 5.36963H4.61789L5.00639 4.17389L5.39489 5.36963H6.65217L5.63498 6.10861ZM10.3279 10.8L9.31073 10.061L8.29359 10.8L8.68214 9.60427L7.66495 8.86528H8.92223L9.31073 7.66955L9.69923 8.86528H10.9565L9.93933 9.60427L10.3279 10.8ZM9.93933 6.10861L10.3279 7.30434L9.31073 6.56536L8.29359 7.30434L8.68214 6.10861L7.66495 5.36963H8.92223L9.31073 4.17389L9.69923 5.36963H10.9565L9.93933 6.10861ZM9.93933 2.61295L10.3279 3.80869L9.31073 3.0697L8.29359 3.80869L8.68214 2.61295L7.66495 1.87397H8.92223L9.31073 0.678234L9.69923 1.87397H10.9565L9.93933 2.61295Z" fill="#0052B4"/>
</g>
<defs>
<clipPath id="clip0_612_11614">
<rect width="24" height="24" fill="white"/>
</clipPath>
</defs>
</svg>